<?xml version="1.0" standalone="no"?><!DOCTYPE svg PUBLIC "-//W3C//DTD SVG 1.1//EN" "http://www.w3.org/Graphics/SVG/1.1/DTD/svg11.dtd" ><svg xmlns="http://www.w3.org/2000/svg"><metadata></metadata><defs><font id="2.000;HNYI;MiSans-Normal" horiz-adv-x="1000"><font-face font-family="MiSans Normal" font-weight="400" font-stretch="normal" units-per-em="1000" panose-1="0 0 5 0 0 0 0 0 0 0" ascent="1044" descent="-282" x-height="0" bbox="-57 -253 956 869" underline-thickness="50" underline-position="-75" unicode-range="U+0020-ff1f" /><missing-glyph horiz-adv-x="600" d="M520 810 l0 -840 l-440 0 l0 840 l440 0 ZM124 10 l352 0 l0 760 l-352 0 l0 -760 Z" /><glyph glyph-name="A" unicode="A" d="M644 1 l-82 0 l-92 259 l-282 0 l-92 -259 l-82 0 l274 758 l81 0 l275 -758 ZM326 646 l-111 -312 l228 0 l-111 312 l-6 0 Z" /><glyph glyph-name="B" unicode="B" d="M431 397 q81 -11 127 -58.5 q46 -47.5 46 -119.5 q0 -105 -78.5 -161.5 q-78.5 -56.5 -223.5 -56.5 l-222 0 l0 758 l221 0 q128 0 196.5 -50 q68.5 -50 68.5 -142 q0 -61 -36 -104.5 q-36 -43.5 -99 -59.5 l0 -6 ZM157 686 l0 -251 l140 0 q89 0 138.5 34.5 q49.5 34.5 49.5 96.5 q0 58 -50.5 89 q-50.5 31 -143.5 31 l-134 0 ZM291 74 q112 0 172 38.5 q60 38.5 60 111.5 q0 66 -58.5 101.5 q-58.5 35.5 -167.5 35.5 l-140 0 l0 -287 l134 0 Z" /><glyph glyph-name="C" unicode="C" d="M650 115 q-40 -60 -105.5 -94 q-65.5 -34 -146.5 -34 q-102 0 -179 49.5 q-77 49.5 -119.5 139.5 q-42.5 90 -42.5 208 q0 116 42.5 204 q42.5 88 119.5 136.5 q77 48.5 179 48.5 q79 0 146 -34 q67 -34 106 -94 l-62 -44 q-31 45 -84 72 q-53 27 -107 27 q-77 0 -136 -39.5 q-59 -39.5 -91.5 -111 q-32.5 -71.5 -32.5 -165.5 q0 -96 32.5 -169.5 q32.5 -73.5 91.5 -114 q59 -40.5 136 -40.5 q55 0 106 27 q51 27 85 74 l62 -46 Z" /><glyph glyph-name="D" unicode="D" d="M80 1 l0 758 l234 0 q118 0 201 -45.5 q83 -45.5 126.5 -131 q43.5 -85.5 43.5 -202.5 q0 -117 -45.5 -202.5 q-45.5 -85.5 -132 -131 q-86.5 -45.5 -208.5 -45.5 l-219 0 ZM298 74 q148 0 227 79 q79 79 79 227 q0 148 -77 227 q-77 79 -221 79 l-149 0 l0 -612 l141 0 Z" /><glyph glyph-name="E" unicode="E" d="M157 359 l0 -285 l389 0 l0 -73 l-466 0 l0 758 l453 0 l0 -73 l-376 0 l0 -254 l354 0 l0 -73 l-354 0 Z" /><glyph glyph-name="F" unicode="F" d="M157 344 l0 -343 l-77 0 l0 758 l444 0 l0 -73 l-367 0 l0 -268 l340 0 l0 -74 l-340 0 Z" /><glyph glyph-name="G" unicode="G" d="M398 700 q-79 0 -138 -39.5 q-59 -39.5 -91 -112 q-32 -72.5 -32 -168.5 q0 -97 31.5 -169.5 q31.5 -72.5 89 -111.5 q57.5 -39 134.5 -39 q60 0 107.5 24.5 q47.5 24.5 87.5 69.5 l0 170 l-182 0 l0 74 l260 0 l0 -271 q-113 -140 -273 -140 q-103 0 -178.5 47.5 q-75.5 47.5 -116 136.5 q-40.5 89 -40.5 209 q0 120 41.5 209 q41.5 89 118.5 136.5 q77 47.5 181 47.5 q79 0 144.5 -34.5 q65.5 -34.5 106.5 -95.5 l-62 -45 q-34 47 -84.5 74.5 q-50.5 27.5 -104.5 27.5 Z" /><glyph glyph-name="H" unicode="H" d="M556 429 l0 330 l77 0 l0 -758 l-77 0 l0 356 l-399 0 l0 -356 l-77 0 l0 758 l77 0 l0 -330 l399 0 Z" /><glyph glyph-name="I" unicode="I" d="M157 759 l0 -758 l-77 0 l0 758 l77 0 Z" /><glyph glyph-name="J" unicode="J" d="M205 -13 q-69 0 -116 37.5 q-47 37.5 -68 100.5 l74 35 q15 -48 43.5 -74 q28.5 -26 66.5 -26 q52 0 79.5 42 q27.5 42 27.5 120 l0 537 l78 0 l0 -551 q0 -106 -48 -163.5 q-48 -57.5 -137 -57.5 Z" /><glyph glyph-name="K" unicode="K" d="M627 1 l-101 0 l-323 370 l-46 -45 l0 -325 l-77 0 l0 758 l77 0 l0 -334 l337 334 l105 0 l-341 -334 l369 -424 Z" /><glyph glyph-name="L" unicode="L" d="M157 759 l0 -685 l382 0 l0 -73 l-459 0 l0 758 l77 0 Z" /><glyph glyph-name="M" unicode="M" d="M157 0 l-77 0 l0 759 l80 0 l273 -479 l6 0 l273 479 l80 0 l0 -759 l-77 0 l0 608 l-6 0 l-250 -440 l-46 0 l-251 440 l-5 0 l0 -608 Z" /><glyph glyph-name="N" unicode="N" d="M157 1 l-77 0 l0 758 l80 0 l407 -620 l5 0 l0 620 l77 0 l0 -758 l-80 0 l-407 621 l-5 0 l0 -621 Z" /><glyph glyph-name="O" unicode="O" d="M390 -13 q-100 0 -175.5 48.5 q-75.5 48.5 -116.5 137.5 q-41 89 -41 207 q0 118 41 207 q41 89 116 137.5 q75 48.5 176 48.5 q101 0 176.5 -48.5 q75.5 -48.5 116.5 -137.5 q41 -89 41 -207 q0 -118 -41 -207 q-41 -89 -116.5 -137.5 q-75.5 -48.5 -176.5 -48.5 ZM390 60 q76 0 133.5 39.5 q57.5 39.5 89 112 q31.5 72.5 31.5 168.5 q0 96 -31.5 168.5 q-31.5 72.5 -89 112 q-57.5 39.5 -133.5 39.5 q-76 0 -133.5 -39.5 q-57.5 -39.5 -88.5 -112 q-31 -72.5 -31 -168.5 q0 -96 31 -168.5 q31 -72.5 88.5 -112 q57.5 -39.5 133.5 -39.5 Z" /><glyph glyph-name="P" unicode="P" d="M303 759 q136 0 210 -60 q74 -60 74 -170 q0 -111 -71.5 -170.5 q-71.5 -59.5 -205.5 -59.5 l-153 0 l0 -298 l-77 0 l0 758 l223 0 ZM296 371 q101 0 156 41 q55 41 55 117 q0 76 -55 116.5 q-55 40.5 -156 40.5 l-139 0 l0 -315 l139 0 Z" /><glyph glyph-name="Q" unicode="Q" d="M724 380 q0 -94 -26.5 -170.5 q-26.5 -76.5 -75.5 -128.5 l97 -114 l-59 -50 l-98 115 q-74 -46 -172 -46 q-101 0 -176.5 48.5 q-75.5 48.5 -116 137.5 q-40.5 89 -40.5 208 q0 118 40.5 206.5 q40.5 88.5 116 137 q75.5 48.5 176.5 48.5 q101 0 176.5 -48.5 q75.5 -48.5 116.5 -137 q41 -88.5 41 -206.5 ZM390 60 q68 0 121 32 l-75 88 l58 51 l76 -89 q36 42 55 102.5 q19 60.5 19 135.5 q0 96 -31.5 168 q-31.5 72 -89 111.5 q-57.5 39.5 -133.5 39.5 q-76 0 -133.5 -39.5 q-57.5 -39.5 -88.5 -111.5 q-31 -72 -31 -168 q0 -97 31 -169 q31 -72 88.5 -111.5 q57.5 -39.5 133.5 -39.5 Z" /><glyph glyph-name="R" unicode="R" d="M607 1 l-91 0 l-192 325 l-22 0 l-145 0 l0 -325 l-77 0 l0 758 l214 0 q136 0 209.5 -57 q73.5 -57 73.5 -162 q0 -81 -44.5 -132.5 q-44.5 -51.5 -128.5 -71.5 l203 -335 ZM288 400 q101 0 155 36.5 q54 36.5 54 103.5 q0 70 -54 108 q-54 38 -155 38 l-131 0 l0 -286 l131 0 Z" /><glyph glyph-name="S" unicode="S" d="M299 -13 q-86 0 -156.5 37.5 q-70.5 37.5 -112.5 108.5 l66 40 q33 -56 85.5 -84.5 q52.5 -28.5 118.5 -28.5 q51 0 91.5 17 q40.5 17 63.5 47.5 q23 30.5 23 68.5 q0 40 -20 67 q-20 27 -61.5 47.5 q-41.5 20.5 -113.5 40.5 q-76 22 -123.5 44 q-47.5 22 -79.5 63.5 q-32 41.5 -32 108.5 q0 60 32 108 q32 48 90 74.5 q58 26.5 133 26.5 q82 0 143.5 -34 q61.5 -34 101.5 -95 l-61 -44 q-34 46 -82.5 73 q-48.5 27 -103.5 27 q-48 0 -88 -17 q-40 -17 -63 -47 q-23 -30 -23 -66 q0 -46 25.5 -75.5 q25.5 -29.5 64.5 -45.5 q39 -16 103 -33 q75 -21 125.5 -46 q50.5 -25 81 -67 q30.5 -42 30.5 -106 q0 -64 -31.5 -111.5 q-31.5 -47.5 -90 -73 q-58.5 -25.5 -136.5 -25.5 Z" /><glyph glyph-name="T" unicode="T" d="M339 1 l-78 0 l0 685 l-239 0 l0 73 l555 0 l0 -73 l-238 0 l0 -685 Z" /><glyph glyph-name="U" unicode="U" d="M349 60 q89 0 140.5 58.5 q51.5 58.5 51.5 159.5 l0 481 l78 0 l0 -488 q0 -86 -33 -150.5 q-33 -64.5 -94 -99 q-61 -34.5 -143 -34.5 q-82 0 -142.5 34.5 q-60.5 34.5 -93.5 99 q-33 64.5 -33 150.5 l0 488 l77 0 l0 -477 q0 -102 52 -162 q52 -60 140 -60 Z" /><glyph glyph-name="V" unicode="V" d="M288 1 l-274 758 l83 0 l229 -645 l6 0 l229 645 l83 0 l-275 -758 l-81 0 Z" /><glyph glyph-name="W" unicode="W" d="M219 1 l-205 758 l82 0 l165 -618 l6 0 l171 618 l82 0 l172 -618 l5 0 l165 618 l83 0 l-206 -758 l-81 0 l-176 624 l-6 0 l-176 -624 l-81 0 Z" /><glyph glyph-name="X" unicode="X" d="M356 400 l250 -399 l-93 0 l-204 335 l-198 -335 l-94 0 l249 403 l-232 355 l92 0 l190 -295 l181 295 l92 0 l-233 -359 Z" /><glyph glyph-name="Y" unicode="Y" d="M269 307 l-255 452 l89 0 l203 -372 l4 0 l203 372 l90 0 l-256 -452 l0 -306 l-78 0 l0 306 Z" /><glyph glyph-name="Z" unicode="Z" d="M542 700 l-409 -626 l426 0 l0 -73 l-527 0 l0 59 l409 626 l-398 0 l0 73 l499 0 l0 -59 Z" /><glyph glyph-name="a" unicode="a" d="M215 -13 q-78 0 -123 39.5 q-45 39.5 -45 105.5 q0 170 265 170 l78 0 l0 48 q0 58 -34 91.5 q-34 33.5 -93 33.5 q-67 0 -135 -57 l-44 51 q79 74 183 74 q92 0 145 -49 q53 -49 53 -134 l0 -359 l-75 0 l0 80 l-5 0 q-24 -43 -70.5 -68.5 q-46.5 -25.5 -99.5 -25.5 ZM228 55 q37 0 74.5 16.5 q37.5 16.5 62.5 50 q25 33.5 25 80.5 l0 32 l-64 0 q-104 0 -153.5 -24 q-49.5 -24 -49.5 -73 q0 -38 28 -60 q28 -22 77 -22 Z" /><glyph glyph-name="b" unicode="b" d="M73 1 l0 758 l74 0 l0 -313 l5 0 q29 45 74 70.5 q45 25.5 98 25.5 q64 0 115.5 -34.5 q51.5 -34.5 80.5 -95.5 q29 -61 29 -139 q0 -82 -29 -147 q-29 -65 -80.5 -101.5 q-51.5 -36.5 -115.5 -36.5 q-56 0 -100.5 25.5 q-44.5 25.5 -71.5 71.5 l-5 0 l0 -84 l-74 0 ZM144 265 q0 -59 20.5 -106 q20.5 -47 57.5 -73 q37 -26 83 -26 q48 0 86.5 26 q38.5 26 60 73 q21.5 47 21.5 106 q0 59 -21 105.5 q-21 46.5 -59 72.5 q-38 26 -86 26 q-47 0 -84 -26 q-37 -26 -58 -72.5 q-21 -46.5 -21 -105.5 Z" /><glyph glyph-name="c" unicode="c" d="M294 -14 q-75 0 -130.5 35 q-55.5 35 -86 98.5 q-30.5 63.5 -30.5 146.5 q0 82 30.5 144.5 q30.5 62.5 86 97 q55.5 34.5 130.5 34.5 q57 0 110 -30 q53 -30 84 -80 l-58 -41 q-23 38 -60.5 59.5 q-37.5 21.5 -80.5 21.5 q-49 0 -86.5 -26 q-37.5 -26 -58.5 -72.5 q-21 -46.5 -21 -107.5 q0 -62 20.5 -109.5 q20.5 -47.5 58 -74 q37.5 -26.5 86.5 -26.5 q43 0 81 21.5 q38 21.5 61 59.5 l58 -41 q-31 -50 -84 -80 q-53 -30 -110 -30 Z" /><glyph glyph-name="d" unicode="d" d="M524 1 l-74 0 l0 84 l-6 0 q-26 -47 -70 -72.5 q-44 -25.5 -99 -25.5 q-65 0 -117 36.5 q-52 36.5 -81.5 101 q-29.5 64.5 -29.5 145.5 q0 79 29.5 141.5 q29.5 62.5 81.5 97 q52 34.5 117 34.5 q51 0 95 -26 q44 -26 74 -72 l6 0 l0 314 l74 0 l0 -758 ZM452 265 q0 59 -21 106 q-21 47 -58 73 q-37 26 -84 26 q-48 0 -85.5 -26 q-37.5 -26 -59 -72.5 q-21.5 -46.5 -21.5 -106.5 q0 -60 21.5 -106.5 q21.5 -46.5 60 -72.5 q38.5 -26 87.5 -26 q46 0 82.5 26 q36.5 26 57 72.5 q20.5 46.5 20.5 106.5 Z" /><glyph glyph-name="e" unicode="e" d="M511 306 q0 -32 -6 -62 l-382 0 q5 -86 51.5 -137 q46.5 -51 121.5 -51 q44 0 82 21 q38 21 63 61 l59 -40 q-33 -53 -84.5 -81.5 q-51.5 -28.5 -119.5 -28.5 q-76 0 -132.5 33.5 q-56.5 33.5 -86.5 96 q-30 62.5 -30 146.5 q0 85 29 148 q29 63 83 97 q54 34 127 34 q103 0 164 -64.5 q61 -64.5 61 -172.5 ZM435 311 q0 74 -41 119 q-41 45 -108 45 q-64 0 -106.5 -44 q-42.5 -44 -53.5 -120 l309 0 Z" /><glyph glyph-name="f" unicode="f" d="M267 705 q-40 0 -66 -26 q-26 -26 -26 -74 l0 -76 l147 0 l0 -70 l-147 0 l0 -458 l-75 0 l0 458 l-80 0 l0 70 l80 0 l0 78 q0 78 40.5 122 q40.5 44 110.5 44 q43 0 75 -12 l0 -67 q-28 11 -59 11 Z" /><glyph glyph-name="g" unicode="g" d="M286 -251 q-71 0 -129 29 q-58 29 -92 81 l62 42 q25 -39 69 -61 q44 -22 90 -22 q78 0 121 47.5 q43 47.5 43 133.5 l0 86 l-6 0 q-26 -47 -70 -72.5 q-44 -25.5 -99 -25.5 q-64 0 -116 36.5 q-52 36.5 -82 101 q-30 64.5 -30 145.5 q0 79 29.5 141.5 q29.5 62.5 82 97 q52.5 34.5 116.5 34.5 q51 0 95 -26 q44 -26 74 -72 l6 0 l0 83 l74 0 l0 -517 q0 -126 -61.5 -194 q-61.5 -68 -176.5 -68 ZM293 60 q47 0 83 26 q36 26 56 72.5 q20 46.5 20 106.5 q0 59 -20.5 106 q-20.5 47 -57.5 73 q-37 26 -84 26 q-48 0 -86 -26 q-38 -26 -59.5 -72.5 q-21.5 -46.5 -21.5 -106.5 q0 -60 22 -106.5 q22 -46.5 60.5 -72.5 q38.5 -26 87.5 -26 Z" /><glyph glyph-name="h" unicode="h" d="M73 1 l0 758 l74 0 l0 -311 l5 0 q24 43 71 69 q47 26 98 26 q88 0 138 -55 q50 -55 50 -154 l0 -333 l-74 0 l0 321 q0 69 -37.5 111 q-37.5 42 -94.5 42 q-69 0 -112.5 -45.5 q-43.5 -45.5 -43.5 -115.5 l0 -313 l-74 0 Z" /><glyph glyph-name="i" unicode="i" d="M173 721 q0 -24 -14.5 -38 q-14.5 -14 -38.5 -14 q-24 0 -37.5 14 q-13.5 14 -13.5 38 q0 24 13.5 38 q13.5 14 37.5 14 q24 0 38.5 -14 q14.5 -14 14.5 -38 ZM158 529 l0 -529 l-74 0 l0 529 l74 0 Z" /><glyph glyph-name="j" unicode="j" d="M121 669 q-24 0 -37.5 14 q-13.5 14 -13.5 38 q0 24 13.5 38 q13.5 14 37.5 14 q24 0 38.5 -14 q14.5 -14 14.5 -38 q0 -24 -14.5 -38 q-14.5 -14 -38.5 -14 ZM16 -253 q-38 0 -73 11 l0 69 q21 -10 57 -10 q40 0 62.5 26.5 q22.5 26.5 22.5 74.5 l0 611 l74 0 l0 -625 q0 -75 -37 -116 q-37 -41 -106 -41 Z" /><glyph glyph-name="k" unicode="k" d="M494 1 l-93 0 l-206 255 l-48 -45 l0 -210 l-74 0 l0 758 l74 0 l0 -452 l230 222 l104 0 l-233 -223 l246 -305 Z" /><glyph glyph-name="l" unicode="l" d="M73 759 l74 0 l0 -654 q0 -43 42 -43 l28 0 l0 -69 l-44 0 q-100 0 -100 92 l0 674 Z" /><glyph glyph-name="m" unicode="m" d="M73 1 l0 528 l74 0 l0 -79 l5 0 q25 42 65 67.5 q40 25.5 85 25.5 q53 0 91.5 -29.5 q38.5 -29.5 59.5 -84.5 l5 0 q26 53 72.5 83.5 q46.5 30.5 104.5 30.5 q84 0 131 -55.5 q47 -55.5 47 -153.5 l0 -333 l-74 0 l0 321 q0 69 -32.5 111 q-32.5 42 -86.5 42 q-63 0 -101 -44 q-38 -44 -38 -117 l0 -313 l-76 0 l0 321 q0 69 -32.5 111 q-32.5 42 -85.5 42 q-61 0 -100.5 -45 q-39.5 -45 -39.5 -116 l0 -313 l-74 0 Z" /><glyph glyph-name="n" unicode="n" d="M73 1 l0 528 l74 0 l0 -81 l5 0 q24 43 71 69 q47 26 98 26 q88 0 138 -55 q50 -55 50 -154 l0 -333 l-74 0 l0 321 q0 69 -37.5 111 q-37.5 42 -94.5 42 q-69 0 -112.5 -45.5 q-43.5 -45.5 -43.5 -115.5 l0 -313 l-74 0 Z" /><glyph glyph-name="o" unicode="o" d="M287 -13 q-72 0 -126.5 34 q-54.5 34 -84 97 q-29.5 63 -29.5 147 q0 84 29.5 147 q29.5 63 84 97 q54.5 34 126.5 34 q72 0 126.5 -34 q54.5 -34 84 -97 q29.5 -63 29.5 -147 q0 -84 -29.5 -147 q-29.5 -63 -84 -97 q-54.5 -34 -126.5 -34 ZM287 57 q74 0 119 56.5 q45 56.5 45 151.5 q0 95 -45 151.5 q-45 56.5 -119 56.5 q-74 0 -119 -56.5 q-45 -56.5 -45 -151.5 q0 -95 45 -151.5 q45 -56.5 119 -56.5 Z" /><glyph glyph-name="p" unicode="p" d="M73 -238 l0 767 l74 0 l0 -84 l5 0 q29 46 74 72 q45 26 98 26 q64 0 115.5 -34.5 q51.5 -34.5 80.5 -96 q29 -61.5 29 -139.5 q0 -82 -29 -147 q-29 -65 -80.5 -101.5 q-51.5 -36.5 -115.5 -36.5 q-57 0 -101 25 q-44 25 -71 72 l-5 0 l0 -323 l-74 0 ZM144 265 q0 -60 20.5 -106.5 q20.5 -46.5 57 -72.5 q36.5 -26 83.5 -26 q48 0 86.5 26 q38.5 26 60.5 72.5 q22 46.5 22 106.5 q0 59 -21.5 105.5 q-21.5 46.5 -59.5 73 q-38 26.5 -86 26.5 q-47 0 -84 -26.5 q-37 -26.5 -58 -73 q-21 -46.5 -21 -105.5 Z" /><glyph glyph-name="q" unicode="q" d="M524 -239 l-74 0 l0 323 l-6 0 q-25 -46 -69.5 -71.5 q-44.5 -25.5 -99.5 -25.5 q-65 0 -117 36.5 q-52 36.5 -81.5 100.5 q-29.5 64 -29.5 145 q0 79 29.5 141.5 q29.5 62.5 81.5 97 q52 34.5 117 34.5 q51 0 95 -26 q44 -26 74 -72 l6 0 l0 85 l74 0 l0 -768 ZM452 264 q0 60 -21 106.5 q-21 46.5 -58 72.5 q-37 26 -84 26 q-48 0 -85.5 -26 q-37.5 -26 -59 -72.5 q-21.5 -46.5 -21.5 -106.5 q0 -59 22 -106 q22 -47 60.5 -73 q38.5 -26 86.5 -26 q46 0 82.5 26 q36.5 26 57 72.5 q20.5 46.5 20.5 106.5 Z" /><glyph glyph-name="r" unicode="r" d="M73 1 l0 528 l74 0 l0 -106 l5 0 q32 55 84 87.5 q52 32.5 117 32.5 l8 0 l0 -80 l-10 0 q-61 0 -107.5 -22.5 q-46.5 -22.5 -71.5 -59 q-25 -36.5 -25 -76.5 l0 -304 l-74 0 Z" /><glyph glyph-name="s" unicode="s" d="M243 -13 q-75 0 -129 31.5 q-54 31.5 -83 85.5 l63 37 q24 -41 62.5 -63.5 q38.5 -22.5 88.5 -22.5 q54 0 85.5 21.5 q31.5 21.5 31.5 58.5 q0 35 -31 57 q-31 22 -101 37 q-92 22 -137.5 58 q-45.5 36 -45.5 95 q0 74 51.5 117.5 q51.5 43.5 140.5 43.5 q66 0 116.5 -28.5 q50.5 -28.5 83.5 -81.5 l-59 -42 q-26 41 -62.5 62.5 q-36.5 21.5 -79.5 21.5 q-52 0 -83 -23 q-31 -23 -31 -61 q0 -33 33.5 -56 q33.5 -23 100.5 -39 q180 -39 180 -149 q0 -74 -52.5 -117 q-52.5 -43 -142.5 -43 Z" /><glyph glyph-name="t" unicode="t" d="M331 459 l-153 0 l0 -311 q0 -46 23 -71.5 q23 -25.5 64 -25.5 q21 0 54 11 l0 -69 q-27 -11 -69 -11 q-71 0 -109 41.5 q-38 41.5 -38 118.5 l0 317 l-83 0 l0 70 l83 0 l0 165 l75 0 l0 -165 l153 0 l0 -70 Z" /><glyph glyph-name="u" unicode="u" d="M504 529 l0 -528 l-74 0 l0 80 l-6 0 q-24 -43 -70.5 -68.5 q-46.5 -25.5 -98.5 -25.5 q-88 0 -137.5 54.5 q-49.5 54.5 -49.5 153.5 l0 334 l74 0 l0 -322 q0 -70 36.5 -111 q36.5 -41 95.5 -41 q69 0 112.5 45 q43.5 45 43.5 116 l0 313 l74 0 Z" /><glyph glyph-name="v" unicode="v" d="M209 1 l-203 528 l81 0 l161 -434 l6 0 l161 434 l80 0 l-205 -528 l-81 0 Z" /><glyph glyph-name="w" unicode="w" d="M181 1 l-175 528 l82 0 l130 -426 l5 0 l129 426 l81 0 l130 -426 l5 0 l130 426 l81 0 l-174 -528 l-80 0 l-130 428 l-5 0 l-128 -428 l-81 0 Z" /><glyph glyph-name="x" unicode="x" d="M287 269 l186 -268 l-91 0 l-141 214 l-142 -214 l-90 0 l191 275 l-178 253 l90 0 l136 -202 l130 202 l88 0 l-179 -260 Z" /><glyph glyph-name="y" unicode="y" d="M212 1 l-206 528 l84 0 l164 -435 l6 0 l158 435 l84 0 l-297 -768 l-83 0 l90 240 Z" /><glyph glyph-name="z" unicode="z" d="M439 469 l-304 -406 l318 0 l0 -70 l-420 0 l0 60 l305 406 l-300 0 l0 70 l401 0 l0 -60 Z" /><glyph glyph-name="uni4E00" unicode="&#x4e00;" d="M62 457 l875 0 l0 -78 l-875 0 l0 78 Z" /><glyph glyph-name="uni4E0A" unicode="&#x4e0a;" d="M509 481 l0 -422 l428 0 l0 -72 l-870 0 l0 72 l367 0 l0 787 l75 0 l0 -295 l380 0 l0 -70 l-380 0 Z" /><glyph glyph-name="uni4E0B" unicode="&#x4e0b;" d="M66 702 l0 67 l868 0 l0 -67 l-424 0 l0 -763 l-77 0 l0 763 l-367 0 ZM572 548 q72 -52 168 -125.5 q96 -73.5 142 -111.5 l-44 -61 q-53 46 -143.5 117 q-90.5 71 -161.5 123 l39 58 Z" /><glyph glyph-name="uni4E0D" unicode="&#x4e0d;" d="M600 707 q-31 -60 -66 -113 l0 -661 l-72 0 l0 560 q-141 -182 -354 -346 l-45 62 q151 107 267 234.5 q116 127.5 190 263.5 l-429 0 l0 70 l823 0 l0 -70 l-314 0 ZM625 493 q73 -62 163.5 -142.5 q90.5 -80.5 147.5 -134.5 l-50 -59 q-106 109 -303 281 l42 55 Z" /><glyph glyph-name="uni4E0E" unicode="&#x4e0e;" d="M906 633 l-604 0 l-12 -165 l572 0 l-22 -353 q-5 -65 -23.5 -98.5 q-18.5 -33.5 -55 -47 q-36.5 -13.5 -102.5 -13.5 l-177 0 l-13 69 l171 0 q50 0 74.5 7.5 q24.5 7.5 36 30.5 q11.5 23 14.5 71 l12 166 l7 99 l-574 0 l31 434 l75 0 l-9 -133 l599 0 l0 -67 ZM58 259 l644 0 l0 -69 l-644 0 l0 69 Z" /><glyph glyph-name="uni4E13" unicode="&#x4e13;" d="M935 462 l-558 0 q-24 -64 -48 -120 l490 0 l0 -69 l-211 -208 q122 -48 182 -74 l-26 -69 q-105 47 -277 114.5 q-172 67.5 -304 115.5 l23 65 q106 -37 331 -124 l189 183 l-480 0 l0 58 q23 47 54 128 l-236 0 l0 67 l261 0 q22 60 42 128 l-248 0 l0 66 l267 0 q19 63 33 127 l70 -9 l-5 -22 q-12 -54 -24 -96 l421 0 l0 -66 l-440 0 q-14 -49 -40 -128 l534 0 l0 -67 Z" /><glyph glyph-name="uni4E16" unicode="&#x4e16;" d="M793 536 l0 -320 l-363 0 l0 320 l-175 0 l0 -488 l661 0 l0 -71 l-732 0 l0 559 l-122 0 l0 69 l122 0 l0 212 l71 0 l0 -212 l175 0 l0 238 l71 0 l0 -238 l223 0 l0 240 l69 0 l0 -240 l145 0 l0 -69 l-145 0 ZM724 284 l0 252 l-223 0 l0 -252 l223 0 Z" /><glyph glyph-name="uni4E1A" unicode="&#x4e1a;" d="M650 836 l0 -778 l287 0 l0 -68 l-874 0 l0 68 l291 0 l0 778 l69 0 l0 -778 l157 0 l0 778 l70 0 ZM256 225 q-115 309 -164 412 l63 30 q52 -110 167 -410 l-66 -32 ZM915 636 q-33 -88 -85 -212 q-52 -124 -91 -202 l-63 34 q42 81 90.5 198.5 q48.5 117.5 81.5 209.5 l67 -28 Z" /><glyph glyph-name="uni4E1C" unicode="&#x4e1c;" d="M874 335 l-315 0 l0 -269 q0 -64 -30 -89.5 q-30 -25.5 -99 -25.5 l-107 0 l-12 70 l102 0 q32 0 47.5 5 q15.5 5 21.5 17.5 q6 12.5 6 39.5 l0 252 l-338 0 l0 67 q59 88 137 242 l-212 0 l0 67 l245 0 q49 102 65 145 l68 -27 q-13 -36 -52 -118 l516 0 l0 -67 l-549 0 q-36 -72 -73 -139 q-37 -67 -61 -103 l254 0 l0 182 l71 0 l0 -182 l315 0 l0 -67 ZM340 230 q-48 -68 -112.5 -139.5 q-64.5 -71.5 -126.5 -122.5 l-47 58 q61 45 123 113 q62 68 108 137 l55 -46 ZM689 275 q47 -42 120.5 -114.5 q73.5 -72.5 130.5 -131.5 l-50 -53 q-51 57 -125 131 q-74 74 -124 117 l48 51 Z" /><glyph glyph-name="uni4E1D" unicode="&#x4e1d;" d="M104 458 l-14 53 q54 64 115.5 157.5 q61.5 93.5 99.5 168.5 l61 -28 q-35 -65 -90.5 -151.5 q-55.5 -86.5 -95.5 -136.5 l174 15 q53 75 93 145 l56 -30 q-50 -87 -136 -206.5 q-86 -119.5 -142 -183.5 l233 21 l-3 -66 l-324 -28 l-12 59 q83 81 193 231 l-208 -20 ZM498 460 l-12 57 q49 54 112 149.5 q63 95.5 100 169.5 l59 -29 q-35 -66 -89 -151.5 q-54 -85.5 -90 -130.5 l179 17 q56 76 91 132 l55 -31 q-52 -83 -141.5 -199.5 q-89.5 -116.5 -146.5 -177.5 l281 24 l-1 -65 l-377 -29 l-9 57 q92 85 200 225 l-211 -18 ZM52 -18 l0 64 l897 0 l0 -64 l-897 0 Z" /><glyph glyph-name="uni4E2A" unicode="&#x4e2a;" d="M52 437 q129 81 238 190.5 q109 109.5 179 224.5 l60 0 q77 -120 183 -225.5 q106 -105.5 237 -190.5 l-42 -69 q-124 85 -229.5 190 q-105.5 105 -178.5 215 q-74 -113 -179.5 -217.5 q-105.5 -104.5 -228.5 -187.5 l-39 70 ZM462 531 l74 0 l0 -600 l-74 0 l0 600 Z" /><glyph glyph-name="uni4E2D" unicode="&#x4e2d;" d="M533 847 l0 -201 l344 0 l0 -402 l-344 0 l0 -311 l-69 0 l0 311 l-341 0 l0 402 l341 0 l0 201 l69 0 ZM192 577 l0 -264 l272 0 l0 264 l-272 0 ZM533 577 l0 -264 l274 0 l0 264 l-274 0 Z" /><glyph glyph-name="uni4E3A" unicode="&#x4e3a;" d="M874 611 q-4 -92 -13 -271.5 q-9 -179.5 -14 -248.5 q-4 -49 -22 -77 q-18 -28 -54 -39.5 q-36 -11.5 -97 -11.5 l-151 0 l-15 69 l143 0 q50 0 74.5 7 q24.5 7 35.5 25.5 q11 18.5 15 57.5 q6 55 13.5 197.5 q7.5 142.5 10.5 222.5 l-311 0 q-17 -136 -57 -238 q-40 -102 -113.5 -190 q-73.5 -88 -194.5 -178 l-51 55 q114 83 183 163 q69 80 106.5 172.5 q37.5 92.5 54.5 215.5 l-323 0 l0 69 l331 0 l0 2 q4 49 8.5 114.5 q4.5 65.5 6.5 113.5 l72 0 q0 -38 -16 -230 l378 0 ZM298 641 q-22 28 -66 79 q-44 51 -66 74 l49 43 q23 -24 63.5 -69.5 q40.5 -45.5 69.5 -79.5 l-50 -47 ZM656 217 q-23 29 -72.5 84.5 q-49.5 55.5 -75.5 81.5 l49 46 q29 -29 78 -82.5 q49 -53.5 72 -81.5 l-51 -48 Z" /><glyph glyph-name="uni4E3B" unicode="&#x4e3b;" d="M506 678 q-52 95 -89 151 l64 29 q48 -74 89 -149 l-64 -31 ZM535 305 l0 -255 l394 0 l0 -67 l-859 0 l0 67 l394 0 l0 255 l-318 0 l0 69 l318 0 l0 224 l-362 0 l0 69 l795 0 l0 -69 l-362 0 l0 -224 l318 0 l0 -69 l-318 0 Z" /><glyph glyph-name="uni4E48" unicode="&#x4e48;" d="M521 798 q-77 -127 -187.5 -259.5 q-110.5 -132.5 -215.5 -220.5 l-50 58 q107 87 213.5 214 q106.5 127 173.5 248 l66 -40 ZM853 -61 q-35 64 -51 90 l-633 -40 l-19 74 q149 121 294 286.5 q145 165.5 243 321.5 l65 -41 q-92 -142 -228 -297.5 q-136 -155.5 -258 -266.5 l496 31 q-77 130 -138 215 l57 40 q51 -72 119 -178 q68 -106 117 -191 l-64 -44 Z" /><glyph glyph-name="uni4E49" unicode="&#x4e49;" d="M530 572 q-26 50 -69 123.5 q-43 73.5 -70 114.5 l61 36 q53 -82 141 -235 l-63 -39 ZM903 -65 q-126 56 -222 113.5 q-96 57.5 -172 123.5 q-73 -65 -171.5 -121.5 q-98.5 -56.5 -235.5 -116.5 l-40 73 q129 52 224 104.5 q95 52.5 167 113.5 q-93 94 -161 217.5 q-68 123.5 -125 296.5 l67 27 q55 -166 120 -284 q65 -118 152 -206 q85 88 142.5 208.5 q57.5 120.5 99.5 296.5 l71 -25 q-47 -186 -107 -312.5 q-60 -126.5 -149 -220.5 q72 -60 163 -110.5 q91 -50.5 211 -99.5 l-34 -78 Z" /><glyph glyph-name="uni4E4B" unicode="&#x4e4b;" d="M937 48 l-14 -69 l-379 0 q-80 0 -131 9.5 q-51 9.5 -85.5 31 q-34.5 21.5 -68.5 60.5 q-32 39 -46 39 q-8 0 -16 -6 q-8 -6 -27 -27 q-41 -54 -80 -111 l-37 74 q62 86 89 116 q21 23 35 31 q14 8 31 8 q15 0 30 -8 q139 79 284.5 193.5 q145.5 114.5 238.5 209.5 l-623 0 l0 68 l343 0 q-19 49 -70 165 l67 19 q18 -38 42 -93 q24 -55 38 -91 l301 0 l0 -68 q-95 -107 -256 -237 q-161 -130 -312 -217 q32 -38 62.5 -58.5 q30.5 -20.5 73 -29.5 q42.5 -9 111.5 -9 l399 0 Z" /><glyph glyph-name="uni4E50" unicode="&#x4e50;" d="M904 375 l-352 0 l0 -314 q0 -44 -11.5 -67.5 q-11.5 -23.5 -37 -33 q-25.5 -9.5 -73.5 -9.5 l-114 0 l-14 69 l106 0 q32 0 46 4.5 q14 4.5 19 17.5 q5 13 5 42 l0 291 l-348 0 l43 383 q172 8 352.5 24.5 q180.5 16.5 309.5 37.5 l15 -70 q-131 -20 -300 -36 q-169 -16 -311 -23 l-29 -250 l268 0 l0 201 l74 0 l0 -201 l352 0 l0 -66 ZM332 267 q-46 -71 -104.5 -146 q-58.5 -75 -118.5 -135 l-55 45 q62 59 118.5 131 q56.5 72 99.5 143 l60 -38 ZM712 301 q43 -45 110 -126 q67 -81 116 -145 l-56 -47 q-41 58 -107.5 139 q-66.5 81 -115.5 136 l53 43 Z" /><glyph glyph-name="uni4E5D" unicode="&#x4e5d;" d="M938 247 l-6 -180 q-3 -54 -28.5 -75.5 q-25.5 -21.5 -87.5 -21.5 l-91 0 q-54 0 -78.5 25 q-24.5 25 -24.5 86 l0 481 l-225 0 q-5 -170 -30.5 -272 q-25.5 -102 -84.5 -180.5 q-59 -78.5 -178 -177.5 l-48 58 q111 90 165 159.5 q54 69.5 76.5 161.5 q22.5 92 26.5 251 l-243 0 l0 74 l244 0 q2 173 4 209 l74 0 l-5 -209 l298 0 l0 -542 q0 -30 10.5 -42.5 q10.5 -12.5 37.5 -12.5 l59 0 q35 0 48.5 12 q13.5 12 15.5 43 l2 52 q4 88 4 115 l65 -14 Z" /><glyph glyph-name="uni4E66" unicode="&#x4e66;" d="M786 686 l-25 -285 l142 0 q-3 -53 -24 -250 q-7 -66 -43 -93 q-36 -27 -113 -27 l-130 0 l-15 66 l130 0 q53 0 75 17.5 q22 17.5 27 62.5 q16 127 18 156 l-377 0 l0 -403 l-70 0 l0 403 l-318 0 l0 68 l318 0 l0 217 l-253 0 l0 68 l253 0 l0 165 l70 0 l0 -165 l335 0 ZM893 625 q-163 132 -220 171 l41 55 q105 -77 223 -170 l-44 -56 ZM712 618 l-261 0 l0 -217 l242 0 l19 217 Z" /><glyph glyph-name="uni4E86" unicode="&#x4e86;" d="M96 772 l784 0 l0 -70 l-336 -238 l0 -385 q0 -49 -12.5 -75 q-12.5 -26 -41.5 -36.5 q-29 -10.5 -84 -10.5 l-138 0 l-12 73 l127 0 q38 0 55.5 5.5 q17.5 5.5 24 20.5 q6.5 15 6.5 48 l0 397 l294 201 l-667 0 l0 70 Z" /><glyph glyph-name="uni4E8B" unicode="&#x4e8b;" d="M939 285 l0 -52 l-90 0 l0 -125 l-316 0 l0 -49 q0 -62 -28 -87 q-28 -25 -97 -25 l-120 0 l-11 60 l117 0 q43 0 57.5 13.5 q14.5 13.5 14.5 52.5 l0 35 l-359 0 l0 52 l359 0 l0 73 l-413 0 l0 52 l413 0 l0 73 l-349 0 l0 52 l349 0 l0 69 l-302 0 l0 170 l302 0 l0 68 l-397 0 l0 53 l397 0 l0 80 l67 0 l0 -80 l392 0 l0 -53 l-392 0 l0 -68 l295 0 l0 -170 l-295 0 l0 -69 l316 0 l0 -125 l90 0 ZM226 600 l0 -73 l240 0 l0 73 l-240 0 ZM765 527 l0 73 l-232 0 l0 -73 l232 0 ZM787 358 l-254 0 l0 -73 l254 0 l0 73 ZM533 160 l254 0 l0 73 l-254 0 l0 -73 Z" /><glyph glyph-name="uni4E8E" unicode="&#x4e8e;" d="M937 464 l0 -69 l-386 0 l0 -321 q0 -46 -13 -72 q-13 -26 -43.5 -37.5 q-30.5 -11.5 -83.5 -11.5 l-137 0 l-13 69 l132 0 q51 0 68 16 q17 16 17 60 l0 297 l-416 0 l0 69 l416 0 l0 246 l-346 0 l0 68 l735 0 l0 -68 l-316 0 l0 -246 l386 0 Z" /><glyph glyph-name="uni4E9B" unicode="&#x4e9b;" d="M935 542 q0 -15 -1 -33.5 q-1 -18.5 -2 -34.5 q-3 -27 -3 -46 q-4 -54 -30 -77 q-26 -23 -85 -23 l-139 0 q-50 0 -74 25 q-24 25 -24 81 l0 412 l67 0 l0 -217 q66 32 132.5 68 q66.5 36 103.5 63 l30 -65 q-44 -29 -123 -69.5 q-79 -40.5 -143 -68.5 l0 -101 q0 -37 14 -51 q14 -14 49 -14 l87 0 q41 0 56 13.5 q15 13.5 18 51.5 q3 38 3 100 l64 -14 ZM534 421 l4 -35 q-176 -32 -372 -64 l-93 -16 l-9 67 q15 1 80 13 l0 372 l65 0 l0 -361 l118 21 l0 423 l65 0 l0 -175 l139 0 l0 -61 l-139 0 l0 -175 q91 15 139 25 l3 -34 ZM816 236 l0 -67 l-630 0 l0 67 l630 0 ZM927 -21 l-852 0 l0 66 l852 0 l0 -66 Z" /><glyph glyph-name="uni4EAB" unicode="&#x4eab;" d="M924 749 l0 -61 l-849 0 l0 61 l402 0 q-13 38 -36 92 l72 12 q31 -82 39 -104 l372 0 ZM810 620 l0 -187 l-623 0 l0 187 l623 0 ZM743 568 l-489 0 l0 -81 l489 0 l0 81 ZM941 191 l0 -59 l-393 0 l0 -88 q0 -39 -11.5 -60.5 q-11.5 -21.5 -39 -31 q-27.5 -9.5 -76.5 -9.5 l-130 0 l-12 62 l124 0 q45 0 60 11.5 q15 11.5 15 47.5 l0 68 l-420 0 l0 59 l420 0 l0 29 l233 87 l-576 0 l0 58 l703 0 l0 -58 l-285 -116 l388 0 Z" /><glyph glyph-name="uni4EBA" unicode="&#x4eba;" d="M531 658 q23 -204 123.5 -362 q100.5 -158 279.5 -285 l-52 -72 q-152 120 -244.5 249 q-92.5 129 -135.5 281 q-39 -151 -133 -280.5 q-94 -129.5 -251 -249.5 l-50 64 q142 105 228 212.5 q86 107.5 126 235.5 q40 128 40 292 l0 99 l70 0 l0 -126 q0 -39 -1 -58 Z" /><glyph glyph-name="uni4EC0" unicode="&#x4ec0;" d="M354 828 q-36 -106 -83 -205 l0 -686 l-68 0 l0 554 q-53 -95 -118 -178 l-31 77 q65 81 128 207 q63 126 107 256 l65 -25 ZM683 502 l257 0 l0 -70 l-257 0 l0 -498 l-71 0 l0 498 l-264 0 l0 70 l264 0 l0 344 l71 0 l0 -344 Z" /><glyph glyph-name="uni4EC5" unicode="&#x4ec5;" d="M332 825 q-34 -108 -80 -211 l0 -683 l-67 0 l0 548 q-55 -98 -111 -170 l-25 84 q58 77 118 201.5 q60 124.5 99 249.5 l66 -19 ZM676 228 q97 -111 270 -231 l-42 -65 q-171 121 -275 239 q-108 -119 -292 -240 l-44 64 q185 119 289 233 q-72 97 -118.5 211 q-46.5 114 -78.5 265 l0 70 l488 0 l0 -69 q-28 -150 -75 -265.5 q-47 -115.5 -122 -211.5 ZM455 704 q30 -133 71.5 -233.5 q41.5 -100.5 103.5 -185.5 q66 87 106.5 187.5 q40.5 100.5 64.5 231.5 l-346 0 Z" /><glyph glyph-name="uni4ECA" unicode="&#x4eca;" d="M54 470 q134 76 240 174 q106 98 176 209 l63 0 q70 -115 173.5 -212.5 q103.5 -97.5 238.5 -169.5 l-37 -64 q-125 70 -234 170.5 q-109 100.5 -173 205.5 q-67 -103 -174 -202 q-107 -99 -235 -175 l-38 64 ZM455 587 q45 -50 129 -165 l-52 -45 q-26 40 -61.5 87.5 q-35.5 47.5 -64.5 80.5 l49 42 ZM802 274 q-45 -76 -120.5 -174.5 q-75.5 -98.5 -142.5 -171.5 l-63 39 q63 62 128 146 q65 84 110 159 l-557 0 l0 68 l645 0 l0 -66 Z" /><glyph glyph-name="uni4ECB" unicode="&#x4ecb;" d="M56 439 q142 79 243.5 178.5 q101.5 99.5 169.5 227.5 l62 0 q72 -135 173.5 -233.5 q101.5 -98.5 238.5 -166.5 l-38 -68 q-129 64 -231.5 162.5 q-102.5 98.5 -173.5 226.5 q-76 -125 -174 -220.5 q-98 -95.5 -230 -172.5 l-40 66 ZM626 472 l69 0 l0 -534 l-69 0 l0 534 ZM123 -17 q75 55 113 101 q38 46 53 103.5 q15 57.5 15 148.5 l0 133 l69 0 l0 -126 q0 -108 -17.5 -178 q-17.5 -70 -60.5 -125 q-43 -55 -126 -113 l-46 56 Z" /><glyph glyph-name="uni4ED3" unicode="&#x4ed3;" d="M500 773 q-110 -153 -273 -275 l515 0 l-6 -190 q-1 -50 -14.5 -77 q-13.5 -27 -43.5 -38 q-30 -11 -84 -11 l-135 0 l-12 65 l127 0 q39 0 59 6.5 q20 6.5 28.5 23 q8.5 16.5 10.5 48.5 l2 108 l-382 0 l0 -310 q0 -40 7 -60 q7 -20 26.5 -29 q19.5 -9 59.5 -9 l307 0 q45 0 66.5 7 q21.5 7 29.5 24.5 q8 17.5 11 55.5 q5 85 5 103 l70 -19 q0 -20 -2.5 -55 q-2.5 -35 -5.5 -59 q-5 -51 -19.5 -77.5 q-14.5 -26.5 -46 -37 q-31.5 -10.5 -90.5 -10.5 l-338 0 q-56 0 -87.5 13 q-31.5 13 -46 44.5 q-14.5 31.5 -14.5 89.5 l0 392 q-58 -44 -132 -87 l-35 70 q127 67 234.5 164 q107.5 97 174.5 204 l67 0 q66 -106 173 -199 q107 -93 237 -159 l-34 -70 q-122 64 -232 159.5 q-110 95.5 -177 194.5 Z" /><glyph glyph-name="uni4ED8" unicode="&#x4ed8;" d="M337 819 q-39 -116 -77 -201 l0 -683 l-70 0 l0 543 q-46 -83 -108 -164 l-27 83 q54 71 113 191.5 q59 120.5 100 249.5 l69 -19 ZM936 633 l0 -69 l-144 0 l0 -494 q0 -66 -31 -92.5 q-31 -26.5 -108 -26.5 l-126 0 l-13 72 l121 0 q36 0 53.5 6 q17.5 6 24 20 q6.5 14 6.5 42 l0 473 l-387 0 l0 69 l387 0 l0 200 l73 0 l0 -200 l144 0 ZM541 205 q-27 43 -73 114 q-46 71 -82 123 l57 38 q88 -131 154 -235 l-56 -40 Z" /><glyph glyph-name="uni4EE3" unicode="&#x4ee3;" d="M849 103 q19 82 26 125 l58 -29 q-19 -104 -29 -139 q-19 -63 -47 -88.5 q-28 -25.5 -71 -25.5 q-35 0 -66 20 q-31 20 -64 69 q-88 121 -123 425 l-213 -21 l-5 68 l211 21 q-6 56 -9 121 l-10 195 l68 0 q4 -123 9 -198 q2 -44 8 -111 l336 33 l5 -68 l-334 -33 q18 -147 48 -245.5 q30 -98.5 65 -145.5 q20 -29 37.5 -40 q17.5 -11 36.5 -11 q17 0 27.5 5.5 q10.5 5.5 19 22 q8.5 16.5 16.5 50.5 ZM350 817 q-41 -121 -90 -225 l0 -656 l-67 0 l0 527 q-50 -87 -113 -169 l-28 78 q65 78 127.5 205 q62.5 127 104.5 261 l66 -21 ZM827 612 q-35 35 -85 81.5 q-50 46.5 -78 70.5 l38 45 q27 -22 78.5 -67.5 q51.5 -45.5 87.5 -79.5 l-41 -50 Z" /><glyph glyph-name="uni4EE5" unicode="&#x4ee5;" d="M499 531 q-28 58 -74.5 143.5 q-46.5 85.5 -76.5 133.5 l56 37 q41 -67 157 -279 l-62 -35 ZM887 -43 q-48 68 -179 227 q-44 -68 -116.5 -128 q-72.5 -60 -187.5 -125 l-41 63 q148 80 223 157.5 q75 77.5 105 173.5 q30 96 42 255 q5 67 5 244 l71 0 l0 -35 q0 -154 -4 -215 q-7 -108 -20.5 -184 q-13.5 -76 -39.5 -137 q98 -116 194 -241 l-52 -55 ZM468 358 l38 -62 l-353 -302 l-49 60 q18 20 24 31 q6 11 6 26 l0 687 l72 0 l0 -656 l262 216 Z" /><glyph glyph-name="uni4EEC" unicode="&#x4eec;" d="M51 407 q51 70 106.5 194.5 q55.5 124.5 90.5 244.5 l62 -17 q-27 -96 -72 -203 l0 -690 l-67 0 l0 544 q-47 -93 -93 -163 l-27 90 ZM433 845 q25 -27 61 -71.5 q36 -44.5 60 -77.5 l-47 -45 q-27 37 -60 79.5 q-33 42.5 -62 76.5 l48 38 ZM592 776 l301 0 l0 -693 q0 -57 -11.5 -85.5 q-11.5 -28.5 -39 -39 q-27.5 -10.5 -80.5 -10.5 l-126 0 l-12 70 l120 0 q34 0 50.5 6 q16.5 6 22.5 23 q6 17 6 53 l0 611 l-231 0 l0 65 ZM436 -57 l-71 0 l0 697 l71 0 l0 -697 Z" /><glyph glyph-name="uni4EF6" unicode="&#x4ef6;" d="M940 317 l0 -67 l-250 0 l0 -318 l-71 0 l0 318 l-304 0 l0 67 l304 0 l0 247 l-166 0 q-28 -91 -63 -174 l-69 31 q37 78 70 177 q33 99 54 192 l64 -16 q-18 -77 -36 -142 l146 0 l0 223 l71 0 l0 -223 l216 0 l0 -68 l-216 0 l0 -247 l250 0 ZM323 830 q-33 -119 -77 -226 l0 -676 l-68 0 l0 533 q-48 -88 -102 -162 l-27 79 q57 84 116 216.5 q59 132.5 93 256.5 l65 -21 Z" /><glyph glyph-name="uni4F01" unicode="&#x4f01;" d="M502 770 q-66 -92 -179 -190 q-113 -98 -230 -165 l-37 65 q125 69 235.5 165.5 q110.5 96.5 178.5 194.5 l62 0 q72 -102 179 -195 q107 -93 234 -162 l-38 -65 q-115 64 -226.5 161 q-111.5 97 -178.5 191 ZM825 282 l-270 0 l0 -234 l369 0 l0 -66 l-857 0 l0 66 l140 0 l0 369 l69 0 l0 -369 l209 0 l0 522 l70 0 l0 -219 l270 0 l0 -69 Z" /><glyph glyph-name="uni4F20" unicode="&#x4f20;" d="M942 448 l-399 0 q-15 -56 -34 -114 l352 0 l0 -61 q-19 -30 -65.5 -97.5 q-46.5 -67.5 -84.5 -120.5 q23 -11 52.5 -26.5 q29.5 -15.5 46.5 -23.5 l41 -22 l-28 -64 q-86 48 -218 115.5 q-132 67.5 -221 109.5 l28 60 q48 -23 187 -93 l55 -27 q29 39 66.5 94.5 q37.5 55.5 61.5 93.5 l-346 0 l0 56 q11 33 37 120 l-164 0 l0 64 l181 0 l30 126 l-157 0 l0 63 l170 0 q20 97 28 151 l66 -8 q-14 -88 -25 -143 l305 0 l0 -63 l-318 0 q-10 -50 -29 -126 l382 0 l0 -64 ZM334 827 q-35 -108 -83 -215 l0 -678 l-64 0 l0 550 q-50 -89 -104 -160 l-31 69 q60 85 117.5 203.5 q57.5 118.5 100.5 248.5 l64 -18 Z" /><glyph glyph-name="uni4F53" unicode="&#x4f53;" d="M903 102 q-83 88 -152.5 199.5 q-69.5 111.5 -115.5 231.5 l0 -361 l158 0 l0 -64 l-158 0 l0 -176 l-68 0 l0 176 l-158 0 l0 64 l158 0 l0 360 q-46 -121 -111.5 -226.5 q-65.5 -105.5 -159.5 -210.5 l-44 64 q96 99 165 206.5 q69 107.5 117 233.5 l-219 0 l0 63 l252 0 l0 183 l68 0 l0 -183 l274 0 l0 -63 l-239 0 q46 -122 117 -232 q71 -110 157 -196 l-41 -69 ZM318 826 q-34 -117 -82 -230 l0 -659 l-64 0 l0 525 q-48 -89 -93 -150 l-32 75 q55 80 111 203.5 q56 123.5 90 247.5 l70 -12 Z" /><glyph glyph-name="uni4F5C" unicode="&#x4f5c;" d="M930 626 l-310 0 l0 -169 l259 0 l0 -69 l-259 0 l0 -169 l281 0 l0 -70 l-281 0 l0 -218 l-67 0 l0 695 l-68 0 q-64 -128 -146 -226 l-46 51 q65 81 119 182 q54 101 91 212 l65 -20 q-24 -67 -51 -132 l413 0 l0 -67 ZM330 808 q-40 -118 -80 -204 l0 -667 l-68 0 l0 535 q-44 -76 -99 -152 l-33 70 q59 85 116 201 q57 116 96 239 l68 -22 Z" /><glyph glyph-name="uni4F60" unicode="&#x4f60;" d="M305 476 q56 77 105 175.5 q49 98.5 77 191.5 l67 -13 q-19 -61 -47 -124 l411 0 l0 -64 l-75 -167 l-62 22 l65 145 l-368 0 q-52 -108 -116 -204 l-57 38 ZM315 819 q-34 -110 -73 -202 l0 -677 l-69 0 l0 536 q-41 -75 -93 -145 l-27 71 q53 78 107.5 195.5 q54.5 117.5 86.5 238.5 l68 -17 ZM596 557 l69 0 l0 -506 q0 -54 -25.5 -76.5 q-25.5 -22.5 -87.5 -22.5 l-103 0 l-14 68 l93 0 q42 0 55 10.5 q13 10.5 13 43.5 l0 483 ZM792 424 q101 -227 148 -347 l-62 -28 q-57 152 -144 349 l58 26 ZM499 398 q-30 -93 -69 -183 q-39 -90 -84 -163 l-60 26 q44 68 83.5 157 q39.5 89 69.5 181 l60 -18 Z" /><glyph glyph-name="uni4F6C" unicode="&#x4f6c;" d="M698 429 q-79 -83 -182 -159 l0 -61 q83 26 173 61.5 q90 35.5 160 71.5 l26 -60 q-74 -37 -173 -74 q-99 -37 -186 -62 l0 -55 q0 -29 7 -43 q7 -14 23 -19 q16 -5 47 -5 l136 0 q32 0 48 4.5 q16 4.5 23 17 q7 12.5 9 37.5 l4 104 l68 -17 l-5 -108 q-4 -43 -16.5 -65 q-12.5 -22 -38.5 -31 q-26 -9 -74 -9 l-184 0 q-65 0 -90.5 25.5 q-25.5 25.5 -25.5 89.5 l0 150 q-77 -49 -156 -92 l-32 62 q206 106 343 237 l-312 0 l0 64 l228 0 l0 148 l-164 0 l0 62 l164 0 l0 135 l65 0 l0 -135 l171 0 l0 -62 l-171 0 l0 -148 l80 0 q108 120 181 278 l62 -29 q-63 -137 -153 -249 l186 0 l0 -64 l-241 0 ZM317 818 q-35 -113 -75 -209 l0 -676 l-68 0 l0 529 q-42 -79 -84 -143 l-30 71 q50 84 102 203 q52 119 90 244 l65 -19 Z" /><glyph glyph-name="uni4F7F" unicode="&#x4f7f;" d="M301 824 q-34 -123 -71 -216 l0 -678 l-63 0 l0 541 q-40 -78 -90 -150 l-28 75 q49 71 99.5 190.5 q50.5 119.5 88.5 254.5 l64 -17 ZM922 -56 q-225 33 -361 105 q-39 -36 -100.5 -64.5 q-61.5 -28.5 -156.5 -57.5 l-31 63 q160 44 228 96 q-78 55 -133 139 l47 39 q52 -81 130 -133 q22 32 31 71.5 q9 39.5 9 94.5 l-239 0 l0 255 l239 0 l0 102 l-276 0 l0 64 l276 0 l0 123 l64 0 l0 -123 l280 0 l0 -64 l-280 0 l0 -102 l239 0 l0 -255 l-239 0 q-1 -66 -11.5 -114 q-10.5 -48 -34.5 -85 q124 -61 337 -85 l-18 -69 ZM585 493 l-177 0 l0 -134 l177 0 l0 134 ZM825 359 l0 134 l-176 0 l0 -134 l176 0 Z" /><glyph glyph-name="uni4F9B" unicode="&#x4f9b;" d="M322 832 q-38 -120 -80 -217 l0 -679 l-68 0 l0 541 q-46 -80 -94 -150 l-30 72 q59 86 114 205 q55 119 94 249 l64 -21 ZM785 583 l0 -262 l152 0 l0 -67 l-641 0 l0 67 l150 0 l0 262 l-115 0 l0 65 l115 0 l0 196 l67 0 l0 -196 l205 0 l0 196 l67 0 l0 -196 l127 0 l0 -65 l-127 0 ZM718 583 l-205 0 l0 -262 l205 0 l0 262 ZM294 -8 q51 38 111.5 99.5 q60.5 61.5 106.5 118.5 l51 -44 q-42 -54 -105 -117.5 q-63 -63.5 -118 -109.5 l-46 53 ZM715 209 q43 -41 107.5 -106 q64.5 -65 105.5 -109 l-47 -54 q-38 44 -102.5 110.5 q-64.5 66.5 -109.5 110.5 l46 48 Z" /><glyph glyph-name="uni4FA7" unicode="&#x4fa7;" d="M272 828 q-26 -103 -61 -196 l0 -697 l-59 0 l0 556 q-30 -66 -75 -146 l-29 78 q45 74 89 186 q44 112 74 233 l61 -14 ZM834 835 l57 0 l0 -780 q0 -41 -10 -62.5 q-10 -21.5 -34.5 -30.5 q-24.5 -9 -71.5 -9 l-70 0 l-12 62 l70 0 q30 0 44.5 4.5 q14.5 4.5 20.5 17.5 q6 13 6 39 l0 759 ZM558 716 l-198 0 l0 -522 l-53 0 l0 586 l307 0 l0 -584 l-56 0 l0 520 ZM694 745 l53 0 l0 -578 l-53 0 l0 578 ZM485 373 q0 -83 -11 -151 q37 -38 70.5 -74.5 q33.5 -36.5 57.5 -62.5 q17 -17 30 -31.5 q13 -14.5 24 -25.5 l-48 -46 q-93 110 -151 175 q-22 -62 -64 -111.5 q-42 -49.5 -114 -103.5 l-41 49 q85 63 124.5 112.5 q39.5 49.5 53.5 111.5 q14 62 14 172 l0 270 l55 0 l0 -284 Z" /><glyph glyph-name="uni4FDD" unicode="&#x4fdd;" d="M318 818 q-34 -111 -78 -214 l0 -669 l-65 0 l0 536 q-44 -80 -96 -150 l-31 69 q53 78 112 205 q59 127 90 241 l68 -18 ZM679 299 q84 -139 270 -243 l-36 -62 q-171 105 -259 248 l0 -305 l-68 0 l0 302 q-51 -76 -115.5 -135 q-64.5 -59 -156.5 -113 l-37 57 q101 57 166 114.5 q65 57.5 116 136.5 l-247 0 l0 62 l274 0 l0 118 l-206 0 l0 309 l484 0 l0 -309 l-210 0 l0 -118 l279 0 l0 -62 l-254 0 ZM797 724 l-350 0 l0 -181 l350 0 l0 181 Z" /><glyph glyph-name="uni4FE1" unicode="&#x4fe1;" d="M944 723 l0 -65 l-634 0 l0 65 l290 0 q-17 46 -44 110 l70 14 l8 -22 q21 -50 38 -102 l272 0 ZM308 822 q-29 -108 -72 -212 l0 -675 l-65 0 l0 537 q-41 -78 -92 -151 l-27 81 q53 78 107 200.5 q54 122.5 85 239.5 l64 -20 ZM868 507 l-502 0 l0 58 l502 0 l0 -58 ZM868 358 l-502 0 l0 60 l502 0 l0 -60 ZM436 -63 l-66 0 l0 330 l497 0 l0 -330 l-66 0 l0 59 l-365 0 l0 -59 ZM801 56 l0 150 l-365 0 l0 -150 l365 0 Z" /><glyph glyph-name="uni4FEE" unicode="&#x4fee;" d="M382 438 q139 41 232 92 q-57 45 -104 109 q-44 -53 -90 -95 l-37 49 q56 50 106.5 119.5 q50.5 69.5 81.5 139.5 l56 -23 q-12 -28 -34 -68 l285 0 l0 -54 q-59 -104 -155 -177 q94 -49 222 -78 l-21 -60 q-160 42 -256 101 q-98 -61 -261 -113 l-25 58 ZM294 828 q-34 -128 -76 -233 l0 -662 l-61 0 l0 523 q-40 -78 -74 -131 l-31 75 q45 68 99 196.5 q54 128.5 84 245.5 l59 -14 ZM546 686 q50 -71 123 -122 q82 57 135 141 l-245 0 q-2 -2 -13 -19 ZM361 101 l-57 0 l0 592 l57 0 l0 -592 ZM767 390 q-140 -96 -313 -156 l-27 56 q182 60 311 147 l29 -47 ZM421 140 q105 32 207.5 83 q102.5 51 187.5 112 l32 -47 q-82 -63 -187 -115.5 q-105 -52.5 -213 -84.5 l-27 52 ZM372 -14 q153 40 287.5 102 q134.5 62 239.5 142 l33 -47 q-202 -162 -536 -252 l-24 55 Z" /><glyph glyph-name="uni503C" unicode="&#x503c;" d="M293 832 q-32 -119 -68 -214 l0 -677 l-64 0 l0 529 q-33 -68 -85 -149 l-29 80 q52 80 98.5 197.5 q46.5 117.5 78.5 246.5 l69 -13 ZM856 600 l0 -571 l89 0 l0 -59 l-668 0 l0 59 l93 0 l0 571 l209 0 l0 96 l-255 0 l0 59 l255 0 l0 89 l67 0 l0 -89 l275 0 l0 -59 l-275 0 l0 -96 l210 0 ZM790 455 l0 86 l-354 0 l0 -86 l354 0 ZM436 318 l354 0 l0 84 l-354 0 l0 -84 ZM790 174 l0 90 l-354 0 l0 -90 l354 0 ZM790 122 l-354 0 l0 -93 l354 0 l0 93 Z" /><glyph glyph-name="uni504F" unicode="&#x504f;" d="M886 516 l-488 0 q-1 -151 -27 -283 q-26 -132 -81 -263 l-49 46 q52 117 74.5 232 q22.5 115 22.5 287 l0 208 l251 0 l-29 96 l72 9 l34 -105 l220 0 l0 -227 ZM292 816 q-37 -132 -70 -219 l0 -658 l-61 0 l0 522 q-35 -68 -77 -130 l-29 73 q50 75 98 193.5 q48 118.5 77 238.5 l62 -20 ZM822 574 l0 113 l-424 0 l0 -113 l424 0 ZM399 418 l498 0 l0 -387 q0 -49 -21 -68 q-21 -19 -74 -19 l-33 0 l-13 58 l35 0 q31 0 39.5 8.5 q8.5 8.5 8.5 35.5 l0 119 l-94 0 l0 -174 l-52 0 l0 174 l-91 0 l0 -173 l-55 0 l0 173 l-92 0 l0 -219 l-56 0 l0 472 ZM455 362 l0 -142 l92 0 l0 142 l-92 0 ZM602 362 l0 -142 l91 0 l0 142 l-91 0 ZM745 362 l0 -142 l94 0 l0 142 l-94 0 Z" /><glyph glyph-name="uni505A" unicode="&#x505a;" d="M784 191 q59 -106 159 -197 l-38 -59 q-98 92 -157 195 q-60 -95 -172 -199 l-42 53 q62 55 106 105.5 q44 50.5 75 103.5 q-54 123 -77 290 q-26 -50 -47 -81 l-35 59 q46 69 84.5 177.5 q38.5 108.5 54.5 209.5 l61 -11 q-14 -80 -43 -170 l226 0 l0 -61 l-57 0 q-12 -137 -34 -235 q-22 -98 -64 -180 ZM299 41 l0 363 l96 0 l0 188 l-129 0 l0 61 l129 0 l0 189 l61 0 l0 -189 l128 0 l0 -61 l-128 0 l0 -188 l96 0 l0 -363 l-253 0 ZM268 825 q-23 -94 -51 -179 l0 -710 l-63 0 l0 548 q-34 -76 -78 -148 l-29 82 q43 73 87.5 190 q44.5 117 70.5 233 l63 -16 ZM680 574 q15 -185 70 -314 q30 69 48.5 152.5 q18.5 83.5 28.5 193.5 l-135 0 l-12 -32 ZM357 104 l138 0 l0 237 l-138 0 l0 -237 Z" /><glyph glyph-name="uni50A8" unicode="&#x50a8;" d="M757 474 q-42 -49 -107 -104 l227 0 l0 -434 l-57 0 l0 61 l-207 0 l0 -61 l-57 0 l0 360 q-24 -17 -43.5 -30.5 q-19.5 -13.5 -33.5 -23.5 l-18 -12 l-27 55 q148 93 244 189 l-212 0 l0 59 l163 0 l0 134 l-121 0 l0 57 l121 0 l0 121 l59 0 l0 -121 l121 0 l0 -57 l-121 0 l0 -134 l43 0 q89 107 145 248 l56 -22 q-56 -132 -126 -226 l129 0 l0 -59 l-178 0 ZM297 828 q-32 -124 -77 -240 l0 -649 l-59 0 l0 517 q-35 -71 -83 -139 l-26 77 q52 79 102 203.5 q50 124.5 79 245.5 l64 -15 ZM415 610 q-61 129 -93 179 l50 30 q36 -60 95 -176 l-52 -33 ZM405 107 l83 70 l18 -65 l-153 -125 l-35 49 q15 12 21.5 24.5 q6.5 12.5 6.5 27.5 l0 382 l-90 0 l0 64 l149 0 l0 -427 ZM613 212 l207 0 l0 102 l-207 0 l0 -102 ZM613 157 l0 -105 l207 0 l0 105 l-207 0 Z" /><glyph glyph-name="uni50CF" unicode="&#x50cf;" d="M771 285 q31 -83 69.5 -140 q38.5 -57 100.5 -111 l-38 -49 q-63 56 -104 119 q-41 63 -73 156 l-52 -29 q19 -60 19 -145 q0 -77 -30.5 -108 q-30.5 -31 -105.5 -31 l-89 0 l-11 56 l87 0 q35 0 54.5 9 q19.5 9 27.5 30.5 q8 21.5 8 61.5 q0 33 -5 71 q-125 -125 -337 -209 l-26 54 q213 73 349 209 q-8 24 -21 48 q-62 -53 -132 -93.5 q-70 -40.5 -162 -79.5 l-24 50 q183 70 293 165 l-28 37 q-39 -28 -94.5 -52.5 q-55.5 -24.5 -143.5 -55.5 l-22 53 q106 34 167.5 64 q61.5 30 94.5 66 l-187 0 l0 157 l-53 -39 l-29 57 q73 51 135 114.5 q62 63.5 102 133.5 l60 -22 q-16 -28 -39 -62 l262 0 l0 -52 l-83 -89 l175 0 l0 -198 l-274 0 q-16 -25 -30 -39 q47 -55 72 -109 q131 74 204 126 l32 -50 q-39 -26 -119 -74 ZM301 821 q-27 -100 -70 -208 l0 -680 l-63 0 l0 540 q-45 -90 -96 -160 l-24 76 q53 82 103.5 202 q50.5 120 84.5 247 l65 -17 ZM491 717 q-36 -45 -86 -88 l233 0 l81 88 l-228 0 ZM414 480 l162 0 q18 38 24 100 l-186 0 l0 -100 ZM826 480 l0 100 l-172 0 q-4 -54 -20 -100 l192 0 Z" /><glyph glyph-name="uni5165" unicode="&#x5165;" d="M533 704 q23 -222 120 -392 q97 -170 286 -302 l-48 -62 q-158 116 -251.5 251 q-93.5 135 -138.5 314 q-90 -308 -395 -564 l-51 59 q367 290 413 682 q-7 22 -27.5 31.5 q-20.5 9.5 -62.5 9.5 l-134 0 l0 72 l160 0 q63 0 93 -22.5 q30 -22.5 36 -76.5 Z" /><glyph glyph-name="uni5168" unicode="&#x5168;" d="M501 769 q-68 -96 -169.5 -179 q-101.5 -83 -243.5 -160 l-32 65 q145 76 245.5 159 q100.5 83 167.5 184 l62 0 q132 -201 411 -341 l-34 -62 q-132 68 -235 152.5 q-103 84.5 -172 181.5 ZM830 217 l-295 0 l0 -174 l384 0 l0 -65 l-837 0 l0 65 l381 0 l0 174 l-292 0 l0 66 l292 0 l0 156 l-249 0 l0 65 l572 0 l0 -65 l-251 0 l0 -156 l295 0 l0 -66 Z" /><glyph glyph-name="uni516C" unicode="&#x516c;" d="M629 843 q58 -161 128.5 -260.5 q70.5 -99.5 186.5 -183.5 l-44 -59 q-120 93 -197.5 202 q-77.5 109 -135.5 278 l62 23 ZM431 805 q-110 -271 -332 -470 l-43 57 q217 190 312 436 l63 -23 ZM638 320 q45 -67 109.5 -168 q64.5 -101 115.5 -185 l-60 -39 q-28 51 -51 88 l-588 -36 l-20 66 q181 197 311 457 l68 -27 q-55 -107 -127.5 -218 q-72.5 -111 -149.5 -207 l467 29 q-84 136 -131 205 l56 35 Z" /><glyph glyph-name="uni5173" unicode="&#x5173;" d="M538 321 q40 -113 139.5 -193.5 q99.5 -80.5 255.5 -122.5 l-33 -70 q-147 43 -249 123 q-102 80 -153 191 q-86 -194 -400 -318 l-36 66 q187 72 277 152.5 q90 80.5 112 171.5 l-378 0 l0 69 l386 0 l0 3 l0 185 l-339 0 l0 66 l428 0 q40 49 88.5 113.5 q48.5 64.5 74.5 103.5 l63 -38 q-81 -110 -138 -179 l234 0 l0 -66 l-339 0 l-2 -181 l0 -7 l390 0 l0 -69 l-381 0 ZM352 647 q-24 34 -69 93 q-45 59 -60 76 l57 38 q113 -143 131 -167 l-59 -40 Z" /><glyph glyph-name="uni5177" unicode="&#x5177;" d="M806 796 l0 -576 l128 0 l0 -62 l-869 0 l0 62 l129 0 l0 576 l612 0 ZM738 649 l0 86 l-477 0 l0 -86 l477 0 ZM261 507 l477 0 l0 84 l-477 0 l0 -84 ZM738 365 l0 85 l-477 0 l0 -85 l477 0 ZM738 307 l-477 0 l0 -87 l477 0 l0 87 ZM68 -12 q83 27 166 64.5 q83 37.5 148 76.5 l34 -53 q-111 -67 -324 -147 l-24 59 ZM602 129 q69 -27 274 -112 l48 -20 l-29 -59 q-86 40 -318 137 l25 54 Z" /><glyph glyph-name="uni5178" unicode="&#x5178;" d="M847 716 l0 -473 l88 0 l0 -64 l-868 0 l0 64 l89 0 l0 473 l208 0 l0 120 l64 0 l0 -120 l148 0 l0 120 l63 0 l0 -120 l208 0 ZM364 481 l0 169 l-143 0 l0 -169 l143 0 ZM576 481 l0 169 l-148 0 l0 -169 l148 0 ZM783 481 l0 169 l-144 0 l0 -169 l144 0 ZM364 418 l-143 0 l0 -175 l143 0 l0 175 ZM428 243 l148 0 l0 175 l-148 0 l0 -175 ZM783 418 l-144 0 l0 -175 l144 0 l0 175 ZM69 -17 q83 34 166.5 77.5 q83.5 43.5 150.5 87.5 l33 -58 q-69 -43 -155 -87.5 q-86 -44.5 -169 -81.5 l-26 62 ZM602 142 q57 -25 152.5 -71 q95.5 -46 168.5 -83 l-30 -60 q-61 34 -152 78 q-91 44 -165 77 l26 59 Z" /><glyph glyph-name="uni5185" unicode="&#x5185;" d="M868 686 l0 -615 q0 -49 -11 -74 q-11 -25 -38.5 -34.5 q-27.5 -9.5 -81.5 -9.5 l-124 0 l-13 68 l117 0 q38 0 55 5.5 q17 5.5 23 20 q6 14.5 6 46.5 l0 524 l-267 0 q0 -78 -16 -142 q98 -95 250 -252 l-48 -54 q-95 103 -226 236 q-29 -65 -82.5 -126 q-53.5 -61 -138.5 -128 l-45 58 q93 71 144 131.5 q51 60.5 72.5 125.5 q21.5 65 22.5 151 l-267 0 l0 -674 l-68 0 l0 743 l335 0 l0 155 l67 0 l0 -155 l334 0 Z" /><glyph glyph-name="uni5199" unicode="&#x5199;" d="M107 586 l0 200 l791 0 l0 -197 l-69 0 l0 131 l-653 0 l0 -134 l-69 0 ZM311 509 l-14 -131 l551 0 l-1 -27 q-2 -31 -7.5 -132 q-5.5 -101 -7.5 -116 q-5 -54 -23.5 -85.5 q-18.5 -31.5 -55 -46 q-36.5 -14.5 -97.5 -14.5 l-150 0 l-12 63 l143 0 q64 0 91.5 22 q27.5 22 33.5 77 q2 15 6.5 86 q4.5 71 6.5 109 l-553 0 l38 357 l68 0 l-11 -101 l475 0 l0 -61 l-481 0 ZM77 198 l616 0 l0 -64 l-616 0 l0 64 Z" /><glyph glyph-name="uni51CF" unicode="&#x51cf;" d="M948 208 q-3 -45 -14 -131 q-10 -70 -30.5 -95.5 q-20.5 -25.5 -50.5 -25.5 q-29 0 -53 20.5 q-24 20.5 -49 76.5 q-10 23 -24 61 q-56 -84 -138 -165 l-43 48 q98 91 160 191 q-40 166 -58 448 l-298 0 l0 -332 q0 -221 -97 -375 l-57 39 q49 73 71.5 153 q22.5 80 22.5 183 l0 394 l355 0 l-8 151 l59 0 l8 -151 l135 0 q-20 26 -48 58 q-28 32 -49 52 l40 34 q57 -57 100 -110 l-41 -34 l88 0 l0 -62 l-221 0 l0 -2 q16 -232 42 -367 q57 122 91 283 l55 -10 q-43 -210 -127 -359 q18 -65 36 -104 q15 -32 24 -42.5 q9 -10.5 22 -10.5 q13 0 20.5 19 q7.5 19 13.5 65 q6 44 10 111 l53 -11 ZM174 520 q-61 164 -105 263 l58 20 q31 -68 69 -164 l40 -96 l-62 -23 ZM397 526 l231 0 l0 -60 l-231 0 l0 60 ZM224 408 q-55 -201 -66 -241 l-44 -159 l-65 16 q17 54 58.5 198.5 q41.5 144.5 54.5 198.5 l62 -13 ZM408 372 l204 0 l0 -282 l-204 0 l0 282 ZM461 148 l98 0 l0 164 l-98 0 l0 -164 Z" /><glyph glyph-name="uni51FA" unicode="&#x51fa;" d="M805 53 l0 279 l69 0 l0 -394 l-69 0 l0 49 l-676 0 l0 343 l68 0 l0 -277 l271 0 l0 360 l-311 0 l0 345 l67 0 l0 -277 l244 0 l0 369 l65 0 l0 -369 l245 0 l0 277 l67 0 l0 -345 l-312 0 l0 -360 l272 0 Z" /><glyph glyph-name="uni5206" unicode="&#x5206;" d="M617 853 q51 -139 126 -229.5 q75 -90.5 201 -164.5 l-38 -65 q-134 85 -215 183 q-81 98 -137 251 l63 25 ZM434 809 q-56 -128 -138.5 -229 q-82.5 -101 -197.5 -185 l-39 59 q102 71 182 168.5 q80 97.5 131 212.5 l62 -26 ZM184 380 l0 64 l582 0 q-2 -50 -11.5 -172.5 q-9.5 -122.5 -15.5 -177.5 q-5 -51 -22.5 -79 q-17.5 -28 -51.5 -40 q-34 -12 -92 -12 l-131 0 l-12 65 l123 0 q45 0 69 8 q24 8 34.5 27.5 q10.5 19.5 14.5 58.5 q6 58 12 133.5 q6 75.5 9 124.5 l-290 0 l-3 -35 l-2 -26 q-5 -91 -29.5 -155 q-24.5 -64 -82.5 -120.5 q-58 -56.5 -165 -117.5 l-49 61 q99 50 152 97 q53 47 76 101 q23 54 31 135 l5 60 l-151 0 Z" /><glyph glyph-name="uni5207" unicode="&#x5207;" d="M416 261 l19 -70 l-251 -161 l-31 59 q18 16 23 28.5 q5 12.5 5 30.5 l0 340 l-114 -16 l-6 70 l120 17 l0 286 l66 0 l0 -276 l171 24 l3 -72 l-174 -24 l0 -345 l169 109 ZM408 772 l489 0 q0 -40 -9 -294 q-9 -254 -14 -368 q-3 -56 -18.5 -87.5 q-15.5 -31.5 -48.5 -45 q-33 -13.5 -91 -13.5 l-113 0 l-12 69 l101 0 q45 0 68.5 8.5 q23.5 8.5 34 30.5 q10.5 22 11.5 65 q11 331 10 294 l9 268 l-212 0 l-1 -40 l-3 -128 q-6 -163 -26.5 -260.5 q-20.5 -97.5 -67.5 -173 q-47 -75.5 -141 -166.5 l-59 50 q95 87 139 152.5 q44 65.5 62 153 q18 87.5 25 250.5 l4 162 l-137 0 l0 73 Z" /><glyph glyph-name="uni5212" unicode="&#x5212;" d="M483 96 q16 74 20 120 l59 -24 l-4 -23 q-15 -77 -23 -109 q-15 -61 -40 -88 q-25 -27 -62 -27 q-29 0 -58 23 q-29 23 -61 74 q-28 44 -49 110 q-76 -66 -171 -119 l-36 58 q106 58 187 131 q-27 115 -42 290 l-131 -23 l-8 64 l134 24 l-4 69 l-8 198 l65 0 q0 -39 8 -204 l3 -52 l283 51 l9 -65 l-287 -51 q12 -152 31 -249 q90 95 155 224 l52 -34 q-82 -158 -189 -264 q21 -74 54 -122 q37 -58 63 -58 q17 0 29.5 17 q12.5 17 20.5 59 ZM817 843 l63 0 l0 -780 q0 -43 -9.5 -66 q-9.5 -23 -34.5 -33.5 q-25 -10.5 -73 -10.5 l-104 0 l-13 67 l100 0 q31 0 46 5.5 q15 5.5 20 19 q5 13.5 5 42.5 l0 756 ZM440 650 q-49 57 -124 130 l37 39 q69 -62 128 -127 l-41 -42 ZM619 751 l62 0 l0 -590 l-62 0 l0 590 Z" /><glyph glyph-name="uni5217" unicode="&#x5217;" d="M823 835 l65 0 l0 -766 q0 -63 -29.5 -89 q-29.5 -26 -104.5 -26 l-124 0 l-14 69 l121 0 q50 0 68 15 q18 15 18 55 l0 742 ZM85 721 l0 64 l488 0 l0 -64 l-248 0 q-19 -79 -45 -151 l240 0 l0 -63 q-30 -134 -77 -232.5 q-47 -98.5 -120.5 -180.5 q-73.5 -82 -188.5 -166 l-44 56 q84 60 143 116 q59 56 100 117 q-96 85 -155 133 q-42 -71 -87 -126 l-36 61 q63 79 119 201 q56 122 80 235 l-169 0 ZM623 741 l66 0 l0 -581 l-66 0 l0 581 ZM255 505 q-21 -50 -45 -96 l16 -13 q96 -80 142 -120 q50 94 82 229 l-195 0 Z" /><glyph glyph-name="uni521A" unicode="&#x521a;" d="M832 826 l60 0 l0 -766 q0 -42 -9.5 -65 q-9.5 -23 -34 -33 q-24.5 -10 -70.5 -10 l-103 0 l-11 64 l99 0 q29 0 43.5 5 q14.5 5 20 18 q5.5 13 5.5 40 l0 747 ZM107 -55 l0 841 l466 0 l0 -724 q0 -60 -24 -82.5 q-24 -22.5 -86 -22.5 l-102 0 l-13 60 l94 0 q43 0 58 13 q15 13 15 52 l0 642 l-349 0 l0 -779 l-59 0 ZM670 733 l57 0 l0 -581 l-57 0 l0 581 ZM441 106 q-26 56 -99 204 q-63 -125 -121 -215 l-48 38 q68 104 136 242 q-70 140 -124 239 l49 29 q26 -48 106 -204 q52 108 90 212 l50 -23 q-40 -113 -106 -255 q61 -119 117 -235 l-50 -32 Z" /><glyph glyph-name="uni521B" unicode="&#x521b;" d="M745 25 q33 0 49 5.5 q16 5.5 22.5 20 q6.5 14.5 6.5 42.5 l0 743 l65 0 l0 -770 q0 -44 -11 -68 q-11 -24 -38 -34.5 q-27 -10.5 -76 -10.5 l-113 0 l-14 72 l109 0 ZM54 528 q75 59 141.5 140.5 q66.5 81.5 111.5 160.5 l58 0 q5 -5 12 -12.5 q7 -7.5 16 -18.5 q111 -119 184 -206 l-36 -59 q-54 71 -178 208 q-9 9 -21 23 q-99 -163 -255 -297 l-33 61 ZM636 182 l0 575 l64 0 l0 -575 l-64 0 ZM498 517 q0 -32 -1.5 -100 q-1.5 -68 -2.5 -107 q-3 -44 -13 -67.5 q-10 -23.5 -34.5 -34 q-24.5 -10.5 -70.5 -10.5 l-88 0 l-12 59 l83 0 q32 0 47 5 q15 5 20.5 18.5 q5.5 13.5 7.5 43.5 q1 24 2.5 63.5 q1.5 39.5 1.5 67.5 l-224 0 l0 -340 q0 -38 5.5 -56 q5.5 -18 22 -25 q16.5 -7 51.5 -7 l126 0 q36 0 53 6.5 q17 6.5 23.5 22 q6.5 15.5 8.5 47.5 q4 60 4 94 l63 -13 q0 -24 -2 -56.5 q-2 -32.5 -4 -56.5 q-4 -42 -16 -64.5 q-12 -22.5 -40 -32 q-28 -9.5 -81 -9.5 l-153 0 q-48 0 -75 12 q-27 12 -38.5 40 q-11.5 28 -11.5 79 l0 421 l348 0 Z" /><glyph glyph-name="uni5220" unicode="&#x5220;" d="M835 832 l56 0 l0 -765 q0 -61 -25.5 -87.5 q-25.5 -26.5 -87.5 -26.5 l-89 0 l-12 59 l85 0 q42 0 57.5 15 q15.5 15 15.5 56 l0 749 ZM606 789 l0 -343 l56 0 l0 -59 l-56 0 l0 -333 q0 -56 -18.5 -76 q-18.5 -20 -66.5 -20 l-62 0 l-10 61 l51 0 q21 0 31 4.5 q10 4.5 14 17 q4 12.5 4 39.5 l0 307 l-94 0 q-1 -121 -7.5 -196.5 q-6.5 -75.5 -22.5 -132 q-16 -56.5 -46 -121.5 l-48 40 q28 56 42 104.5 q14 48.5 20 117 q6 68.5 7 188.5 l-74 0 l0 -315 q0 -57 -18 -79 q-18 -22 -67 -22 l-57 0 l-11 59 l51 0 q26 0 36.5 14.5 q10.5 14.5 10.5 49.5 l0 293 l-88 0 q-1 -126 -8 -199.5 q-7 -73.5 -23.5 -127.5 q-16.5 -54 -50.5 -121 l-45 39 q30 58 44.5 105 q14.5 47 20.5 114.5 q6 67.5 7 189.5 l-66 0 l0 59 l66 0 l0 7 l0 336 l198 0 l0 -343 l74 0 l0 7 l0 336 l206 0 ZM697 739 l53 0 l0 -574 l-53 0 l0 574 ZM183 727 l0 -281 l88 0 l0 281 l-88 0 ZM455 727 l0 -281 l94 0 l0 281 l-94 0 Z" /><glyph glyph-name="uni5229" unicode="&#x5229;" d="M819 835 l68 0 l0 -764 q0 -45 -13 -70.5 q-13 -25.5 -42.5 -37 q-29.5 -11.5 -82.5 -11.5 l-124 0 l-14 68 l122 0 q35 0 53 6.5 q18 6.5 25.5 22 q7.5 15.5 7.5 46.5 l0 740 ZM340 550 l199 0 l0 -64 l-199 0 l0 -76 q95 -73 193 -171 l-39 -59 q-63 68 -154 151 l0 -396 l-65 0 l0 430 q-71 -145 -188 -271 l-32 72 q63 62 118 144.5 q55 82.5 94 175.5 l-197 0 l0 64 l205 0 l0 152 q-97 -16 -184 -26 l-7 64 q97 10 217 30 q120 20 209 41 l14 -63 q-57 -13 -184 -36 l0 -162 ZM603 749 l67 0 l0 -596 l-67 0 l0 596 Z" /><glyph glyph-name="uni522B" unicode="&#x522b;" d="M820 832 l64 0 l0 -764 q0 -63 -28.5 -89 q-28.5 -26 -99.5 -26 l-115 0 l-14 67 l113 0 q46 0 63 14.5 q17 14.5 17 56.5 l0 741 ZM287 491 q-2 -88 -4 -124 l239 0 q-6 -217 -10 -276 q-5 -70 -38.5 -98 q-33.5 -28 -111.5 -28 l-82 0 l-13 62 l75 0 q42 0 64.5 7.5 q22.5 7.5 32.5 26.5 q10 19 11 55 l4 132 l2 56 l-176 0 q-5 -87 -21.5 -146 q-16.5 -59 -50.5 -109.5 q-34 -50.5 -96 -114.5 l-55 46 q59 55 91.5 100 q32.5 45 48 96.5 q15.5 51.5 20.5 127.5 l-142 0 l0 63 l145 0 q3 66 3 124 l-103 0 l0 301 l385 0 l0 -301 l-218 0 ZM633 748 l64 0 l0 -572 l-64 0 l0 572 ZM440 731 l-256 0 l0 -177 l256 0 l0 177 Z" /><glyph glyph-name="uni5230" unicode="&#x5230;" d="M820 831 l67 0 l0 -767 q0 -64 -27.5 -89.5 q-27.5 -25.5 -97.5 -25.5 l-119 0 l-13 66 l111 0 q46 0 62.5 14.5 q16.5 14.5 16.5 55.5 l0 746 ZM349 452 l0 -137 l198 0 l0 -65 l-198 0 l0 -173 l218 22 l1 -34 l0 -32 q-35 -2 -222.5 -20.5 q-187.5 -18.5 -279.5 -28.5 l-6 66 l135 12 l90 9 l0 179 l-200 0 l0 65 l200 0 l0 133 l-187 -11 l-15 58 q38 41 81 100 q43 59 78 116 l-172 0 l0 67 l495 0 l0 -67 l-249 0 q-34 -55 -74 -113 q-40 -58 -70 -95 l272 17 l-68 102 l50 34 q20 -29 124 -188 l24 -36 l-53 -35 l-39 63 l-133 -8 ZM630 748 l62 0 l0 -595 l-62 0 l0 595 Z" /><glyph glyph-name="uni5236" unicode="&#x5236;" d="M371 632 l0 -130 l224 0 l0 -62 l-224 0 l0 -113 l190 0 l0 -241 q0 -43 -21 -61.5 q-21 -18.5 -69 -18.5 l-55 0 l-11 59 l45 0 q29 0 39.5 9 q10.5 9 10.5 36 l0 155 l-129 0 l0 -341 l-64 0 l0 341 l-130 0 l0 -271 l-62 0 l0 333 l192 0 l0 113 l-246 0 l0 62 l246 0 l0 130 l-133 0 q-18 -50 -43 -100 l-58 21 q63 135 87 249 l61 -10 q-9 -44 -26 -99 l112 0 l0 144 l64 0 l0 -144 l202 0 l0 -61 l-202 0 ZM829 826 l64 0 l0 -766 q0 -63 -26 -88.5 q-26 -25.5 -95 -25.5 l-116 0 l-13 66 l110 0 q45 0 60.5 15 q15.5 15 15.5 57 l0 742 ZM656 740 l63 0 l0 -597 l-63 0 l0 597 Z" /><glyph glyph-name="uni523B" unicode="&#x523b;" d="M57 182 q87 52 148.5 104.5 q61.5 52.5 111.5 116.5 l-207 -14 l-15 58 q98 106 154 206 l-175 0 l0 64 l241 0 l-41 118 l64 17 l47 -135 l194 0 l0 -64 l-256 0 q-30 -54 -66 -107.5 q-36 -53.5 -67 -89.5 l172 11 q32 50 75 131 l57 -27 q-81 -153 -172 -256.5 q-91 -103.5 -231 -186.5 l-34 54 ZM826 822 l64 0 l0 -764 q0 -63 -26.5 -89 q-26.5 -26 -94.5 -26 l-108 0 l-13 68 l102 0 q45 0 60.5 14.5 q15.5 14.5 15.5 55.5 l0 741 ZM643 728 l61 0 l0 -587 l-61 0 l0 587 ZM559 377 q-72 -130 -147 -216 q129 -119 176 -161 l-44 -54 l-176 168 q-104 -104 -265 -191 l-40 57 q161 81 262.5 179.5 q101.5 98.5 182.5 248.5 l51 -31 Z" /><glyph glyph-name="uni524D" unicode="&#x524d;" d="M936 721 l0 -62 l-877 0 l0 62 l259 0 l-76 101 l69 21 q1 -1 44 -58 l48 -64 l190 0 q70 90 94 127 l66 -23 q-27 -39 -77 -104 l260 0 ZM786 582 l65 0 l0 -518 q0 -44 -10 -67.5 q-10 -23.5 -36.5 -34 q-26.5 -10.5 -77.5 -10.5 l-113 0 l-13 64 l110 0 q33 0 48.5 5 q15.5 5 21 18 q5.5 13 5.5 41 l0 502 ZM133 -57 l0 612 l347 0 l0 -505 q0 -58 -22.5 -79.5 q-22.5 -21.5 -82.5 -21.5 l-82 0 l-13 64 l74 0 q27 0 40 4.5 q13 4.5 17.5 15.5 q4.5 11 4.5 34 l0 88 l-218 0 l0 -212 l-65 0 ZM595 540 l61 0 l0 -428 l-61 0 l0 428 ZM416 384 l0 109 l-218 0 l0 -109 l218 0 ZM198 323 l0 -107 l218 0 l0 107 l-218 0 Z" /><glyph glyph-name="uni526A" unicode="&#x526a;" d="M933 744 l0 -55 l-866 0 l0 55 l265 0 q-11 15 -35 45 q-20 25 -27 34 l66 27 q42 -54 76 -106 l179 0 q53 58 90 106 l60 -24 q-28 -38 -69 -82 l261 0 ZM631 274 l-9 54 l103 0 q46 0 61 16 q15 16 15 54 l0 242 l60 0 l0 -258 q0 -43 -11.5 -66 q-11.5 -23 -38 -32.5 q-26.5 -9.5 -74.5 -9.5 l-106 0 ZM378 321 q27 0 39.5 4 q12.5 4 16.5 12.5 q4 8.5 4 26.5 l0 16 l-232 0 l0 -107 l-63 0 l0 356 l357 0 l0 -265 q0 -35 -9.5 -54.5 q-9.5 -19.5 -33 -28 q-23.5 -8.5 -67.5 -8.5 l-82 0 l-10 48 l80 0 ZM673 384 l-58 0 l0 240 l58 0 l0 -240 ZM438 525 l0 56 l-232 0 l0 -56 l232 0 ZM206 480 l0 -56 l232 0 l0 56 l-232 0 ZM88 160 l0 58 l784 0 l-22 -156 q-7 -44 -20 -66.5 q-13 -22.5 -40.5 -32.5 q-27.5 -10 -80.5 -10 l-163 0 l-12 62 l155 0 q36 0 53.5 5 q17.5 5 25.5 17.5 q8 12.5 14 40.5 q5 19 9.5 42 q4.5 23 6.5 40 l-355 0 q-16 -67 -52.5 -108.5 q-36.5 -41.5 -105.5 -71 q-69 -29.5 -191 -54.5 l-22 60 q105 20 166 42.5 q61 22.5 92.5 53.5 q31.5 31 46.5 78 l-289 0 Z" /><glyph glyph-name="uni529F" unicode="&#x529f;" d="M887 637 q-1 -60 -6.5 -238.5 q-5.5 -178.5 -10.5 -280.5 q-3 -64 -18.5 -96.5 q-15.5 -32.5 -50 -44.5 q-34.5 -12 -102.5 -12 l-104 0 l-14 66 l95 0 q55 0 79.5 8 q24.5 8 34 30.5 q9.5 22.5 12.5 74.5 q4 85 8.5 208 q4.5 123 6.5 217 l-210 0 q-5 -186 -24 -286.5 q-19 -100.5 -69 -178.5 q-50 -78 -158 -178 l-58 49 q109 98 156 169 q47 71 63.5 159.5 q16.5 88.5 21.5 265.5 l-121 0 l0 68 l123 0 l5 210 l67 0 l-4 -210 l278 0 ZM423 177 q-69 -16 -194.5 -45.5 q-125.5 -29.5 -157.5 -38.5 l-15 69 l149 34 l0 467 l-134 0 l0 67 l330 0 l0 -67 l-129 0 l0 -451 q111 26 141 35 l10 -70 Z" /><glyph glyph-name="uni52A0" unicode="&#x52a0;" d="M266 847 l-3 -180 l213 0 q-2 -103 -6.5 -287.5 q-4.5 -184.5 -7.5 -287.5 q-2 -50 -14.5 -76.5 q-12.5 -26.5 -41.5 -37.5 q-29 -11 -82 -11 l-79 0 l-14 70 l78 0 q40 0 57.5 7 q17.5 7 23 24 q5.5 17 6.5 56 q2 54 12 475 l-147 0 q-6 -175 -20 -281.5 q-14 -106.5 -45 -194.5 q-31 -88 -92 -191 l-55 48 q56 95 86 175 q30 80 43.5 182 q13.5 102 16.5 262 l-123 0 l0 68 l124 0 l2 180 l68 0 ZM576 -47 l0 767 l313 0 l0 -767 l-64 0 l0 83 l-184 0 l0 -83 l-65 0 ZM641 652 l0 -549 l184 0 l0 549 l-184 0 Z" /><glyph glyph-name="uni52A1" unicode="&#x52a1;" d="M571 507 q143 -57 373 -97 l-17 -65 q-137 27 -240 57.5 q-103 30.5 -184 69.5 q-171 -80 -422 -139 l-22 64 q221 48 375 113 q-92 55 -175 139 q-68 -67 -149 -125 l-37 49 q81 58 157 137 q76 79 119 148 l60 -26 q-30 -45 -56 -78 l473 0 l0 -58 q-110 -110 -255 -189 ZM302 693 q85 -96 198 -153 q141 68 229 155 l-426 0 l-1 -2 ZM462 395 l-12 -102 l378 0 q-2 -26 -11 -111 q-9 -85 -13 -115 q-6 -42 -23 -66 q-17 -24 -50 -34.5 q-33 -10.5 -90 -10.5 l-158 0 l-13 60 l149 0 q45 0 68 6 q23 6 34.5 22.5 q11.5 16.5 15.5 48.5 q15 119 17 138 l-316 0 q-17 -70 -54.5 -121 q-37.5 -51 -102.5 -94 q-65 -43 -172 -90 l-39 59 q97 37 156.5 72 q59.5 35 93.5 76.5 q34 41.5 50 97.5 l-260 0 l0 62 l272 0 l0 2 q8 66 10 101 l70 -1 Z" /><glyph glyph-name="uni52A8" unicode="&#x52a8;" d="M901 650 q-14 -442 -20 -561 q-2 -47 -15.5 -72.5 q-13.5 -25.5 -42 -36.5 q-28.5 -11 -79.5 -11 l-104 0 l-13 66 l91 0 q40 0 60 7 q20 7 28.5 25 q8.5 18 10.5 54 q3 42 9 206 q6 164 9 256 l-171 0 q-6 -193 -20 -296.5 q-14 -103.5 -49 -183.5 q-35 -80 -109 -175 l-60 42 q72 86 106 158 q34 72 48.5 171.5 q14.5 99.5 19.5 281.5 l0 2 l-112 0 l0 67 l113 0 l4 196 l64 0 q0 -71 -3 -196 l235 0 ZM107 764 l345 0 l0 -66 l-345 0 l0 66 ZM426 40 l-17 47 l-320 -34 l-11 57 q41 71 79.5 162.5 q38.5 91.5 63.5 174.5 l-156 0 l0 63 l419 0 l0 -63 l-196 0 q-21 -74 -60 -171 q-39 -97 -69 -153 l227 23 q-48 128 -74 188 l59 22 q34 -77 114 -286 l-59 -30 Z" /><glyph glyph-name="uni52A9" unicode="&#x52a9;" d="M895 652 l-19 -565 q-2 -48 -16 -73.5 q-14 -25.5 -44 -36 q-30 -10.5 -84 -10.5 l-87 0 l-12 64 l74 0 q44 0 65 6.5 q21 6.5 29.5 24 q8.5 17.5 10.5 53.5 q3 86 8 236.5 q5 150.5 8 235.5 l-161 0 q-2 -58 -2 -74 q-6 -163 -24 -260 q-18 -97 -55 -168 q-37 -71 -110 -158 l-51 50 q71 83 105.5 146 q34.5 63 50.5 151.5 q16 88.5 20 244.5 l1 68 l-103 0 l0 65 l104 0 l2 190 l66 0 l-3 -190 l227 0 ZM443 142 l59 8 l3 -67 l-437 -61 l-9 68 l70 9 l0 681 l314 0 l0 -638 ZM381 561 l0 154 l-189 0 l0 -154 l189 0 ZM192 353 l189 0 l0 145 l-189 0 l0 -145 ZM381 291 l-189 0 l0 -183 l189 26 l0 157 Z" /><glyph glyph-name="uni52E4" unicode="&#x52e4;" d="M904 637 q-2 -82 -7.5 -259 q-5.5 -177 -9.5 -294 q-2 -47 -14.5 -72.5 q-12.5 -25.5 -39 -36 q-26.5 -10.5 -74.5 -10.5 l-76 0 l-12 64 l66 0 q38 0 56.5 7 q18.5 7 26 24.5 q7.5 17.5 8.5 53.5 l16 458 l-131 0 q-4 -184 -15 -288 q-11 -104 -39 -185.5 q-28 -81.5 -85 -170.5 l-56 41 q58 83 84.5 156.5 q26.5 73.5 36 167.5 q9.5 94 15.5 279 l-92 0 l0 65 l93 0 q4 152 4 207 l61 0 q0 -24 -5 -207 l189 0 ZM539 61 l0 -54 l-473 -27 l-2 53 l224 13 l0 76 l-182 0 l0 49 l182 0 l0 65 l-202 0 l0 52 l202 0 l0 62 l-185 0 l0 170 l185 0 l0 64 l-124 0 l0 117 l-101 0 l0 54 l101 0 l0 86 l59 0 l0 -86 l187 0 l0 86 l59 0 l0 -86 l112 0 l0 -54 l-112 0 l0 -117 l-123 0 l0 -64 l188 0 l0 -170 l-188 0 l0 -62 l201 0 l0 -52 l-201 0 l0 -65 l183 0 l0 -49 l-183 0 l0 -72 l193 11 ZM410 701 l-187 0 l0 -69 l187 0 l0 69 ZM161 476 l0 -80 l127 0 l0 80 l-127 0 ZM476 396 l0 80 l-130 0 l0 -80 l130 0 Z" /><glyph glyph-name="uni52FF" unicode="&#x52ff;" d="M891 706 q-5 -89 -17.5 -284 q-12.5 -195 -20.5 -308 q-4 -58 -20 -88 q-16 -30 -50 -41.5 q-34 -11.5 -98 -11.5 l-132 0 l-13 67 l123 0 q48 0 72.5 8 q24.5 8 35.5 29.5 q11 21.5 14 65.5 q7 90 17 247.5 q10 157.5 15 247.5 l-127 0 q-28 -173 -72.5 -291 q-44.5 -118 -121 -213 q-76.5 -95 -204.5 -193 l-57 52 q127 93 202 180.5 q75 87.5 118 196.5 q43 109 68 268 l-139 0 q-48 -190 -131 -317 q-83 -127 -228 -234 l-53 52 q140 96 220 213 q80 117 123 286 l-142 0 q-79 -137 -167 -231 l-52 48 q77 81 141.5 186.5 q64.5 105.5 101.5 208.5 l66 -19 q-23 -63 -54 -125 l582 0 Z" /><glyph glyph-name="uni5316" unicode="&#x5316;" d="M368 821 q-38 -115 -94 -229 l0 -653 l-70 0 l0 528 q-57 -92 -125 -174 l-21 86 q68 81 135.5 208 q67.5 127 111.5 257 l63 -23 ZM929 252 l-7 -170 q-5 -62 -34.5 -87 q-29.5 -25 -101.5 -25 l-146 0 q-49 0 -77 11.5 q-28 11.5 -40 39 q-12 27.5 -12 77.5 l0 196 q-80 -57 -155 -103 l-36 66 q106 64 191 127 l0 456 l72 0 l0 -400 q148 119 279 273 l48 -51 q-154 -179 -327 -314 l0 -234 q0 -45 15 -60.5 q15 -15.5 59 -15.5 l117 0 q46 0 63 14 q17 14 19 54 q2 37 4 85.5 q2 48.5 2 76.5 l67 -16 Z" /><glyph glyph-name="uni534F" unicode="&#x534f;" d="M900 218 l-87 217 q-14 -268 -20 -348 q-3 -53 -16.5 -81 q-13.5 -28 -41 -39 q-27.5 -11 -78.5 -11 l-98 0 l-15 69 l92 0 q36 0 55 7 q19 7 28 25.5 q9 18.5 11 55.5 q5 87 13.5 239.5 q8.5 152.5 13.5 239.5 l-174 0 l0 -17 q-6 -169 -28 -276 q-22 -107 -71 -191 q-49 -84 -141 -178 l-53 42 q88 86 134 167.5 q46 81.5 66.5 181 q20.5 99.5 28.5 257.5 q0 9 1 14 l-170 0 l0 66 l172 0 q5 124 4 189 l62 0 l-1 -96 q-2 -60 -2 -93 l240 0 l-10 -193 l43 22 q30 -68 98 -240 l-56 -29 ZM318 575 l0 -66 l-98 0 l0 -571 l-67 0 l0 571 l-98 0 l0 66 l98 0 l0 270 l67 0 l0 -270 l98 0 ZM442 476 q-21 -68 -50 -143.5 q-29 -75.5 -57 -131.5 l-60 30 q64 120 108 264 l59 -19 Z" /><glyph glyph-name="uni5355" unicode="&#x5355;" d="M934 174 l0 -64 l-401 0 l0 -178 l-65 0 l0 178 l-402 0 l0 64 l402 0 l0 114 l-306 0 l0 420 l189 0 l-97 116 l50 36 l111 -128 l-38 -24 l194 0 q58 65 121 150 l59 -30 q-24 -34 -95 -120 l183 0 l0 -420 l-306 0 l0 -114 l401 0 ZM468 528 l0 119 l-240 0 l0 -119 l240 0 ZM533 528 l240 0 l0 119 l-240 0 l0 -119 ZM228 468 l0 -119 l240 0 l0 119 l-240 0 ZM533 468 l0 -119 l240 0 l0 119 l-240 0 Z" /><glyph glyph-name="uni5373" unicode="&#x5373;" d="M366 302 q29 -46 76 -125 q47 -79 76 -131 l-58 -32 q-5 9 -16 29.5 q-11 20.5 -21 37.5 l-20 37 l-287 -133 l-29 56 q17 14 23 25 q6 11 6 25 l0 700 l352 0 l0 -447 l-288 0 l0 -259 l191 89 q-26 47 -58 99 l53 29 ZM576 778 l311 0 l0 -574 q0 -61 -26 -86 q-26 -25 -89 -25 l-87 0 l-13 69 l76 0 q32 0 47.5 6.5 q15.5 6.5 20.5 20 q5 13.5 5 40.5 l0 480 l-181 0 l0 -774 l-64 0 l0 843 ZM406 596 l0 134 l-226 0 l0 -134 l226 0 ZM180 535 l0 -131 l226 0 l0 131 l-226 0 Z" /><glyph glyph-name="uni5378" unicode="&#x5378;" d="M379 673 l0 -153 l186 0 l0 -63 l-186 0 l0 -125 l157 0 l0 -61 l-157 0 l0 -155 l169 26 l2 -42 l1 -24 q-84 -12 -238.5 -35 q-154.5 -23 -241.5 -37 l-6 66 q33 4 70 10 l0 310 l63 0 l0 -301 l118 17 l0 351 l-248 0 l0 63 l248 0 l0 153 l-109 0 q-34 -66 -75 -122 l-55 35 q41 54 76.5 124.5 q35.5 70.5 59.5 142.5 l64 -19 q-15 -43 -38 -96 l298 0 l0 -65 l-158 0 ZM603 760 l296 0 l0 -566 q0 -62 -25 -85.5 q-25 -23.5 -87 -23.5 l-78 0 l-13 65 l69 0 q42 0 57 14 q15 14 15 53 l0 477 l-173 0 l0 -761 l-61 0 l0 827 Z" /><glyph glyph-name="uni5386" unicode="&#x5386;" d="M162 784 l775 0 l0 -69 l-705 0 l0 -269 q0 -123 -9 -205.5 q-9 -82.5 -34 -155 q-25 -72.5 -73 -152.5 l-61 54 q43 64 65.5 124.5 q22.5 60.5 32 136.5 q9.5 76 9.5 192 l0 344 ZM562 668 q0 -25 -3 -160 l311 0 q-4 -77 -12 -233.5 q-8 -156.5 -11 -186.5 q-4 -47 -18.5 -72.5 q-14.5 -25.5 -47.5 -37.5 q-33 -12 -92 -12 l-122 0 l-15 68 l117 0 q45 0 67 6.5 q22 6.5 31 24 q9 17.5 12 54.5 q4 62 10 161.5 q6 99.5 9 160.5 l-241 0 q-7 -126 -34 -211.5 q-27 -85.5 -82 -154.5 q-55 -69 -152 -142 l-54 56 q93 65 145.5 126.5 q52.5 61.5 77 137.5 q24.5 76 31.5 188 l-199 0 l0 67 l202 0 q0 17 1 27 l2 133 l67 0 Z" /><glyph glyph-name="uni538B" unicode="&#x538b;" d="M930 777 l0 -67 l-700 0 l0 -189 q0 -174 -8.5 -272 q-8.5 -98 -31 -169 q-22.5 -71 -70.5 -156 l-58 49 q43 76 63 134.5 q20 58.5 28 149 q8 90.5 8 257.5 l0 263 l769 0 ZM612 385 l0 -328 l325 0 l0 -67 l-701 0 l0 67 l305 0 l0 328 l-249 0 l0 66 l249 0 l0 215 l71 0 l0 -215 l284 0 l0 -66 l-284 0 ZM734 317 q28 -27 75.5 -77 q47.5 -50 82.5 -89 l-50 -47 q-25 31 -74 85 q-49 54 -79 84 l45 44 Z" /><glyph glyph-name="uni53C2" unicode="&#x53c2;" d="M666 465 q106 -125 278 -181 l-29 -64 q-206 80 -324 245 l-185 0 q-59 -77 -133 -132 q-74 -55 -187 -110 l-32 57 q88 37 152.5 80.5 q64.5 43.5 116.5 104.5 l-254 0 l0 59 l300 0 q32 47 57 92 l-261 -9 l-14 55 q80 44 157.5 98 q77.5 54 132.5 102 l49 -41 q-44 -37 -90 -69 q-46 -32 -124 -85 l417 14 q-77 58 -112 84 l39 40 q1 -1 67 -49 q21 -16 86.5 -63.5 q65.5 -47.5 101.5 -76.5 l-36 -49 l-76 60 l-260 -9 q-30 -54 -55 -94 l482 0 l0 -59 l-264 0 ZM614 353 q-169 -83 -369 -128 l-21 58 q94 19 190.5 51.5 q96.5 32.5 176.5 70.5 l23 -52 ZM168 132 q293 50 527 174 l26 -54 q-221 -117 -534 -175 l-19 55 ZM113 -16 q247 37 406 85.5 q159 48.5 296 124.5 l31 -54 q-137 -75 -305 -125.5 q-168 -50.5 -407 -88.5 l-21 58 Z" /><glyph glyph-name="uni53CC" unicode="&#x53cc;" d="M722 223 q80 -112 225 -225 l-43 -62 q-140 114 -224 229 q-93 -116 -264 -238 l-45 60 q92 61 157 118.5 q65 57.5 112 118.5 q-58 96 -94.5 212 q-36.5 116 -57.5 270 l0 68 l396 0 l0 -68 q-27 -165 -64 -278.5 q-37 -113.5 -98 -204.5 ZM391 89 q-45 83 -88 157 q-72 -133 -209 -291 l-49 56 q142 158 216 308 q-76 132 -169 285 l53 37 q86 -139 150 -248 q56 139 82 312 l-303 0 l0 68 l370 0 l0 -68 q-17 -116 -42 -209.5 q-25 -93.5 -63 -177.5 q56 -95 108 -187 l-56 -42 ZM554 706 q21 -136 51.5 -237.5 q30.5 -101.5 77.5 -183.5 q48 79 78 179 q30 100 54 242 l-261 0 Z" /><glyph glyph-name="uni53CD" unicode="&#x53cd;" d="M910 -67 q-203 74 -331 172 q-65 -49 -150 -91.5 q-85 -42.5 -199 -85.5 l-38 70 q210 72 330 155 q-68 63 -121.5 142.5 q-53.5 79.5 -97.5 181.5 l-49 0 q0 -143 -11 -231 q-11 -88 -40 -159 q-29 -71 -87 -158 l-57 56 q55 78 81.5 140.5 q26.5 62.5 36 142.5 q9.5 80 9.5 220 l0 263 q422 17 689 59 l12 -70 q-246 -35 -633 -55 l0 -137 l594 0 l0 -71 q-42 -106 -92.5 -184.5 q-50.5 -78.5 -118.5 -140.5 q123 -88 306 -145 l-33 -74 ZM378 477 q77 -171 201 -279 q65 55 111.5 123 q46.5 68 79.5 156 l-392 0 Z" /><glyph glyph-name="uni53D1" unicode="&#x53d1;" d="M786 684 q-94 58 -176 105 l34 57 l175 -103 l-33 -59 ZM903 -65 q-210 65 -332 153 q-64 -42 -147 -79.5 q-83 -37.5 -197 -77.5 l-31 66 q198 64 317 136 q-98 88 -159 217 q-43 -101 -106 -193.5 q-63 -92.5 -154 -189.5 l-39 68 q114 116 185.5 246 q71.5 130 111.5 297 l-237 0 l0 58 l47 190 l70 -16 l-41 -168 l175 0 q20 95 30 202 l70 -6 q-13 -117 -29 -196 l490 0 l0 -64 l-503 0 q-14 -66 -35 -131 l431 0 l0 -65 q-39 -80 -85 -140 q-46 -60 -104 -109 q114 -74 300 -127 l-28 -71 ZM413 382 q57 -124 161 -208 q56 44 97.5 94.5 q41.5 50.5 71.5 113.5 l-330 0 Z" /><glyph glyph-name="uni53E5" unicode="&#x53e5;" d="M870 730 l-11 -636 q-2 -56 -18.5 -86.5 q-16.5 -30.5 -54 -43.5 q-37.5 -13 -105.5 -13 l-146 0 l-12 73 l134 0 q54 0 81.5 9 q27.5 9 37.5 30 q10 21 11 61 q3 97 6 268 q3 171 4 268 l-513 0 q-78 -139 -182 -247 l-42 69 q73 72 133 167 q60 95 104 200 l69 -20 q-21 -51 -45 -99 l549 0 ZM209 513 l404 0 l0 -385 l-404 0 l0 385 ZM276 196 l269 0 l0 248 l-269 0 l0 -248 Z" /><glyph glyph-name="uni53EA" unicode="&#x53ea;" d="M170 317 l0 465 l659 0 l0 -465 l-659 0 ZM759 715 l-519 0 l0 -330 l519 0 l0 330 ZM54 -4 q74 48 154 121.5 q80 73.5 139 144.5 l52 -52 q-55 -68 -137 -145.5 q-82 -77.5 -157 -130.5 l-51 62 ZM645 259 q76 -65 288 -258 l-52 -61 q-53 54 -138.5 133.5 q-85.5 79.5 -146.5 131.5 l49 54 Z" /><glyph glyph-name="uni53EF" unicode="&#x53ef;" d="M938 779 l0 -66 l-126 0 l0 -625 q0 -56 -12.5 -84 q-12.5 -28 -43.5 -39.5 q-31 -11.5 -93 -11.5 l-130 0 l-13 69 l128 0 q41 0 60.5 6 q19.5 6 26.5 23.5 q7 17.5 7 54.5 l0 607 l-680 0 l0 66 l876 0 ZM167 557 l397 0 l0 -391 l-397 0 l0 391 ZM233 231 l264 0 l0 261 l-264 0 l0 -261 Z" /><glyph glyph-name="uni53F0" unicode="&#x53f0;" d="M647 749 q48 -49 130.5 -138.5 q82.5 -89.5 135.5 -149.5 l-49 -48 l-71 80 l-667 -34 l-18 68 q88 68 178 158 q90 90 145 163 l62 -36 q-56 -68 -132 -147.5 q-76 -79.5 -136 -132.5 l509 26 q-102 112 -134 145 l47 46 ZM245 -67 l-67 0 l0 411 l644 0 l0 -411 l-69 0 l0 61 l-508 0 l0 -61 ZM753 60 l0 218 l-508 0 l0 -218 l508 0 Z" /><glyph glyph-name="uni5403" unicode="&#x5403;" d="M934 715 l0 -67 l-393 0 q-53 -96 -116 -175 l-50 51 q59 75 101.5 153 q42.5 78 79.5 177 l66 -23 q-23 -64 -48 -116 l360 0 ZM171 31 l-62 0 l0 720 l251 0 l0 -636 l-189 0 l0 -84 ZM299 184 l0 500 l-128 0 l0 -500 l128 0 ZM858 216 l67 -14 l-1 -28 l-5 -104 q-3 -40 -15 -61.5 q-12 -21.5 -37.5 -30.5 q-25.5 -9 -72.5 -9 l-262 0 q-42 0 -69.5 22 q-27.5 22 -27.5 61 q0 32 22.5 72.5 q22.5 40.5 85.5 113.5 q63 73 186 200 l-260 0 l0 67 l356 0 l0 -66 q-131 -132 -199 -207 q-68 -75 -91 -110.5 q-23 -35.5 -23 -54.5 q0 -35 42 -35 l232 0 q29 0 43 5.5 q14 5.5 19.5 18.5 q5.5 13 6.5 39 l3 121 Z" /><glyph glyph-name="uni5408" unicode="&#x5408;" d="M530 841 q69 -106 175.5 -193.5 q106.5 -87.5 234.5 -147.5 l-32 -66 q-89 43 -164 96 l0 -64 l-490 0 l0 59 q-81 -59 -161 -103 l-31 68 q124 65 234.5 159.5 q110.5 94.5 173.5 191.5 l60 0 ZM744 530 q-146 102 -244 239 q-90 -127 -240 -239 l484 0 ZM256 -57 l-69 0 l0 393 l623 0 l0 -394 l-68 0 l0 55 l-486 0 l0 -54 ZM742 60 l0 212 l-486 0 l0 -212 l486 0 Z" /><glyph glyph-name="uni540C" unicode="&#x540c;" d="M879 70 q0 -47 -11.5 -72 q-11.5 -25 -38.5 -35 q-27 -10 -77 -10 l-113 0 l-13 64 l105 0 q33 0 49.5 5.5 q16.5 5.5 23 20.5 q6.5 15 6.5 45 l0 637 l-628 0 l0 -780 l-68 0 l0 844 l765 0 l0 -719 ZM249 602 l497 0 l0 -61 l-497 0 l0 61 ZM310 428 l372 0 l0 -311 l-372 0 l0 311 ZM373 368 l0 -192 l246 0 l0 192 l-246 0 Z" /><glyph glyph-name="uni540D" unicode="&#x540d;" d="M854 346 l0 -413 l-68 0 l0 65 l-473 0 l0 -65 l-67 0 l0 344 q-69 -24 -165 -52 l-26 63 q248 66 419 161 q171 95 289 227 l-388 0 q-30 -32 -58 -57 q66 -49 145 -110 l-46 -52 l-149 118 q-68 -57 -137 -103 l-42 59 q97 59 193 150 q96 91 156 175 l63 -26 q-32 -48 -67 -90 l420 0 l0 -64 q-86 -105 -193 -185.5 q-107 -80.5 -245 -144.5 l439 0 ZM313 282 l0 -223 l473 0 l0 223 l-473 0 Z" /><glyph glyph-name="uni540E" unicode="&#x540e;" d="M236 554 l692 0 l0 -65 l-692 0 q0 -127 -9.5 -213.5 q-9.5 -86.5 -35 -164.5 q-25.5 -78 -74.5 -164 l-60 43 q49 83 73 154.5 q24 71.5 32 154 q8 82.5 8 216.5 l0 246 q163 4 353 19.5 q190 15.5 333 37.5 l17 -67 q-126 -19 -305 -33.5 q-179 -14.5 -332 -21.5 l0 -142 ZM382 -60 l-67 0 l0 401 l526 0 l0 -401 l-67 0 l0 69 l-392 0 l0 -69 ZM774 71 l0 206 l-392 0 l0 -206 l392 0 Z" /><glyph glyph-name="uni5410" unicode="&#x5410;" d="M709 472 l0 -418 l230 0 l0 -67 l-551 0 l0 67 l252 0 l0 418 l-196 0 l0 69 l196 0 l0 307 l69 0 l0 -307 l206 0 l0 -69 l-206 0 ZM174 17 l-65 0 l0 716 l276 0 l0 -637 l-211 0 l0 -79 ZM319 165 l0 500 l-145 0 l0 -500 l145 0 Z" /><glyph glyph-name="uni544A" unicode="&#x544a;" d="M550 475 l386 0 l0 -66 l-869 0 l0 66 l415 0 l0 157 l-237 0 q-39 -73 -73 -118 l-59 37 q48 66 81.5 130.5 q33.5 64.5 57.5 136.5 l63 -22 q-16 -50 -38 -98 l205 0 l0 143 l68 0 l0 -143 l326 0 l0 -66 l-326 0 l0 -157 ZM251 -67 l-68 0 l0 365 l639 0 l0 -365 l-71 0 l0 50 l-500 0 l0 -50 ZM751 48 l0 185 l-500 0 l0 -185 l500 0 Z" /><glyph glyph-name="uni548C" unicode="&#x548c;" d="M304 566 l170 0 l0 -67 l-170 0 l0 -85 q37 -28 88.5 -72 q51.5 -44 79.5 -70 l-31 -58 l-137 124 l0 -404 l-66 0 l0 438 q-32 -71 -72 -138 q-40 -67 -82 -118 l-35 66 q55 66 103 148.5 q48 82.5 82 168.5 l-164 0 l0 67 l168 0 l0 145 q-85 -17 -155 -26 l-7 64 q89 13 192.5 34 q103.5 21 175.5 42 l13 -66 q-83 -21 -153 -35 l0 -158 ZM526 -37 l0 779 l360 0 l0 -771 l-66 0 l0 75 l-228 0 l0 -83 l-66 0 ZM592 673 l0 -556 l228 0 l0 556 l-228 0 Z" /><glyph glyph-name="uni5495" unicode="&#x5495;" d="M932 654 l0 -66 l-226 0 l0 -208 l178 0 l0 -449 l-68 0 l0 67 l-289 0 l0 -67 l-67 0 l0 449 l178 0 l0 208 l-227 0 l0 66 l227 0 l0 186 l68 0 l0 -186 l226 0 ZM168 -13 l-63 0 l0 735 l259 0 l0 -650 l-196 0 l0 -85 ZM302 141 l0 512 l-134 0 l0 -512 l134 0 ZM527 63 l289 0 l0 250 l-289 0 l0 -250 Z" /><glyph glyph-name="uni54C8" unicode="&#x54c8;" d="M673 840 q45 -99 114.5 -182.5 q69.5 -83.5 155.5 -145.5 l-35 -59 q-82 60 -150 140.5 q-68 80.5 -114 171.5 q-40 -85 -107 -169.5 q-67 -84.5 -142 -146.5 l-37 56 q81 67 148.5 154 q67.5 87 109.5 181 l57 0 ZM163 25 l-61 0 l0 709 l246 0 l0 -626 l-185 0 l0 -83 ZM286 173 l0 497 l-123 0 l0 -497 l123 0 ZM478 460 l0 63 l331 0 l0 -63 l-331 0 ZM497 -62 l-61 0 l0 390 l416 0 l0 -391 l-61 0 l0 59 l-294 0 l0 -58 ZM791 56 l0 211 l-294 0 l0 -211 l294 0 Z" /><glyph glyph-name="uni54E6" unicode="&#x54e6;" d="M946 186 q-9 -85 -16 -128 q-11 -62 -30 -88 q-19 -26 -50 -26 q-29 0 -52.5 23.5 q-23.5 23.5 -48.5 78.5 q-15 32 -28 81 q-59 -56 -125 -99 l-33 55 q79 52 142 115 q-20 106 -32 292 l-135 0 l0 -149 l91 30 l10 -62 l-101 -34 l0 -216 q0 -39 -10 -60.5 q-10 -21.5 -33.5 -30.5 q-23.5 -9 -67.5 -9 l-69 0 l-12 63 l64 0 q29 0 43 4.5 q14 4.5 19 16.5 q5 12 5 37 l0 174 l-120 -40 l-11 65 l131 43 l0 168 l-129 0 l0 65 l129 0 l0 139 q-50 -11 -91 -17 l-10 60 q59 10 125.5 27 q66.5 17 114.5 34 l15 -60 q-37 -14 -93 -29 l0 -154 l131 0 q-4 56 -5 93 l-6 195 l60 0 l7 -198 l4 -90 l203 0 l0 -65 l-199 0 q11 -144 25 -234 q74 90 118 184 l49 -32 q-59 -124 -153 -229 q13 -63 32 -106 q12 -29 22.5 -41.5 q10.5 -12.5 22.5 -12.5 q10 0 17.5 14.5 q7.5 14.5 13.5 61.5 l15 109 l51 -18 ZM874 614 q-37 55 -112 147 l45 38 q86 -105 114 -144 l-47 -41 ZM156 29 l-60 0 l0 710 l216 0 l0 -624 l-156 0 l0 -86 ZM253 181 l0 491 l-97 0 l0 -491 l97 0 Z" /><glyph glyph-name="uni54EA" unicode="&#x54ea;" d="M327 730 l0 64 l294 0 l-4 -706 q0 -65 -23.5 -89.5 q-23.5 -24.5 -82.5 -24.5 l-59 0 l-11 58 l49 0 q31 0 46 5 q15 5 20.5 20.5 q5.5 15.5 5.5 48.5 l1 162 l-111 0 q-12 -103 -42.5 -176.5 q-30.5 -73.5 -91.5 -154.5 l-46 43 q60 77 88 137.5 q28 60.5 39 150.5 l-67 0 l0 64 l73 0 q4 82 4 144 l0 16 l-72 0 l0 65 l73 0 l1 173 l-84 0 ZM856 455 q46 -74 63.5 -128 q17.5 -54 17.5 -112 q0 -81 -28.5 -114.5 q-28.5 -33.5 -95.5 -33.5 l-38 0 l-12 60 l36 0 q46 0 64.5 21.5 q18.5 21.5 18.5 75.5 q0 46 -18 98.5 q-18 52.5 -62 119.5 l71 284 l-129 0 l0 -791 l-59 0 l0 852 l240 0 l0 -61 l-69 -271 ZM295 756 l0 -620 l-144 0 l0 -85 l-57 0 l0 705 l201 0 ZM565 557 q0 113 1 145 l0 28 l-101 0 l-2 -173 l102 0 ZM239 197 l0 499 l-88 0 l0 -499 l88 0 ZM563 332 l1 160 l-102 0 l0 -14 q0 -74 -5 -146 l106 0 Z" /><glyph glyph-name="uni5546" unicode="&#x5546;" d="M935 679 l-226 0 l-45 -132 l208 0 l0 -482 q0 -45 -12 -69.5 q-12 -24.5 -38.5 -34.5 q-26.5 -10 -73.5 -10 l-115 0 l-11 62 l108 0 q45 0 61 15 q16 15 16 56 l0 402 l-610 0 l0 -540 l-66 0 l0 601 l210 0 l-40 132 l-236 0 l0 63 l419 0 l-43 98 l70 15 q43 -94 51 -113 l373 0 l0 -63 ZM409 547 l185 0 l46 132 l-273 0 l42 -132 ZM449 424 q-34 -34 -92 -83.5 q-58 -49.5 -106 -86.5 l-38 46 q45 32 102 80 q57 48 92 83 l42 -39 ZM598 462 l191 -162 l-42 -46 l-191 168 l42 40 ZM325 304 l350 0 l0 -250 l-350 0 l0 250 ZM384 113 l233 0 l0 132 l-233 0 l0 -132 Z" /><glyph glyph-name="uni554A" unicode="&#x554a;" d="M557 730 l-56 -244 q61 -121 61 -231 q0 -58 -10 -88 q-10 -30 -31.5 -41.5 q-21.5 -11.5 -61.5 -11.5 l-31 0 l-13 58 l34 0 q27 0 39.5 6.5 q12.5 6.5 17 24.5 q4.5 18 4.5 57 q0 48 -16.5 103 q-16.5 55 -47.5 111 l58 257 l-102 0 l0 -794 l-56 0 l0 855 l211 0 l0 -62 ZM945 775 l0 -57 l-55 0 l0 -644 q0 -47 -11 -72.5 q-11 -25.5 -38 -36 q-27 -10.5 -78 -10.5 l-98 0 l-11 59 l96 0 q36 0 52.5 5.5 q16.5 5.5 22 20 q5.5 14.5 5.5 44.5 l0 634 l-244 0 l0 57 l359 0 ZM151 38 l-54 0 l0 718 l191 0 l0 -638 l-137 0 l0 -80 ZM234 181 l0 511 l-83 0 l0 -511 l83 0 ZM597 581 l165 0 l0 -398 l-165 0 l0 398 ZM644 244 l70 0 l0 276 l-70 0 l0 -276 Z" /><glyph glyph-name="uni5668" unicode="&#x5668;" d="M126 805 l320 0 l0 -243 l-320 0 l0 243 ZM547 805 l324 0 l0 -243 l-324 0 l0 243 ZM184 618 l203 0 l0 130 l-203 0 l0 -130 ZM607 618 l206 0 l0 130 l-206 0 l0 -130 ZM922 222 q-38 6 -56 10 l0 -295 l-59 0 l0 53 l-201 0 l0 -53 l-60 0 l0 303 l282 0 q-205 47 -313 161 l-40 0 q-39 -53 -110.5 -90 q-71.5 -37 -200.5 -71 l282 0 l0 -303 l-59 0 l0 53 l-196 0 l0 -53 l-60 0 l0 294 l-56 -13 l-18 61 q132 24 210.5 53 q78.5 29 122.5 69 l-311 0 l0 59 l356 0 q18 31 31 85 l70 -9 q-12 -41 -27 -76 l185 0 l-40 65 l61 18 l51 -83 l152 0 l0 -59 l-318 0 q54 -46 137.5 -75 q83.5 -29 203.5 -44 l-19 -60 ZM387 44 l0 140 l-196 0 l0 -140 l196 0 ZM606 184 l0 -140 l201 0 l0 140 l-201 0 Z" /><glyph glyph-name="uni56DB" unicode="&#x56db;" d="M121 -67 l0 835 l764 0 l0 -835 l-67 0 l0 78 l-631 0 l0 -78 l-66 0 ZM187 77 l631 0 l0 180 l-114 0 q-69 0 -98 26.5 q-29 26.5 -29 96.5 l0 324 l-151 0 l0 -159 q0 -89 -14.5 -145 q-14.5 -56 -50 -100 q-35.5 -44 -104.5 -99 l-49 46 q66 49 97 87.5 q31 38.5 42.5 86 q11.5 47.5 11.5 127.5 l0 156 l-172 0 l0 -627 ZM818 325 l0 379 l-176 0 l0 -300 q0 -33 7 -49.5 q7 -16.5 23.5 -23 q16.5 -6.5 50.5 -6.5 l95 0 Z" /><glyph glyph-name="uni56DE" unicode="&#x56de;" d="M114 -67 l0 860 l767 0 l0 -860 l-68 0 l0 74 l-631 0 l0 -74 l-68 0 ZM182 724 l0 -650 l631 0 l0 650 l-631 0 ZM317 221 l0 358 l360 0 l0 -358 l-360 0 ZM377 284 l240 0 l0 233 l-240 0 l0 -233 Z" /><glyph glyph-name="uni56FD" unicode="&#x56fd;" d="M112 -67 l0 866 l778 0 l0 -866 l-70 0 l0 58 l-639 0 l0 -58 l-69 0 ZM181 735 l0 -682 l639 0 l0 682 l-639 0 ZM528 387 l0 -177 l244 0 l0 -59 l-543 0 l0 59 l234 0 l0 177 l-195 0 l0 60 l195 0 l0 132 l-208 0 l0 59 l493 0 l0 -59 l-220 0 l0 -132 l209 0 l0 -60 l-209 0 ZM677 226 q-37 50 -88 112 l41 34 q71 -89 87 -111 l-40 -35 Z" /><glyph glyph-name="uni56FE" unicode="&#x56fe;" d="M111 -67 l0 863 l776 0 l0 -863 l-63 0 l0 55 l-649 0 l0 -55 l-64 0 ZM175 736 l0 -690 l649 0 l0 690 l-649 0 ZM556 446 q92 -41 243 -71 l-22 -57 q-172 40 -277 95 q-107 -56 -277 -104 l-22 56 q141 35 244 81 q-60 41 -116 101 q-39 -41 -90 -80 l-31 42 q54 40 102.5 96.5 q48.5 56.5 80.5 110.5 l51 -21 q-16 -27 -43 -65 l321 0 l0 -49 q-79 -82 -164 -135 ZM368 581 q59 -65 133 -107 q84 46 141 107 l-274 0 ZM367 343 q159 -33 275 -61 l-9 -52 q-54 15 -134 32.5 q-80 17.5 -141 29.5 l9 51 ZM286 220 q72 -13 199 -40.5 q127 -27.5 203 -46.5 l-10 -53 q-70 18 -194.5 45.5 q-124.5 27.5 -205.5 43.5 l8 51 Z" /><glyph glyph-name="uni5728" unicode="&#x5728;" d="M402 654 q-58 -126 -133 -231 l0 -486 l-67 0 l0 401 q-50 -59 -116 -118 l-33 71 q78 65 148 158.5 q70 93.5 125 204.5 l-263 0 l0 67 l294 0 q27 63 51 136 l66 -16 q-21 -67 -43 -120 l495 0 l0 -67 l-524 0 ZM660 339 l0 -274 l274 0 l0 -65 l-619 0 l0 65 l277 0 l0 274 l-232 0 l0 65 l232 0 l0 174 l68 0 l0 -174 l238 0 l0 -65 l-238 0 Z" /><glyph glyph-name="uni5730" unicode="&#x5730;" d="M938 197 q0 -22 -1 -46 q-1 -24 -2 -43 l-2 -37 q-3 -41 -16 -63.5 q-13 -22.5 -41.5 -32 q-28.5 -9.5 -81.5 -9.5 l-250 0 q-50 0 -78.5 10.5 q-28.5 10.5 -41.5 37 q-13 26.5 -13 75.5 l0 343 l-86 -30 l-18 63 l104 36 l0 252 l64 0 l0 -229 l131 46 l0 272 l62 0 l0 -251 l216 76 l-11 -352 q-3 -40 -12 -61 q-9 -21 -30.5 -30 q-21.5 -9 -62.5 -9 l-55 0 l-12 66 l39 0 q30 0 44 4.5 q14 4.5 19.5 17.5 q5.5 13 6.5 40 l9 234 l-151 -53 l0 -398 l-62 0 l0 376 l-131 -47 l0 -339 q0 -37 5.5 -55 q5.5 -18 22 -25 q16.5 -7 51.5 -7 l216 0 q43 0 63.5 5.5 q20.5 5.5 28 21 q7.5 15.5 9.5 48.5 l3 107 l64 -14 ZM244 161 l116 39 l6 -33 l4 -29 l-296 -100 l-17 60 l123 41 l0 373 l-108 0 l0 66 l108 0 l0 244 l64 0 l0 -244 l89 0 l0 -66 l-89 0 l0 -351 Z" /><glyph glyph-name="uni5757" unicode="&#x5757;" d="M630 313 q35 -109 108 -183.5 q73 -74.5 198 -127.5 l-36 -67 q-114 53 -190 127 q-76 74 -118 174 q-30 -88 -97.5 -161.5 q-67.5 -73.5 -182.5 -146.5 l-38 64 q125 73 188.5 147.5 q63.5 74.5 81.5 173.5 l-207 0 l0 67 l214 0 q1 8 1 23 l0 212 l-169 0 l0 67 l170 0 l0 164 l69 0 q0 -83 -1 -164 l227 0 l0 -302 l85 0 l0 -67 l-303 0 ZM362 185 l6 -36 q-57 -17 -156 -48 q-99 -31 -135 -44 l-17 71 q68 18 123 35 l0 341 l-117 0 l0 66 l117 0 l0 267 l63 0 l0 -267 l112 0 l0 -66 l-112 0 l0 -322 q78 23 111 36 l5 -33 ZM619 407 q0 -18 -1 -27 l166 0 l0 235 l-163 0 q0 -164 -2 -208 Z" /><glyph glyph-name="uni57DF" unicode="&#x57df;" d="M944 186 q-6 -52 -18 -123 q-11 -69 -31 -94 q-20 -25 -54 -25 q-29 0 -53 21.5 q-24 21.5 -46 72.5 q-13 30 -24 69 q-69 -90 -161 -168 l-45 53 q118 98 186 194 q-36 172 -46 437 l-310 0 l0 62 l308 0 q-3 96 -3 158 l62 1 q0 -60 3 -159 l98 0 q-19 62 -43 121 l52 18 l51 -139 l68 0 l0 -62 l-225 0 q6 -212 31 -365 q62 111 112 282 l56 -18 q-57 -205 -150 -351 q14 -57 31 -98 q14 -31 25 -42 q11 -11 23 -11 q13 0 20.5 17 q7.5 17 15.5 64 l13 102 l54 -17 ZM343 148 q-54 -15 -153 -44.5 q-99 -29.5 -124 -39.5 l-14 68 l120 34 l0 359 l-103 0 l0 65 l103 0 l0 243 l63 0 l0 -243 l91 0 l0 -65 l-91 0 l0 -340 l55 17 q42 13 43 13 l10 -67 ZM365 238 l0 275 l225 0 l0 -275 l-225 0 ZM419 297 l116 0 l0 158 l-116 0 l0 -158 ZM613 104 q-57 -13 -169 -41 q-112 -28 -133 -34 l-15 65 q25 5 137 32 q112 27 169 42 l11 -64 Z" /><glyph glyph-name="uni57FA" unicode="&#x57fa;" d="M692 317 q48 -58 105.5 -97 q57.5 -39 143.5 -76 l-28 -58 q-100 45 -169 98 q-69 53 -125 133 l-240 0 q-45 -68 -121.5 -130.5 q-76.5 -62.5 -173.5 -107.5 l-28 59 q81 34 145 80 q64 46 105 99 l-238 0 l0 55 l170 0 l0 327 l-137 0 l0 54 l137 0 l0 90 l66 0 l0 -90 l390 0 l0 90 l66 0 l0 -90 l139 0 l0 -54 l-139 0 l0 -327 l172 0 l0 -55 l-240 0 ZM694 624 l0 75 l-390 0 l0 -75 l390 0 ZM694 572 l-390 0 l0 -74 l390 0 l0 74 ZM694 447 l-390 0 l0 -75 l390 0 l0 75 ZM728 120 l-193 0 l0 -100 l351 0 l0 -58 l-775 0 l0 58 l358 0 l0 100 l-203 0 l0 55 l203 0 l0 96 l66 0 l0 -96 l193 0 l0 -55 Z" /><glyph glyph-name="uni586B" unicode="&#x586b;" d="M852 166 l86 0 l0 -51 l-623 0 l0 44 q-37 -16 -75 -30 q-127 -50 -166 -68 l-18 64 q33 12 121 47 l0 345 l-110 0 l0 65 l110 0 l0 249 l62 0 l0 -249 l104 0 l0 -65 l-104 0 l0 -320 l89 37 l8 -35 l7 -28 l-12 -5 l68 0 l0 466 l194 0 l0 77 l-254 0 l0 53 l254 0 l0 84 l63 0 l0 -84 l261 0 l0 -53 l-261 0 l0 -77 l196 0 l0 -466 ZM791 513 l0 68 l-331 0 l0 -68 l331 0 ZM460 400 l331 0 l0 65 l-331 0 l0 -65 ZM791 287 l0 66 l-331 0 l0 -66 l331 0 ZM791 239 l-331 0 l0 -73 l331 0 l0 73 ZM289 -15 q68 25 134.5 57.5 q66.5 32.5 112.5 63.5 l30 -53 q-106 -66 -251 -123 l-26 55 ZM702 100 l41 -19 q134 -61 195 -91 l-25 -55 q-50 27 -119 59.5 q-69 32.5 -117 53.5 l25 52 Z" /><glyph glyph-name="uni589E" unicode="&#x589e;" d="M896 721 l0 -320 l-535 0 l0 320 l149 0 l-73 101 l55 27 l87 -128 l97 0 q61 85 89 133 l59 -27 q-46 -69 -72 -106 l144 0 ZM230 171 l105 35 l3 -38 l3 -30 l-276 -88 l-15 62 l119 39 l0 368 l-103 0 l0 65 l103 0 l0 256 l61 0 l0 -256 l92 0 l0 -65 l-92 0 l0 -348 ZM601 664 l-185 0 l0 -205 l185 0 l0 205 ZM655 459 l186 0 l0 205 l-186 0 l0 -205 ZM489 640 q36 -51 82 -126 l-44 -28 q-52 85 -81 127 l43 27 ZM683 515 q20 27 87 123 l42 -29 q-52 -79 -86 -125 l-43 31 ZM461 -67 l-61 0 l0 391 l454 0 l0 -391 l-59 0 l0 49 l-334 0 l0 -49 ZM795 180 l0 88 l-334 0 l0 -88 l334 0 ZM461 126 l0 -88 l334 0 l0 88 l-334 0 Z" /><glyph glyph-name="uni58C1" unicode="&#x58c1;" d="M936 564 l0 -55 l-198 0 l0 -96 l177 0 l0 -54 l-177 0 l0 -111 l-63 0 l0 111 l-172 0 l0 54 l172 0 l0 96 l-191 0 l0 55 l116 0 q-11 59 -25 129 l-69 0 l0 55 l180 0 q-19 62 -30 94 l61 11 q7 -21 33 -105 l169 0 l0 -55 l-75 0 q-11 -51 -31 -129 l123 0 ZM177 456 q-21 -82 -71 -160 l-44 51 q39 66 57 132 q18 66 18 161 l0 153 l315 0 l0 -210 l-256 0 q-3 -44 -9 -83 l268 0 l0 -202 l-278 0 l0 158 ZM392 637 l0 103 l-195 0 l0 -103 l195 0 ZM632 693 l25 -129 l101 0 q14 55 30 129 l-156 0 ZM399 449 l-166 0 l0 -100 l166 0 l0 100 ZM857 137 l-325 0 l0 -114 l392 0 l0 -57 l-848 0 l0 57 l392 0 l0 114 l-324 0 l0 56 l324 0 l0 80 l64 0 l0 -80 l325 0 l0 -56 Z" /><glyph glyph-name="uni590D" unicode="&#x590d;" d="M918 -61 q-231 32 -389 90 q-164 -58 -432 -100 l-19 58 q213 29 368 77 q-101 47 -184 116 q-71 -65 -167 -118 l-32 53 q78 42 142.5 95.5 q64.5 53.5 109.5 112.5 l-124 0 l0 293 q-42 -49 -104 -106 l-35 60 q68 60 126 133.5 q58 73.5 95 146.5 l68 -15 q-10 -20 -32 -56 l-11 -19 l616 0 l0 -57 l-654 0 q-24 -34 -57 -73 l628 0 l0 -307 l-440 0 q-36 -46 -59 -72 l505 0 l0 -53 q-101 -81 -223 -135 q140 -41 318 -60 l-14 -64 ZM763 500 l0 76 l-505 0 l0 -76 l505 0 ZM763 454 l-505 0 l0 -79 l505 0 l0 79 ZM331 198 q84 -64 198 -107 q131 49 210 107 l-408 0 Z" /><glyph glyph-name="uni591A" unicode="&#x591a;" d="M390 692 q-36 -26 -56 -39 l141 -76 l-44 -46 q-57 34 -155 86 q-69 -40 -135 -71 l-37 54 q116 52 216 121.5 q100 69.5 164 139.5 l60 -28 q-32 -39 -79 -80 l406 0 l0 -61 q-131 -117 -319 -203 q-188 -86 -452 -145 l-28 58 q234 49 408 120.5 q174 71.5 292 169.5 l-382 0 ZM900 379 l0 -59 q-87 -97 -185 -165 q-98 -68 -245.5 -124.5 q-147.5 -56.5 -371.5 -105.5 l-31 66 q211 43 351.5 92 q140.5 49 230.5 106 q90 57 161 131 l-350 0 q-50 -36 -77 -53 q50 -30 148 -86 l-46 -49 q-23 15 -109 68 l-51 32 q-84 -49 -191 -93 l-34 56 q141 55 259 131 q118 76 189 156 l55 -29 q-29 -32 -72 -74 l369 0 Z" /><glyph glyph-name="uni591C" unicode="&#x591c;" d="M930 728 l0 -64 l-855 0 l0 64 l407 0 q-17 42 -50 111 l75 14 q40 -84 57 -125 l366 0 ZM906 -57 q-183 67 -291 150 q-101 -81 -292 -163 l-36 62 q178 72 277 144 q-90 85 -153 213 q-39 -58 -85 -113 l-45 46 q132 161 209 366 l62 -18 q-13 -36 -35 -85 l344 0 l0 -63 q-36 -114 -81.5 -196.5 q-45.5 -82.5 -112.5 -147.5 q105 -75 269 -129 l-30 -66 ZM331 623 q-40 -96 -78 -162 l0 -528 l-64 0 l0 424 q-45 -66 -105 -130 l-30 60 q132 149 217 356 l60 -20 ZM448 409 q32 -71 72.5 -128 q40.5 -57 94.5 -103 q64 57 106.5 130.5 q42.5 73.5 73.5 173.5 l-308 0 q-20 -42 -39 -73 ZM647 286 q-30 39 -109 123 l39 41 q74 -77 111 -120 l-41 -44 Z" /><glyph glyph-name="uni5927" unicode="&#x5927;" d="M533 509 q30 -160 128.5 -282.5 q98.5 -122.5 280.5 -222.5 l-43 -66 q-304 178 -394 435 q-43 -129 -145 -237 q-102 -108 -252 -202 l-44 68 q378 216 398 524 l-383 0 l0 69 l384 0 l0 249 l72 0 l0 -249 l387 0 l0 -69 l-388 0 l-1 -17 Z" /><glyph glyph-name="uni5929" unicode="&#x5929;" d="M537 417 q38 -141 133.5 -237 q95.5 -96 265.5 -171 l-37 -74 q-163 81 -257 170.5 q-94 89.5 -138 210.5 q-84 -226 -399 -385 l-40 67 q179 86 275.5 190 q96.5 104 114.5 229 l-382 0 l0 67 l387 0 l0 226 l-333 0 l0 64 l741 0 l0 -64 l-335 0 l0 -226 l390 0 l0 -67 l-386 0 Z" /><glyph glyph-name="uni5939" unicode="&#x5939;" d="M537 292 q46 -105 139.5 -174 q93.5 -69 260.5 -115 l-29 -68 q-160 49 -255.5 118 q-95.5 69 -150.5 172 q-87 -166 -404 -291 l-34 63 q339 128 393 295 l-383 0 l0 63 l393 0 l0 4 l0 288 l-353 0 l0 64 l353 0 l0 135 l68 0 l0 -135 l352 0 l0 -64 l-352 0 l0 -292 l392 0 l0 -63 l-390 0 ZM634 437 q37 40 78 90.5 q41 50.5 65 85.5 l51 -38 q-53 -75 -145 -180 l-49 42 ZM219 612 q91 -107 144 -179 l-51 -40 q-59 83 -143 180 l50 39 Z" /><glyph glyph-name="uni594B" unicode="&#x594b;" d="M917 356 q-53 22 -92 42 l0 -463 l-64 0 l0 59 l-520 0 l0 -59 l-65 0 l0 456 q-35 -20 -92 -49 l-28 65 q210 95 326 254 l-293 0 l0 64 l334 0 q34 57 56 131 l69 -10 q-16 -54 -48 -121 l410 0 l0 -64 l-298 0 q53 -78 134 -136 q81 -58 200 -103 l-29 -66 ZM726 457 q-62 42 -108.5 92 q-46.5 50 -83.5 112 l-70 0 q-73 -116 -189 -204 l451 0 ZM241 255 l227 0 l0 142 l-227 0 l0 -142 ZM531 255 l230 0 l0 142 l-230 0 l0 -142 ZM468 197 l-227 0 l0 -145 l227 0 l0 145 ZM531 197 l0 -145 l230 0 l0 145 l-230 0 Z" /><glyph glyph-name="uni597D" unicode="&#x597d;" d="M418 591 q-19 -150 -39 -241 q-20 -91 -53 -160 q48 -38 138 -114 l-45 -56 q-64 57 -128 110 q-32 -47 -76.5 -93.5 q-44.5 -46.5 -109.5 -98.5 l-49 51 q65 52 108.5 95 q43.5 43 73.5 90 q-85 71 -138 110 q37 135 63 304 l-97 0 l0 68 l107 0 q13 98 20 192 l67 -7 q-9 -97 -22 -185 l180 0 l0 -65 ZM941 422 l0 -69 l-218 0 l0 -285 q0 -43 -11 -67 q-11 -24 -37.5 -34 q-26.5 -10 -73.5 -10 l-99 0 l-15 69 l94 0 q31 0 46.5 5 q15.5 5 21.5 18 q6 13 6 41 l0 263 l-225 0 l0 69 l225 0 l0 125 l171 160 l-351 0 l0 69 l440 0 l0 -69 l-192 -185 l0 -100 l218 0 ZM194 296 q17 -14 37 -29.5 q20 -15.5 41 -32.5 q29 63 48.5 147 q19.5 84 34.5 207 l-127 0 q-25 -160 -56 -275 l22 -17 Z" /><glyph glyph-name="uni5982" unicode="&#x5982;" d="M463 591 q-16 -157 -40 -253.5 q-24 -96.5 -71 -170.5 q98 -77 157 -127 l-45 -55 q-68 59 -153 127 q-36 -44 -86 -88 q-50 -44 -123 -98 l-51 49 q74 51 124.5 93 q50.5 42 85.5 84 q-88 68 -152 114 q46 164 71 321 l-115 0 l0 69 l125 0 q13 100 20 192 l68 -6 q-9 -99 -21 -186 l206 0 l0 -65 ZM548 -49 l0 772 l337 0 l0 -766 l-64 0 l0 83 l-208 0 l0 -89 l-65 0 ZM613 656 l0 -547 l208 0 l0 547 l-208 0 ZM184 293 q43 -31 117 -87 q41 66 62 152.5 q21 86.5 34 228.5 l-151 0 q-27 -171 -62 -294 Z" /><glyph glyph-name="uni59CB" unicode="&#x59cb;" d="M778 734 q28 -45 77 -132.5 q49 -87.5 85 -155.5 l-59 -34 l-35 69 l-411 -23 l-15 56 q57 67 109 156 q52 89 92 180 l64 -25 q-32 -72 -82 -158.5 q-50 -86.5 -92 -142.5 l304 16 q-61 115 -91 164 l54 30 ZM389 588 q-14 -149 -34.5 -244 q-20.5 -95 -56.5 -168 q83 -75 121 -112 l-40 -57 q-43 44 -115 111 q-28 -43 -66.5 -86 q-38.5 -43 -95.5 -100 l-47 47 q111 103 161 182 q-64 57 -131 111 q36 142 62 316 l-82 0 l0 66 l91 0 q11 97 18 188 l64 -4 q-6 -72 -19 -184 l170 0 l0 -66 ZM156 299 q10 -8 73 -62 q1 -1 20 -17 q30 65 46.5 149 q16.5 84 29.5 219 l-115 0 q-22 -153 -54 -289 ZM522 -66 l-64 0 l0 407 l422 0 l0 -408 l-66 0 l0 59 l-292 0 l0 -58 ZM814 55 l0 224 l-292 0 l0 -224 l292 0 Z" /><glyph glyph-name="uni5A31" unicode="&#x5a31;" d="M359 35 l-101 93 q-53 -89 -157 -190 l-44 49 q52 48 89.5 92 q37.5 44 63.5 92 q-65 59 -123 106 q31 123 55 311 l-83 0 l0 63 l90 0 q11 96 18 193 l60 -3 q-4 -84 -17 -190 l157 0 l0 -63 q-11 -146 -28.5 -238 q-17.5 -92 -51.5 -166 q55 -48 111 -99 l-39 -50 ZM443 795 l427 0 l0 -256 l-427 0 l0 256 ZM506 597 l302 0 l0 138 l-302 0 l0 -138 ZM238 228 q27 65 43.5 151 q16.5 86 27.5 209 l-107 0 q-19 -155 -48 -287 l84 -73 ZM691 208 q70 -152 252 -210 l-27 -63 q-180 68 -260 214 q-31 -71 -100 -122.5 q-69 -51.5 -185 -91.5 l-25 62 q120 35 182 84.5 q62 49.5 83 126.5 l-230 0 l0 60 l241 0 l1 23 q1 15 1 91 l-209 0 l0 59 l487 0 l0 -59 l-218 0 q0 -78 -1 -93 q0 -14 -1 -21 l252 0 l0 -60 l-243 0 Z" /><glyph glyph-name="uni5AD6" unicode="&#x5ad6;" d="M300 32 q-29 36 -74 84 q-38 -74 -118 -174 l-45 45 q84 100 122 174 q-37 39 -105 107 q30 155 48 317 l-60 0 l0 62 l67 0 q12 139 15 195 l61 -4 q-7 -96 -18 -191 l129 0 l0 -65 q-9 -146 -24 -238.5 q-15 -92.5 -43 -163.5 q52 -54 94 -103 l-49 -45 ZM384 648 l149 0 l0 92 l-178 0 l0 55 l556 0 l0 -55 l-176 0 l0 -92 l149 0 l0 -214 l-500 0 l0 214 ZM588 648 l92 0 l0 92 l-92 0 l0 -92 ZM533 597 l-93 0 l0 -111 l93 0 l0 111 ZM680 597 l-92 0 l0 -111 l92 0 l0 111 ZM828 486 l0 111 l-93 0 l0 -111 l93 0 ZM213 225 q23 63 35.5 146.5 q12.5 83.5 20.5 213.5 l-83 0 q-22 -177 -43 -289 l70 -71 ZM874 360 l0 -53 l-477 0 l0 53 l477 0 ZM927 179 l-255 0 l0 -140 q0 -54 -22.5 -74 q-22.5 -20 -82.5 -20 l-80 0 l-11 55 l73 0 q40 0 53 11.5 q13 11.5 13 47.5 l0 120 l-276 0 l0 55 l588 0 l0 -55 ZM519 117 q-30 -36 -76 -81 q-46 -45 -92 -85 l-42 43 q46 36 92.5 80.5 q46.5 44.5 74.5 79.5 l43 -37 ZM774 149 q15 -13 48 -45 q33 -32 54 -52 q41 -41 57 -56 l-43 -43 q-71 76 -156 157 l40 39 Z" /><glyph glyph-name="uni5B57" unicode="&#x5b57;" d="M828 656 l-660 0 l0 -137 l-67 0 l0 202 l389 0 l-52 118 l71 18 l58 -136 l330 0 l0 -202 l-69 0 l0 137 ZM935 290 l0 -66 l-389 0 l0 -153 q0 -51 -9.5 -76 q-9.5 -25 -34.5 -34.5 q-25 -9.5 -76 -9.5 l-133 0 l-13 65 l123 0 q32 0 47 5.5 q15 5.5 20.5 21 q5.5 15.5 5.5 48.5 l0 133 l-413 0 l0 66 l413 0 l0 54 l184 126 l-441 0 l0 66 l556 0 l0 -65 l-229 -154 l0 -27 l389 0 Z" /><glyph glyph-name="uni5B58" unicode="&#x5b58;" d="M398 670 q-48 -110 -122 -217 l0 -518 l-66 0 l0 433 q-57 -67 -125 -131 l-31 68 q165 152 265 365 l-248 0 l0 64 l276 0 q24 59 41 116 l73 -9 q-14 -46 -37 -107 l513 0 l0 -64 l-539 0 ZM938 299 l0 -62 l-255 0 l0 -180 q0 -42 -11 -65.5 q-11 -23.5 -38 -34 q-27 -10.5 -77 -10.5 l-111 0 l-13 64 l102 0 q34 0 51 5 q17 5 23 18 q6 13 6 38 l0 165 l-285 0 l0 62 l285 0 l0 68 l162 114 l-375 0 l0 62 l481 0 l0 -62 l-200 -144 l0 -38 l255 0 Z" /><glyph glyph-name="uni5B83" unicode="&#x5b83;" d="M513 853 l53 -135 l328 0 l0 -192 l-66 0 l0 127 l-651 0 l0 -127 l-66 0 l0 192 l377 0 l-47 118 l72 17 ZM798 120 q6 99 6 126 l71 -17 q0 -20 -9 -140 q-5 -50 -20 -76.5 q-15 -26.5 -47.5 -37.5 q-32.5 -11 -93.5 -11 l-333 0 q-53 0 -84 13 q-31 13 -45.5 43.5 q-14.5 30.5 -14.5 85.5 l0 443 l69 0 l0 -238 q124 36 259 87.5 q135 51.5 231 102.5 l33 -67 q-100 -48 -247.5 -102 q-147.5 -54 -275.5 -91 l0 -124 q0 -37 8 -55.5 q8 -18.5 26.5 -25.5 q18.5 -7 52.5 -7 l304 0 q46 0 67.5 7 q21.5 7 30.5 25.5 q9 18.5 12 58.5 Z" /><glyph glyph-name="uni5B89" unicode="&#x5b89;" d="M187 657 l0 -116 l-71 0 l0 181 l377 0 q-18 43 -43 94 q-3 8 -5.5 13 q-2.5 5 -3.5 8 l71 16 q26 -54 59 -131 l319 0 l0 -181 l-70 0 l0 116 l-633 0 ZM758 386 q-31 -82 -66.5 -142 q-35.5 -60 -85.5 -106 q117 -51 297 -134 l-30 -70 q-152 76 -329 155 q-74 -50 -183.5 -88.5 q-109.5 -38.5 -272.5 -72.5 l-19 71 q141 25 238.5 54.5 q97.5 29.5 164.5 68.5 q-174 75 -272 112 q46 65 92 152 l-231 0 l0 65 l265 0 q44 87 78 169 l68 -24 q-35 -81 -67 -145 l535 0 l0 -65 l-182 0 ZM301 265 q120 -46 237 -98 q49 40 82.5 93 q33.5 53 60.5 126 l-309 0 q-40 -76 -71 -121 Z" /><glyph glyph-name="uni5B8C" unicode="&#x5b8c;" d="M830 668 l-662 0 l0 -109 l-66 0 l0 172 l377 0 l-41 110 l74 12 l47 -122 l337 0 l0 -171 l-66 0 l0 108 ZM790 535 l0 -62 l-582 0 l0 62 l582 0 ZM921 274 l-283 0 l0 -184 q0 -41 15.5 -55.5 q15.5 -14.5 55.5 -14.5 l67 0 q31 0 46 5 q15 5 21 19.5 q6 14.5 8 44.5 l1 28 q3 38 3 73 l64 -13 q-3 -70 -6 -113 q-3 -42 -15.5 -65 q-12.5 -23 -40.5 -32.5 q-28 -9.5 -77 -9.5 l-89 0 q-66 0 -93 27 q-27 27 -27 93 l0 197 l-176 0 l-2 -26 q-4 -85 -31 -141 q-27 -56 -88 -97.5 q-61 -41.5 -168 -78.5 l-32 63 q100 33 151 65.5 q51 32.5 72.5 76.5 q21.5 44 26.5 117 l1 21 l-245 0 l0 63 l841 0 l0 -63 Z" /><glyph glyph-name="uni5B98" unicode="&#x5b98;" d="M516 855 l46 -116 l344 0 l0 -182 l-69 0 l0 119 l-671 0 l0 -119 l-70 0 l0 182 l381 0 l-39 99 l78 17 ZM793 336 l-526 0 l0 -104 l554 0 l0 -299 l-68 0 l0 52 l-486 0 l0 -57 l-69 0 l0 642 l595 0 l0 -234 ZM725 395 l0 115 l-458 0 l0 -115 l458 0 ZM753 43 l0 130 l-486 0 l0 -130 l486 0 Z" /><glyph glyph-name="uni5B9A" unicode="&#x5b9a;" d="M830 677 l-655 0 l0 -108 l-65 0 l0 170 l374 0 l-38 108 l75 8 l40 -116 l334 0 l0 -168 l-65 0 l0 106 ZM939 34 l-14 -63 l-371 0 q-110 0 -188.5 37 q-78.5 37 -128.5 117 q-39 -100 -130 -195 l-47 55 q79 82 114.5 167 q35.5 85 46.5 221 l67 -7 q-10 -105 -28 -171 q39 -70 92.5 -107.5 q53.5 -37.5 129.5 -48.5 l0 418 l-371 0 l0 63 l784 0 l0 -63 l-346 0 l0 -165 l305 0 l0 -62 l-305 0 l0 -196 l10 0 l380 0 Z" /><glyph glyph-name="uni5B9D" unicode="&#x5b9d;" d="M174 668 l0 -106 l-68 0 l0 170 l374 0 l-46 106 l74 15 q16 -34 34 -79 q4 -11 9 -21.5 q5 -10.5 9 -20.5 l335 0 l0 -170 l-71 0 l0 106 l-650 0 ZM531 249 l0 -203 l396 0 l0 -65 l-855 0 l0 65 l389 0 l0 203 l-311 0 l0 63 l311 0 l0 148 l-338 0 l0 64 l751 0 l0 -64 l-343 0 l0 -148 l318 0 l0 -63 l-318 0 ZM743 62 q-38 53 -103 132 l51 40 l28 -34 q10 -12 35 -42.5 q25 -30.5 41 -53.5 l-52 -42 Z" /><glyph glyph-name="uni5B9E" unicode="&#x5b9e;" d="M830 666 l-659 0 l0 -131 l-71 0 l0 195 l387 0 l-44 108 l74 12 l49 -120 l334 0 l0 -197 l-70 0 l0 133 ZM464 440 q-53 35 -210 125 l28 54 q126 -70 211 -121 l-29 -58 ZM933 204 l-348 0 q-12 -28 -20 -41 l103 -46 q164 -75 254 -113 l-33 -64 l-73 35 q-33 16 -132.5 64 q-99.5 48 -156.5 73 q-56 -60 -156.5 -102 q-100.5 -42 -266.5 -77 l-24 66 q193 38 291.5 85 q98.5 47 139.5 120 l-445 0 l0 64 l470 0 q15 53 18 156 l5 188 l68 0 q0 -44 -4 -146 l-1 -51 q-3 -88 -17 -147 l328 0 l0 -64 ZM197 477 q36 -21 82 -45 q93 -51 147 -83 l-32 -54 q-82 51 -225 128 l28 54 Z" /><glyph glyph-name="uni5BA2" unicode="&#x5ba2;" d="M834 686 l-661 0 l0 -119 l-66 0 l0 180 l368 0 l-35 97 l77 12 l36 -109 l348 0 l0 -181 l-67 0 l0 120 ZM575 385 q145 -47 358 -65 l-13 -66 q-257 30 -420 97 q-195 -80 -423 -112 l-16 65 q194 22 364 81 q-79 40 -155 98 q-64 -55 -137 -97 l-36 52 q73 40 144 102 q71 62 106 114 l66 -18 q-7 -9 -37 -47 l425 0 l0 -56 q-91 -82 -226 -148 ZM315 524 q81 -66 184 -111 q129 53 209 119 l-385 0 q0 0 -8 -8 ZM268 -65 l-65 0 l0 294 l597 0 l0 -294 l-67 0 l0 51 l-465 0 l0 -51 ZM733 42 l0 130 l-465 0 l0 -130 l465 0 Z" /><glyph glyph-name="uni5BB6" unicode="&#x5bb6;" d="M162 679 l0 -122 l-64 0 l0 181 l382 0 q-17 50 -39 103 l72 17 l16 -42 q14 -37 29 -78 l344 0 l0 -182 l-63 0 l0 123 l-677 0 ZM695 332 q44 -100 98 -164.5 q54 -64.5 142 -118.5 l-41 -54 q-89 59 -148 132 q-59 73 -105 178 q-30 -15 -65 -30 q19 -67 19 -170 q0 -60 -14.5 -94.5 q-14.5 -34.5 -48.5 -50 q-34 -15.5 -96 -15.5 l-103 0 l-12 61 l95 0 q44 0 68 9.5 q24 9.5 34.5 32.5 q10.5 23 10.5 66 q0 51 -6 96 q-77 -68 -194 -132 q-117 -64 -243 -112 l-27 60 q141 49 257 110.5 q116 61.5 195 130.5 q-7 24 -25 64 q-73 -54 -173 -104 q-100 -50 -211 -92 l-22 58 q103 35 202 83 q99 48 177 101 q-16 23 -38 50 q-148 -82 -317 -135 l-21 58 q110 33 210 77.5 q100 44.5 174 93.5 l-263 0 l0 57 l590 0 l0 -57 l-230 0 q-34 -28 -91 -64 q56 -62 83 -125 q68 31 141.5 71.5 q73.5 40.5 132.5 79.5 l32 -56 q-67 -44 -167 -95 Z" /><glyph glyph-name="uni5BB9" unicode="&#x5bb9;" d="M172 676 l0 -100 l-65 0 l0 162 l373 0 q-20 65 -36 105 l72 15 q6 -15 24 -75 l14 -45 l337 0 l0 -164 l-66 0 l0 102 l-653 0 ZM419 576 q-138 -94 -286 -161 l-28 60 q66 27 142.5 69 q76.5 42 140.5 84 l31 -52 ZM604 628 q26 -13 213 -110 l84 -44 l-29 -57 q-90 53 -298 161 l30 50 ZM921 185 q-68 26 -134 59 l0 -309 l-65 0 l0 44 l-445 0 l0 -44 l-65 0 l0 310 q-65 -32 -136 -60 l-25 60 q145 56 247 120 q102 64 173 143 l58 0 q72 -81 174.5 -144.5 q102.5 -63.5 243.5 -117.5 l-26 -61 ZM778 249 q-171 89 -278 203 q-107 -115 -281 -203 l559 0 ZM277 188 l0 -149 l445 0 l0 149 l-445 0 Z" /><glyph glyph-name="uni5BF9" unicode="&#x5bf9;" d="M940 640 l0 -68 l-115 0 l0 -491 q0 -49 -12 -76 q-12 -27 -41.5 -39 q-29.5 -12 -83.5 -12 l-119 0 l-14 70 l119 0 q36 0 53 6 q17 6 23 21.5 q6 15.5 6 47.5 l0 473 l-288 0 l0 68 l288 0 l0 205 l69 0 l0 -205 l115 0 ZM428 663 q-34 -196 -100 -347 q108 -158 151 -223 l-56 -43 q-67 104 -129 196 q-77 -146 -200 -285 l-41 66 q127 141 198 282 q-92 136 -171 244 l53 38 q62 -84 150 -211 q52 129 78 284 l-282 0 l0 68 l349 0 l0 -69 ZM623 223 q-73 114 -155 235 l50 35 q24 -33 74 -107 q50 -74 85 -127 l-54 -36 Z" /><glyph glyph-name="uni5BFB" unicode="&#x5bfb;" d="M937 298 l0 -63 l-181 0 l0 -162 q0 -52 -10.5 -77 q-10.5 -25 -38.5 -35 q-28 -10 -86 -10 l-137 0 l-12 62 l130 0 q38 0 55.5 6 q17.5 6 23.5 22.5 q6 16.5 6 50.5 l0 143 l-622 0 l0 63 l622 0 l0 119 l-558 0 l0 61 l640 0 l0 99 l-597 0 l0 60 l597 0 l0 99 l-625 0 l0 62 l693 0 l0 -381 l-81 0 l0 -119 l181 0 ZM250 216 q125 -83 185 -131 l-39 -55 q-37 30 -90 68.5 q-53 38.5 -92 64.5 l36 53 Z" /><glyph glyph-name="uni5C06" unicode="&#x5c06;" d="M458 615 q-33 -27 -80 -60 l-37 52 q77 52 143 117 q66 65 108 130 l63 -28 q-30 -43 -64 -82 l318 0 l0 -66 q-81 -113 -202 -186.5 q-121 -73.5 -319 -126.5 l-30 60 q178 43 288.5 104 q110.5 61 188.5 156 l-299 0 l-32 -30 l117 -87 l-42 -50 l-121 97 ZM57 225 l184 155 l0 459 l66 0 l0 -902 l-66 0 l0 360 l-160 -144 l-24 72 ZM159 430 l-97 272 l55 22 q43 -109 100 -270 l-58 -24 ZM935 333 l0 -61 l-112 0 l0 -201 q0 -48 -10.5 -73 q-10.5 -25 -37.5 -35.5 q-27 -10.5 -78 -10.5 l-105 0 l-13 63 l99 0 q34 0 51 5.5 q17 5.5 23.5 19.5 q6.5 14 6.5 43 l0 189 l-422 0 l0 61 l422 0 l0 126 l64 0 l0 -126 l112 0 ZM465 255 q65 -64 141 -145 l-47 -47 q-74 87 -136 149 l42 43 Z" /><glyph glyph-name="uni5C0F" unicode="&#x5c0f;" d="M385 29 q38 0 55.5 6.5 q17.5 6.5 23.5 24 q6 17.5 6 54.5 l0 717 l76 0 l0 -738 q0 -54 -13.5 -83 q-13.5 -29 -44 -41 q-30.5 -12 -87.5 -12 l-124 0 l-14 72 l122 0 ZM722 656 q46 -92 117 -258.5 q71 -166.5 107 -266.5 l-72 -31 q-37 107 -103.5 268.5 q-66.5 161.5 -114.5 260.5 l66 27 ZM51 137 q58 105 108.5 246 q50.5 141 79.5 264 l74 -16 q-34 -133 -85.5 -275.5 q-51.5 -142.5 -109.5 -250.5 l-67 32 Z" /><glyph glyph-name="uni5C11" unicode="&#x5c11;" d="M459 845 l73 0 l0 -569 l-73 0 l0 569 ZM682 724 q195 -230 261 -316 l-52 -47 q-39 52 -122.5 154.5 q-83.5 102.5 -137.5 165.5 l51 43 ZM68 313 q58 84 119.5 195 q61.5 111 99.5 204 l63 -28 q-42 -98 -103.5 -212.5 q-61.5 -114.5 -117.5 -197.5 l-61 39 ZM63 1 q191 54 315 108.5 q124 54.5 214.5 125 q90.5 70.5 179.5 177.5 l52 -52 q-99 -113 -196.5 -187.5 q-97.5 -74.5 -224.5 -130.5 q-127 -56 -316 -110 l-24 69 Z" /><glyph glyph-name="uni5C1A" unicode="&#x5c1a;" d="M534 564 l339 0 l0 -493 q0 -47 -11 -72.5 q-11 -25.5 -37.5 -36 q-26.5 -10.5 -76.5 -10.5 l-122 0 l-13 67 l115 0 q33 0 49.5 5.5 q16.5 5.5 22.5 20 q6 14.5 6 44.5 l0 411 l-612 0 l0 -553 l-67 0 l0 617 l339 0 l0 279 l68 0 l0 -279 ZM861 760 q-35 -36 -85.5 -82 q-50.5 -46 -88.5 -78 l-46 52 q125 106 173 156 l47 -48 ZM310 602 q-28 29 -79.5 77 q-51.5 48 -90.5 81 l46 47 q3 -3 8.5 -7.5 q5.5 -4.5 12.5 -10.5 q121 -108 151 -137 l-48 -50 ZM322 387 l356 0 l0 -297 l-356 0 l0 297 ZM381 152 l238 0 l0 173 l-238 0 l0 -173 Z" /><glyph glyph-name="uni5C3E" unicode="&#x5c3e;" d="M220 569 l0 -94 q0 -189 -21.5 -306.5 q-21.5 -117.5 -76.5 -237.5 l-63 34 q38 81 57.5 150 q19.5 69 28 156 q8.5 87 8.5 221 l0 301 l723 0 l0 -224 l-656 0 ZM808 630 l0 101 l-588 0 l0 -101 l588 0 ZM839 139 l62 -16 l-3 -72 q-2 -54 -27 -74 q-25 -20 -88 -20 l-195 0 q-59 0 -83.5 23 q-24.5 23 -24.5 86 l0 71 l-258 -15 l-4 56 l262 17 l0 85 l-206 -13 l-3 54 l209 13 l0 84 q-117 -12 -204 -17 l-5 55 q129 8 295.5 27 q166.5 19 270.5 38 l10 -55 q-115 -21 -301 -41 l0 -87 l307 19 l3 -54 l-310 -19 l0 -85 l386 24 l4 -59 l-390 -23 l0 -58 q0 -38 13 -51 q13 -13 50 -13 l157 0 q30 0 44 4.5 q14 4.5 19.5 16.5 q5.5 12 7.5 39 l2 60 Z" /><glyph glyph-name="uni5C40" unicode="&#x5c40;" d="M898 456 l-10 -359 q-3 -58 -19.5 -88.5 q-16.5 -30.5 -54 -43 q-37.5 -12.5 -107.5 -12.5 l-115 0 l-13 63 l111 0 q55 0 82 8 q27 8 37 28 q10 20 12 60 l10 281 l-606 0 q-5 -146 -28 -242.5 q-23 -96.5 -81 -208.5 l-58 33 q44 86 66 157 q22 71 29.5 154.5 q7.5 83.5 7.5 220.5 l0 289 l692 0 l0 -241 l-627 0 l0 -55 l0 -44 l672 0 ZM787 617 l0 117 l-561 0 l0 -117 l561 0 ZM307 306 l377 0 l0 -245 l-377 0 l0 245 ZM369 118 l252 0 l0 132 l-252 0 l0 -132 Z" /><glyph glyph-name="uni5C4F" unicode="&#x5c4f;" d="M885 572 l-660 0 l0 -104 q0 -195 -26.5 -317 q-26.5 -122 -82.5 -220 l-59 48 q36 62 57.5 124.5 q21.5 62.5 32.5 153 q11 90.5 11 225.5 l0 317 l727 0 l0 -227 ZM818 632 l0 106 l-593 0 l0 -106 l593 0 ZM937 235 l0 -61 l-192 0 l0 -239 l-67 0 l0 239 l-205 0 q-6 -59 -23 -100 q-17 -41 -49 -75.5 q-32 -34.5 -87 -74.5 l-46 46 q52 39 79.5 67 q27.5 28 41.5 59.5 q14 31.5 19 77.5 l-169 0 l0 61 l173 0 l0 35 l0 98 l-134 0 l0 60 l164 0 l-30 43 q-29 41 -38 54 l54 32 q41 -55 74 -102 l-42 -27 l174 0 q52 68 90 128 l65 -20 q-25 -37 -78 -108 l182 0 l0 -60 l-148 0 l0 -133 l192 0 ZM477 235 l201 0 l0 133 l-201 0 l0 -95 l0 -38 Z" /><glyph glyph-name="uni5C55" unicode="&#x5c55;" d="M702 101 q93 -59 233 -88 l-24 -62 q-157 40 -259.5 114 q-102.5 74 -164.5 194 l-97 0 l0 -249 l177 69 l7 -59 l-249 -92 l-24 52 q16 9 21.5 16.5 q5.5 7.5 5.5 18.5 l0 244 l-113 0 q-8 -93 -30 -164 q-22 -71 -68 -162 l-59 31 q44 82 64.5 147.5 q20.5 65.5 27.5 149 q7 83.5 7 231.5 l0 306 l722 0 l0 -209 l-658 0 l0 -111 l193 0 l0 87 l62 0 l0 -87 l194 0 l0 87 l62 0 l0 -87 l170 0 l0 -55 l-170 0 l0 -108 l198 0 l0 -56 l-377 0 q42 -72 102 -123 q110 64 174 110 l38 -45 q-111 -70 -165 -100 ZM815 645 l0 97 l-594 0 l0 -97 l594 0 ZM221 423 q0 -58 -3 -108 l196 0 l0 108 l-193 0 ZM670 315 l0 108 l-194 0 l0 -108 l194 0 Z" /><glyph glyph-name="uni5D16" unicode="&#x5d16;" d="M804 814 l66 0 l0 -160 l-709 0 l0 159 l65 0 l0 -103 l254 0 l0 135 l69 0 l0 -135 l255 0 l0 104 ZM216 527 l0 -147 q0 -109 -8.5 -181 q-8.5 -72 -30 -133 q-21.5 -61 -62.5 -133 l-56 38 q39 64 58.5 119.5 q19.5 55.5 27 121.5 q7.5 66 7.5 168 l0 204 l774 0 l0 -57 l-710 0 ZM245 249 l0 54 l293 0 l0 79 l-254 0 l0 53 l254 0 l0 65 l66 0 l0 -65 l256 0 l0 -53 l-256 0 l0 -79 l307 0 l0 -54 l-666 0 ZM604 113 l0 -87 l333 0 l0 -54 l-736 0 l0 54 l337 0 l0 87 l-260 0 l0 53 l260 0 l0 58 l66 0 l0 -58 l260 0 l0 -53 l-260 0 Z" /><glyph glyph-name="uni5DE5" unicode="&#x5de5;" d="M538 688 l0 -614 l391 0 l0 -68 l-857 0 l0 68 l389 0 l0 614 l-335 0 l0 71 l751 0 l0 -71 l-339 0 Z" /><glyph glyph-name="uni5DF1" unicode="&#x5df1;" d="M122 782 l704 0 l0 -379 l-608 0 l0 -258 q0 -46 8.5 -68.5 q8.5 -22.5 31 -30.5 q22.5 -8 68.5 -8 l387 0 q50 0 73.5 7 q23.5 7 32.5 25.5 q9 18.5 11 58.5 l1 29 q4 68 4 99 l72 -17 q-2 -58 -8 -134 q-4 -56 -18.5 -84.5 q-14.5 -28.5 -47.5 -40.5 q-33 -12 -97 -12 l-432 0 q-62 0 -95 12.5 q-33 12.5 -47.5 45.5 q-14.5 33 -14.5 99 l0 346 l607 0 l0 242 l-632 0 l0 68 Z" /><glyph glyph-name="uni5DF2" unicode="&#x5df2;" d="M840 260 l72 -17 l-7 -139 q-5 -58 -20 -87 q-15 -29 -49 -40.5 q-34 -11.5 -99 -11.5 l-428 0 q-62 0 -97 14 q-35 14 -50.5 49 q-15.5 35 -15.5 98 l0 470 l73 0 l0 -134 l542 0 l0 251 l-643 0 l0 69 l713 0 l0 -390 l-612 0 l0 -248 q0 -46 9 -69 q9 -23 32.5 -31.5 q23.5 -8.5 71.5 -8.5 l384 0 q50 0 73.5 6.5 q23.5 6.5 33 25.5 q9.5 19 12.5 60 l5 133 Z" /><glyph glyph-name="uni5E03" unicode="&#x5e03;" d="M406 647 q-45 -98 -109 -192 l208 0 l0 132 l66 0 l0 -132 l289 0 l0 -321 q0 -43 -11 -66.5 q-11 -23.5 -35 -33 q-24 -9.5 -68 -9.5 l-99 0 l-13 64 l92 0 q42 0 55.5 14 q13.5 14 13.5 50 l0 234 l-224 0 l0 -453 l-66 0 l0 453 l-226 0 l0 -373 l-65 0 l0 333 q-51 -60 -126 -134 l-29 70 q90 83 155.5 170.5 q65.5 87.5 117.5 193.5 l-248 0 l0 67 l279 0 q25 57 56 144 l63 -16 q-19 -57 -47 -128 l497 0 l0 -67 l-526 0 Z" /><glyph glyph-name="uni5E26" unicode="&#x5e26;" d="M758 844 l0 -117 l175 0 l0 -61 l-175 0 l0 -108 l-63 0 l0 108 l-165 0 l0 -108 l-62 0 l0 108 l-166 0 l0 -108 l-63 0 l0 108 l-172 0 l0 61 l172 0 l0 117 l63 0 l0 -117 l166 0 l0 117 l62 0 l0 -117 l165 0 l0 117 l63 0 ZM161 346 l-64 0 l0 165 l804 0 l0 -165 l-63 0 l0 105 l-677 0 l0 -105 ZM532 417 l0 -94 l281 0 l0 -202 q0 -43 -9.5 -66 q-9.5 -23 -33 -32.5 q-23.5 -9.5 -67.5 -9.5 l-96 0 l-13 60 l87 0 q40 0 54 12 q14 12 15 43 l0 134 l-218 0 l0 -327 l-67 0 l0 327 l-217 0 l0 -253 l-63 0 l0 314 l280 0 l0 94 l67 0 Z" /><glyph glyph-name="uni5E2E" unicode="&#x5e2e;" d="M537 347 l0 -82 l299 0 l0 -173 q0 -56 -24 -77 q-24 -21 -84 -21 l-109 0 l-9 59 l93 0 q39 0 52.5 9 q13.5 9 13.5 35 l0 108 l-232 0 l0 -278 l-68 0 l0 278 l-223 0 l0 -215 l-68 0 l0 267 q-31 -19 -72 -39 l-41 51 q76 35 118.5 66.5 q42.5 31.5 63.5 70.5 l-173 0 l0 57 l193 0 q8 35 10 86 l-165 0 l0 55 l165 0 l0 86 l-185 0 l0 56 l185 0 l0 95 l67 0 l0 -95 l173 0 l0 -56 l-173 0 l0 -86 l156 0 l0 -55 l-156 0 q-1 -47 -9 -86 l188 0 l0 -57 l-204 0 q-16 -42 -47 -75.5 q-31 -33.5 -81 -65.5 l278 0 l0 82 l68 0 ZM805 597 q61 -34 82 -67 q21 -33 21 -67 q0 -51 -30 -72 q-30 -21 -109 -21 l-73 0 l-12 58 l63 0 q42 0 62 5 q20 5 26.5 15.5 q6.5 10.5 6.5 31.5 q0 23 -25.5 50 q-25.5 27 -84.5 56 q7 9 74 110 l21 31 l-185 0 l0 -402 l-63 0 l0 462 l314 0 l0 -60 l-35 -52 q-49 -73 -53 -78 Z" /><glyph glyph-name="uni5E38" unicode="&#x5e38;" d="M903 680 l0 -192 l-66 0 l0 131 l-672 0 l0 -130 l-66 0 l0 191 l205 0 q-69 69 -121 115 l45 41 q28 -23 113 -102 l17 -16 l-38 -38 l149 0 l0 170 l65 0 l0 -170 l143 0 l-37 34 q28 24 67 60 q39 36 63 62 l44 -39 q-86 -89 -120 -117 l209 0 ZM534 340 l0 -83 l316 0 l0 -171 q0 -37 -10 -56.5 q-10 -19.5 -33.5 -27.5 q-23.5 -8 -67.5 -8 l-105 0 l-11 61 l97 0 q30 0 43 4.5 q13 4.5 17.5 15 q4.5 10.5 4.5 34.5 l0 90 l-251 0 l0 -265 l-65 0 l0 265 l-250 0 l0 -203 l-65 0 l0 261 l315 0 l0 83 l-247 0 l0 200 l558 0 l0 -200 l-246 0 ZM717 485 l-431 0 l0 -92 l431 0 l0 92 Z" /><glyph glyph-name="uni5E73" unicode="&#x5e73;" d="M534 330 l396 0 l0 -67 l-396 0 l0 -324 l-68 0 l0 324 l-397 0 l0 67 l397 0 l0 395 l-355 0 l0 67 l778 0 l0 -67 l-355 0 l0 -395 ZM630 431 q35 39 87 110.5 q52 71.5 84 120.5 l54 -38 q-31 -47 -84.5 -119.5 q-53.5 -72.5 -88.5 -112.5 l-52 39 ZM196 661 l29 -39 q100 -134 139 -192 l-54 -38 q-55 82 -165 230 l51 39 Z" /><glyph glyph-name="uni5E76" unicode="&#x5e76;" d="M945 357 l0 -68 l-226 0 l0 -354 l-69 0 l0 354 l-286 0 q-7 -90 -28.5 -151 q-21.5 -61 -64 -110.5 q-42.5 -49.5 -117.5 -103.5 l-49 55 q71 52 110 94.5 q39 42.5 57.5 92 q18.5 49.5 24.5 123.5 l-241 0 l0 68 l244 0 q1 18 1 59 l0 182 l-206 0 l0 66 l268 0 q-65 84 -115 145 l54 40 q38 -45 120 -148 l-46 -37 l200 0 q74 102 129 187 l64 -37 l-109 -150 l249 0 l0 -66 l-190 0 l0 -241 l226 0 ZM650 357 l0 241 l-282 0 l0 -175 q0 -45 -1 -66 l283 0 Z" /><glyph glyph-name="uni5E8A" unicode="&#x5e8a;" d="M215 657 l0 -249 q0 -168 -20.5 -275 q-20.5 -107 -78.5 -212 l-63 38 q36 64 56 123.5 q20 59.5 29 135 q9 75.5 9 188.5 l0 316 l382 0 q-21 63 -43 117 l75 14 q22 -50 50 -131 l318 0 l0 -65 l-714 0 ZM639 413 q56 -111 123 -189 q67 -78 178 -144 l-42 -62 q-101 63 -165.5 139 q-64.5 76 -118.5 177 l0 -411 l-68 0 l0 416 q-54 -101 -125 -182 q-71 -81 -167 -150 l-45 61 q109 73 183 155.5 q74 82.5 129 189.5 l-259 0 l0 67 l284 0 l0 135 l68 0 l0 -135 l293 0 l0 -67 l-268 0 Z" /><glyph glyph-name="uni5E8F" unicode="&#x5e8f;" d="M935 745 l0 -65 l-716 0 l0 -248 q0 -132 -7.5 -211.5 q-7.5 -79.5 -27.5 -144 q-20 -64.5 -61 -139.5 l-63 34 q39 67 59 128 q20 61 27 135 q7 74 7 191 l0 320 l376 0 q-32 73 -42 94 l74 13 l46 -107 l328 0 ZM679 343 l249 0 l0 -62 l-90 -172 l-59 28 l79 142 l-227 0 l0 -224 q0 -46 -12 -70 q-12 -24 -39.5 -33.5 q-27.5 -9.5 -79.5 -9.5 l-112 0 l-12 64 l110 0 q35 0 51.5 5 q16.5 5 22.5 18.5 q6 13.5 6 41.5 l0 208 l-305 0 l0 64 l306 0 q-80 57 -174 117 l41 44 l44 -29 q80 -53 106 -70 q122 78 189 125 l-468 0 l0 60 l567 0 l0 -63 q-27 -20 -101.5 -69 q-74.5 -49 -134.5 -87 l43 -28 Z" /><glyph glyph-name="uni5E93" unicode="&#x5e93;" d="M938 740 l0 -60 l-716 0 l0 -244 q0 -130 -8.5 -211 q-8.5 -81 -29.5 -147 q-21 -66 -63 -148 l-63 34 q42 81 62.5 144 q20.5 63 28.5 135.5 q8 72.5 8 186.5 l0 310 l367 0 q-8 26 -32 99 l72 12 q5 -15 7 -19 q18 -54 30 -92 l337 0 ZM940 151 l0 -63 l-293 0 l0 -156 l-65 0 l0 156 l-336 0 l0 63 l336 0 l0 113 l-263 0 l0 61 q41 61 100 167 l-152 0 l0 61 l184 0 q35 68 50 104 l66 -10 q-19 -43 -44 -94 l379 0 l0 -61 l-412 0 q-47 -85 -98 -167 l190 0 l0 125 l65 0 l0 -125 l234 0 l0 -61 l-234 0 l0 -113 l293 0 Z" /><glyph glyph-name="uni5E94" unicode="&#x5e94;" d="M932 724 l0 -66 l-709 0 l0 -223 q0 -125 -8 -206 q-8 -81 -30.5 -151 q-22.5 -70 -66.5 -149 l-61 47 q41 69 62 131.5 q21 62.5 29 136.5 q8 74 8 188 l0 292 l369 0 q-19 67 -37 115 l69 17 q26 -71 45 -132 l330 0 ZM582 195 q-12 82 -35.5 194.5 q-23.5 112.5 -41.5 181.5 l64 11 q18 -70 41.5 -181.5 q23.5 -111.5 36.5 -189.5 l-65 -16 ZM944 55 l0 -65 l-712 0 l0 65 l417 0 q46 109 92.5 249 q46.5 140 73.5 250 l64 -18 q-24 -95 -70 -233 q-46 -138 -90 -248 l225 0 ZM403 138 q-20 81 -58 200 q-38 119 -67 191 l60 19 q27 -69 66 -188.5 q39 -119.5 61 -201.5 l-62 -20 Z" /><glyph glyph-name="uni5E97" unicode="&#x5e97;" d="M939 736 l0 -65 l-712 0 l0 -222 q0 -136 -8 -219 q-8 -83 -30.5 -151.5 q-22.5 -68.5 -68.5 -144.5 l-62 43 q42 70 64 132 q22 62 30 138 q8 76 8 196 l0 293 l371 0 q-32 83 -40 101 l79 13 q5 -12 34 -93 l7 -21 l328 0 ZM519 634 l69 0 l0 -103 l333 0 l0 -64 l-333 0 l0 -147 l266 0 l0 -385 l-68 0 l0 61 l-397 0 l0 -61 l-67 0 l0 385 l197 0 l0 314 ZM389 59 l397 0 l0 196 l-397 0 l0 -196 Z" /><glyph glyph-name="uni5EFA" unicode="&#x5efa;" d="M637 65 l-61 0 l0 86 l-244 0 l0 54 l244 0 l0 85 l-196 0 l0 54 l196 0 l0 86 l-189 0 l0 53 l189 0 l0 87 l-228 0 l0 54 l228 0 l0 88 l-188 0 l0 51 l188 0 l0 87 l61 0 l0 -87 l221 0 l0 -139 l80 0 l0 -54 l-80 0 l0 -140 l-221 0 l0 -86 l243 0 l0 -54 l-243 0 l0 -85 l279 0 l0 -54 l-279 0 l0 -86 ZM939 33 l-10 -61 l-392 0 q-110 0 -189 24 q-79 24 -139 86 q-41 -69 -112 -148 l-46 51 q69 66 116 148 q-57 81 -97 222 l49 18 q36 -111 79 -179 q42 96 65 238 l-181 0 l0 57 l172 222 l-187 0 l0 58 l260 0 l0 -59 l-171 -220 l166 0 l0 -55 q-14 -94 -33 -164.5 q-19 -70.5 -49 -132.5 q53 -59 124 -82 q71 -23 175 -23 l400 0 ZM795 712 l-158 0 l0 -88 l158 0 l0 88 ZM795 570 l-158 0 l0 -87 l158 0 l0 87 Z" /><glyph glyph-name="uni5F00" unicode="&#x5f00;" d="M942 427 l0 -69 l-221 0 l0 -422 l-71 0 l0 422 l-285 0 q-5 -103 -26 -172.5 q-21 -69.5 -67 -129 q-46 -59.5 -131 -132.5 l-52 51 q80 67 122.5 120 q42.5 53 61 113 q18.5 60 22.5 150 l-238 0 l0 69 l240 0 l0 21 l0 261 l-200 0 l0 68 l803 0 l0 -68 l-179 0 l0 -282 l221 0 ZM367 427 l283 0 l0 282 l-283 0 l0 -254 l0 -28 Z" /><glyph glyph-name="uni5F0F" unicode="&#x5f0f;" d="M929 671 l0 -67 l-301 0 q12 -202 39 -331 q27 -129 71 -201 q17 -27 31.5 -36.5 q14.5 -9.5 31.5 -9.5 q16 0 26.5 16 q10.5 16 19.5 61 l6 35 q3 16 7 38.5 q4 22.5 8 47.5 l56 -21 q-17 -109 -24 -137 q-16 -67 -40 -93 q-24 -26 -59 -26 q-35 0 -65.5 23 q-30.5 23 -62.5 79 q-43 74 -72 213 q-29 139 -41 342 l-498 0 l0 67 l495 0 l-6 146 l-1 33 l69 0 q0 -54 5 -179 l305 0 ZM825 673 q-36 36 -132 123 l41 45 l132 -118 l-41 -50 ZM555 106 l1 -31 q-6 0 -21 -3 q-446 -62 -468 -66 l-8 67 q19 1 187 25 l23 3 l0 271 l-177 0 l0 67 l424 0 l0 -67 l-176 0 l0 -261 q172 24 214 31 l1 -36 Z" /><glyph glyph-name="uni5F15" unicode="&#x5f15;" d="M769 -61 l0 894 l71 0 l0 -894 l-71 0 ZM123 791 l432 0 l0 -286 l-341 0 l-13 -153 l353 0 l-2 -38 l-14 -222 q-3 -55 -18.5 -82.5 q-15.5 -27.5 -51 -38.5 q-35.5 -11 -104.5 -11 l-176 0 l-12 65 l170 0 q50 0 75 6.5 q25 6.5 35.5 24.5 q10.5 18 12.5 55 q1 14 9 135 q1 11 1 21.5 q0 10.5 1 19.5 l-355 0 l24 283 l336 0 l0 156 l-362 0 l0 65 Z" /><glyph glyph-name="uni5F52" unicode="&#x5f52;" d="M315 838 l69 0 l0 -381 q0 -157 -17 -245.5 q-17 -88.5 -62.5 -153.5 q-45.5 -65 -141.5 -143 l-52 57 q91 68 132.5 122.5 q41.5 54.5 56.5 134 q15 79.5 15 230.5 l0 379 ZM450 692 l0 69 l432 0 l0 -815 l-70 0 l0 62 l-396 0 l0 67 l396 0 l0 287 l-347 0 l0 67 l347 0 l0 263 l-362 0 ZM115 760 l66 0 l0 -603 l-66 0 l0 603 Z" /><glyph glyph-name="uni5F53" unicode="&#x5f53;" d="M464 844 l70 0 l0 -329 l329 0 l0 -578 l-71 0 l0 56 l-705 0 l0 64 l705 0 l0 170 l-654 0 l0 67 l654 0 l0 155 l-683 0 l0 66 l355 0 l0 329 ZM312 561 q-30 38 -85 99.5 q-55 61.5 -97 106.5 l50 46 q37 -39 97.5 -105.5 q60.5 -66.5 88.5 -99.5 l-54 -47 ZM870 769 q-31 -40 -88 -104.5 q-57 -64.5 -99 -108.5 l-49 45 q43 45 97.5 108 q54.5 63 85.5 103 l53 -43 Z" /><glyph glyph-name="uni5F55" unicode="&#x5f55;" d="M683 196 q96 -80 259 -143 l-31 -62 q-142 61 -228 122.5 q-86 61.5 -144 149.5 l0 -212 q0 -42 -12 -64.5 q-12 -22.5 -39.5 -32 q-27.5 -9.5 -78.5 -9.5 l-99 0 l-13 64 l87 0 q38 0 56 5.5 q18 5.5 24.5 19.5 q6.5 14 6.5 42 l0 119 l-386 -184 l-29 62 l415 194 l0 144 l-403 0 l0 61 l668 0 l0 104 l-563 0 l0 59 l563 0 l0 103 l-590 0 l0 61 l657 0 l0 -327 l134 0 l0 -61 l-398 0 l0 -31 q39 -77 95 -138 q125 84 195 142 l44 -54 q-64 -49 -190 -134 ZM173 391 q37 -26 88 -63 q51 -37 78 -60 l-40 -51 q-36 29 -81.5 63.5 q-45.5 34.5 -82.5 60.5 l38 50 Z" /><glyph glyph-name="uni5F71" unicode="&#x5f71;" d="M897 789 q-57 -69 -133 -142 q-76 -73 -136 -113 l-38 56 q59 39 133 107 q74 68 127 132 l47 -40 ZM602 454 l0 -53 l-538 0 l0 53 l251 0 q-11 40 -20 66 l-177 0 l0 277 l433 0 l0 -277 l-194 0 l19 -66 l226 0 ZM491 684 l0 63 l-316 0 l0 -63 l316 0 ZM491 635 l-316 0 l0 -64 l316 0 l0 64 ZM585 304 q78 53 152 121.5 q74 68.5 128 138.5 l48 -39 q-57 -75 -133.5 -149 q-76.5 -74 -154.5 -129 l-40 57 ZM546 171 l-171 0 l0 -138 q0 -35 -8.5 -54 q-8.5 -19 -30 -27.5 q-21.5 -8.5 -63.5 -8.5 l-69 0 l-13 58 l64 0 q39 0 51 11.5 q12 11.5 12 43.5 l0 115 l-190 0 l0 175 l418 0 l0 -175 ZM942 267 q-120 -186 -345 -340 l-38 56 q109 67 191.5 149 q82.5 82 148.5 178 l43 -43 ZM485 298 l-298 0 l0 -78 l298 0 l0 78 ZM239 115 q-29 -39 -70 -80.5 q-41 -41.5 -77 -70.5 l-40 45 q34 25 74 64 q40 39 71 79 l42 -37 ZM468 150 q44 -40 111 -111 l-42 -39 q-45 57 -108 115 l39 35 Z" /><glyph glyph-name="uni5F84" unicode="&#x5f84;" d="M340 804 q-39 -61 -108 -139.5 q-69 -78.5 -132 -133.5 l-35 59 q58 50 123.5 124 q65.5 74 99.5 128 l52 -38 ZM325 431 q134 49 246 122 q112 73 181 158 l-360 0 l0 66 l450 0 l0 -63 q-60 -80 -148 -151 q186 -103 246 -139 l-31 -57 q-167 98 -270 153 q-127 -91 -282 -149 l-32 60 ZM346 572 q-37 -71 -97 -157 l0 -480 l-68 0 l0 391 q-47 -57 -96 -106 l-34 58 q59 60 131.5 155.5 q72.5 95.5 110.5 170.5 l53 -32 ZM883 255 l-220 0 l0 -210 l274 0 l0 -63 l-620 0 l0 63 l278 0 l0 210 l-218 0 l0 66 l506 0 l0 -66 Z" /><glyph glyph-name="uni5F85" unicode="&#x5f85;" d="M345 804 q-42 -61 -114 -140.5 q-72 -79.5 -137 -135.5 l-30 66 q56 47 124.5 122 q68.5 75 104.5 131 l52 -43 ZM939 450 l-145 0 l0 -114 l131 0 l0 -64 l-131 0 l0 -209 q0 -45 -12 -69 q-12 -24 -40.5 -34 q-28.5 -10 -82.5 -10 l-104 0 l-13 65 l102 0 q36 0 53 6 q17 6 23.5 20.5 q6.5 14.5 6.5 44.5 l0 186 l-375 0 l0 64 l375 0 l0 114 l-395 0 l0 64 l260 0 l0 133 l-206 0 l0 64 l206 0 l0 131 l68 0 l0 -131 l233 0 l0 -64 l-233 0 l0 -133 l279 0 l0 -64 ZM335 576 q-44 -81 -86 -143 l0 -495 l-64 0 l0 406 q-51 -67 -100 -113 l-28 71 q55 50 116 135 q61 85 109 171 l53 -32 ZM438 247 q43 -41 133 -141 l-49 -50 q-58 67 -133 145 l49 46 Z" /><glyph glyph-name="uni5F88" unicode="&#x5f88;" d="M328 798 q-38 -59 -105.5 -135.5 q-67.5 -76.5 -129.5 -131.5 l-30 64 q52 43 115 115.5 q63 72.5 96 125.5 l54 -38 ZM731 154 q37 -39 87 -72 q50 -33 120 -65 l-37 -59 q-97 50 -162.5 104.5 q-65.5 54.5 -111.5 126.5 q-46 72 -80 174 l-88 0 l0 -336 l171 80 l11 -67 l-251 -108 l-29 63 q19 11 25.5 18.5 q6.5 7.5 6.5 21.5 l0 758 l470 0 l0 -430 l-251 0 q33 -98 81 -163 q85 52 181 128 l38 -50 q-110 -80 -181 -124 ZM798 605 l0 127 l-339 0 l0 -127 l339 0 ZM340 575 q-38 -70 -91 -144 l0 -495 l-66 0 l0 407 q-50 -62 -98 -107 l-30 67 q54 47 121.5 138 q67.5 91 110.5 170 l53 -36 ZM798 545 l-339 0 l0 -122 l339 0 l0 122 Z" /><glyph glyph-name="uni5F97" unicode="&#x5f97;" d="M335 806 q-42 -65 -107 -138.5 q-65 -73.5 -131 -128.5 l-30 66 q61 50 119 115 q58 65 94 124 l55 -38 ZM401 798 l462 0 l0 -325 l-462 0 l0 325 ZM798 661 l0 83 l-332 0 l0 -83 l332 0 ZM466 608 l0 -81 l332 0 l0 81 l-332 0 ZM335 569 q-36 -70 -89 -146 l0 -484 l-64 0 l0 398 q-55 -69 -101 -114 l-26 69 q54 53 121 145 q67 92 105 167 l54 -35 ZM938 248 l0 -58 l-121 0 l0 -141 q0 -42 -10.5 -64 q-10.5 -22 -35.5 -31 q-25 -9 -72 -9 l-100 0 l-12 65 l92 0 q33 0 48 5 q15 5 20 18 q5 13 5 41 l0 116 l-430 0 l0 58 l430 0 l0 88 l-398 0 l0 58 l564 0 l0 -58 l-101 0 l0 -88 l121 0 ZM445 180 q33 -29 66.5 -59 q33.5 -30 58.5 -56 l-44 -46 q-80 80 -124 120 l43 41 Z" /><glyph glyph-name="uni5FAE" unicode="&#x5fae;" d="M550 765 l52 0 l0 -225 l-301 0 l0 225 l52 0 l0 -168 l71 0 l0 247 l54 0 l0 -247 l72 0 l0 168 ZM915 -65 q-88 97 -137 190 q-53 -90 -160 -197 l-41 52 q111 101 169 212 q-53 126 -72 302 q-9 -20 -39 -75 l-34 58 q42 75 76.5 174 q34.5 99 49.5 187 l59 -6 q-16 -86 -43 -166 l195 0 l0 -58 l-41 0 q-11 -143 -30 -240.5 q-19 -97.5 -55 -177.5 q51 -102 140 -194 l-37 -61 ZM285 797 q-32 -61 -83.5 -135.5 q-51.5 -74.5 -101.5 -130.5 l-43 47 q47 52 97 123.5 q50 71.5 79 129.5 l52 -34 ZM716 590 q14 -193 63 -324 q25 68 40 150.5 q15 82.5 24 191.5 l-120 0 l-7 -18 ZM276 561 q-24 -55 -61 -121 l0 -503 l-60 0 l0 406 q-45 -67 -84 -112 l-25 64 q46 55 97 137 q51 82 83 157 l50 -28 ZM298 446 l304 0 l0 -58 l-304 0 l0 58 ZM633 178 l18 -52 l-131 -115 l-35 44 q16 17 16 34 l0 150 l-120 0 l0 -57 q0 -77 -18 -125.5 q-18 -48.5 -73 -113.5 l-44 45 q34 34 50.5 60.5 q16.5 26.5 23 59.5 q6.5 33 6.5 87 l0 102 l232 0 l0 -186 l75 67 Z" /><glyph glyph-name="uni5FC3" unicode="&#x5fc3;" d="M442 845 q41 -51 103 -138 q62 -87 102 -150 l-60 -44 q-35 57 -96 146 q-61 89 -102 144 l53 42 ZM370 123 q0 -35 7.5 -53 q7.5 -18 26.5 -25 q19 -7 55 -7 l121 0 q42 0 62.5 7 q20.5 7 29 24 q8.5 17 10.5 52 q2 35 3 79 q1 44 1 72 l71 -16 l-7 -160 q-3 -50 -18 -78 q-15 -28 -48 -39.5 q-33 -11.5 -91 -11.5 l-150 0 q-55 0 -86.5 13 q-31.5 13 -46 43.5 q-14.5 30.5 -14.5 85.5 l0 535 l74 0 l0 -521 ZM790 572 q30 -66 75.5 -177.5 q45.5 -111.5 77.5 -196.5 l-67 -30 q-94 258 -148 375 l62 29 ZM54 177 q31 80 60 179.5 q29 99.5 50 196.5 l70 -16 q-49 -222 -114 -383 l-66 23 Z" /><glyph glyph-name="uni5FC5" unicode="&#x5fc5;" d="M555 589 q-32 38 -90.5 103.5 q-58.5 65.5 -102.5 112.5 l46 47 q72 -74 196 -211 l-49 -52 ZM705 117 q5 80 5 129 l67 -14 l-5 -141 q-3 -50 -19 -77 q-16 -27 -50.5 -38.5 q-34.5 -11.5 -95.5 -11.5 l-162 0 q-53 0 -83.5 12.5 q-30.5 12.5 -44.5 41.5 q-14 29 -14 80 l0 10 q-96 -66 -209 -125 l-37 61 q143 75 246 149 l0 475 l70 0 l0 -421 q125 102 216.5 228 q91.5 126 164.5 293 l62 -29 q-82 -187 -188.5 -327 q-106.5 -140 -254.5 -253 l0 -43 q0 -49 19 -66.5 q19 -17.5 72 -17.5 l135 0 q43 0 64.5 7 q21.5 7 30.5 25 q9 18 11 53 ZM208 569 q-13 -83 -38.5 -185 q-25.5 -102 -51.5 -177 l-64 16 q25 73 50 175 q25 102 38 183 l66 -12 ZM805 538 q35 -69 79.5 -162 q44.5 -93 68.5 -147 l-62 -30 q-47 112 -145 310 l59 29 Z" /><glyph glyph-name="uni5FD7" unicode="&#x5fd7;" d="M118 466 l347 0 l0 168 l-386 0 l0 67 l386 0 l0 143 l69 0 l0 -143 l386 0 l0 -67 l-386 0 l0 -168 l347 0 l0 -66 l-763 0 l0 66 ZM563 150 q-26 44 -58 94.5 q-32 50.5 -59 90.5 l55 35 q26 -38 61.5 -93 q35.5 -55 54.5 -88 l-54 -39 ZM663 91 q4 72 4 110 l61 -15 q0 -53 -3 -122 q-2 -57 -30 -79 q-28 -22 -98 -22 l-190 0 q-61 0 -86 26 q-25 26 -25 86 l0 237 l67 0 l0 -213 q0 -43 13.5 -57 q13.5 -14 50.5 -14 l161 0 q44 0 59 12.5 q15 12.5 16 50.5 ZM795 312 q30 -47 73.5 -123 q43.5 -76 76.5 -137 l-60 -35 q-56 109 -146 262 l56 33 ZM53 30 q30 55 58 125.5 q28 70.5 48 139.5 l61 -19 q-19 -68 -47 -141 q-28 -73 -57 -133 l-63 28 Z" /><glyph glyph-name="uni5FD8" unicode="&#x5fd8;" d="M190 388 l0 266 l-125 0 l0 66 l428 0 q-24 47 -63 117 l72 19 q15 -25 60 -118 l9 -18 l362 0 l0 -66 l-672 0 l0 -202 l599 0 l0 -64 l-670 0 ZM565 142 q-90 126 -130 177 l50 38 q14 -17 102 -133 l31 -42 l-53 -40 ZM786 301 q33 -45 119 -189 l39 -64 l-55 -36 q-34 58 -80 132 q-46 74 -78 121 l55 36 ZM662 87 q4 80 4 98 l61 -17 q0 -52 -4 -110 q-4 -38 -16 -59 q-12 -21 -38.5 -30.5 q-26.5 -9.5 -73.5 -9.5 l-199 0 q-57 0 -79 24 q-22 24 -22 85 l0 228 l69 0 l0 -200 q0 -30 4 -44 q4 -14 15.5 -19.5 q11.5 -5.5 36.5 -5.5 l167 0 q44 0 59 11.5 q15 11.5 16 48.5 ZM56 29 q32 57 61.5 127 q29.5 70 48.5 135 l61 -21 q-19 -65 -49.5 -139.5 q-30.5 -74.5 -61.5 -133.5 l-60 32 Z" /><glyph glyph-name="uni5FEB" unicode="&#x5feb;" d="M357 507 q-41 42 -100 98 l0 -668 l-64 0 l0 907 l64 0 l0 -159 q89 -77 139 -124 l-39 -54 ZM645 313 q34 -108 106 -184.5 q72 -76.5 190 -128.5 l-34 -65 q-109 52 -183.5 127 q-74.5 75 -116.5 176 q-28 -89 -96.5 -162 q-68.5 -73 -191.5 -148 l-42 59 q128 74 194.5 150.5 q66.5 76.5 85.5 175.5 l-224 0 l0 66 l232 0 l0 24 l0 212 l-168 0 l0 67 l169 0 l0 162 l67 0 l0 -162 l218 0 l0 -303 l85 0 l0 -66 l-291 0 ZM50 324 q15 70 29.5 174 q14.5 104 21.5 186 l61 -6 q-10 -85 -25.5 -194.5 q-15.5 -109.5 -26.5 -168.5 l-60 9 ZM631 407 q0 -19 -1 -28 l157 0 l0 236 l-155 0 l-1 -208 Z" /><glyph glyph-name="uni5FF5" unicode="&#x5ff5;" d="M57 549 q138 59 239.5 130.5 q101.5 71.5 172.5 161.5 l62 0 q148 -181 412 -281 l-28 -69 q-128 51 -237 126.5 q-109 75.5 -177 160.5 q-70 -86 -176 -161.5 q-106 -75.5 -238 -135.5 l-30 68 ZM467 662 q56 -58 111 -124 l-46 -41 q-62 76 -109 126 l44 39 ZM777 412 q-24 -36 -90 -124 l-30 -41 l-54 39 q24 30 52.5 68 q28.5 38 41.5 59 l-501 0 l0 61 l581 0 l0 -62 ZM476 345 q28 -37 66 -88.5 q38 -51.5 68 -93.5 l-54 -35 q-21 33 -60.5 88.5 q-39.5 55.5 -67.5 92.5 l48 36 ZM361 85 q0 -35 14.5 -49 q14.5 -14 50.5 -14 l159 0 q43 0 57.5 12 q14.5 12 17.5 45 q2 22 4 54 q2 32 2 56 l62 -16 l-7 -86 q-1 -9 -1 -17.5 q0 -8.5 -1 -15.5 q-3 -37 -15 -57 q-12 -20 -38 -28.5 q-26 -8.5 -73 -8.5 l-187 0 q-58 0 -84 24.5 q-26 24.5 -26 76.5 l0 216 l65 0 l0 -192 ZM809 266 q45 -66 129 -220 l-54 -39 q-80 149 -130 228 l55 31 ZM56 23 q32 51 63 115 q31 64 53 126 l61 -20 q-24 -65 -55.5 -133.5 q-31.5 -68.5 -62.5 -118.5 l-59 31 Z" /><glyph glyph-name="uni6001" unicode="&#x6001;" d="M59 384 q171 56 254.5 120.5 q83.5 64.5 116.5 151.5 l-347 0 l0 63 l366 0 q11 43 15 126 l69 -1 q-4 -66 -14 -125 l399 0 l0 -63 l-368 0 q56 -90 155.5 -157.5 q99.5 -67.5 236.5 -108.5 l-27 -70 q-145 47 -253 126 q-108 79 -169 181 q-27 -68 -75 -120 q36 -28 73 -58 q37 -30 63 -53 l-42 -48 q-21 20 -64.5 56 q-43.5 36 -75.5 60 q-99 -82 -282 -149 l-31 69 ZM488 326 q27 -33 65 -83 q38 -50 59 -79 l-53 -38 q-20 31 -59 84.5 q-39 53.5 -60 80.5 l48 35 ZM664 181 l62 -15 q0 -44 -7 -107 q-4 -40 -15 -60 q-11 -20 -36.5 -28.5 q-25.5 -8.5 -73.5 -8.5 l-190 0 q-60 0 -85.5 24.5 q-25.5 24.5 -25.5 82.5 l0 232 l67 0 l0 -208 q0 -41 13.5 -55 q13.5 -14 50.5 -14 l161 0 q44 0 59.5 12 q15.5 12 16.5 50 l3 95 ZM794 294 q31 -45 73 -114 q42 -69 74 -127 l-55 -36 q-84 155 -144 242 l52 35 ZM57 31 q61 115 101 252 l61 -21 q-39 -134 -102 -259 l-60 28 Z" /><glyph glyph-name="uni6015" unicode="&#x6015;" d="M884 701 l0 -764 l-67 0 l0 68 l-351 0 l0 -70 l-67 0 l0 766 l164 0 q11 31 37 126 l7 26 l72 -15 q-21 -73 -43 -137 l248 0 ZM256 689 q35 -33 123 -126 l-37 -56 q-28 34 -86 96 l0 -666 l-65 0 l0 907 l65 0 l0 -155 ZM50 324 q14 78 27.5 181.5 q13.5 103.5 19.5 180.5 l58 -5 q-6 -75 -21 -190 q-15 -115 -26 -177 l-58 10 ZM817 389 l0 246 l-351 0 l0 -246 l351 0 ZM466 325 l0 -254 l351 0 l0 254 l-351 0 Z" /><glyph glyph-name="uni601D" unicode="&#x601d;" d="M167 796 l667 0 l0 -451 l-667 0 l0 451 ZM469 601 l0 132 l-235 0 l0 -132 l235 0 ZM531 601 l235 0 l0 132 l-235 0 l0 -132 ZM469 540 l-235 0 l0 -131 l235 0 l0 131 ZM531 540 l0 -131 l235 0 l0 131 l-235 0 ZM554 128 q-20 34 -55.5 87.5 q-35.5 53.5 -53.5 76.5 l51 37 q46 -63 113 -163 l-55 -38 ZM663 88 q2 22 3.5 51.5 q1.5 29.5 1.5 48.5 l65 -13 q0 -9 -1 -23 q-1 -14 -2 -30 q-4 -46 -4 -64 q-4 -54 -33 -74.5 q-29 -20.5 -98 -20.5 l-188 0 q-58 0 -85.5 25.5 q-27.5 25.5 -27.5 78.5 l0 215 l66 0 l0 -191 q0 -34 15.5 -48.5 q15.5 -14.5 51.5 -14.5 l160 0 q42 0 58 13 q16 13 18 47 ZM810 273 q54 -84 134 -231 l-59 -32 q-30 56 -67 122 q-37 66 -64 109 l56 32 ZM65 17 q27 52 51.5 117.5 q24.5 65.5 41.5 128.5 l63 -13 q-17 -65 -42 -134 q-25 -69 -52 -122 l-62 23 Z" /><glyph glyph-name="uni603B" unicode="&#x603b;" d="M828 692 l0 -340 l-663 0 l0 340 l183 0 q-21 31 -47.5 68 q-26.5 37 -43.5 59 l53 37 q21 -26 55.5 -72 q34.5 -46 44.5 -60 l-47 -32 l195 0 q29 36 64 84.5 q35 48.5 51 76.5 l60 -34 q-29 -46 -92 -127 l187 0 ZM232 415 l528 0 l0 212 l-528 0 l0 -212 ZM547 136 q-57 79 -116 153 l51 35 q34 -39 118 -150 l-53 -38 ZM801 282 q52 -81 139 -233 l-61 -32 q-23 45 -63 114 q-40 69 -69 117 l54 34 ZM56 21 q26 49 53 120 q27 71 46 136 l62 -17 q-20 -69 -47.5 -144 q-27.5 -75 -53.5 -124 l-60 29 ZM668 87 q4 80 4 95 l64 -15 q-4 -76 -7 -107 q-4 -58 -31.5 -79 q-27.5 -21 -92.5 -21 l-205 0 q-62 0 -87 25 q-25 25 -25 91 l0 193 l67 0 l0 -177 q0 -40 14 -54 q14 -14 54 -14 l166 0 q32 0 48 5 q16 5 22.5 18 q6.5 13 8.5 40 Z" /><glyph glyph-name="uni6089" unicode="&#x6089;" d="M60 326 q203 64 333 178 l-315 0 l0 60 l389 0 l0 170 l-205 -11 l41 -50 l56 -67 l-52 -31 q-34 45 -66 81 l-28 34 l49 33 q-73 -4 -133 -6 l-8 64 q166 6 382.5 19.5 q216.5 13.5 343.5 27.5 l14 -64 q-119 -12 -328 -26 l0 -174 l392 0 l0 -60 l-315 0 q133 -118 329 -179 l-30 -65 q-116 42 -212 103.5 q-96 61.5 -164 136.5 l0 -195 l-66 0 l0 191 q-139 -147 -378 -234 l-29 64 ZM644 609 q24 27 52.5 63.5 q28.5 36.5 46.5 63.5 l55 -29 q-19 -26 -49.5 -64 q-30.5 -38 -55.5 -66 l-49 32 ZM489 286 q90 -100 120 -138 l-52 -38 l-25 30 q-79 94 -91 108 l48 38 ZM789 252 q68 -92 150 -224 l-58 -38 q-88 147 -146 226 l54 36 ZM662 68 q3 54 3 84 l63 -10 l-6 -98 q-3 -37 -14.5 -56.5 q-11.5 -19.5 -36.5 -27 q-25 -7.5 -71 -7.5 l-199 0 q-57 0 -81 22 q-24 22 -24 78 l0 193 l66 0 l0 -171 q0 -36 12.5 -48.5 q12.5 -12.5 47.5 -12.5 l170 0 q41 0 55 10.5 q14 10.5 15 43.5 ZM58 12 q52 80 110 225 l60 -20 q-58 -154 -110 -234 l-60 29 Z" /><glyph glyph-name="uni60A8" unicode="&#x60a8;" d="M305 595 q52 56 93 123.5 q41 67.5 68 132.5 l63 -15 q-14 -35 -42 -90 l426 0 l0 -60 l-77 -125 l-60 20 l64 102 l-390 0 q-46 -71 -94 -127 l-51 39 ZM316 829 q-31 -79 -77 -153 l0 -390 l-63 0 l0 300 q-41 -53 -97 -110 l-26 68 q65 69 117 148 q52 79 81 155 l65 -18 ZM660 387 q0 -52 -24.5 -73 q-24.5 -21 -84.5 -21 l-82 0 l-14 62 l77 0 q38 0 51 11.5 q13 11.5 13 43.5 l0 216 l64 0 l0 -239 ZM494 534 q-28 -56 -71 -115 q-43 -59 -85 -103 l-51 37 q40 40 81.5 96.5 q41.5 56.5 71.5 112.5 l54 -28 ZM772 557 q105 -134 160 -208 l-52 -37 q-81 113 -156 208 l48 37 ZM493 267 q24 -26 56.5 -64 q32.5 -38 51.5 -63 l-49 -41 q-23 32 -104 129 l45 39 ZM795 262 q31 -43 74 -108 q43 -65 76 -118 l-56 -38 q-27 46 -70.5 114 q-43.5 68 -75.5 116 l52 34 ZM666 132 l1 37 l65 -17 l-7 -103 q-4 -56 -32 -75 q-28 -19 -91 -19 l-205 0 q-61 0 -85 23.5 q-24 23.5 -24 87.5 l0 179 l64 0 l0 -161 q0 -40 13.5 -53 q13.5 -13 51.5 -13 l172 0 q43 0 58.5 11.5 q15.5 11.5 16.5 46.5 l2 56 ZM59 8 q50 94 96 233 l60 -18 q-19 -62 -44 -127.5 q-25 -65.5 -50 -112.5 l-62 25 Z" /><glyph glyph-name="uni60F3" unicode="&#x60f3;" d="M385 435 l-57 45 l-43 35 l0 -241 l-65 0 l0 248 q-54 -96 -136 -181 l-30 61 q109 106 166 237 l0 6 l-142 0 l0 60 l142 0 l0 136 l65 0 l0 -136 l125 0 l0 -60 l-125 0 l0 -62 l48 -36 q50 -35 83 -62 l-31 -50 ZM454 793 l415 0 l0 -495 l-415 0 l0 495 ZM804 645 l0 93 l-286 0 l0 -93 l286 0 ZM804 501 l0 93 l-286 0 l0 -93 l286 0 ZM518 447 l0 -94 l286 0 l0 94 l-286 0 ZM551 99 q-26 37 -105 142 l48 39 q9 -13 20 -26.5 q11 -13.5 21 -26.5 q52 -65 67 -88 l-51 -40 ZM806 242 q28 -40 69 -105 q41 -65 68 -111 l-57 -36 q-25 44 -65 108.5 q-40 64.5 -70 109.5 l55 34 ZM70 6 q28 46 54 109 q26 63 45 123 l61 -21 q-17 -59 -45 -124.5 q-28 -65.5 -57 -113.5 l-58 27 ZM662 75 q1 15 5 90 l65 -16 q-3 -54 -8 -102 q-3 -38 -13.5 -57.5 q-10.5 -19.5 -34.5 -27.5 q-24 -8 -71 -8 l-196 0 q-61 0 -86 22.5 q-25 22.5 -25 76.5 l0 185 l65 0 l0 -161 q0 -37 13 -49 q13 -12 53 -12 l160 0 q30 0 44.5 5 q14.5 5 20.5 17 q6 12 8 37 Z" /><glyph glyph-name="uni610F" unicode="&#x610f;" d="M935 613 l0 -51 l-870 0 l0 51 l256 0 q-16 76 -23 101 l-181 0 l0 50 l359 0 q-20 52 -32 76 l74 13 q15 -35 35 -89 l330 0 l0 -50 l-185 0 q-10 -37 -29 -101 l266 0 ZM363 714 q13 -51 22 -101 l219 0 q19 62 29 101 l-270 0 ZM182 497 l633 0 l0 -280 l-633 0 l0 280 ZM749 381 l0 66 l-502 0 l0 -66 l502 0 ZM247 333 l0 -67 l502 0 l0 67 l-502 0 ZM549 69 q-50 55 -98 100 l42 41 q43 -40 100 -97 l-44 -44 ZM61 6 q31 36 63.5 87 q32.5 51 54.5 97 l60 -28 q-23 -46 -58 -100.5 q-35 -54.5 -67 -93.5 l-53 38 ZM820 184 q48 -64 123 -176 l-53 -37 q-67 102 -124 181 l54 32 ZM663 123 l1 20 l63 -17 q-1 -26 -7 -86 q-4 -47 -29 -64 q-25 -17 -86 -17 l-208 0 q-58 0 -80.5 21 q-22.5 21 -22.5 76 l0 123 l67 0 l0 -115 q0 -30 12.5 -42 q12.5 -12 47.5 -12 l169 0 q41 0 55 10.5 q14 10.5 15 38.5 l3 64 Z" /><glyph glyph-name="uni61C2" unicode="&#x61c2;" d="M535 656 l-60 0 l0 62 l-155 0 l0 53 l155 0 l0 73 l60 0 l0 -73 l163 0 l0 73 l59 0 l0 -73 l174 0 l0 -53 l-174 0 l0 -51 l-59 0 l0 51 l-163 0 l0 -62 ZM305 569 q-21 19 -65 53 l0 -688 l-60 0 l0 908 l60 0 l0 -152 q55 -41 96 -73 l-31 -48 ZM47 323 q28 132 50 358 l53 -4 q-22 -210 -49 -363 l-54 9 ZM938 482 l-292 0 l0 -56 l223 0 l0 -249 l-223 0 l0 -59 l249 0 l0 -46 l-249 0 l0 -59 l290 0 l0 -49 l-646 0 l0 49 l298 0 l0 59 l-251 0 l0 46 l251 0 l0 59 l-226 0 l0 249 l226 0 l0 56 l-276 0 l0 51 l276 0 l0 57 q-169 -6 -228 -7 l0 49 q99 1 250 7.5 q151 6.5 257 13.5 l4 -49 q-68 -5 -225 -12 l0 -59 l292 0 l0 -51 ZM588 323 l0 57 l-168 0 l0 -57 l168 0 ZM811 323 l0 57 l-165 0 l0 -57 l165 0 ZM420 281 l0 -58 l168 0 l0 58 l-168 0 ZM646 281 l0 -58 l165 0 l0 58 l-165 0 Z" /><glyph glyph-name="uni61D2" unicode="&#x61d2;" d="M622 149 l0 403 l-41 29 q37 56 70.5 128.5 q33.5 72.5 54.5 143.5 l55 -10 q-16 -50 -28 -81 l151 0 l0 -55 l-65 -129 l90 0 l0 -428 l-53 0 l0 367 l-181 0 l0 -368 l-53 0 ZM555 98 q-27 30 -95 96 l0 -262 l-54 0 l0 284 q-53 -110 -131 -204 l-29 53 q44 51 82.5 112.5 q38.5 61.5 65.5 123.5 l-94 0 l0 260 l105 0 l0 117 l-112 0 l0 57 l112 0 l0 115 l56 0 l0 -115 l116 0 l0 -57 l-116 0 l0 -117 l104 0 l0 -260 l-105 0 l0 -42 q72 -61 128 -115 l-33 -46 ZM285 564 l-32 30 l-30 29 l0 -686 l-56 0 l0 908 l56 0 l0 -156 q33 -27 57 -49 q22 -20 33 -29 l-28 -47 ZM828 707 l-117 0 q-30 -69 -66 -129 l114 0 l69 129 ZM47 326 q10 48 18 121 q8 73 18 186 q5 45 5 53 l48 -5 q-24 -274 -39 -364 l-50 9 ZM406 505 l-60 0 l0 -149 l60 0 l0 149 ZM460 356 l57 0 l0 149 l-57 0 l0 -149 ZM909 -62 q-25 32 -68 81.5 q-43 49.5 -80 88.5 q-21 -44 -59.5 -84.5 q-38.5 -40.5 -106.5 -92.5 l-40 49 q81 58 119 102.5 q38 44.5 51 98 q13 53.5 13 146.5 l0 138 l56 0 l0 -152 q0 -92 -14 -149 q41 -42 86.5 -90 q45.5 -48 80.5 -87 l-38 -49 Z" /><glyph glyph-name="uni6210" unicode="&#x6210;" d="M814 691 q-74 76 -124 118 l43 45 q57 -51 127 -119 l-46 -44 ZM949 202 q-14 -81 -25 -131 q-15 -69 -41.5 -95.5 q-26.5 -26.5 -65.5 -26.5 q-33 0 -62.5 24 q-29.5 24 -66.5 80 q-18 29 -35 64 q-70 -80 -170 -160 l-47 54 q113 87 190 178 q-51 151 -77 423 l-336 0 l0 -155 l250 0 q0 -28 -5 -139.5 q-5 -111.5 -8 -142.5 q-4 -47 -16.5 -73.5 q-12.5 -26.5 -41.5 -38.5 q-29 -12 -82 -12 l-70 0 l-13 68 l67 0 q40 0 58 5.5 q18 5.5 25 20.5 q7 15 10 47 q2 25 4.5 93.5 q2.5 68.5 3.5 106.5 l-182 0 q-2 -158 -21.5 -256.5 q-19.5 -98.5 -72.5 -200.5 l-66 30 q39 70 59 131 q20 61 28 136 q8 75 8 191 l0 256 l395 0 l-14 170 l67 0 q2 -59 12 -170 l320 0 l0 -67 l-314 0 q20 -219 61 -358 q42 60 73.5 128 q31.5 68 61.5 155 l60 -24 q-35 -101 -75 -182 q-40 -81 -94 -154 q22 -56 51 -100 q38 -54 67 -54 q17 0 29 16 q12 16 22 62 q13 70 20 120 l59 -19 Z" /><glyph glyph-name="uni6211" unicode="&#x6211;" d="M936 186 q-20 -92 -32 -134 q-16 -60 -41.5 -85 q-25.5 -25 -62.5 -25 q-71 0 -128 91 q-27 41 -47 100 q-88 -68 -212 -130 l-33 64 q132 64 225 135 q-29 114 -45 287 l-235 0 l0 -157 l168 38 l4 -34 l3 -33 l-175 -38 l0 -199 q0 -60 -26.5 -83.5 q-26.5 -23.5 -94.5 -23.5 l-99 0 l-14 65 l100 0 q29 0 42.5 5 q13.5 5 18 17.5 q4.5 12.5 4.5 38.5 l0 165 l-182 -41 l-11 68 q23 3 193 40 l0 172 l-195 0 l0 65 l195 0 l0 147 q-50 -8 -164 -20 l-5 62 q217 21 374 60 l11 -62 q-49 -13 -147 -30 l0 -157 l230 0 l-6 88 q-7 126 -9 201 l68 0 q0 -41 8 -174 l1 -24 l6 -91 l310 0 l0 -65 l-305 0 q12 -141 33 -240 q91 81 168 195 l55 -36 q-92 -133 -204 -231 q20 -62 51 -110 q18 -27 34.5 -38.5 q16.5 -11.5 34.5 -11.5 q17 0 28 14 q11 14 24 62 q20 95 24 121 l60 -28 ZM835 604 q-47 50 -158 159 l44 44 q85 -78 160 -157 l-46 -46 Z" /><glyph glyph-name="uni6237" unicode="&#x6237;" d="M872 711 l0 -373 l-634 0 q-4 -97 -16.5 -164.5 q-12.5 -67.5 -38 -124 q-25.5 -56.5 -69.5 -121.5 l-63 39 q50 71 74.5 131 q24.5 60 34 138.5 q9.5 78.5 9.5 210.5 l0 264 l334 0 l-56 122 l70 22 l64 -144 l291 0 ZM240 404 l562 0 l0 242 l-562 0 l0 -185 l0 -57 Z" /><glyph glyph-name="uni6240" unicode="&#x6240;" d="M937 495 l0 -68 l-132 0 l0 -494 l-66 0 l0 494 l-158 0 q-2 -124 -14.5 -206 q-12.5 -82 -41 -150.5 q-28.5 -68.5 -82.5 -151.5 l-53 48 q53 79 79.5 142 q26.5 63 38 143 q11.5 80 11.5 209 l0 294 q97 10 192.5 30 q95.5 20 167.5 46 l20 -69 q-67 -23 -152 -42.5 q-85 -19.5 -166 -28.5 l0 -196 l356 0 ZM419 245 l-218 0 q-5 -104 -23 -170.5 q-18 -66.5 -62 -152.5 l-62 35 q39 76 57 133 q18 57 24.5 133.5 q6.5 76.5 6.5 217.5 l0 327 q172 17 313 60 l14 -70 q-116 -34 -264 -54 l0 -136 l214 0 l0 -323 ZM356 501 l-151 0 l0 -62 q0 -90 -1 -127 l152 0 l0 189 Z" /><glyph glyph-name="uni624B" unicode="&#x624b;" d="M939 294 l0 -68 l-391 0 l0 -159 q0 -47 -11 -71.5 q-11 -24.5 -38.5 -34.5 q-27.5 -10 -78.5 -10 l-126 0 l-13 69 l116 0 q35 0 51 5 q16 5 22 19.5 q6 14.5 6 45.5 l0 136 l-412 0 l0 68 l412 0 l0 164 l-340 0 l0 69 l340 0 l0 176 q-197 -15 -353 -20 l-5 67 q146 5 366 22 q220 17 376 37 l10 -68 q-128 -17 -322 -32 l0 -182 l322 0 l0 -69 l-322 0 l0 -164 l391 0 Z" /><glyph glyph-name="uni624D" unicode="&#x624d;" d="M925 648 l0 -70 l-231 0 l0 -483 q0 -56 -13 -84.5 q-13 -28.5 -46 -40 q-33 -11.5 -98 -11.5 l-132 0 l-16 73 l133 0 q46 0 65.5 5.5 q19.5 5.5 26.5 22 q7 16.5 7 54.5 l0 448 q-87 -156 -214 -283.5 q-127 -127.5 -305 -235.5 l-39 64 q329 194 489 471 l-463 0 l0 70 l532 0 l0 197 l73 0 l0 -197 l231 0 Z" /><glyph glyph-name="uni6253" unicode="&#x6253;" d="M427 398 l3 -26 l-143 -44 l0 -270 q0 -43 -10 -65 q-10 -22 -34.5 -31 q-24.5 -9 -72.5 -9 l-86 0 l-13 70 l78 0 q31 0 45.5 4.5 q14.5 4.5 19.5 16 q5 11.5 5 37.5 l0 226 q-82 -25 -144 -46 l-14 68 l121 34 l37 11 l0 212 l-145 0 l0 67 l145 0 l0 192 l68 0 l0 -192 l132 0 l0 -67 l-132 0 l0 -191 q52 16 135 44 l5 -41 ZM938 766 l0 -68 l-167 0 l0 -628 q0 -44 -13 -69 q-13 -25 -42.5 -36 q-29.5 -11 -81.5 -11 l-113 0 l-14 69 l109 0 q35 0 52.5 5 q17.5 5 24.5 18.5 q7 13.5 7 39.5 l0 612 l-255 0 l0 68 l493 0 Z" /><glyph glyph-name="uni627E" unicode="&#x627e;" d="M934 195 q-18 -105 -27 -139 q-16 -63 -40.5 -91 q-24.5 -28 -63.5 -28 q-38 0 -70 24 q-32 24 -65 78 q-33 56 -56 122 q-101 -76 -229 -136 l-35 63 q140 63 244 142 q-29 115 -45 279 l-142 -18 l-8 64 l144 19 l-6 78 q-7 100 -9 165 l-2 31 l65 3 q1 -22 3.5 -76.5 q2.5 -54.5 8.5 -128.5 l5 -64 l316 42 l8 -65 l-318 -41 q17 -148 38 -240 q105 92 183 217 l52 -39 q-92 -144 -216 -250 q23 -81 57 -134 q38 -60 77 -60 q17 0 29 16.5 q12 16.5 23 63.5 q6 25 12 61.5 q6 36.5 10 65.5 l57 -24 ZM411 365 l-133 -42 l0 -273 q0 -44 -8 -66 q-8 -22 -31 -31 q-23 -9 -69 -9 l-79 0 l-14 70 l73 0 q30 0 43 4 q13 4 17.5 16.5 q4.5 12.5 4.5 39.5 l0 229 q-62 -19 -97 -32 l-41 -13 l-15 68 q46 12 153 45 l0 220 l-142 0 l0 65 l142 0 l0 189 l63 0 l0 -189 l127 0 l0 -65 l-127 0 l0 -201 l124 42 l4 -29 l5 -38 ZM812 639 q-60 63 -157 145 l38 44 q81 -66 158 -142 l-39 -47 Z" /><glyph glyph-name="uni6284" unicode="&#x6284;" d="M611 848 l65 0 l0 -576 l-65 0 l0 576 ZM359 387 q-25 -11 -99 -40 l0 -299 q0 -56 -23.5 -76 q-23.5 -20 -85.5 -20 l-69 0 l-10 68 l65 0 q35 0 46.5 10.5 q11.5 10.5 11.5 43.5 l0 249 q-63 -23 -117 -42 l-16 68 l46 15 q57 19 87 30 l0 192 l-118 0 l0 67 l118 0 l0 192 l65 0 l0 -192 l101 0 l0 -67 l-101 0 l0 -169 q50 18 86 33 l7 -34 l6 -29 ZM786 723 q106 -206 160 -317 l-58 -31 l-160 320 l58 28 ZM358 328 q38 83 74 183 q36 100 62 195 l64 -17 q-28 -95 -64.5 -200.5 q-36.5 -105.5 -71.5 -186.5 l-64 26 ZM319 -5 q193 77 307 167.5 q114 90.5 192 229.5 l54 -40 q-60 -102 -129.5 -176.5 q-69.5 -74.5 -162 -133 q-92.5 -58.5 -223.5 -113.5 l-38 66 Z" /><glyph glyph-name="uni62CD" unicode="&#x62cd;" d="M887 702 l0 -764 l-66 0 l0 69 l-340 0 l0 -72 l-66 0 l0 767 l163 0 q19 61 35 124 l8 27 l70 -13 q-12 -47 -41 -138 l237 0 ZM369 404 l3 -36 q-55 -18 -110 -37 l0 -275 q0 -41 -9.5 -62 q-9.5 -21 -33 -29 q-23.5 -8 -68.5 -8 l-70 0 l-13 66 l66 0 q28 0 41 4 q13 4 17.5 15.5 q4.5 11.5 4.5 37.5 l0 230 l-129 -43 l-13 69 q55 15 142 44 l0 209 l-122 0 l0 66 l122 0 l0 182 l65 0 l0 -182 l108 0 l0 -66 l-108 0 l0 -188 q31 11 103 37 l4 -34 ZM821 391 l0 245 l-340 0 l0 -245 l340 0 ZM481 325 l0 -253 l340 0 l0 253 l-340 0 Z" /><glyph glyph-name="uni62E9" unicode="&#x62e9;" d="M346 397 q-55 -23 -69 -30 l-27 -12 l0 -296 q0 -41 -9 -62 q-9 -21 -31.5 -29 q-22.5 -8 -66.5 -8 l-67 0 l-14 63 l62 0 q28 0 41 4 q13 4 17.5 15.5 q4.5 11.5 4.5 37.5 l0 247 q-49 -21 -91 -41 l-21 -9 l-16 66 q38 15 128 55 l0 194 l-113 0 l0 65 l113 0 l0 182 l63 0 l0 -182 l105 0 l0 -65 l-105 0 l0 -166 l82 37 l8 -36 l6 -30 ZM580 542 q-48 33 -89 78 q-41 45 -83 108 l0 62 l463 0 l0 -62 q-31 -57 -71.5 -102 q-40.5 -45 -95.5 -83 q87 -41 236 -73 l-21 -62 q-178 42 -279 96 q-103 -55 -264 -101 l-22 60 q133 33 226 79 ZM483 728 q35 -49 72.5 -86.5 q37.5 -37.5 85.5 -66.5 q103 64 156 153 l-314 0 ZM893 274 l-222 0 l0 -118 l265 0 l0 -60 l-265 0 l0 -160 l-64 0 l0 160 l-266 0 l0 60 l266 0 l0 118 l-222 0 l0 60 l222 0 l0 102 l64 0 l0 -102 l222 0 l0 -60 Z" /><glyph glyph-name="uni62FC" unicode="&#x62fc;" d="M943 358 l0 -66 l-137 0 l0 -358 l-67 0 l0 358 l-190 0 q-6 -88 -23.5 -148.5 q-17.5 -60.5 -51 -110 q-33.5 -49.5 -91.5 -107.5 l-55 43 q58 55 89 99 q31 44 46.5 95.5 q15.5 51.5 20.5 128.5 l-127 0 l0 66 l130 0 l0 53 l0 185 l-91 0 l0 64 l293 0 q29 45 61.5 99.5 q32.5 54.5 52.5 91.5 l62 -33 q-41 -68 -103 -158 l163 0 l0 -64 l-119 0 l0 -238 l137 0 ZM547 668 q-21 33 -53 79.5 q-32 46.5 -50 69.5 l53 34 q70 -98 103 -145 l-53 -38 ZM362 388 l-76 -27 l-25 -9 l0 -302 q0 -52 -25.5 -73.5 q-25.5 -21.5 -80.5 -22.5 l-76 0 l-13 67 l70 0 q36 0 48 12 q12 12 12 45 l0 251 q-12 -5 -79 -29 l-40 -15 l-17 71 q73 21 136 43 l0 188 l-116 0 l0 65 l116 0 l0 187 l65 0 l0 -187 l96 0 l0 -65 l-96 0 l0 -166 l90 32 l7 -36 l4 -29 ZM739 358 l0 238 l-187 0 l0 -178 q0 -41 -1 -60 l188 0 Z" /><glyph glyph-name="uni6301" unicode="&#x6301;" d="M350 396 l4 -29 l-105 -34 l0 -284 q0 -39 -9.5 -60 q-9.5 -21 -31.5 -29.5 q-22 -8.5 -64 -8.5 l-67 0 l-11 65 l59 0 q36 0 48 10 q12 10 12 42 l0 244 l-128 -43 l-14 69 q70 19 142 42 l0 214 l-114 0 l0 63 l114 0 l0 190 l64 0 l0 -190 l105 0 l0 -63 l-105 0 l0 -193 l96 34 l5 -39 ZM940 452 l-140 0 l0 -121 l131 0 l0 -64 l-131 0 l0 -206 q0 -45 -11.5 -69 q-11.5 -24 -39.5 -34 q-28 -10 -81 -10 l-103 0 l-11 67 l99 0 q35 0 52 5.5 q17 5.5 23 20 q6 14.5 6 44.5 l0 182 l-367 0 l0 64 l367 0 l0 121 l-381 0 l0 66 l256 0 l0 129 l-200 0 l0 65 l200 0 l0 132 l66 0 l0 -132 l219 0 l0 -65 l-219 0 l0 -129 l265 0 l0 -66 ZM455 246 q78 -78 133 -139 l-47 -49 q-16 19 -99 110 l-32 35 l45 43 Z" /><glyph glyph-name="uni6307" unicode="&#x6307;" d="M256 837 l0 -179 l107 0 l0 -64 l-107 0 l0 -185 l89 33 l13 -66 l-102 -37 l0 -291 q0 -39 -9.5 -59 q-9.5 -20 -33 -28.5 q-23.5 -8.5 -67.5 -8.5 l-65 0 l-12 64 l58 0 q31 0 43 3 q12 3 16 13.5 q4 10.5 4 36.5 l0 246 l-119 -42 l-13 67 q35 11 132 45 l0 209 l-113 0 l0 64 l113 0 l0 179 l66 0 ZM916 655 q0 -11 -2 -36 q-2 -25 -4 -50 q-3 -38 -14 -58.5 q-11 -20.5 -34.5 -29 q-23.5 -8.5 -66.5 -8.5 l-270 0 q-63 0 -88 24.5 q-25 24.5 -25 88.5 l0 247 l65 0 l0 -142 q83 17 198.5 48.5 q115.5 31.5 189.5 57.5 l18 -62 q-79 -25 -196.5 -55.5 q-117.5 -30.5 -209.5 -49.5 l0 -32 q0 -38 13 -51.5 q13 -13.5 50 -13.5 l231 0 q46 0 61 12 q15 12 17 50 l2 73 l65 -13 ZM474 -65 l-64 0 l0 450 l465 0 l0 -449 l-68 0 l0 50 l-333 0 l0 -51 ZM807 215 l0 113 l-333 0 l0 -113 l333 0 ZM474 155 l0 -110 l333 0 l0 110 l-333 0 Z" /><glyph glyph-name="uni6362" unicode="&#x6362;" d="M938 286 l0 -63 l-273 0 q29 -80 99.5 -138 q70.5 -58 173.5 -87 l-26 -66 q-203 66 -280 223 q-33 -76 -109 -130 q-76 -54 -200 -94 l-34 65 q132 38 204 93.5 q72 55.5 93 133.5 l-274 0 l0 63 l78 0 l0 237 l-32 -31 l-40 48 q134 128 204 303 l62 -18 q-16 -44 -34 -78 l259 0 l0 -57 l-99 -142 l160 0 l0 -262 l68 0 ZM337 369 q-45 -19 -103 -40 l0 -296 q0 -37 -9 -57.5 q-9 -20.5 -31 -29 q-22 -8.5 -63 -8.5 l-62 0 l-12 67 l55 0 q35 0 46.5 11 q11.5 11 11.5 40 l0 248 q-57 -22 -97 -40 l-17 71 q37 12 114 41 l0 212 l-109 0 l0 67 l109 0 l0 177 l64 0 l0 -177 l107 0 l0 -67 l-107 0 l0 -187 q56 23 89 38 l14 -70 ZM517 686 q-44 -74 -103 -138 l216 0 l99 138 l-212 0 ZM452 486 l0 -200 l143 0 l0 13 l0 187 l-143 0 ZM659 286 l151 0 l0 200 l-151 0 l0 -190 l0 -10 Z" /><glyph glyph-name="uni636E" unicode="&#x636e;" d="M344 396 q-64 -28 -96 -44 l0 -302 q0 -41 -9.5 -61.5 q-9.5 -20.5 -33.5 -29 q-24 -8.5 -70 -8.5 l-66 0 l-9 63 l60 0 q28 0 41.5 4.5 q13.5 4.5 18 15.5 q4.5 11 4.5 36 l0 253 l-110 -51 l-15 67 l125 56 l0 190 l-119 0 l0 65 l119 0 l0 186 l64 0 l0 -186 l91 0 l0 -65 l-91 0 l0 -162 l84 39 l7 -35 l5 -31 ZM939 373 l-218 0 l0 -117 l161 0 l0 -324 l-61 0 l0 54 l-263 0 l0 -55 l-62 0 l0 325 l162 0 l0 117 l-207 0 q-7 -144 -34 -239 q-27 -95 -88 -192 l-59 34 q48 78 73.5 146.5 q25.5 68.5 35.5 155 q10 86.5 10 221.5 l0 286 l511 0 l0 -241 l-179 0 l0 -112 l218 0 l0 -59 ZM835 602 l0 124 l-382 0 l0 -124 l382 0 ZM658 432 l0 112 l-205 0 l0 -52 q0 -41 -1 -60 l206 0 ZM558 42 l263 0 l0 155 l-263 0 l0 -155 Z" /><glyph glyph-name="uni6377" unicode="&#x6377;" d="M938 22 l-12 -57 l-226 0 q-102 0 -167.5 25.5 q-65.5 25.5 -114.5 95.5 q-37 -86 -122 -159 l-50 42 q73 59 106.5 123.5 q33.5 64.5 39.5 153.5 l63 -7 q-5 -45 -13 -81 q25 -49 59.5 -78.5 q34.5 -29.5 84.5 -43.5 l0 244 l-225 0 l0 54 l225 0 l0 85 l-245 0 l0 54 l245 0 l0 83 l-218 0 l0 54 l218 0 l0 86 l-233 0 l0 56 l233 0 l0 94 l63 0 l0 -94 l257 0 l0 -56 l-257 0 l0 -86 l219 0 l0 -137 l67 0 l0 -54 l-67 0 l0 -139 l-219 0 l0 -88 l243 0 l0 -55 l-243 0 l0 -112 q27 -3 58 -3 l231 0 ZM329 378 q-26 -11 -90 -35 l0 -289 q0 -40 -10 -61 q-10 -21 -33.5 -29.5 q-23.5 -8.5 -68.5 -8.5 l-59 0 l-12 65 l57 0 q28 0 40.5 4 q12.5 4 17.5 15.5 q5 11.5 5 35.5 l0 244 l-102 -38 l-15 63 l117 42 l0 206 l-102 0 l0 60 l102 0 l0 192 l63 0 l0 -192 l96 0 l0 -60 l-96 0 l0 -183 q42 16 79 32 l6 -34 l5 -29 ZM807 556 l-158 0 l0 -83 l158 0 l0 83 ZM807 419 l-158 0 l0 -85 l158 0 l0 85 Z" /><glyph glyph-name="uni63A5" unicode="&#x63a5;" d="M509 520 l-14 55 q-20 83 -26 106 l-94 0 l0 59 l245 0 q-22 55 -40 95 l69 14 q13 -26 39 -90 l8 -19 l212 0 l0 -59 l-97 0 q-16 -61 -45 -161 l169 0 l0 -60 l-593 0 l0 60 l167 0 ZM337 381 l-91 -35 l0 -293 q0 -40 -10 -61 q-10 -21 -34.5 -30 q-24.5 -9 -70.5 -9 l-63 0 l-12 65 l59 0 q29 0 42.5 4.5 q13.5 4.5 18 16 q4.5 11.5 4.5 34.5 l0 247 q-27 -10 -51.5 -19.5 q-24.5 -9.5 -46.5 -17.5 q-7 -3 -12.5 -5 q-5.5 -2 -9.5 -4 l-13 64 q49 15 133 49 l0 204 l-111 0 l0 63 l111 0 l0 183 l66 0 l0 -183 l99 0 l0 -63 l-99 0 l0 -179 q68 27 87 36 l2 -33 l2 -34 ZM704 520 q26 89 43 161 l-215 0 q15 -55 40 -161 l132 0 ZM823 278 q-23 -59 -48.5 -101.5 q-25.5 -42.5 -60.5 -76.5 q140 -67 215 -104 l-31 -58 q-119 63 -237 119 q-54 -35 -134 -64 q-80 -29 -199 -57 l-21 65 q103 22 171 43 q68 21 114 45 q-85 38 -188 77 q31 52 63 112 l-141 0 l0 57 l169 0 q26 55 43 103 l64 -16 q-16 -42 -38 -87 l374 0 l0 -57 l-115 0 ZM490 195 q80 -30 163 -68 q35 28 58 63.5 q23 35.5 44 87.5 l-219 0 q-25 -49 -46 -83 Z" /><glyph glyph-name="uni63A8" unicode="&#x63a8;" d="M939 66 l0 -61 l-471 0 l0 -69 l-64 0 l0 591 q-27 -45 -55 -81 l-45 52 q109 143 173 349 l65 -13 q-31 -90 -56 -148 l209 0 q-37 97 -53 136 l59 22 l61 -158 l168 0 l0 -62 l-203 0 l0 -140 l185 0 l0 -59 l-185 0 l0 -142 l185 0 l0 -61 l-185 0 l0 -156 l212 0 ZM345 400 l5 -33 l-101 -34 l0 -282 q0 -38 -10 -58.5 q-10 -20.5 -32.5 -29 q-22.5 -8.5 -64.5 -8.5 l-66 0 l-13 66 l62 0 q36 0 47 9.5 q11 9.5 11 41.5 l0 238 l-111 -39 l-15 67 q6 2 96 30 l30 10 l0 223 l-111 0 l0 67 l111 0 l0 173 l66 0 l0 -173 l93 0 l0 -67 l-93 0 l0 -200 l90 33 l6 -34 ZM468 484 l195 0 l0 140 l-195 0 l0 -140 ZM468 283 l195 0 l0 142 l-195 0 l0 -142 ZM663 222 l-195 0 l0 -156 l195 0 l0 156 Z" /><glyph glyph-name="uni63D0" unicode="&#x63d0;" d="M335 401 l-95 -38 l0 -322 q0 -35 -9.5 -54 q-9.5 -19 -32 -27 q-22.5 -8 -63.5 -8 l-57 0 l-13 66 l51 0 q36 0 48.5 9.5 q12.5 9.5 12.5 36.5 l0 273 q-18 -7 -75 -30 q-19 -9 -36 -15 l-9 70 l120 45 l0 179 l-108 0 l0 66 l108 0 l0 184 l63 0 l0 -184 l100 0 l0 -66 l-100 0 l0 -154 q41 17 89 38 l3 -39 l3 -30 ZM407 796 l445 0 l0 -337 l-445 0 l0 337 ZM787 655 l0 87 l-317 0 l0 -87 l317 0 ZM470 602 l0 -89 l317 0 l0 89 l-317 0 ZM942 23 l-12 -63 l-245 0 q-96 0 -155 33 q-59 33 -102 115 q-17 -46 -44 -87.5 q-27 -41.5 -69 -88.5 l-50 43 q48 50 75 92.5 q27 42.5 41 91 q14 48.5 24 122.5 l61 -6 q-9 -58 -16 -93 q31 -71 67 -106 q36 -35 90 -46 l0 286 l-283 0 l0 59 l606 0 l0 -59 l-260 0 l0 -108 l220 0 l0 -59 l-220 0 l0 -126 l16 0 l256 0 Z" /><glyph glyph-name="uni641C" unicode="&#x641c;" d="M920 -64 q-100 20 -174.5 43.5 q-74.5 23.5 -134.5 55.5 q-112 -54 -312 -101 l-20 64 q174 35 268 75 q-91 61 -178 165 l0 56 l216 0 l0 92 l-222 0 l0 356 q77 16 171 52 l24 -56 q-76 -30 -136 -45 l0 -94 l125 0 l0 -54 l-125 0 l0 -101 l163 0 l0 398 l62 0 l0 -398 l169 0 l0 101 l-133 0 l0 54 l133 0 l0 101 l-135 0 l0 56 l195 0 l0 -370 l-229 0 l0 -92 l206 0 l0 -55 q-40 -54 -82.5 -94.5 q-42.5 -40.5 -92.5 -72.5 q96 -42 260 -69 l-18 -67 ZM327 394 q-32 -17 -90 -43 l0 -308 q0 -37 -9 -56 q-9 -19 -30.5 -27 q-21.5 -8 -63.5 -8 l-59 0 l-12 65 l54 0 q25 0 37 4 q12 4 16 14 q4 10 4 31 l0 257 l-103 -45 l-8 69 q33 13 90 39 l21 9 l0 193 l-105 0 l0 66 l105 0 l0 186 l63 0 l0 -186 l90 0 l0 -66 l-90 0 l0 -165 l31 15 q30 13 50 24 l9 -68 ZM454 238 q81 -88 160 -133 q84 48 158 133 l-318 0 Z" /><glyph glyph-name="uni642D" unicode="&#x642d;" d="M516 595 l-64 0 l0 93 l-120 0 l0 59 l120 0 l0 105 l64 0 l0 -105 l215 0 l0 105 l62 0 l0 -105 l128 0 l0 -59 l-128 0 l0 -93 l-62 0 l0 93 l-215 0 l0 -93 ZM327 417 l-95 -48 l0 -322 q0 -53 -21 -72.5 q-21 -19.5 -78 -19.5 l-61 0 l-13 66 l55 0 q31 0 42 9.5 q11 9.5 11 38.5 l0 267 l-32 -16 q-59 -28 -63 -30 l-16 65 q32 14 111 53 l0 191 l-100 0 l0 66 l100 0 l0 177 l65 0 l0 -177 l95 0 l0 -66 l-95 0 l0 -160 q52 25 87 44 l8 -66 ZM653 626 q47 -70 121 -130.5 q74 -60.5 162 -106.5 l-28 -64 q-87 52 -163.5 115.5 q-76.5 63.5 -123.5 129.5 q-65 -91 -155 -165 l316 0 l0 -57 l-322 0 l0 52 q-66 -52 -124 -84 l-31 62 q88 44 162.5 110.5 q74.5 66.5 117.5 137.5 l68 0 ZM455 -64 l-64 0 l0 318 l452 0 l0 -319 l-66 0 l0 56 l-322 0 l0 -55 ZM777 46 l0 150 l-322 0 l0 -150 l322 0 Z" /><glyph glyph-name="uni64A4" unicode="&#x64a4;" d="M907 -68 q-83 99 -130 191 q-47 -87 -138 -194 l-43 47 q98 106 151 213 q-50 121 -69 290 q-18 -38 -39 -72 l-38 52 q15 25 26 47 l-42 -24 l-18 34 l-246 -17 l-14 54 q59 69 92 130 l-105 0 l0 59 l156 0 q-23 56 -43 94 l53 19 q33 -63 53 -113 l128 0 l0 -59 l-176 0 q-43 -71 -86 -125 l159 10 l-10 18 l-33 56 l44 22 q30 -47 89 -156 q34 70 59.5 160 q25.5 90 40.5 177 l57 -5 q-14 -90 -36 -171 l193 0 l0 -62 l-46 0 q-10 -135 -30 -234 q-20 -99 -55 -181 q50 -106 135 -201 l-39 -59 ZM214 839 l0 -185 l74 0 l0 -63 l-74 0 l0 -176 l21 9 q16 6 48 20 l2 -38 l2 -30 l-73 -30 l0 -290 q0 -40 -9.5 -61 q-9.5 -21 -32 -30 q-22.5 -9 -64.5 -9 l-39 0 l-14 62 l36 0 q37 0 49.5 11 q12.5 11 12.5 45 l0 247 l-84 -33 l-15 67 l24 9 q43 15 75 28 l0 199 l-84 0 l0 63 l84 0 l0 185 l61 0 ZM721 578 q12 -175 59 -310 q47 133 62 339 l-111 0 q-5 -13 -10 -29 ZM329 -59 l0 498 l261 0 l0 -411 q0 -46 -17 -63.5 q-17 -17.5 -65 -17.5 l-64 0 l-10 55 l56 0 q28 0 36.5 9.5 q8.5 9.5 8.5 36.5 l0 74 l-152 0 l0 -181 l-54 0 ZM535 304 l0 84 l-152 0 l0 -84 l152 0 ZM383 254 l0 -83 l152 0 l0 83 l-152 0 Z" /><glyph glyph-name="uni64C5" unicode="&#x64c5;" d="M936 760 l0 -51 l-626 0 l0 51 l290 0 l-32 86 l69 7 q15 -38 33 -93 l266 0 ZM313 365 l-90 -32 l0 -290 q0 -54 -18.5 -72.5 q-18.5 -18.5 -70.5 -18.5 l-55 0 l-12 63 l52 0 q27 0 36 9.5 q9 9.5 9 37.5 l0 249 l-64 -24 l-24 -9 l-14 64 q77 27 102 36 l0 213 l-97 0 l0 63 l97 0 l0 193 l59 0 l0 -193 l86 0 l0 -63 l-86 0 l0 -191 l76 30 l7 -32 l7 -33 ZM339 655 l549 0 l0 -299 l-549 0 l0 299 ZM398 400 l432 0 l0 211 l-432 0 l0 -211 ZM474 570 l280 0 l0 -126 l-280 0 l0 126 ZM522 482 l183 0 l0 53 l-183 0 l0 -53 ZM862 306 l0 -226 l-495 0 l0 226 l495 0 ZM806 213 l0 50 l-383 0 l0 -50 l383 0 ZM423 172 l0 -49 l383 0 l0 49 l-383 0 ZM935 -32 l-653 0 l0 52 l653 0 l0 -52 Z" /><glyph glyph-name="uni652F" unicode="&#x652f;" d="M908 -66 q-135 35 -235.5 75.5 q-100.5 40.5 -177.5 89.5 q-74 -45 -172.5 -85.5 q-98.5 -40.5 -233.5 -82.5 l-25 71 q230 66 367 142 q-69 54 -125 123.5 q-56 69.5 -109 162.5 l0 66 l267 0 l0 146 l-392 0 l0 67 l392 0 l0 139 l71 0 l0 -139 l392 0 l0 -67 l-392 0 l0 -146 l264 0 l0 -66 q-51 -95 -107.5 -164 q-56.5 -69 -132.5 -125 q139 -78 369 -134 l-20 -73 ZM276 430 q44 -78 97 -139 q53 -61 121 -109 q75 50 127.5 110 q52.5 60 96.5 138 l-442 0 Z" /><glyph glyph-name="uni6536" unicode="&#x6536;" d="M709 192 q82 -95 232 -191 l-41 -66 q-146 95 -235 200 q-86 -102 -250 -208 l-39 62 q161 99 246 200 q-93 130 -132 310 q-35 -60 -72 -106 l-44 53 q56 73 110.5 190.5 q54.5 117.5 75.5 212.5 l68 -14 q-17 -73 -49 -155 l356 0 l0 -71 l-89 0 q-18 -138 -49.5 -237 q-31.5 -99 -87.5 -180 ZM294 296 l0 544 l65 0 l0 -903 l-65 0 l0 285 l-190 -87 l-28 64 q15 13 20 20 q5 7 5 20 l0 483 l64 0 l0 -486 l129 60 ZM536 584 q16 -102 47 -184.5 q31 -82.5 82 -153.5 q47 71 73.5 157.5 q26.5 86.5 40.5 205.5 l-231 0 l-12 -25 Z" /><glyph glyph-name="uni6539" unicode="&#x6539;" d="M708 197 q86 -106 237 -200 l-43 -63 q-145 98 -237 209 q-49 -56 -116 -107.5 q-67 -51.5 -159 -106.5 l-43 62 q180 100 276 208 q-84 121 -119 279 q-24 -41 -54 -82 l-44 51 q57 79 106 192.5 q49 113.5 70 210.5 l68 -15 q-16 -67 -48 -152 l334 0 l0 -70 l-88 0 q-17 -136 -49.5 -235.5 q-32.5 -99.5 -90.5 -180.5 ZM398 193 l12 -70 l-299 -159 l-34 64 q20 15 25.5 24 q5.5 9 5.5 21 l0 381 l217 0 l0 237 l-239 0 l0 70 l305 0 l0 -376 l-213 0 l0 -309 l220 117 ZM551 566 q30 -183 115 -312 q49 72 75.5 157.5 q26.5 85.5 40.5 201.5 l-209 0 l-22 -47 Z" /><glyph glyph-name="uni653E" unicode="&#x653e;" d="M440 459 l-4 -84 l-14 -288 q-3 -63 -28.5 -87.5 q-25.5 -24.5 -87.5 -24.5 l-82 0 l-12 67 l72 0 q40 0 57.5 16 q17.5 16 19.5 52 q4 54 8.5 141 q4.5 87 6.5 141 l-150 0 q-5 -115 -16.5 -188 q-11.5 -73 -35 -133 q-23.5 -60 -68.5 -135 l-57 41 q46 76 69 140 q23 64 33 149 q10 85 13 231 q4 60 4 122 l-90 0 l0 69 l196 0 q-38 114 -50 144 l65 18 q11 -27 27 -72.5 q16 -45.5 30 -89.5 l144 0 l0 -69 l-257 0 l-3 -131 l-1 -29 l211 0 ZM733 194 q78 -106 209 -195 l-41 -62 q-125 88 -209 198 q-78 -101 -222 -204 l-44 60 q151 101 227 202 q-81 130 -110 299 q-23 -40 -53 -81 l-39 64 q48 62 95.5 169 q47.5 107 68.5 202 l67 -11 q-20 -79 -50 -156 l306 0 l0 -71 l-83 0 q-14 -134 -42.5 -233 q-28.5 -99 -79.5 -181 ZM590 580 q21 -186 103 -326 q40 70 63 156 q23 86 34 198 l-187 0 l-13 -28 Z" /><glyph glyph-name="uni6570" unicode="&#x6570;" d="M748 190 q66 -100 192 -195 l-39 -65 q-120 97 -192 201 q-68 -96 -197 -202 l-45 55 q69 54 119 104.5 q50 50.5 85 104.5 q-66 122 -91 288 q-21 -39 -40 -70 l-35 63 q44 71 84 175.5 q40 104.5 58 192.5 l63 -12 q-13 -65 -45 -156 l274 0 l0 -69 l-80 0 q-13 -137 -39 -235.5 q-26 -98.5 -72 -179.5 ZM56 411 q67 37 117 74 q50 37 88 81 l-188 0 l0 56 l202 0 l0 214 l61 0 l0 -214 l196 0 l0 -56 l-196 0 l0 -24 q37 -19 90 -49.5 q53 -30.5 92 -56.5 l-29 -52 q-73 55 -153 100 l0 -99 l-61 0 l0 122 q-71 -81 -192 -151 l-27 55 ZM184 648 q-43 67 -91 134 l41 29 l54 -76 q9 -13 19.5 -28 q10.5 -15 21.5 -30 l-45 -29 ZM520 780 q-40 -60 -98 -136 l-44 32 q22 28 51 68 q29 40 46 67 l45 -31 ZM625 575 q10 -97 30 -174.5 q20 -77.5 53 -143.5 q35 69 56.5 153.5 q21.5 84.5 32.5 194.5 l-159 0 q-8 -20 -13 -30 ZM463 -21 q-74 41 -127 68 q-89 -62 -254 -115 l-27 57 q146 45 221 89 q-106 52 -154 73 q30 49 53 95 l-110 0 l0 55 l137 0 q22 52 31 77 l61 -17 q-10 -30 -24 -60 l223 0 l0 -52 q-21 -50 -45.5 -88.5 q-24.5 -38.5 -58.5 -71.5 l60 -30 l41 -21 l-27 -59 ZM207 174 q53 -23 125 -58 q33 27 55 58 q22 31 39 72 l-181 0 l-38 -72 Z" /><glyph glyph-name="uni6587" unicode="&#x6587;" d="M906 -60 q-132 48 -231.5 101 q-99.5 53 -174.5 117 q-74 -63 -172.5 -118 q-98.5 -55 -229.5 -107 l-33 73 q127 47 220.5 96 q93.5 49 162.5 106 q-76 78 -128 178.5 q-52 100.5 -88 234.5 l-160 0 l0 66 l419 0 q-7 23 -43 112 q-10 21 -14 34 l73 16 q37 -92 47 -119 l17 -43 l355 0 l0 -66 l-163 0 q-32 -133 -83 -233.5 q-51 -100.5 -128 -179.5 q138 -112 383 -194 l-29 -74 ZM304 621 q30 -117 77.5 -206 q47.5 -89 118.5 -160 q69 70 114.5 159 q45.5 89 74.5 207 l-385 0 Z" /><glyph glyph-name="uni659C" unicode="&#x659c;" d="M935 292 l5 -65 l-107 -15 l0 -277 l-64 0 l0 269 l-254 -35 l-7 64 l261 36 l0 574 l64 0 l0 -565 l102 14 ZM515 319 l-178 0 l0 -276 q0 -52 -21.5 -71.5 q-21.5 -19.5 -75.5 -19.5 l-74 0 l-12 62 l62 0 q35 0 45.5 10.5 q10.5 10.5 10.5 42.5 l0 252 l-193 0 l0 60 l193 0 l0 121 l-129 0 l0 56 q-26 -27 -54 -54 l-30 69 q60 51 117 123.5 q57 72.5 95 141.5 l68 0 q145 -154 194 -212 l-41 -55 q-47 60 -180 210 q-65 -112 -164 -218 l317 0 l0 -61 l-128 0 l0 -121 l178 0 l0 -60 ZM680 575 q-92 92 -145 138 l42 47 q43 -37 145 -136 l-42 -49 ZM550 524 q56 -50 100 -91 l54 -49 l-42 -49 q-83 81 -153 142 l41 47 ZM427 273 q54 -90 95 -170 l-51 -31 q-26 54 -93 175 l49 26 ZM206 252 q-36 -118 -99 -234 l-54 25 q59 98 98 225 l55 -16 Z" /><glyph glyph-name="uni65B0" unicode="&#x65b0;" d="M508 278 l-179 0 l0 -235 q0 -37 -8.5 -56 q-8.5 -19 -30.5 -27 q-22 -8 -65 -8 l-60 0 l-12 64 l55 0 q29 0 41 4 q12 4 15.5 14.5 q3.5 10.5 3.5 36.5 l0 207 l-189 0 l0 61 l189 0 l0 116 l-208 0 l0 59 l127 0 q-11 60 -33 168 l-63 0 l0 59 l180 0 l-32 101 l64 11 q9 -23 35 -112 l163 0 l0 -59 l-57 0 q-19 -88 -42 -168 l123 0 l0 -59 l-196 0 l0 -116 l179 0 l0 -61 ZM941 494 l0 -64 l-110 0 l0 -492 l-62 0 l0 492 l-135 0 l0 -2 q0 -130 -9 -212.5 q-9 -82.5 -31.5 -147 q-22.5 -64.5 -67.5 -134.5 l-64 32 q44 64 66.5 125 q22.5 61 31 140.5 q8.5 79.5 8.5 208.5 l0 302 q88 9 177.5 28.5 q89.5 19.5 151.5 43.5 l20 -63 q-54 -23 -130.5 -41.5 q-76.5 -18.5 -152.5 -27.5 l0 -188 l307 0 ZM211 682 q3 -17 11 -53 q20 -100 23 -115 l98 0 q20 67 42 168 l-174 0 ZM211 219 q-52 -131 -109 -212 l-49 31 q30 40 54 88.5 q24 48.5 51 114.5 l53 -22 ZM408 238 q21 -28 80 -115 l18 -25 l-46 -36 q-51 78 -97 143 l45 33 Z" /><glyph glyph-name="uni65B9" unicode="&#x65b9;" d="M392 633 l-8 -138 l-2 -31 l431 0 q-4 -66 -11 -176.5 q-7 -110.5 -12 -174.5 q-5 -59 -22.5 -90.5 q-17.5 -31.5 -53 -44 q-35.5 -12.5 -99.5 -12.5 l-155 0 l-14 67 l145 0 q51 0 77.5 8.5 q26.5 8.5 38.5 30.5 q12 22 16 66 l9 145 l7 113 l-363 0 q-12 -102 -39.5 -179 q-27.5 -77 -80 -146.5 q-52.5 -69.5 -140.5 -142.5 l-52 57 q95 78 145.5 148.5 q50.5 70.5 74 155.5 q23.5 85 32.5 215 q6 94 7 129 l-250 0 l0 68 l420 0 l-33 80 q-18 40 -23 54 l73 19 q12 -26 32 -74 q20 -48 32 -79 l355 0 l0 -68 l-537 0 Z" /><glyph glyph-name="uni65E0" unicode="&#x65e0;" d="M928 499 l0 -68 l-442 0 q-31 -160 -120 -277 q-89 -117 -256 -222 l-46 63 q153 91 235 193.5 q82 102.5 112 242.5 l-339 0 l0 68 l350 0 q7 48 8 91 q3 28 5 125 l-304 0 l0 66 l737 0 l0 -66 l-360 0 l-3 -86 l-1 -44 q-1 -30 -7 -86 l431 0 ZM844 107 q4 96 4 137 l72 -15 l-6 -150 q-2 -43 -15 -67 q-13 -24 -42 -35 q-29 -11 -81 -11 l-141 0 q-65 0 -93 28 q-28 28 -28 96 l0 282 l70 0 l0 -264 q0 -41 16.5 -57 q16.5 -16 56.5 -16 l104 0 q48 0 64.5 14.5 q16.5 14.5 18.5 57.5 Z" /><glyph glyph-name="uni65E5" unicode="&#x65e5;" d="M180 -61 l0 838 l645 0 l0 -837 l-72 0 l0 72 l-501 0 l0 -73 l-72 0 ZM753 434 l0 273 l-501 0 l0 -273 l501 0 ZM252 364 l0 -282 l501 0 l0 282 l-501 0 Z" /><glyph glyph-name="uni65F6" unicode="&#x65f6;" d="M940 640 l0 -69 l-113 0 l0 -494 q0 -51 -12 -77.5 q-12 -26.5 -42.5 -37.5 q-30.5 -11 -89.5 -11 l-122 0 l-14 71 l117 0 q42 0 61.5 6 q19.5 6 26 21 q6.5 15 6.5 48 l0 474 l-314 0 l0 69 l314 0 l0 204 l69 0 l0 -204 l113 0 ZM170 -24 l-65 0 l0 785 l298 0 l0 -711 l-233 0 l0 -74 ZM339 440 l0 251 l-169 0 l0 -251 l169 0 ZM612 227 q-45 85 -131 233 l54 31 q30 -49 71 -119 q41 -70 64 -113 l-58 -32 ZM170 374 l0 -253 l169 0 l0 253 l-169 0 Z" /><glyph glyph-name="uni660E" unicode="&#x660e;" d="M884 789 l0 -723 q0 -44 -11.5 -68 q-11.5 -24 -38 -34.5 q-26.5 -10.5 -74.5 -10.5 l-100 0 l-14 67 l101 0 q31 0 46.5 5 q15.5 5 21.5 18.5 q6 13.5 6 40.5 l0 155 l-252 0 q-15 -99 -56 -168 q-41 -69 -128 -147 l-53 43 q84 74 121.5 131 q37.5 57 50 133.5 q12.5 76.5 12.5 223.5 l0 334 l368 0 ZM404 767 l0 -651 l-232 0 l0 -69 l-60 0 l0 720 l292 0 ZM821 541 l0 181 l-241 0 l0 -181 l241 0 ZM343 476 l0 224 l-171 0 l0 -224 l171 0 ZM821 302 l0 175 l-241 0 l0 -54 q0 -73 -4 -121 l245 0 ZM172 411 l0 -229 l171 0 l0 229 l-171 0 Z" /><glyph glyph-name="uni662F" unicode="&#x662f;" d="M191 799 l605 0 l0 -347 l-605 0 l0 347 ZM728 653 l0 89 l-468 0 l0 -89 l468 0 ZM260 598 l0 -90 l468 0 l0 90 l-468 0 ZM939 22 l-12 -61 l-369 0 q-122 0 -197.5 29.5 q-75.5 29.5 -128.5 107.5 q-43 -91 -127 -176 l-49 49 q68 66 106.5 135.5 q38.5 69.5 58.5 166.5 l65 -12 q-10 -49 -26 -95 q38 -65 89 -97.5 q51 -32.5 123 -41.5 l0 281 l-400 0 l0 58 l854 0 l0 -58 l-386 0 l0 -101 l316 0 l0 -58 l-316 0 l0 -127 l16 0 l383 0 Z" /><glyph glyph-name="uni663C" unicode="&#x663c;" d="M248 554 q-7 -103 -42.5 -187 q-35.5 -84 -107.5 -172 l-46 55 q52 64 80.5 119 q28.5 55 41 119 q12.5 64 12.5 153 l0 155 l656 0 l0 -242 l-165 0 q46 -73 109 -123 q63 -50 157 -90 l-35 -64 q-91 47 -151 96 l0 -252 l-525 0 l0 317 l457 0 q-44 50 -83 116 l-358 0 ZM777 737 l-526 0 l0 -111 l0 -11 l526 0 l0 122 ZM694 305 l0 78 l-398 0 l0 -78 l398 0 ZM296 252 l0 -77 l398 0 l0 77 l-398 0 ZM929 -24 l-855 0 l0 59 l855 0 l0 -59 Z" /><glyph glyph-name="uni663E" unicode="&#x663e;" d="M638 420 l0 -389 l299 0 l0 -62 l-870 0 l0 62 l298 0 l0 389 l-197 0 l0 379 l666 0 l0 -379 l-196 0 ZM767 639 l0 100 l-531 0 l0 -100 l531 0 ZM767 581 l-531 0 l0 -101 l531 0 l0 101 ZM571 420 l-139 0 l0 -389 l139 0 l0 389 ZM690 137 q35 48 76.5 119 q41.5 71 61.5 117 l57 -33 q-23 -47 -66 -119.5 q-43 -72.5 -74 -116.5 l-55 33 ZM169 360 q28 -37 70 -101.5 q42 -64.5 71 -114.5 l-55 -41 q-27 51 -68.5 116.5 q-41.5 65.5 -71.5 103.5 l54 37 Z" /><glyph glyph-name="uni6682" unicode="&#x6682;" d="M287 344 l0 73 l-34 -2 q-160 -9 -183 -12 l-2 54 l219 13 l0 76 l-178 0 l0 47 q32 43 74 121 l-101 0 l0 53 l128 0 q24 49 41 92 l61 -14 q-20 -46 -36 -78 l225 0 l0 -53 l-251 0 q-40 -74 -68 -116 l106 0 l0 81 l62 0 l0 -81 l132 0 l0 -52 l-132 0 l0 -71 l137 9 l0 -54 l-137 -8 l0 -78 l-63 0 ZM935 612 l0 -57 l-117 0 l0 -201 l-62 0 l0 201 l-151 0 q-2 -75 -19 -120 q-17 -45 -66 -100 l-49 32 q36 42 51 72.5 q15 30.5 19 65 q4 34.5 4 107.5 l0 155 q151 11 336 57 l17 -59 q-160 -42 -293 -56 l0 -97 l330 0 ZM264 -68 l-67 0 l0 380 l609 0 l0 -378 l-68 0 l0 48 l-474 0 l0 -50 ZM738 176 l0 81 l-474 0 l0 -81 l474 0 ZM264 126 l0 -92 l474 0 l0 92 l-474 0 Z" /><glyph glyph-name="uni66F4" unicode="&#x66f4;" d="M920 -44 q-186 11 -301.5 30.5 q-115.5 19.5 -204.5 60.5 q-50 -34 -128.5 -61.5 q-78.5 -27.5 -197.5 -54.5 l-25 63 q105 24 173 44.5 q68 20.5 112 44.5 q-74 45 -149 120 l45 44 q84 -84 158 -125 q28 26 43 61 q15 35 20 83 l-304 0 l0 370 l308 0 l0 98 l-386 0 l0 63 l839 0 l0 -63 l-386 0 l0 -98 l309 0 l0 -370 l-312 0 q-5 -55 -21.5 -97.5 q-16.5 -42.5 -45.5 -76.5 q78 -31 186.5 -46.5 q108.5 -15.5 280.5 -22.5 l-13 -67 ZM469 480 l0 100 l-242 0 l0 -100 l242 0 ZM779 480 l0 100 l-243 0 l0 -100 l243 0 ZM227 424 l0 -100 l242 0 l0 21 l0 79 l-242 0 ZM536 324 l243 0 l0 100 l-243 0 l0 -81 l0 -19 Z" /><glyph glyph-name="uni66FF" unicode="&#x66ff;" d="M295 478 q-26 -51 -77.5 -94.5 q-51.5 -43.5 -137.5 -89.5 l-33 57 q94 48 141 92 q47 44 64 98 l-174 0 l0 55 l185 0 q2 28 2 44 l0 55 l-170 0 l0 53 l170 0 l0 102 l62 0 l0 -102 l142 0 l0 -53 l-142 0 l0 -68 q0 -21 -1 -31 l152 0 l0 -55 l-160 0 l-3 -10 q71 -50 167 -123 l-42 -49 q-56 51 -145 119 ZM729 541 q31 -53 89 -99 q58 -46 135 -79 l-32 -59 q-72 34 -133 84 q-61 50 -99 108 q-21 -38 -59.5 -71.5 q-38.5 -33.5 -100.5 -67.5 l-35 52 q65 35 99 65.5 q34 30.5 48 66.5 l-128 0 l0 55 l141 0 q2 24 2 38 l0 61 l-134 0 l0 53 l134 0 l0 102 l63 0 l0 -102 l188 0 l0 -53 l-188 0 l0 -59 q0 -14 -2 -40 l206 0 l0 -55 l-194 0 ZM266 -67 l-67 0 l0 406 l602 0 l0 -406 l-66 0 l0 52 l-469 0 l0 -52 ZM735 189 l0 93 l-469 0 l0 -93 l469 0 ZM266 134 l0 -94 l469 0 l0 94 l-469 0 Z" /><glyph glyph-name="uni6700" unicode="&#x6700;" d="M189 811 l624 0 l0 -279 l-624 0 l0 279 ZM749 696 l0 62 l-496 0 l0 -62 l496 0 ZM253 648 l0 -63 l496 0 l0 63 l-496 0 ZM549 52 l-36 -5 l-41 -5 l0 -112 l-60 0 l0 104 q-270 -33 -339 -44 l-6 58 q38 3 87 10 l0 356 l-89 0 l0 55 l872 0 l0 -55 l-465 0 l0 -316 l73 10 l2 -30 l2 -26 ZM412 334 l0 80 l-197 0 l0 -80 l197 0 ZM914 -58 q-129 50 -205 112 q-78 -65 -185 -114 l-29 58 q102 40 170 96 q-38 39 -68 87 q-30 48 -57 111 l0 56 l336 0 l0 -61 q-44 -112 -122 -191 q76 -55 185 -93 l-25 -61 ZM605 292 q41 -96 104 -158 q65 66 99 158 l-203 0 ZM412 286 l-197 0 l0 -81 l197 0 l0 81 ZM215 157 l0 -92 l197 25 l0 67 l-197 0 Z" /><glyph glyph-name="uni6708" unicode="&#x6708;" d="M804 794 l0 -716 q0 -50 -12.5 -76.5 q-12.5 -26.5 -42 -37 q-29.5 -10.5 -84.5 -10.5 l-125 0 l-13 67 l121 0 q38 0 55.5 5.5 q17.5 5.5 23.5 20 q6 14.5 6 45.5 l0 149 l-459 0 q-11 -95 -41 -164.5 q-30 -69.5 -93 -150.5 l-61 42 q60 75 87.5 132 q27.5 57 38 131.5 q10.5 74.5 10.5 208.5 l0 354 l589 0 ZM733 545 l0 182 l-451 0 l0 -182 l451 0 ZM733 304 l0 176 l-451 0 l0 -48 q0 -71 -3 -128 l454 0 Z" /><glyph glyph-name="uni6709" unicode="&#x6709;" d="M940 662 l-534 0 q-35 -66 -71 -118 l490 0 l0 -488 q0 -59 -25.5 -82.5 q-25.5 -23.5 -90.5 -23.5 l-132 0 l-11 63 l121 0 q32 0 47 5 q15 5 20 17.5 q5 12.5 5 38.5 l0 63 l-458 0 l0 -197 l-66 0 l0 473 q-68 -77 -147 -146 l-31 68 q167 148 270 327 l-248 0 l0 64 l283 0 q31 63 54 127 l69 -14 q-21 -54 -47 -113 l502 0 l0 -64 ZM301 372 l458 0 l0 111 l-458 0 l0 -111 ZM301 313 l0 -117 l458 0 l0 117 l-458 0 Z" /><glyph glyph-name="uni670D" unicode="&#x670d;" d="M769 139 q62 -66 175 -136 l-35 -58 q-112 71 -179 148 q-60 -66 -159 -141 l-30 47 l0 -68 l-63 0 l0 859 l404 0 l-6 -156 q-3 -39 -13.5 -59.5 q-10.5 -20.5 -33.5 -29 q-23 -8.5 -66 -8.5 l-135 0 l-11 61 l119 0 q44 0 59.5 10 q15.5 10 18.5 42 q3 48 3 76 l-276 0 l0 -266 l350 0 l0 -61 q-32 -145 -122 -260 ZM126 789 l271 0 l0 -743 q0 -52 -22 -71 q-22 -19 -81 -19 l-80 0 l-13 62 l74 0 q39 0 50.5 10 q11.5 10 11.5 43 l0 188 l-154 0 q-5 -99 -21.5 -176 q-16.5 -77 -53.5 -152 l-47 47 q27 51 40.5 98 q13.5 47 19 124 q5.5 77 5.5 217 l0 372 ZM337 552 l0 174 l-152 0 l0 -174 l152 0 ZM337 318 l0 176 l-152 0 l0 -103 q0 -50 -1 -73 l153 0 ZM541 18 q86 59 149 125 q-36 51 -64.5 113 q-28.5 62 -53.5 143 l-31 0 l0 -381 ZM729 188 q73 94 102 211 l-197 0 q36 -126 95 -211 Z" /><glyph glyph-name="uni671F" unicode="&#x671f;" d="M457 243 l79 0 l0 -57 l-474 0 l0 57 l88 0 l0 432 l-67 0 l0 57 l67 0 l0 105 l60 0 l0 -105 l187 0 l0 105 l60 0 l0 -105 l70 0 l0 -57 l-70 0 l0 -432 ZM586 783 l305 0 l0 -716 q0 -43 -10.5 -66.5 q-10.5 -23.5 -35 -33.5 q-24.5 -10 -69.5 -10 l-78 0 l-13 64 l78 0 q42 0 55.5 12 q13.5 12 13.5 49 l0 164 l-192 0 q-7 -102 -32 -169 q-25 -67 -86 -149 l-59 40 q58 72 83 128 q25 56 32.5 129.5 q7.5 73.5 7.5 220.5 l0 337 ZM832 546 l0 170 l-187 0 l0 -170 l187 0 ZM397 567 l0 108 l-187 0 l0 -108 l187 0 ZM397 508 l-187 0 l0 -103 l187 0 l0 103 ZM832 310 l0 175 l-187 0 l0 -69 q0 -42 -2 -106 l189 0 ZM397 348 l-187 0 l0 -105 l187 0 l0 105 ZM56 -11 q42 33 87.5 82.5 q45.5 49.5 75.5 93.5 l50 -40 q-32 -44 -79.5 -96 q-47.5 -52 -89.5 -89 l-44 49 ZM375 165 q36 -33 71 -68 l48 -46 l-42 -45 q-40 40 -40 40 q-55 55 -79 76 l42 43 Z" /><glyph glyph-name="uni6728" unicode="&#x6728;" d="M551 582 q62 -133 159 -246 q97 -113 235 -216 l-47 -64 q-238 183 -364 424 l0 -548 l-68 0 l0 547 q-64 -120 -153.5 -225.5 q-89.5 -105.5 -211.5 -205.5 l-46 65 q139 108 235.5 222.5 q96.5 114.5 158.5 246.5 l-353 0 l0 69 l370 0 l0 195 l68 0 l0 -195 l371 0 l0 -69 l-354 0 Z" /><glyph glyph-name="uni672A" unicode="&#x672a;" d="M567 388 q68 -97 163.5 -182 q95.5 -85 207.5 -147 l-41 -64 q-109 65 -202 151 q-93 86 -161 181 l0 -387 l-67 0 l0 383 q-65 -94 -151.5 -171.5 q-86.5 -77.5 -215.5 -156.5 l-42 61 q132 73 223 154 q91 81 155 178 l-353 0 l0 65 l384 0 l0 178 l-319 0 l0 65 l319 0 l0 150 l67 0 l0 -150 l319 0 l0 -65 l-319 0 l0 -178 l383 0 l0 -65 l-350 0 Z" /><glyph glyph-name="uni672B" unicode="&#x672b;" d="M565 381 q68 -94 167 -179 q99 -85 210 -146 l-43 -67 q-108 67 -202.5 152 q-94.5 85 -162.5 178 l0 -384 l-70 0 l0 380 q-136 -183 -363 -329 l-42 63 q116 69 214 154 q98 85 164 178 l-303 0 l0 68 l330 0 l0 173 l-369 0 l0 67 l369 0 l0 149 l70 0 l0 -149 l371 0 l0 -67 l-371 0 l0 -173 l332 0 l0 -68 l-301 0 Z" /><glyph glyph-name="uni672C" unicode="&#x672c;" d="M585 606 q58 -140 147 -252.5 q89 -112.5 216 -216.5 l-48 -65 q-121 105 -215 233 q-94 128 -150 272 l0 -402 l207 0 l0 -68 l-207 0 l0 -178 l-70 0 l0 178 l-205 0 l0 68 l205 0 l0 409 q-56 -144 -143 -266 q-87 -122 -224 -254 l-46 62 q132 119 217.5 231.5 q85.5 112.5 144.5 248.5 l-324 0 l0 69 l375 0 l0 168 l70 0 l0 -168 l376 0 l0 -69 l-326 0 Z" /><glyph glyph-name="uni673A" unicode="&#x673a;" d="M387 297 q-49 49 -119 110 l0 -476 l-65 0 l0 485 q-54 -137 -128 -249 l-22 83 q39 57 82 150 q43 93 68 183 l0 2 l-131 0 l0 65 l131 0 l0 194 l65 0 l0 -194 l132 0 l0 -65 l-132 0 l0 -102 q70 -55 150 -129 l-31 -57 ZM936 246 l-4 -186 q-2 -39 -11 -59 q-9 -20 -28.5 -28 q-19.5 -8 -56.5 -8 l-41 0 q-46 0 -65 21.5 q-19 21.5 -19 76.5 l0 641 l-187 0 l0 -264 q0 -140 -12.5 -224.5 q-12.5 -84.5 -46 -149.5 q-33.5 -65 -100.5 -137 l-58 46 q65 65 96 120.5 q31 55.5 43 132.5 q12 77 12 212 l0 332 l319 0 l0 -691 q0 -32 7.5 -41 q7.5 -9 31.5 -9 l16 0 q17 0 25 4 q8 4 11 15.5 q3 11.5 4 36.5 q2 32 4 116 l1 57 l59 -14 Z" /><glyph glyph-name="uni6743" unicode="&#x6743;" d="M397 290 q-49 49 -122 111 l0 -469 l-64 0 l0 482 q-54 -138 -130 -253 l-25 82 q44 64 87 157 q43 93 66 184 l-128 0 l0 66 l130 0 l0 200 l64 0 l0 -200 l127 0 l0 -66 l-127 0 l0 -107 q98 -78 153 -132 l-31 -55 ZM699 230 q90 -112 251 -231 l-43 -64 q-155 119 -253 238 q-101 -120 -280 -241 l-47 55 q94 64 163.5 123 q69.5 59 121.5 121 q-69 99 -108.5 210.5 q-39.5 111.5 -66.5 263.5 l-1 0 l0 68 l435 0 l0 -67 q-25 -154 -65 -267.5 q-40 -113.5 -107 -208.5 ZM505 705 q23 -131 58 -230.5 q35 -99.5 92 -185.5 q57 83 91.5 183 q34.5 100 54.5 233 l-296 0 Z" /><glyph glyph-name="uni6761" unicode="&#x6761;" d="M62 427 q196 33 360 95 q-92 49 -163 113 q-65 -59 -140 -109 l-35 54 q80 54 156 127.5 q76 73.5 120 137.5 l62 -31 q-29 -38 -48 -61 l451 0 l0 -65 q-103 -97 -243 -167 q72 -25 158 -43.5 q86 -18.5 198 -35.5 l-15 -62 q-255 36 -420 104 q-183 -78 -424 -120 l-17 63 ZM307 680 q87 -78 193 -126 q140 62 231 142 l-409 0 l-15 -16 ZM895 244 l-351 0 l0 -182 q0 -44 -11 -68 q-11 -24 -36.5 -34 q-25.5 -10 -72.5 -10 l-108 0 l-13 65 l96 0 q33 0 49.5 5.5 q16.5 5.5 23 20 q6.5 14.5 6.5 43.5 l0 160 l-375 0 l0 65 l375 0 l0 95 l66 0 l0 -95 l351 0 l0 -65 ZM358 160 q-92 -97 -261 -200 l-36 62 q69 35 136.5 84 q67.5 49 119.5 102 l41 -48 ZM655 202 q44 -26 135.5 -84.5 q91.5 -58.5 140.5 -91.5 l-35 -63 q-45 34 -131 90.5 q-86 56.5 -147 95.5 l37 53 Z" /><glyph glyph-name="uni6765" unicode="&#x6765;" d="M557 340 q132 -164 382 -274 l-32 -68 q-240 112 -376 281 l0 -346 l-65 0 l0 343 q-135 -170 -374 -284 l-33 67 q250 113 381 281 l-370 0 l0 64 l396 0 l0 256 l-341 0 l0 68 l341 0 l0 122 l65 0 l0 -122 l343 0 l0 -68 l-343 0 l0 -256 l398 0 l0 -64 l-372 0 ZM232 635 q92 -110 134 -162 l-50 -46 q-40 55 -134 163 l50 45 ZM630 468 q35 38 74 84.5 q39 46.5 65 82.5 l50 -43 q-44 -62 -141 -169 l-48 45 Z" /><glyph glyph-name="uni677F" unicode="&#x677f;" d="M352 311 q-37 40 -97 96 l0 -472 l-63 0 l0 492 q-51 -146 -115 -245 l-25 81 q36 57 75.5 148.5 q39.5 91.5 60.5 175.5 l-120 0 l0 64 l124 0 l0 194 l63 0 l0 -194 l121 0 l0 -64 l-121 0 l0 -99 q92 -81 133 -123 l-36 -54 ZM741 160 q77 -88 201 -157 l-35 -67 q-130 78 -211 172 q-89 -92 -238 -176 l-38 62 q146 80 233 168 q-92 129 -137 325 l-37 0 q-1 -132 -13.5 -227 q-12.5 -95 -42 -172 q-29.5 -77 -80.5 -152 l-58 45 q49 70 76.5 140 q27.5 70 40 159.5 q12.5 89.5 12.5 218.5 l0 249 q228 15 483 66 l14 -66 q-102 -21 -217.5 -37.5 q-115.5 -16.5 -214.5 -24.5 l0 -134 l407 0 l0 -65 q-25 -103 -60 -182.5 q-35 -79.5 -85 -144.5 ZM580 487 q41 -162 118 -273 q44 57 72 123 q28 66 48 150 l-238 0 Z" /><glyph glyph-name="uni67B6" unicode="&#x67b6;" d="M65 414 q73 62 103.5 117.5 q30.5 55.5 37.5 144.5 l-130 0 l0 62 l133 0 l3 109 l62 0 l-2 -64 l-1 -45 l207 0 l-9 -222 q-3 -56 -27 -78 q-24 -22 -82 -22 l-93 0 l-13 62 l83 0 q40 0 56 12.5 q16 12.5 17 46.5 l6 139 l-148 0 q-7 -102 -43 -171 q-36 -69 -114 -137 l-46 46 ZM565 771 l314 0 l0 -331 l-314 0 l0 331 ZM626 503 l192 0 l0 204 l-192 0 l0 -204 ZM575 245 q72 -69 156.5 -119.5 q84.5 -50.5 209.5 -93.5 l-30 -67 q-129 50 -215.5 107 q-86.5 57 -164.5 136 l0 -278 l-63 0 l0 276 q-69 -73 -161 -130.5 q-92 -57.5 -223 -108.5 l-27 69 q131 45 217.5 95 q86.5 50 151.5 114 l-349 0 l0 59 l391 0 l0 92 l63 0 l0 -92 l391 0 l0 -59 l-347 0 Z" /><glyph glyph-name="uni67E5" unicode="&#x67e5;" d="M56 496 q210 64 366 186 l-338 0 l0 61 l379 0 l0 105 l68 0 l0 -105 l381 0 l0 -61 l-341 0 q145 -116 366 -180 l-24 -64 q-128 46 -220 94 q-92 48 -162 110 l0 -146 l-68 0 l0 147 q-74 -62 -167.5 -114 q-93.5 -52 -213.5 -99 l-26 66 ZM789 125 l-590 0 l0 335 l590 0 l0 -335 ZM722 319 l0 86 l-457 0 l0 -86 l457 0 ZM265 265 l0 -83 l457 0 l0 83 l-457 0 ZM915 -27 l-837 0 l0 60 l837 0 l0 -60 Z" /><glyph glyph-name="uni6807" unicode="&#x6807;" d="M351 300 q-35 38 -90 89 l0 -463 l-66 0 l0 493 q-56 -152 -122 -253 l-20 85 q38 60 76.5 148.5 q38.5 88.5 63.5 174.5 l-120 0 l0 65 l122 0 l0 193 l66 0 l0 -193 l113 0 l0 -65 l-113 0 l0 -109 l15 -14 q68 -59 110 -102 l-35 -49 ZM429 768 l469 0 l0 -68 l-469 0 l0 68 ZM940 448 l-246 0 l0 -408 q0 -57 -23 -78 q-23 -21 -83 -21 l-95 0 l-15 68 l87 0 q28 0 41 5 q13 5 17.5 17 q4.5 12 4.5 38 l0 379 l-246 0 l0 66 l558 0 l0 -66 ZM540 341 q-25 -79 -63 -166 q-38 -87 -78 -153 l-60 33 q41 67 78.5 150.5 q37.5 83.5 61.5 158.5 l61 -23 ZM815 364 q25 -53 65 -149 q40 -96 68 -167 l-64 -25 q-26 71 -64 167 q-38 96 -62 149 l57 25 Z" /><glyph glyph-name="uni680F" unicode="&#x680f;" d="M922 622 l0 -68 l-511 0 l0 68 l266 0 q96 156 137 233 l60 -33 q-25 -44 -120 -200 l168 0 ZM552 640 q-24 45 -105 170 l53 36 q75 -110 110 -171 l-58 -35 ZM372 307 q-30 29 -104 92 l0 -467 l-64 0 l0 486 q-50 -137 -120 -244 l-28 77 q41 66 81 155.5 q40 89.5 65 177.5 l-130 0 l0 65 l132 0 l0 192 l64 0 l0 -192 l121 0 l0 -65 l-121 0 l0 -110 q32 -24 74 -58 q42 -34 66 -57 l-36 -52 ZM883 353 l0 -67 l-446 0 l0 67 l446 0 ZM353 -12 l0 67 l584 0 l0 -67 l-584 0 Z" /><glyph glyph-name="uni6811" unicode="&#x6811;" d="M942 639 l0 -64 l-80 0 l0 -511 q0 -47 -9.5 -69.5 q-9.5 -22.5 -35 -31 q-25.5 -8.5 -79.5 -8.5 l-98 0 l-12 64 l91 0 q37 0 53 4.5 q16 4.5 21 18 q5 13.5 5 44.5 l0 489 l-178 0 l0 64 l178 0 l0 205 l64 0 l0 -205 l80 0 ZM324 311 l-83 85 l0 -465 l-63 0 l0 473 q-47 -128 -101 -222 l-20 84 q29 58 63.5 145.5 q34.5 87.5 57.5 168.5 l0 3 l-119 0 l0 63 l119 0 l0 196 l63 0 l0 -196 l101 0 l0 -63 l-101 0 l0 -108 q70 -65 121 -121 l-38 -43 ZM593 67 q-39 81 -101 203 q-60 -133 -173 -272 l-44 52 q119 139 182 289 q-43 84 -110 212 l47 28 q33 -60 58 -109 l32 -60 q41 124 57 269 l-198 0 l0 63 l256 0 l0 -63 q-23 -195 -78 -340 q71 -136 124 -243 l-52 -29 ZM702 228 l-103 246 l53 21 l43 -104 q36 -84 58 -141 l-51 -22 Z" /><glyph glyph-name="uni682A" unicode="&#x682a;" d="M695 365 q45 -90 108.5 -164.5 q63.5 -74.5 141.5 -129.5 l-40 -57 q-150 120 -230 278 l0 -358 l-66 0 l0 359 q-42 -86 -102 -157 q-60 -71 -142 -135 l-43 55 q85 62 149.5 138 q64.5 76 113.5 171 l-208 0 l0 63 l232 0 l0 172 l-138 0 q-22 -67 -53 -130 l-60 25 q59 112 102 297 l60 -14 q-17 -74 -29 -113 l118 0 l0 179 l66 0 l0 -179 l212 0 l0 -65 l-212 0 l0 -172 l246 0 l0 -63 l-226 0 ZM329 325 q-29 33 -76 80 l0 -473 l-65 1 l0 489 q-53 -155 -106 -240 l-31 72 q34 52 70.5 143.5 q36.5 91.5 64.5 187.5 l-115 0 l0 66 l117 0 l0 186 l65 0 l0 -186 l105 0 l0 -66 l-105 0 l0 -98 q74 -72 110 -111 l-34 -51 Z" /><glyph glyph-name="uni6837" unicode="&#x6837;" d="M940 234 l0 -68 l-254 0 l0 -232 l-69 0 l0 232 l-261 0 l0 68 l261 0 l0 153 l-197 0 l0 66 l197 0 l0 145 l-215 0 l0 67 l278 0 q24 39 55.5 94 q31.5 55 50.5 91 l59 -27 q-30 -58 -92 -158 l163 0 l0 -67 l-230 0 l0 -145 l203 0 l0 -66 l-203 0 l0 -153 l254 0 ZM547 673 q-16 29 -41 72 q-25 43 -42 71 l57 32 q67 -112 83 -145 l-57 -30 ZM356 322 q-43 43 -91 88 l0 -476 l-66 0 l0 486 q-54 -137 -117 -240 l-30 74 q40 65 80 154 q40 89 67 175 l-119 0 l0 65 l119 0 l0 192 l66 0 l0 -192 l108 0 l0 -65 l-108 0 l0 -92 q58 -50 129 -117 l-38 -52 Z" /><glyph glyph-name="uni6838" unicode="&#x6838;" d="M936 708 l0 -65 l-300 0 q-30 -48 -69.5 -100.5 q-39.5 -52.5 -72.5 -89.5 l197 13 q37 49 84 129 l55 -32 q-83 -147 -194 -254.5 q-111 -107.5 -258 -184.5 l-35 58 q94 49 164.5 101 q70.5 52 128.5 116 l-224 -14 l-17 59 q87 77 163 199 l-171 0 l0 65 l244 0 q-32 93 -46 128 l68 17 q32 -80 52 -145 l231 0 ZM347 315 l-33 31 l-54 50 l0 -464 l-65 0 l0 487 q-59 -154 -122 -251 l-22 83 q37 58 77 148.5 q40 90.5 66 177.5 l-117 0 l0 65 l118 0 l0 193 l65 0 l0 -193 l104 0 l0 -65 l-104 0 l0 -102 q-2 2 28 -25 q57 -50 97 -87 l-38 -48 ZM904 368 q-74 -119 -165 -210 q79 -68 154 -135 l41 -36 l-46 -53 q-131 119 -199 179 q-116 -99 -297 -181 l-39 59 q176 75 289 167.5 q113 92.5 205 243.5 l57 -34 Z" /><glyph glyph-name="uni683C" unicode="&#x683c;" d="M697 483 q99 -63 244 -98 l-22 -63 q-164 43 -273 121 q-114 -81 -285 -134 l-25 60 l-9 -12 q-50 46 -76 68 l0 -482 l-63 0 l0 477 q-48 -134 -111 -232 l-33 66 q41 64 80 156 q39 92 62 180 l-117 0 l0 66 l119 0 l0 195 l63 0 l0 -195 l104 0 l0 -66 l-104 0 l0 -87 q80 -63 115 -94 l-29 -38 q152 44 256 113 q-64 56 -117 134 q-42 -58 -87 -105 l-42 47 q53 53 108.5 140.5 q55.5 87.5 83.5 157.5 l64 -20 q-22 -51 -41 -83 l303 0 l0 -60 q-69 -127 -168 -212 ZM513 672 q56 -89 130 -150 q82 67 146 173 l-262 0 q-6 -11 -14 -23 ZM485 -64 l-63 0 l0 363 l420 0 l0 -363 l-63 0 l0 62 l-294 0 l0 -62 ZM779 57 l0 182 l-294 0 l0 -182 l294 0 Z" /><glyph glyph-name="uni683D" unicode="&#x683d;" d="M939 488 l-270 0 q12 -130 39 -247 q63 87 108 207 l59 -25 q-63 -150 -145 -257 q16 -48 36 -89 q15 -30 28 -42.5 q13 -12.5 27 -12.5 q15 0 22.5 16.5 q7.5 16.5 14.5 59.5 q10 52 16 112 l59 -18 q-2 -24 -15 -106 l-3 -22 q-12 -67 -36 -92.5 q-24 -25.5 -60 -25.5 q-32 0 -57.5 22 q-25.5 22 -50.5 70 q-14 25 -31 70 q-77 -82 -178 -149 l-39 52 q116 75 195 166 q-37 130 -55 311 l-540 0 l0 63 l222 0 l0 121 l-172 0 l0 61 l172 0 l0 113 l64 0 l0 -113 l180 0 l0 -61 l-180 0 l0 -121 l249 0 q-2 20 -4 58 l-2 28 q-4 81 -8 220 l65 0 l10 -230 q1 -26 5 -76 l275 0 l0 -63 ZM851 630 q-85 91 -145 149 l41 41 q83 -76 149 -147 l-45 -43 ZM488 88 q-56 44 -112 85 l-29 22 l0 -257 l-64 0 l0 277 q-72 -118 -198 -213 l-27 58 q132 94 205 236 l-177 0 l0 62 l197 0 l0 104 l64 0 l0 -104 l209 0 l0 -62 l-209 0 l0 -35 q80 -48 175 -119 l-34 -54 Z" /><glyph glyph-name="uni6846" unicode="&#x6846;" d="M245 588 l0 -111 q25 -21 89 -83 l32 -30 l-35 -58 q-39 46 -86 91 l0 -460 l-64 0 l0 477 q-43 -126 -99 -219 l-29 77 q35 59 69 144 q34 85 58 172 l-113 0 l0 63 l114 0 l0 193 l64 0 l0 -193 l101 0 l0 -63 l-101 0 ZM448 722 l0 -683 l489 0 l0 -63 l-554 0 l0 811 l547 0 l0 -65 l-482 0 ZM485 149 l0 63 l180 0 l0 146 l-154 0 l0 62 l154 0 l0 135 l-166 0 l0 60 l403 0 l0 -60 l-173 0 l0 -135 l157 0 l0 -62 l-157 0 l0 -146 l185 0 l0 -63 l-429 0 Z" /><glyph glyph-name="uni6863" unicode="&#x6863;" d="M613 844 l67 0 l0 -327 l214 0 l0 -583 l-64 0 l0 55 l-459 0 l0 65 l459 0 l0 172 l-420 0 l0 65 l420 0 l0 159 l-440 0 l0 67 l223 0 l0 327 ZM255 481 q88 -78 140 -130 l-40 -49 q-42 44 -100 98 l0 -464 l-64 0 l0 475 q-52 -141 -113 -233 l-23 88 q36 54 73.5 143 q37.5 89 61.5 176 l-119 0 l0 65 l120 0 l0 192 l64 0 l0 -192 l118 0 l0 -65 l-118 0 l0 -104 ZM510 564 q-82 130 -129 199 l53 38 l13 -19 q92 -136 120 -182 l-57 -36 ZM916 765 q-81 -136 -130 -208 l-57 36 q30 42 70 104.5 q40 62.5 61 101.5 l56 -34 Z" /><glyph glyph-name="uni69FD" unicode="&#x69fd;" d="M936 757 l0 -53 l-192 0 l0 -72 l156 0 l0 -296 l-531 0 l0 296 l155 0 l0 72 l-192 0 l0 53 l192 0 l0 86 l56 0 l0 -86 l109 0 l0 86 l55 0 l0 -86 l192 0 ZM245 591 l0 -109 q78 -80 116 -122 l-41 -43 l-75 82 l0 -464 l-59 0 l0 499 q-54 -156 -113 -254 l-24 79 q36 65 73.5 156 q37.5 91 60.5 176 l-108 0 l0 63 l111 0 l0 188 l59 0 l0 -188 l96 0 l0 -63 l-96 0 ZM580 632 l109 0 l0 72 l-109 0 l0 -72 ZM524 508 l0 74 l-99 0 l0 -74 l99 0 ZM580 582 l0 -74 l109 0 l0 74 l-109 0 ZM846 508 l0 74 l-102 0 l0 -74 l102 0 ZM524 460 l-99 0 l0 -75 l99 0 l0 75 ZM689 385 l0 75 l-109 0 l0 -75 l109 0 ZM744 460 l0 -75 l102 0 l0 75 l-102 0 ZM468 -69 l-56 0 l0 340 l445 0 l0 -340 l-60 0 l0 45 l-329 0 l0 -45 ZM797 148 l0 72 l-329 0 l0 -72 l329 0 ZM468 98 l0 -71 l329 0 l0 71 l-329 0 Z" /><glyph glyph-name="uni6A21" unicode="&#x6a21;" d="M557 622 l-60 0 l0 67 l-146 0 l0 60 l146 0 l0 97 l60 0 l0 -97 l158 0 l0 97 l61 0 l0 -97 l144 0 l0 -60 l-144 0 l0 -67 l-61 0 l0 67 l-158 0 l0 -67 ZM333 330 q-23 24 -60 58 l-21 21 l0 -475 l-62 0 l0 488 q-55 -145 -115 -242 l-28 78 q39 64 77.5 153.5 q38.5 89.5 61.5 176.5 l-115 0 l0 61 l119 0 l0 193 l62 0 l0 -193 l108 0 l0 -61 l-108 0 l0 -100 q55 -47 114 -104 l-33 -54 ZM673 155 q33 -60 97.5 -99 q64.5 -39 174.5 -63 l-19 -62 q-212 50 -293 178 q-34 -59 -108 -103 q-74 -44 -197 -77 l-23 59 q121 29 187 69.5 q66 40.5 90 97.5 l-240 0 l0 59 l255 0 l1 15 q1 15 1 59 l-204 0 l0 306 l473 0 l0 -306 l-205 0 l0 -59 q0 -10 -1 -15 l268 0 l0 -59 l-257 0 ZM811 466 l0 75 l-357 0 l0 -75 l357 0 ZM811 418 l-357 0 l0 -78 l357 0 l0 78 Z" /><glyph glyph-name="uni6B21" unicode="&#x6b21;" d="M479 613 q-49 -106 -110 -197 l-58 39 q118 169 185 390 l68 -14 q-21 -69 -55 -151 l396 0 l0 -65 l-102 -212 l-59 29 l89 181 l-354 0 ZM234 528 q-24 45 -67.5 119.5 q-43.5 74.5 -75.5 127.5 l58 32 q32 -49 77 -123 q45 -74 71 -121 l-63 -35 ZM625 442 q15 -141 93.5 -250.5 q78.5 -109.5 220.5 -194.5 l-41 -65 q-226 145 -300 351 q-33 -104 -111 -190.5 q-78 -86.5 -207 -163.5 l-42 61 q116 68 185 137 q69 69 101 150.5 q32 81.5 33 188.5 l1 91 l68 0 l-1 -97 l0 -18 ZM247 386 l37 -12 l-142 -406 l-68 28 q28 74 81 220.5 q53 146.5 63 177.5 l29 -8 Z" /><glyph glyph-name="uni6B63" unicode="&#x6b63;" d="M578 367 l0 -304 l356 0 l0 -70 l-868 0 l0 70 l147 0 l0 497 l68 0 l0 -497 l225 0 l0 634 l-393 0 l0 72 l789 0 l0 -72 l-324 0 l0 -258 l301 0 l0 -72 l-301 0 Z" /><glyph glyph-name="uni6BB5" unicode="&#x6bb5;" d="M455 148 q-44 -5 -248 -35 l0 -180 l-62 0 l0 171 l-27 -4 l-57 -8 l-9 65 q46 5 93 12 l0 609 q72 6 158 19.5 q86 13.5 141 30.5 l17 -64 q-46 -12 -121 -25.5 q-75 -13.5 -133 -19.5 l0 -126 l217 0 l0 -62 l-217 0 l0 -136 l217 0 l0 -62 l-217 0 l0 -156 q168 23 246 36 l1 -35 l1 -30 ZM458 510 q43 36 57 72.5 q14 36.5 14 101.5 l0 107 l302 0 l0 -180 q0 -27 9 -36 q9 -9 36 -9 l59 0 l-9 -62 l-78 0 q-45 0 -63.5 16.5 q-18.5 16.5 -18.5 60.5 l0 147 l-172 0 l0 -66 q0 -69 -17 -110 q-17 -41 -64 -83 l-55 41 ZM869 370 q-38 -140 -144 -245 q84 -73 210 -129 l-33 -61 q-130 62 -224 147 q-98 -80 -251 -147 l-36 57 q145 59 243 135 q-95 103 -144 243 l0 65 l379 0 l0 -65 ZM560 370 q41 -115 121 -202 q89 87 121 202 l-242 0 Z" /><glyph glyph-name="uni6BD4" unicode="&#x6bd4;" d="M924 260 l-6 -161 q-2 -46 -15 -72.5 q-13 -26.5 -42.5 -38.5 q-29.5 -12 -82.5 -12 l-136 0 q-65 0 -92 28 q-27 28 -27 99 l0 731 l69 0 l0 -388 q69 50 152.5 121 q83.5 71 133.5 123 l45 -54 q-62 -63 -159.5 -144.5 q-97.5 -81.5 -171.5 -132.5 l0 -233 q0 -48 15 -64.5 q15 -16.5 61 -16.5 l99 0 q35 0 52.5 6.5 q17.5 6.5 25 23 q7.5 16.5 8.5 49.5 q1 28 3 74 q2 46 2 76 l66 -14 ZM213 824 l0 -285 l248 0 l0 -70 l-248 0 l0 -403 l240 104 l6 -73 l-315 -139 l-27 70 q17 10 22 18 q5 8 5 23 l0 755 l69 0 Z" /><glyph glyph-name="uni6C14" unicode="&#x6c14;" d="M904 679 l-635 0 q-72 -128 -160 -227 l-55 56 q70 73 127.5 164 q57.5 91 90.5 180 l69 -28 q-20 -47 -37 -80 l600 0 l0 -65 ZM837 585 l0 -64 l-592 0 l0 64 l592 0 ZM945 169 l-30 -136 q-25 -97 -91 -97 q-27 0 -50 19.5 q-23 19.5 -40 56.5 q-39 93 -39 280 l0 68 l-571 0 l0 66 l641 0 l0 -121 q0 -96 7.5 -156 q7.5 -60 18.5 -86 q14 -43 33 -43 q21 0 32 47 q20 98 24 129 l65 -27 Z" /><glyph glyph-name="uni6C89" unicode="&#x6c89;" d="M129 819 q124 -93 164 -124 l-39 -56 q-44 37 -130 101 q-8 5 -33 25 l38 54 ZM319 562 l0 218 l574 0 l0 -218 l-67 0 l0 154 l-442 0 l0 -154 l-65 0 ZM85 596 q47 -32 182 -137 l-39 -60 q-42 35 -96 77.5 q-54 42.5 -84 64.5 l37 55 ZM248 -21 q76 63 113.5 111 q37.5 48 51 105 q13.5 57 13.5 149 l0 177 l328 0 l0 -443 q0 -23 3.5 -33.5 q3.5 -10.5 13.5 -13.5 q10 -3 32 -3 l21 0 q32 0 41 11.5 q9 11.5 11 46.5 q2 39 3.5 85.5 q1.5 46.5 1.5 65.5 l58 -15 l-6 -152 q-3 -59 -27.5 -82 q-24.5 -23 -81.5 -23 l-40 0 q-51 0 -72.5 21.5 q-21.5 21.5 -21.5 76.5 l0 393 l-201 0 l0 -122 q0 -98 -16 -163 q-16 -65 -56 -120 q-40 -55 -117 -121 l-52 49 ZM138 -45 l-65 26 l134 338 l63 -25 l-132 -339 Z" /><glyph glyph-name="uni6CA1" unicode="&#x6ca1;" d="M307 624 q-42 34 -93.5 73.5 q-51.5 39.5 -92.5 69.5 l38 56 q145 -110 184 -141 l-36 -58 ZM318 516 q49 30 73 56.5 q24 26.5 32.5 56 q8.5 29.5 8.5 73.5 l0 91 l358 0 l0 -170 q0 -30 10.5 -40.5 q10.5 -10.5 43.5 -10.5 l90 0 l-10 -64 l-101 0 q-54 0 -78.5 20 q-24.5 20 -24.5 65 l0 138 l-219 0 l0 -56 q0 -132 -133 -210 l-50 51 ZM250 396 q-145 109 -191 142 l38 55 q78 -51 192 -137 l-39 -60 ZM907 -65 q-181 62 -301 149 q-124 -85 -323 -154 l-32 64 q176 56 299 134 q-116 99 -183 241 l0 64 l483 0 l0 -63 q-61 -142 -187 -245 q111 -72 276 -124 l-32 -66 ZM444 369 q60 -120 162 -202 q115 89 164 202 l-326 0 ZM83 -24 l150 330 l61 -29 l-147 -330 l-64 29 Z" /><glyph glyph-name="uni6CE8" unicode="&#x6ce8;" d="M598 857 l76 -150 l-65 -30 l-74 152 l63 28 ZM269 637 q-26 20 -54.5 41 q-28.5 21 -54.5 41 l-54 40 l37 56 q77 -56 163 -120 l-37 -58 ZM649 309 l0 -260 l292 0 l0 -65 l-666 0 l0 65 l305 0 l0 260 l-240 0 l0 68 l240 0 l0 228 l-250 0 l0 68 l586 0 l0 -68 l-267 0 l0 -228 l233 0 l0 -68 l-233 0 ZM237 385 l-39 31 q-25 19 -74 57 q-49 38 -74 56 l37 55 q54 -38 189 -140 l-39 -59 ZM282 284 q-16 -49 -103 -268 q-9 -24 -17 -44.5 q-8 -20.5 -13 -33.5 l-66 24 q14 28 71 174 q57 146 64 173 l64 -25 Z" /><glyph glyph-name="uni6D41" unicode="&#x6d41;" d="M302 465 q99 80 194 193 l-191 0 l0 64 l270 0 l-41 113 l68 17 l50 -130 l256 0 l0 -64 l-329 0 q-81 -98 -176 -186 l351 16 q-51 54 -90 93 l47 42 l194 -203 l-47 -46 q-19 23 -35 40 l-16 17 l-489 -22 l-16 56 ZM240 635 q-79 65 -162 126 l38 53 q69 -49 163 -123 l-39 -56 ZM213 391 q-91 81 -162 136 l37 53 q58 -42 166 -132 l-41 -57 ZM365 364 l61 0 l0 -104 q-1 -83 -13.5 -136 q-12.5 -53 -45.5 -98 q-33 -45 -99 -99 l-46 46 q59 45 89 82.5 q30 37.5 42 87 q12 49.5 12 131.5 l0 90 ZM931 171 l-1 -30 l-4 -107 q-3 -46 -22 -63.5 q-19 -17.5 -66 -17.5 l-37 0 q-48 0 -67 17.5 q-19 17.5 -19 62.5 l0 331 l60 0 l0 -314 q0 -21 9.5 -28.5 q9.5 -7.5 33.5 -7.5 l14 0 q24 0 32 7.5 q8 7.5 9 33.5 q2 27 3 62.5 q1 35.5 1 61.5 l54 -8 ZM604 -46 l-60 0 l0 408 l60 0 l0 -408 ZM68 -37 l115 356 l65 -19 l-112 -357 l-68 20 Z" /><glyph glyph-name="uni6D45" unicode="&#x6d45;" d="M844 100 q19 78 26 119 l60 -30 q-15 -87 -32 -136 q-20 -58 -48.5 -82 q-28.5 -24 -65.5 -24 q-39 0 -76.5 23.5 q-37.5 23.5 -74.5 78.5 q-23 33 -40 75 q-130 -70 -289 -123 l-27 65 q163 52 292 120 q-27 88 -42 188 l-206 -28 l-6 63 l203 28 q-7 44 -14 129 l-179 -22 l-6 64 l179 22 l0 6 q-5 63 -12 210 l67 1 q6 -115 13 -209 l208 25 q-46 47 -146 133 l39 41 q35 -29 78.5 -67 q43.5 -38 70.5 -66 l-40 -41 l123 15 l6 -64 l-334 -40 q5 -53 14 -128 l339 47 l6 -63 l-336 -46 q17 -99 38 -164 q127 75 211 159 l38 -48 q-88 -90 -227 -173 q19 -46 44 -80 q22 -31 42.5 -43.5 q20.5 -12.5 42.5 -12.5 q22 0 35 15.5 q13 15.5 26 62.5 ZM290 625 q-100 81 -180 144 l37 50 q30 -21 85 -64 q55 -43 95 -75 l-37 -55 ZM250 386 q-49 42 -195 156 l38 53 q36 -26 96 -72.5 q60 -46.5 100 -79.5 l-39 -57 ZM252 302 l31 -11 l-19 -49 q-95 -244 -113 -297 l-62 28 q19 44 67.5 168.5 q48.5 124.5 65.5 172.5 l30 -12 Z" /><glyph glyph-name="uni6D4B" unicode="&#x6d4b;" d="M223 647 q-29 30 -73 70.5 q-44 40.5 -69 59.5 l37 50 q63 -53 145 -129 l-40 -51 ZM842 825 l56 0 l0 -768 q0 -41 -10.5 -63 q-10.5 -22 -36 -31.5 q-25.5 -9.5 -72.5 -9.5 l-83 0 l-12 62 l81 0 q32 0 48 4.5 q16 4.5 22.5 17.5 q6.5 13 6.5 39 l0 749 ZM555 717 l-204 -1 l0 -514 l-58 0 l0 578 l320 0 l0 -575 l-58 0 l0 512 ZM698 736 l55 0 l0 -569 l-55 0 l0 569 ZM482 388 q0 -108 -15 -173 q37 -38 163 -172 l16 -17 l-44 -45 q-76 87 -154 171 q-22 -57 -63.5 -105 q-41.5 -48 -114.5 -105 l-46 48 q86 64 127 116 q41 52 56 114.5 q15 62.5 15 167.5 l0 269 l60 0 l0 -269 ZM200 402 q-87 83 -148 134 l40 49 q92 -77 149 -131 l-41 -52 ZM207 311 l29 -9 q-8 -24 -52 -177 q-44 -153 -50 -179 l-61 21 q13 36 54.5 177 q41.5 141 48.5 177 l31 -10 Z" /><glyph glyph-name="uni6D4F" unicode="&#x6d4f;" d="M444 851 l48 -167 l135 0 l0 -63 l-65 0 q-23 -201 -73 -332 q38 -68 66 -120.5 q28 -52.5 48 -88.5 l20 -38 l-55 -30 q-63 122 -109 206 q-62 -130 -185 -268 l-52 43 q69 73 118 144 q49 71 82 150 q-91 166 -144 260 l50 32 l23 -41 q85 -153 99 -178 q36 110 51 261 l-229 0 l0 63 l160 0 l-46 154 l58 13 ZM827 835 l63 0 l0 -776 q0 -40 -10 -63 q-10 -23 -34 -33 q-24 -10 -68 -10 l-97 0 l-11 67 l89 0 q41 0 54.5 12 q13.5 12 13.5 48 l0 755 ZM220 650 q-72 68 -141 124 l38 50 q61 -49 142 -121 l-39 -53 ZM663 749 l62 0 l0 -589 l-62 0 l0 589 ZM207 396 q-97 93 -164 148 l39 51 q86 -70 167 -147 l-42 -52 ZM67 -36 l112 369 l60 -20 l-109 -369 l-63 20 Z" /><glyph glyph-name="uni6D6E" unicode="&#x6d6e;" d="M904 766 q-119 -20 -286.5 -37 q-167.5 -17 -298.5 -22 l-5 64 q135 6 297.5 21.5 q162.5 15.5 281.5 36.5 l11 -63 ZM258 620 q-123 105 -175 147 l40 55 q31 -25 153 -129 l22 -18 l-40 -55 ZM719 533 q77 122 109 181 l53 -30 q-36 -70 -110 -185 l-52 34 ZM614 522 q-17 35 -39 79 q-22 44 -40 78 l56 29 q14 -24 38.5 -73.5 q24.5 -49.5 39.5 -83.5 l-55 -29 ZM418 508 q-19 35 -47 84 q-28 49 -43 71 l54 31 q21 -34 46.5 -78 q25.5 -44 42.5 -77 l-53 -31 ZM85 591 q108 -89 179 -148 l-41 -58 q-67 59 -176 152 l38 54 ZM938 262 l0 -62 l-294 0 l0 -139 q0 -39 -10.5 -60.5 q-10.5 -21.5 -36.5 -30.5 q-26 -9 -73 -9 l-116 0 l-13 63 l110 0 q43 0 56.5 11 q13.5 11 13.5 43 l0 122 l-303 0 l0 62 l303 0 l0 44 l180 111 l-411 0 l0 60 l524 0 l0 -60 l-224 -137 l0 -18 l294 0 ZM89 -29 l93 344 l34 -12 l31 -8 l-92 -343 l-66 19 Z" /><glyph glyph-name="uni6DF1" unicode="&#x6df1;" d="M257 612 q-32 30 -81.5 72.5 q-49.5 42.5 -86.5 72.5 l39 50 q109 -85 171 -139 l-42 -56 ZM837 714 l-456 0 l0 -115 l-62 0 l0 178 l581 0 l0 -179 l-63 0 l0 116 ZM675 644 q51 -34 229 -165 l-37 -52 q-171 132 -225 167 l33 50 ZM567 596 q-96 -96 -222 -182 l-35 54 q58 38 115.5 84.5 q57.5 46.5 100.5 90.5 l41 -47 ZM232 379 q-40 36 -93 82 q-53 46 -85 70 l40 51 q73 -58 179 -149 l-41 -54 ZM671 304 q52 -77 118.5 -138.5 q66.5 -61.5 157.5 -111.5 l-38 -61 q-88 52 -154 118 q-66 66 -118 147 l0 -327 l-64 0 l0 318 q-54 -77 -121.5 -139 q-67.5 -62 -161.5 -118 l-38 56 q104 59 171 118.5 q67 59.5 121 137.5 l-238 0 l0 63 l267 0 l0 123 l64 0 l0 -123 l283 0 l0 -63 l-249 0 ZM192 303 l33 -8 l30 -10 l-109 -341 l-62 20 l108 339 Z" /><glyph glyph-name="uni6E05" unicode="&#x6e05;" d="M637 581 l0 -70 l302 0 l0 -52 l-651 0 l0 52 l285 0 l0 70 l-223 0 l0 51 l223 0 l0 67 l-252 0 l0 52 l252 0 l0 90 l64 0 l0 -90 l269 0 l0 -52 l-269 0 l0 -67 l244 0 l0 -51 l-244 0 ZM257 627 q-93 83 -160 135 l40 53 q78 -63 161 -135 l-41 -53 ZM95 582 q23 -18 140 -112 q7 -6 34 -28 l-42 -59 q-35 31 -83 71 q-48 40 -87 71 l38 57 ZM358 -55 l0 448 l495 0 l0 -351 q0 -52 -22.5 -71.5 q-22.5 -19.5 -80.5 -19.5 l-107 0 l-11 52 l94 0 q40 0 52.5 10.5 q12.5 10.5 12.5 39.5 l0 39 l-371 0 l0 -147 l-62 0 ZM791 270 l0 70 l-371 0 l0 -70 l371 0 ZM93 -36 l110 348 l31 -11 l32 -10 l-108 -348 l-65 21 ZM420 218 l0 -74 l371 0 l0 74 l-371 0 Z" /><glyph glyph-name="uni6E90" unicode="&#x6e90;" d="M256 629 q-27 26 -76 68.5 q-49 42.5 -86 73.5 l38 49 q54 -43 147 -122 q-2 1 16 -13 l-39 -56 ZM880 252 l-172 0 l0 -197 q0 -41 -9 -63 q-9 -22 -31 -31.5 q-22 -9.5 -63 -9.5 l-83 0 l-12 61 l74 0 q27 0 40 5.5 q13 5.5 17.5 20 q4.5 14.5 4.5 42.5 l0 172 l-173 0 l0 358 l129 0 q19 58 33 115 l-248 0 l0 -260 q0 -125 -10 -212.5 q-10 -87.5 -35 -162.5 q-25 -75 -71 -161 l-60 28 q46 86 69.5 157.5 q23.5 71.5 33 151 q9.5 79.5 9.5 196.5 l0 326 l621 0 l0 -63 l-244 0 q-4 -16 -7 -24 q-5 -23 -25 -91 l212 0 l0 -358 ZM225 403 q-88 78 -172 145 l36 52 q43 -34 127 -102 l50 -41 l-41 -54 ZM817 459 l0 94 l-282 0 l0 -94 l282 0 ZM817 404 l-282 0 l0 -96 l282 0 l0 96 ZM234 314 q-3 -14 -25.5 -102 q-22.5 -88 -35.5 -138 l-33 -128 l-61 17 l6 22 q79 298 88 343 l61 -14 ZM561 171 q-28 -50 -70 -108 q-42 -58 -82 -102 l-47 38 q44 47 83.5 100 q39.5 53 65.5 102 l50 -30 ZM807 199 q30 -38 76 -99.5 q46 -61.5 69 -95.5 l-49 -36 q-22 35 -66.5 97.5 q-44.5 62.5 -75.5 101.5 l46 32 Z" /><glyph glyph-name="uni6ED1" unicode="&#x6ed1;" d="M127 817 q44 -34 174 -143 l-40 -56 q-129 110 -174 145 l40 54 ZM832 800 l0 -275 l84 0 l0 -181 l-64 0 l0 129 l-517 0 l0 -129 l-64 0 l0 181 l87 0 l0 275 l474 0 ZM764 525 l0 220 l-338 0 l0 -80 l223 0 l0 -140 l115 0 ZM591 612 l-165 0 l0 -87 l165 0 l0 87 ZM93 580 q113 -86 163 -129 l-40 -58 q-31 28 -79 67 q-48 39 -82 65 l38 55 ZM366 -55 l0 452 l462 0 l0 -346 q0 -40 -9 -61 q-9 -21 -31 -30 q-22 -9 -65 -9 l-87 0 l-14 59 l83 0 q33 0 44 10.5 q11 10.5 11 44.5 l0 31 l-327 0 l0 -151 l-67 0 ZM760 271 l0 74 l-327 0 l0 -74 l327 0 ZM219 307 l28 -7 l-33 -122 q-19 -71 -62 -233 l-68 20 q13 40 51 177 q38 137 46 176 l38 -11 ZM433 221 l0 -75 l327 0 l0 75 l-327 0 Z" /><glyph glyph-name="uni70B9" unicode="&#x70b9;" d="M509 551 l322 0 l0 -318 l-660 0 l0 318 l266 0 l0 291 l72 0 l0 -105 l397 0 l0 -67 l-397 0 l0 -119 ZM238 299 l526 0 l0 185 l-526 0 l0 -185 ZM806 196 q69 -111 127 -220 l-58 -35 q-28 57 -127 227 l58 28 ZM62 -36 q34 50 67 115 q33 65 51 116 l60 -26 q-20 -54 -53.5 -121 q-33.5 -67 -65.5 -119 l-59 35 ZM600 182 q21 -46 44.5 -106.5 q23.5 -60.5 34.5 -99.5 l-62 -18 q-19 64 -76 204 l59 20 ZM388 173 q11 -40 25 -101 q14 -61 24 -110 l-66 -15 q-7 44 -35 168 l-10 44 l62 14 Z" /><glyph glyph-name="uni719F" unicode="&#x719f;" d="M515 766 l0 -52 l-444 0 l0 52 l203 0 q-16 35 -35 71 l58 18 q29 -60 41 -89 l177 0 ZM692 393 q39 -36 67 -64 l-37 -49 l-82 80 q-19 -60 -54 -111 q-35 -51 -95 -111 l-47 43 q65 61 99.5 111 q34.5 50 49.5 113 q-38 36 -101 94 l37 42 q34 -29 76 -68 q7 62 7 156 l-94 0 l0 64 l94 0 l0 153 l59 0 l-1 -153 l156 0 l0 -174 q0 -143 16 -228 q9 -52 24 -52 q10 0 21 50 q9 41 19 101 l46 -20 q-4 -28 -13 -70 q-9 -42 -16 -65 q-10 -35 -24.5 -53 q-14.5 -18 -32.5 -18 q-22 0 -42.5 21 q-20.5 21 -29.5 58 q-12 47 -18.5 107 q-6.5 60 -6.5 150 l0 129 l-99 0 q0 -125 -14 -202 l36 -34 ZM463 656 l0 -139 l-342 0 l0 139 l342 0 ZM403 616 l-223 0 l0 -59 l223 0 l0 59 ZM497 297 l-171 -11 l0 -41 q0 -36 -8.5 -55 q-8.5 -19 -30 -26.5 q-21.5 -7.5 -63.5 -7.5 l-85 0 l-10 52 l74 0 q29 0 42 4 q13 4 17.5 14.5 q4.5 10.5 4.5 33.5 l0 22 l-97 -6 q-36 -3 -63 -4.5 q-27 -1.5 -45 -3.5 l-1 51 q10 0 178 11 l28 2 l0 37 l116 46 l-285 0 l0 47 l381 0 l0 -45 l-153 -67 l0 -14 l169 13 l1 -27 l1 -25 ZM808 155 q81 -122 117 -186 l-58 -37 q-38 75 -113 189 l54 34 ZM68 -52 q71 105 103 188 l59 -22 q-38 -102 -103 -197 l-59 31 ZM602 134 q47 -103 71 -175 l-60 -19 q-21 67 -69 174 l58 20 ZM391 123 q30 -103 45 -181 l-65 -11 q-18 103 -40 180 l60 12 Z" /><glyph glyph-name="uni7247" unicode="&#x7247;" d="M932 514 l-645 0 q0 -108 -4 -176 l447 0 l0 -400 l-69 0 l0 334 l-383 0 q-11 -108 -42.5 -184.5 q-31.5 -76.5 -97.5 -160.5 l-64 38 q62 77 92.5 147 q30.5 70 42 159.5 q11.5 89.5 11.5 238.5 l0 316 l67 0 l0 -246 l341 0 l0 263 l66 0 l0 -263 l238 0 l0 -66 Z" /><glyph glyph-name="uni7248" unicode="&#x7248;" d="M193 407 l0 -47 l164 0 l0 -415 l-62 0 l0 350 l-104 0 q-4 -124 -19.5 -208 q-15.5 -84 -48.5 -160 l-60 38 q40 84 53.5 180 q13.5 96 13.5 284 l0 394 l63 0 l0 -272 l96 0 l0 289 l61 0 l0 -289 l73 0 l0 -59 l-230 0 l0 -85 ZM763 156 q64 -84 174 -159 l-34 -59 q-109 80 -178 168 q-77 -90 -210 -180 l-39 54 q133 87 210 181 q-87 136 -123 331 l-26 0 l0 -11 q0 -121 -11 -206.5 q-11 -85.5 -36.5 -158.5 q-25.5 -73 -72.5 -154 l-54 38 q65 110 89.5 215.5 q24.5 105.5 24.5 271.5 l0 264 q98 7 211 24.5 q113 17.5 219 41.5 l13 -68 q-89 -20 -191 -36.5 q-102 -16.5 -192 -25.5 l0 -131 l360 0 l0 -67 q-22 -104 -54.5 -185 q-32.5 -81 -79.5 -148 ZM621 492 q40 -174 104 -279 q73 113 107 279 l-211 0 Z" /><glyph glyph-name="uni72D7" unicode="&#x72d7;" d="M893 721 q0 4 -8 -485 l-2 -148 q-1 -53 -15 -81.5 q-14 -28.5 -46 -40.5 q-32 -12 -89 -12 l-132 0 l-11 68 l116 0 q47 0 69.5 7.5 q22.5 7.5 31 27 q8.5 19.5 10.5 62.5 q2 97 3.5 267.5 q1.5 170.5 2.5 266.5 l-332 0 q-53 -89 -127 -175 l-42 53 q59 68 108 149 q49 81 81 166 l66 -19 q-25 -60 -48 -106 l364 0 ZM391 787 q-65 -90 -137 -169 q37 -89 50 -192.5 q13 -103.5 13 -273.5 q0 -81 -12.5 -123 q-12.5 -42 -42 -58 q-29.5 -16 -87.5 -16 l-81 0 l-12 66 l74 0 q42 0 61.5 9.5 q19.5 9.5 28 41 q8.5 31.5 8.5 99.5 q0 120 -7 203 q-73 -117 -165 -195 l-25 66 q96 78 179 210 q-14 68 -31 113 q-50 -50 -114 -100 l-30 62 q66 51 117 104 q-31 70 -95 165 l51 26 q55 -77 90 -143 q53 57 114 141 l53 -36 ZM416 508 l287 0 l0 -368 l-287 0 l0 368 ZM477 202 l165 0 l0 244 l-165 0 l0 -244 Z" /><glyph glyph-name="uni73A9" unicode="&#x73a9;" d="M426 770 l456 0 l0 -67 l-456 0 l0 67 ZM252 166 l128 32 l10 -65 l-325 -85 l-13 67 l132 33 l0 257 l-108 0 l0 66 l108 0 l0 219 l-123 0 l0 67 l312 0 l0 -67 l-121 0 l0 -219 l105 0 l0 -66 l-105 0 l0 -239 ZM943 222 l-4 -148 q-2 -40 -12 -61.5 q-10 -21.5 -32 -31 q-22 -9.5 -62 -9.5 l-45 0 q-39 0 -60.5 9.5 q-21.5 9.5 -30.5 32.5 q-9 23 -9 66 l0 356 l-133 0 q0 -96 -1 -119 q-3 -89 -21 -154 q-18 -65 -61 -122 q-43 -57 -120 -115 l-45 59 q76 53 114.5 101 q38.5 48 52 100 q13.5 52 16.5 133 q1 22 1 117 l-109 0 l0 68 l550 0 l0 -68 l-181 0 l0 -336 q0 -36 11.5 -48 q11.5 -12 45.5 -12 l14 0 q25 0 36.5 5 q11.5 5 15 17 q3.5 12 4.5 38 l3 133 l62 -11 Z" /><glyph glyph-name="uni73B0" unicode="&#x73b0;" d="M803 727 l-324 0 l0 -481 l-62 0 l0 548 l449 0 l0 -548 l-63 0 l0 481 ZM387 171 l6 -37 l-205 -58 l-127 -37 l-13 64 q24 6 75 22 q17 4 33 9 q16 5 30 9 l0 262 l-115 0 l0 66 l115 0 l0 228 l-125 0 l0 66 l311 0 l0 -66 l-123 0 l0 -228 l119 0 l0 -66 l-119 0 l0 -244 l37 11 q83 24 97 29 l4 -30 ZM932 185 q0 -20 -1 -55 q-1 -35 -3 -67 q-2 -41 -12 -62.5 q-10 -21.5 -33.5 -30.5 q-23.5 -9 -68.5 -9 l-77 0 q-56 0 -77.5 22.5 q-21.5 22.5 -21.5 80.5 l0 194 q-31 -102 -101.5 -180.5 q-70.5 -78.5 -193.5 -151.5 l-42 60 q113 64 176 127 q63 63 92.5 144 q29.5 81 34.5 201 q2 42 3 103 q1 61 1 103 l61 0 q0 -101 -3 -215 q-3 -86 -17 -148 l50 0 l0 -213 q0 -26 5 -38.5 q5 -12.5 18 -17 q13 -4.5 40 -4.5 l42 0 q29 0 42.5 4 q13.5 4 18.5 16 q5 12 6 39 q2 31 2 112 l59 -14 Z" /><glyph glyph-name="uni751F" unicode="&#x751f;" d="M557 52 l381 0 l0 -66 l-856 0 l0 66 l403 0 l0 244 l-314 0 l0 67 l314 0 l0 212 l-244 0 q-44 -96 -105 -180 l-60 37 q59 79 101.5 169.5 q42.5 90.5 72.5 202.5 l67 -16 q-25 -87 -47 -145 l215 0 l0 200 l72 0 l0 -200 l344 0 l0 -68 l-344 0 l0 -212 l310 0 l0 -67 l-310 0 l0 -244 Z" /><glyph glyph-name="uni7528" unicode="&#x7528;" d="M155 783 l721 0 l0 -725 q0 -44 -11.5 -67.5 q-11.5 -23.5 -37.5 -33.5 q-26 -10 -73 -10 l-103 0 l-11 69 l94 0 q32 0 47 5 q15 5 20.5 18 q5.5 13 5.5 41 l0 147 l-260 0 l0 -275 l-68 0 l0 275 l-259 0 q-7 -89 -29 -154.5 q-22 -65.5 -67 -143.5 l-63 33 q42 69 61 119.5 q19 50.5 26 115 q7 64.5 7 182.5 l0 404 ZM479 534 l0 182 l-255 0 l0 -182 l255 0 ZM547 534 l260 0 l0 182 l-260 0 l0 -182 ZM479 294 l0 173 l-255 0 l0 -112 q0 -42 -1 -61 l256 0 ZM547 467 l0 -173 l260 0 l0 173 l-260 0 Z" /><glyph glyph-name="uni7533" unicode="&#x7533;" d="M533 848 l0 -140 l332 0 l0 -537 l-332 0 l0 -238 l-68 0 l0 238 l-333 0 l0 537 l333 0 l0 140 l68 0 ZM465 472 l0 170 l-264 0 l0 -170 l264 0 ZM796 472 l0 170 l-263 0 l0 -170 l263 0 ZM201 405 l0 -168 l264 0 l0 168 l-264 0 ZM533 405 l0 -168 l263 0 l0 168 l-263 0 Z" /><glyph glyph-name="uni7535" unicode="&#x7535;" d="M942 213 l-1 -27 q-1 -22 -2.5 -51 q-1.5 -29 -3.5 -56 q-4 -47 -19 -72 q-15 -25 -46 -35 q-31 -10 -85 -10 l-207 0 q-54 0 -83.5 12 q-29.5 12 -42 40.5 q-12.5 28.5 -12.5 80.5 l0 101 l-310 0 l0 513 l310 0 l0 126 l69 0 l0 -126 l319 0 l0 -513 l-319 0 l0 -89 q0 -47 18 -63 q18 -16 64 -16 l171 0 q42 0 63.5 5.5 q21.5 5.5 31.5 22.5 q10 17 12 52 q5 88 5 123 l68 -18 ZM440 486 l0 160 l-240 0 l0 -160 l240 0 ZM759 486 l0 160 l-250 0 l0 -160 l250 0 ZM200 422 l0 -163 l240 0 l0 163 l-240 0 ZM509 422 l0 -163 l250 0 l0 163 l-250 0 Z" /><glyph glyph-name="uni753B" unicode="&#x753b;" d="M68 721 l0 63 l865 0 l0 -63 l-865 0 ZM183 58 l634 0 l0 572 l64 0 l0 -691 l-64 0 l0 54 l-698 0 l0 636 l64 0 l0 -571 ZM286 166 l0 457 l429 0 l0 -457 l-429 0 ZM471 424 l0 140 l-124 0 l0 -140 l124 0 ZM530 424 l124 0 l0 140 l-124 0 l0 -140 ZM471 368 l-124 0 l0 -145 l124 0 l0 145 ZM530 368 l0 -145 l124 0 l0 145 l-124 0 Z" /><glyph glyph-name="uni754C" unicode="&#x754c;" d="M914 150 q-119 36 -217 91 l0 -307 l-69 0 l0 321 l45 0 q-108 64 -171 136 q-63 -68 -177 -135 l59 0 l0 -54 q0 -85 -47.5 -152 q-47.5 -67 -160.5 -126 l-41 57 q71 34 111 67.5 q40 33.5 55.5 70 q15.5 36.5 15.5 83.5 l0 50 q-107 -61 -232 -104 l-28 63 q116 36 213.5 89 q97.5 53 168.5 116 l-284 0 l0 388 l689 0 l0 -388 l-287 0 q137 -134 385 -202 l-28 -64 ZM468 635 l0 109 l-246 0 l0 -109 l246 0 ZM531 635 l247 0 l0 109 l-247 0 l0 -109 ZM468 581 l-246 0 l0 -107 l246 0 l0 107 ZM531 581 l0 -107 l247 0 l0 107 l-247 0 Z" /><glyph glyph-name="uni7559" unicode="&#x7559;" d="M441 488 q-3 7 -15 26 l-14 25 l-284 -116 l-25 56 q14 10 19 17.5 q5 7.5 5 19.5 l0 252 q76 10 165 28 q89 18 159 37 l18 -59 q-56 -17 -134.5 -33.5 q-78.5 -16.5 -145.5 -27.5 l0 -201 l192 77 q-16 27 -32 52.5 q-16 25.5 -20 31.5 l46 27 q10 -14 51.5 -79.5 q41.5 -65.5 64.5 -103.5 l-50 -29 ZM492 781 l397 0 q-2 -42 -7.5 -109 q-5.5 -67 -9.5 -111 q-3 -45 -15.5 -68 q-12.5 -23 -39.5 -32.5 q-27 -9.5 -76 -9.5 l-83 0 l-12 59 l76 0 q35 0 53 6 q18 6 25.5 19 q7.5 13 10.5 38 q4 29 7.5 74.5 q3.5 45.5 5.5 76.5 l-181 0 q-4 -44 -12 -85 q-11 -72 -43.5 -125.5 q-32.5 -53.5 -102.5 -107.5 l-47 45 q68 50 98 95 q30 45 38 110 q6 43 7 68 l-89 0 l0 57 ZM228 -66 l-67 0 l0 445 l678 0 l0 -445 l-67 0 l0 50 l-544 0 l0 -50 ZM467 207 l0 114 l-239 0 l0 -114 l239 0 ZM531 207 l241 0 l0 114 l-241 0 l0 -114 ZM228 152 l0 -114 l239 0 l0 114 l-239 0 ZM531 152 l0 -114 l241 0 l0 114 l-241 0 Z" /><glyph glyph-name="uni7562" unicode="&#x7562;" d="M931 399 l0 -53 l-174 0 l0 -98 l128 0 l0 -52 l-353 0 l0 -89 l397 0 l0 -52 l-397 0 l0 -122 l-63 0 l0 121 l-396 0 l0 52 l396 0 l0 89 l-353 0 l0 52 l128 0 l0 98 l-173 0 l0 53 l173 0 l0 98 l-76 0 l0 303 l666 0 l0 -303 l-77 0 l0 -97 l174 0 ZM469 673 l0 74 l-238 0 l0 -74 l238 0 ZM532 673 l239 0 l0 74 l-239 0 l0 -74 ZM469 624 l-238 0 l0 -75 l238 0 l0 75 ZM532 624 l0 -75 l239 0 l0 75 l-239 0 ZM469 496 l-162 0 l0 -98 l162 0 l0 98 ZM532 399 l161 0 l0 97 l-161 0 l0 -97 ZM532 248 l161 0 l0 98 l-161 0 l0 -98 ZM307 345 l0 -98 l162 0 l0 98 l-162 0 Z" /><glyph glyph-name="uni767D" unicode="&#x767d;" d="M853 704 l0 -764 l-66 0 l0 71 l-575 0 l0 -73 l-68 0 l0 766 l244 0 q33 80 54 144 l71 -14 q-17 -51 -49 -130 l389 0 ZM787 395 l0 242 l-575 0 l0 -242 l575 0 ZM212 330 l0 -254 l575 0 l0 254 l-575 0 Z" /><glyph glyph-name="uni7684" unicode="&#x7684;" d="M902 687 q-3 -104 -9.5 -300 q-6.5 -196 -10.5 -303 q-2 -48 -16 -75 q-14 -27 -44.5 -38.5 q-30.5 -11.5 -84.5 -11.5 l-125 0 l-13 70 l118 0 q40 0 60.5 7 q20.5 7 29.5 25.5 q9 18.5 10 55.5 q1 15 5 134.5 q4 119.5 7 204.5 q3 138 5 163 l-242 0 q-33 -79 -76 -149 l-59 40 q48 72 88 170 q40 98 60 183 l66 -16 q-20 -78 -51 -160 l282 0 ZM323 844 q-12 -58 -39 -154 l160 0 l0 -682 l-274 0 l0 -68 l-64 0 l0 750 l105 0 q21 63 42 166 l70 -12 ZM170 383 l209 0 l0 238 l-209 0 l0 -238 ZM676 228 q-31 46 -72.5 104 q-41.5 58 -73.5 98 l50 41 q93 -116 154 -203 l-58 -40 ZM170 314 l0 -237 l209 0 l0 237 l-209 0 Z" /><glyph glyph-name="uni76EE" unicode="&#x76ee;" d="M175 -69 l0 856 l653 0 l0 -853 l-68 0 l0 73 l-516 0 l0 -76 l-69 0 ZM760 552 l0 167 l-516 0 l0 -167 l516 0 ZM760 315 l0 172 l-516 0 l0 -172 l516 0 ZM244 249 l0 -175 l516 0 l0 175 l-516 0 Z" /><glyph glyph-name="uni76F4" unicode="&#x76f4;" d="M803 609 l0 -573 l136 0 l0 -61 l-877 0 l0 61 l137 0 l0 573 l267 0 l0 92 l-369 0 l0 57 l369 0 l0 87 l66 0 l0 -87 l373 0 l0 -57 l-373 0 l0 -92 l271 0 ZM736 464 l0 87 l-470 0 l0 -87 l470 0 ZM266 324 l470 0 l0 86 l-470 0 l0 -86 ZM736 181 l0 88 l-470 0 l0 -88 l470 0 ZM736 123 l-470 0 l0 -87 l470 0 l0 87 Z" /><glyph glyph-name="uni770B" unicode="&#x770b;" d="M933 455 l-550 0 q-25 -42 -49 -75 l480 0 l0 -450 l-62 0 l0 49 l-443 0 l0 -50 l-62 0 l0 349 q-72 -74 -159 -141 l-32 62 q162 120 248 256 l-239 0 l0 57 l273 0 q20 38 36 78 l-236 0 l0 56 l256 0 q14 43 24 83 q-187 -10 -305 -13 l-4 59 q170 3 384.5 17.5 q214.5 14.5 371.5 33.5 l5 -62 q-158 -17 -383 -31 q-8 -35 -23 -87 l396 0 l0 -56 l-415 0 q-15 -40 -33 -78 l521 0 l0 -57 ZM309 262 l443 0 l0 65 l-443 0 l0 -65 ZM752 211 l-443 0 l0 -64 l443 0 l0 64 ZM309 95 l0 -63 l443 0 l0 63 l-443 0 Z" /><glyph glyph-name="uni7740" unicode="&#x7740;" d="M934 425 l-554 0 q-25 -39 -48 -71 l486 0 l0 -424 l-66 0 l0 45 l-452 0 l0 -46 l-66 0 l0 315 q-56 -56 -138 -116 l-39 56 q160 115 246 241 l-240 0 l0 56 l274 0 q21 40 36 74 l-235 0 l0 54 l256 0 q8 23 22 73 l-321 0 l0 57 l244 0 q-40 47 -82 92 l52 38 q10 -13 66 -73 l33 -36 l-28 -21 l208 0 q25 28 55.5 66.5 q30.5 38.5 47.5 62.5 l59 -31 q-20 -27 -80 -98 l234 0 l0 -57 l-421 0 q-6 -25 -20 -73 l398 0 l0 -54 l-418 0 q-20 -50 -33 -74 l524 0 l0 -56 ZM300 243 l452 0 l0 57 l-452 0 l0 -57 ZM752 193 l-452 0 l0 -57 l452 0 l0 57 ZM300 85 l0 -57 l452 0 l0 57 l-452 0 Z" /><glyph glyph-name="uni77AC" unicode="&#x77ac;" d="M888 757 q-105 -15 -256.5 -27 q-151.5 -12 -263.5 -16 l-4 61 q120 4 268.5 16 q148.5 12 247.5 28 l8 -62 ZM147 -49 l-56 0 l0 827 l216 0 l0 -756 l-160 0 l0 -71 ZM417 509 l0 -97 l-55 0 l0 152 l372 0 q20 38 41.5 86 q21.5 48 32.5 79 l52 -17 q-27 -68 -66 -148 l117 0 l0 -145 l-56 0 l0 90 l-438 0 ZM635 572 q-10 27 -26.5 63.5 q-16.5 36.5 -30.5 64.5 l51 22 q34 -73 56 -130 l-50 -20 ZM250 548 l0 166 l-103 0 l0 -166 l103 0 ZM468 568 q-33 70 -62 120 l48 23 q35 -63 65 -124 l-51 -19 ZM147 485 l0 -167 l103 0 l0 167 l-103 0 ZM505 449 q-6 -21 -20 -61 l127 0 l0 -52 q-30 -133 -85.5 -226 q-55.5 -93 -155.5 -178 l-44 42 q98 78 152 162.5 q54 84.5 80 198.5 l-95 0 q-26 -56 -42 -83 q46 -36 75 -64 l-32 -46 q-28 30 -72 63 q-21 -32 -36 -52 l-36 36 q98 132 132 274 l52 -14 ZM816 159 l117 0 l0 -56 l-117 0 l0 -167 l-58 0 l0 167 l-143 0 l0 48 l26 125 l50 -3 l-21 -114 l88 0 l0 157 l-116 0 l0 57 l116 0 l0 86 l58 0 l0 -86 l98 0 l0 -57 l-98 0 l0 -157 ZM147 255 l0 -169 l103 0 l0 169 l-103 0 Z" /></font>
</defs>
</svg>
