<?xml version="1.0" standalone="no"?><!DOCTYPE svg PUBLIC "-//W3C//DTD SVG 1.1//EN" "http://www.w3.org/Graphics/SVG/1.1/DTD/svg11.dtd" ><svg xmlns="http://www.w3.org/2000/svg"><metadata></metadata><defs><font id="Founder:FZFW ZhuZi A YuanS_M" horiz-adv-x="1000"><font-face font-family="FZFW ZhuZi A YuanS M" font-weight="500" font-stretch="normal" units-per-em="1000" panose-1="2 0 6 0 0 0 0 0 0 0" ascent="901" descent="-290" x-height="0" bbox="-41 -290 1010 835" underline-thickness="50" underline-position="-100" unicode-range="U+0020-ff1f" /><missing-glyph horiz-adv-x="1000"  /><glyph glyph-name="" unicode="!" d="M220 668 q-8 -263 -11 -455 q-3 -34 -31 -36 q-30 -2 -34 34 q2 82 -10 457 q0 24 14 35 q15 11 34 9 q34 -3 38 -44 ZM231 28 q1 -27 -19 -43 q-17 -14 -37 -13 q-21 1 -37 16 q-16 16 -16 36 q0 23 16 40 q15 16 37 16 q24 1 39 -12 q16 -14 17 -40 Z" /><glyph glyph-name="" unicode="&quot;" d="M292 678 q-2 -111 -9 -164 q-1 -12 -11 -20 q-8 -7 -19 -7 q-27 -1 -31 27 q-3 20 -9 164 q0 23 13 34 q13 11 29 10 q33 -3 37 -44 ZM146 678 q-2 -111 -9 -164 q-1 -12 -11 -20 q-8 -7 -19 -7 q-27 -1 -31 27 q-3 28 -9 164 q0 23 12 34 q13 11 29 10 q35 -2 38 -44 Z" /><glyph glyph-name="" unicode="#" d="M501 447 q-27 0 -54 0 q-8 0 -11 -11 q-14 -74 -28 -147 q-2 -9 7 -9 q24 0 47 1 q39 -4 38 -35 q-1 -28 -38 -32 l-59 0 q-7 -1 -9 -2 q-2 -1 -3 -7 q-31 -171 -36 -202 q-3 -17 -14 -25 q-12 -8 -25 -7 q-33 3 -30 40 q3 13 39 196 q4 9 -6 9 l-105 0 q-6 0 -9 -3 q-2 -3 -4 -8 q-31 -171 -36 -202 q-3 -17 -14 -25 q-12 -8 -25 -7 q-33 3 -30 40 q2 9 39 195 q2 9 -5 9 q-37 0 -48 -1 q-18 0 -28 10 q-9 10 -9 23 q0 30 35 34 q13 -1 59 -1 q10 0 11 8 l29 150 q2 10 -6 10 q-39 0 -52 -1 q-18 0 -28 10 q-9 10 -9 23 q0 30 35 34 q15 -1 67 -1 q7 0 7 6 q20 104 30 161 q4 17 16 24 q12 8 25 6 q31 -3 29 -38 q-4 -18 -30 -153 q-1 -4 0 -5 q1 -2 5 -2 l107 0 q7 0 8 7 q20 104 30 161 q4 17 16 24 q12 8 25 6 q31 -3 29 -38 q-6 -26 -30 -152 q-2 -7 5 -7 l43 1 q38 -4 38 -34 q0 -29 -38 -33 ZM368 437 q2 6 1 8 q-1 3 -7 3 q-28 1 -105 1 q-6 0 -8 -2 q-1 -1 -3 -8 l-28 -150 q-2 -6 -1 -8 q1 -2 7 -2 l107 0 q8 0 9 8 q23 121 28 150 Z" /><glyph glyph-name="" unicode="$" d="M462 637 q12 -17 8 -33 q-4 -16 -18 -25 q-23 -15 -50 14 q-32 41 -84 53 q-6 1 -6 -5 q0 -121 -1 -241 q0 -7 6 -10 l60 -31 q93 -54 120 -125 q27 -71 -1 -137 q-43 -104 -177 -129 q-7 0 -7 -7 q1 -21 1 -57 q0 -19 -12 -28 q-11 -9 -26 -7 q-25 2 -28 35 q0 28 0 56 q0 6 -6 6 q-128 11 -192 101 q-14 23 -9 40 q6 17 22 25 q26 11 46 -15 q43 -68 133 -80 q7 -1 7 7 q1 147 1 294 q0 7 -5 10 q-40 20 -60 29 q-81 42 -104 109 q-24 67 6 130 q38 82 155 99 q7 1 7 8 q-1 17 -1 42 q2 37 32 38 q30 1 34 -35 l0 -47 q0 -7 5 -8 q96 -13 144 -76 ZM342 295 q-18 10 -27 12 q-4 0 -4 -3 q1 -128 1 -256 q0 -9 6 -8 q56 13 86 50 q29 37 27 83 q-3 70 -89 122 ZM249 428 l0 216 q0 7 -7 6 q-49 -8 -75 -39 q-26 -30 -24 -69 q2 -60 75 -103 l26 -14 q2 -2 4 -1 q1 1 1 4 Z" /><glyph glyph-name="" unicode="%" d="M331 490 q-5 -68 -36 -109 q-36 -48 -101 -48 q-145 0 -137 218 q2 73 33 115 q36 49 104 49 q84 0 118 -75 q26 -57 19 -150 ZM626 669 q-194 -292 -450 -688 q-21 -26 -45 -11 q-23 16 -8 47 q104 153 247 370 q173 261 201 313 q8 13 20 15 q12 1 23 -5 q25 -15 12 -41 ZM691 125 q-5 -69 -36 -110 q-36 -48 -101 -48 q-145 0 -137 219 q3 73 33 115 q35 49 104 49 q83 0 117 -76 q26 -59 20 -149 ZM265 551 q-2 49 -20 78 q-19 30 -51 30 q-78 0 -71 -164 q6 -106 71 -106 q78 0 71 162 ZM625 186 q-2 49 -20 78 q-19 30 -51 30 q-78 0 -71 -164 q3 -54 22 -81 q18 -26 49 -26 q48 0 64 64 q10 38 7 99 Z" /><glyph glyph-name="" unicode="&amp;" d="M763 -20 q-64 -17 -118 5 q-48 19 -107 79 q-9 10 -18 2 q-48 -42 -84 -61 q-22 -12 -44 -20 q-134 -50 -231 16 q-76 52 -86 142 q-12 103 74 183 q34 32 84 66 q9 6 4 12 q-134 142 -46 255 q47 55 119 58 q72 3 120 -48 q40 -47 40 -102 q0 -48 -30 -88 q-30 -41 -92 -85 q-7 -5 1 -13 q67 -72 173 -192 q5 -5 7 -5 q1 0 5 5 q74 98 112 229 q5 17 18 22 q15 6 31 0 q30 -12 23 -48 q-42 -139 -134 -256 q-7 -8 0 -15 q93 -98 165 -63 q22 7 37 -5 q14 -13 14 -33 q1 -27 -37 -40 ZM384 517 q30 56 -4 106 q-23 26 -66 28 q-43 1 -69 -35 q-28 -45 -10 -93 q13 -36 57 -82 q5 -5 12 0 q63 46 80 76 ZM475 136 q-67 82 -181 207 q-9 9 -16 3 q-68 -50 -86 -71 q-57 -69 -44 -133 q14 -63 74 -92 q76 -38 185 20 q45 27 66 49 q6 7 6 10 q0 3 -4 7 Z" /><glyph glyph-name="" unicode="&#39;" d="M178 679 q-2 -111 -9 -164 q-4 -26 -31 -27 q-28 -1 -32 27 q-3 20 -9 164 q0 24 14 35 q15 11 33 8 q31 -4 34 -43 Z" /><glyph glyph-name="" unicode="(" d="M335 -41 q14 -13 14 -29 q0 -15 -9 -27 q-22 -26 -53 -4 q-109 102 -152 250 q-43 147 -19 301 q30 196 169 331 q35 26 57 -1 q19 -25 -8 -54 q-98 -87 -136 -218 q-37 -130 -14 -265 q28 -171 151 -284 Z" /><glyph glyph-name="" unicode=")" d="M124 779 q108 -102 150 -246 q43 -144 21 -293 q-30 -204 -174 -339 q-15 -13 -29 -10 q-15 3 -24 15 q-19 25 6 53 q98 89 136 222 q37 132 14 269 q-29 168 -148 276 q-28 29 -9 53 q21 26 57 0 Z" /><glyph glyph-name="" unicode="*" d="M327 612 q-8 -4 -58 -23 q-8 -3 -10 -6 q-3 -5 10 -10 q26 -8 55 -20 q26 -16 18 -38 q-12 -29 -46 -11 q-22 18 -45 36 q-10 8 -13 6 q-4 -2 -2 -14 q4 -29 8 -58 q-3 -35 -28 -37 q-28 -1 -31 36 q3 31 8 60 q1 15 -1 16 q-2 1 -14 -8 q-22 -19 -48 -38 q-33 -14 -45 13 q-10 22 16 38 q13 6 55 20 q29 10 -1 21 q-27 7 -52 18 q-24 17 -13 38 q12 25 41 12 q23 -18 45 -36 q11 -9 15 -7 q3 2 1 16 q-5 30 -10 60 q0 16 9 24 q10 7 22 7 q27 -2 29 -30 q-1 -11 -9 -61 q-1 -14 2 -16 q3 -2 14 6 q25 18 49 37 q27 12 42 -10 q15 -23 -13 -41 Z" /><glyph glyph-name="" unicode="+" d="M461 287 q-43 1 -133 1 q-8 0 -10 -3 q-2 -3 -2 -10 q0 -107 1 -139 q0 -20 -13 -29 q-13 -9 -29 -6 q-27 3 -30 36 q1 70 1 140 q0 8 -2 10 q-2 2 -11 2 q-93 0 -131 -2 q-19 0 -28 11 q-9 11 -8 25 q0 30 34 33 q29 -1 136 -1 q10 0 10 12 q0 91 -1 129 q0 19 12 27 q11 9 27 8 q30 -1 33 -34 q-1 -28 -1 -130 q0 -12 12 -12 q67 0 133 1 q36 -4 36 -34 q0 -31 -36 -35 Z" /><glyph glyph-name="" unicode="," d="M209 15 q-73 -105 -96 -134 q-21 -19 -42 -6 q-21 13 -11 41 q9 20 81 143 q12 19 29 21 q16 3 30 -7 q29 -21 9 -58 Z" /><glyph glyph-name="" unicode="-" d="M376 361 q21 0 31 -14 q9 -13 7 -30 q-3 -32 -38 -35 q-207 3 -276 0 q-20 0 -30 13 q-10 13 -9 29 q2 33 38 37 q129 -3 277 0 Z" /><glyph glyph-name="" unicode="." d="M190 28 q0 -23 -17 -40 q-17 -16 -38 -17 q-26 0 -41 13 q-16 14 -17 41 q-1 28 19 44 q18 14 39 13 q21 -1 38 -17 q17 -17 17 -37 Z" /><glyph glyph-name="" unicode="/" d="M380 705 l-274 -748 q-7 -17 -19 -22 q-13 -5 -26 0 q-29 10 -19 45 q170 437 273 745 q11 28 38 22 q34 -7 27 -42 Z" /><glyph glyph-name="" unicode="0" d="M523 471 q13 -154 -2 -269 q-16 -115 -75 -177 q-59 -61 -152 -61 q-94 0 -155 64 q-63 66 -74 185 q-11 117 -2 247 q10 123 73 192 q61 67 158 67 q94 0 155 -64 q62 -66 74 -184 ZM444 462 q-8 87 -48 136 q-40 49 -102 49 q-64 0 -104 -51 q-40 -50 -48 -138 q-11 -130 3 -242 q10 -85 49 -132 q40 -48 100 -48 q57 0 96 44 q39 44 50 124 q18 120 4 258 Z" /><glyph glyph-name="" unicode="1" d="M349 11 q0 -21 -14 -31 q-14 -10 -32 -8 q-33 2 -37 38 q5 339 3 572 q-2 32 -14 41 q-13 10 -51 7 q-23 -1 -33 12 q-10 14 -8 31 q3 31 37 37 q20 1 49 1 q94 -2 100 -89 q2 -33 0 -214 q-2 -293 0 -397 Z" /><glyph glyph-name="" unicode="2" d="M462 57 q25 -1 36 -14 q10 -13 8 -29 q-4 -32 -45 -36 q-175 0 -351 0 q-44 1 -54 33 q-10 33 22 72 q33 37 110 118 q114 118 171 187 q61 73 61 141 q0 64 -49 97 q-49 33 -113 17 q-71 -18 -102 -88 q-9 -20 -25 -25 q-16 -5 -31 2 q-31 14 -18 55 q41 85 119 114 q113 38 206 -8 q78 -41 95 -130 q18 -91 -75 -214 q-49 -60 -151 -159 q-87 -85 -127 -131 q-2 -3 3 -6 q4 -2 11 -2 q150 3 299 6 Z" /><glyph glyph-name="" unicode="3" d="M520 195 q-1 -102 -68 -166 q-68 -63 -177 -65 q-148 0 -220 106 q-11 19 -7 35 q5 17 19 26 q27 18 52 -9 q32 -44 68 -63 q37 -19 93 -19 q68 0 114 44 q47 45 46 113 q-1 77 -45 115 q-41 36 -114 34 l-20 0 q-19 1 -29 13 q-9 12 -8 27 q1 30 35 33 l33 0 q53 2 83 36 q30 33 29 86 q0 46 -35 77 q-37 33 -97 29 q-37 -3 -67 -22 q-21 -14 -44 -41 q-26 -25 -51 -4 q-26 21 -6 55 q60 72 167 83 q93 5 152 -46 q57 -50 58 -130 q1 -53 -24 -93 q-27 -44 -76 -62 q67 -21 103 -72 q35 -50 36 -120 Z" /><glyph glyph-name="" unicode="4" d="M519 216 q20 0 30 -13 q9 -13 6 -29 q-4 -25 -38 -29 q-12 -1 -83 -1 l2 -135 q0 -20 -12 -29 q-12 -10 -27 -9 q-33 1 -37 38 q0 75 1 134 q-194 -2 -228 -2 q-63 0 -80 40 q-17 39 20 92 q117 167 299 423 q13 16 29 17 q16 1 29 -10 q27 -21 4 -58 q-138 -181 -295 -397 q-11 -16 -8 -26 q3 -11 21 -12 q39 -2 210 2 q1 107 -1 189 q0 23 14 33 q14 11 30 8 q28 -4 31 -41 q0 -1 -2 -187 q43 1 85 2 Z" /><glyph glyph-name="" unicode="5" d="M464 366 q63 -68 58 -169 q-5 -100 -74 -165 q-83 -72 -196 -66 q-113 6 -181 74 q-16 19 -15 35 q1 17 12 28 q25 21 55 -5 q65 -61 147 -59 q81 3 132 54 q41 45 44 110 q3 67 -39 112 q-38 41 -104 46 q-58 5 -112 -19 q-21 -8 -27 -9 q-35 -6 -53 10 q-20 17 -15 56 q19 157 34 234 q12 75 97 72 q106 0 212 0 q20 -1 30 -14 q9 -14 6 -30 q-3 -25 -35 -29 q-102 0 -204 1 q-20 0 -29 -8 q-9 -7 -11 -24 l-27 -170 q-2 -17 3 -19 q5 -2 23 4 q63 20 135 12 q86 -10 134 -62 Z" /><glyph glyph-name="" unicode="6" d="M481 45 q-60 -73 -168 -80 q-107 -7 -175 55 q-85 78 -80 204 q4 103 66 219 q35 65 102 143 q65 75 122 116 q40 22 62 -9 q20 -28 -9 -52 q-70 -47 -134 -118 q-72 -80 -99 -152 q-3 -8 -1 -10 q2 -2 8 2 q71 46 158 39 q83 -7 135 -57 q62 -57 64 -147 q2 -87 -51 -153 ZM430 98 q31 43 28 100 q-3 58 -41 96 q-43 45 -115 46 q-71 1 -120 -43 q-50 -47 -49 -114 q1 -67 56 -114 q51 -41 124 -34 q75 7 117 63 Z" /><glyph glyph-name="" unicode="7" d="M503 571 q-36 -66 -83 -143 q-77 -130 -114 -204 q-60 -119 -82 -212 q-7 -24 -23 -34 q-16 -9 -33 -5 q-34 9 -26 57 q21 82 80 197 q38 74 109 195 q75 129 93 166 q11 21 6 33 q-5 13 -27 13 q-171 0 -285 -3 q-21 -1 -31 11 q-10 11 -10 26 q0 31 39 38 q155 -1 309 -1 q65 -2 86 -40 q20 -39 -8 -94 Z" /><glyph glyph-name="" unicode="8" d="M541 189 q1 -105 -72 -166 q-69 -58 -176 -58 q-106 -1 -175 58 q-74 63 -73 166 q1 63 39 117 q38 54 98 76 q-44 17 -72 59 q-29 43 -28 96 q1 81 59 132 q59 52 152 52 q94 0 153 -51 q57 -50 58 -130 q1 -51 -27 -95 q-28 -44 -75 -62 q62 -20 100 -73 q38 -53 39 -121 ZM429 538 q-1 52 -41 85 q-38 31 -95 31 q-59 0 -98 -35 q-37 -34 -38 -84 q-1 -55 35 -88 q37 -33 101 -32 q61 1 97 30 q40 32 39 93 ZM465 187 q-1 75 -50 117 q-47 40 -122 40 q-73 0 -122 -44 q-49 -45 -50 -113 q-1 -70 52 -113 q48 -39 120 -39 q74 0 123 42 q50 43 49 110 Z" /><glyph glyph-name="" unicode="9" d="M485 286 q-89 -189 -242 -303 q-22 -15 -41 -11 q-18 5 -27 20 q-15 26 16 51 q70 47 132 118 q68 78 95 152 q3 8 1 10 q-2 2 -9 -4 q-62 -48 -150 -43 q-86 5 -141 57 q-61 57 -63 149 q-2 89 50 154 q59 73 168 80 q107 7 176 -55 q75 -69 78 -179 q2 -89 -43 -196 ZM403 383 q50 45 50 115 q0 71 -53 114 q-50 41 -125 34 q-79 -7 -120 -64 q-31 -43 -28 -99 q3 -58 41 -96 q44 -46 115 -47 q71 -1 120 43 Z" /><glyph glyph-name="" unicode=":" d="M203 332 q0 -23 -16 -39 q-16 -16 -37 -16 q-24 -1 -39 12 q-16 14 -17 40 q-1 27 19 43 q17 14 37 13 q21 -1 37 -17 q16 -16 16 -36 ZM203 26 q0 -23 -16 -39 q-15 -15 -37 -16 q-24 -1 -39 12 q-16 14 -17 40 q-1 27 19 43 q16 13 37 13 q21 -1 37 -17 q16 -16 16 -36 Z" /><glyph glyph-name="" unicode=";" d="M203 358 q0 -23 -16 -39 q-16 -16 -37 -16 q-24 -1 -39 12 q-16 14 -17 40 q-1 27 19 43 q17 14 37 13 q21 -1 37 -17 q16 -16 16 -36 ZM228 34 q-71 -103 -97 -133 q-20 -19 -41 -6 q-21 13 -12 40 q17 37 81 143 q12 19 28 22 q15 3 29 -6 q33 -20 12 -60 Z" /><glyph glyph-name="" unicode="&lt;" d="M462 179 q16 -7 20 -20 q4 -13 -2 -26 q-12 -29 -46 -20 q-89 35 -294 134 l-31 15 q-41 22 -42 57 q0 35 42 56 q162 75 323 150 q39 12 49 -22 q8 -27 -19 -42 q-128 -56 -299 -126 q-17 -7 -16 -15 q1 -9 14 -15 q151 -63 301 -126 Z" /><glyph glyph-name="" unicode="=" d="M456 394 q-260 4 -357 0 q-19 0 -28 11 q-9 11 -9 24 q1 29 36 32 q109 -3 358 0 q39 -4 38 -35 q-1 -28 -38 -32 ZM456 228 q-260 4 -357 0 q-19 0 -28 11 q-9 11 -9 24 q1 29 36 32 q109 -3 358 0 q39 -4 38 -35 q-1 -28 -38 -32 Z" /><glyph glyph-name="" unicode="&gt;" d="M443 372 q41 -19 41 -56 q0 -37 -41 -57 l-46 -22 q-202 -96 -280 -127 q-17 -7 -30 1 q-13 8 -17 22 q-10 28 19 43 q151 63 301 126 q12 5 15 13 q2 9 -17 17 q-171 70 -299 126 q-27 15 -19 42 q11 34 50 22 q265 -124 323 -150 Z" /><glyph glyph-name="" unicode="?" d="M288 314 q-48 -18 -61 -36 q-13 -18 -9 -68 q0 -22 -11 -33 q-12 -11 -28 -11 q-33 -1 -38 41 q-2 80 16 109 q20 32 96 62 q87 37 101 98 q16 83 -58 140 q-67 51 -173 17 q-21 -6 -35 5 q-14 11 -14 28 q-2 25 35 39 q41 13 82 13 q120 2 196 -83 q66 -74 51 -161 q-18 -106 -150 -160 ZM241 24 q0 -23 -17 -40 q-16 -15 -37 -16 q-24 -1 -39 12 q-16 14 -17 41 q-1 27 19 43 q17 14 37 13 q22 -1 38 -17 q16 -16 16 -36 Z" /><glyph glyph-name="" unicode="@" d="M777 488 q21 -68 9 -143 q-11 -74 -48 -117 q-39 -45 -83 -65 q-43 -19 -81 -16 q-62 5 -78 65 q-3 13 -4 14 q-6 -5 -12 -10 q-52 -46 -121 -46 q-99 6 -120 87 q-23 90 42 182 q48 63 124 80 q78 17 127 -28 q12 -13 14 -2 q7 15 22 24 q19 12 39 -3 q21 -15 10 -36 q-27 -54 -52 -127 q-16 -64 -9 -96 q8 -32 29 -37 q46 -8 94 49 q30 36 38 96 q9 62 -10 115 q-32 89 -108 136 q-71 44 -169 44 q-127 -2 -213 -87 q-86 -86 -89 -230 q0 -138 86 -222 q84 -83 215 -81 q76 0 152 39 q18 8 32 1 q14 -8 18 -23 q8 -25 -26 -44 q-87 -41 -176 -41 q-162 0 -266 101 q-107 104 -107 270 q0 164 108 273 q107 108 266 108 q128 0 220 -60 q93 -61 127 -170 ZM517 421 q-8 26 -30 37 q-23 12 -52 9 q-62 -5 -107 -67 q-37 -57 -29 -110 q9 -54 63 -55 q56 -1 93 34 q28 27 41 71 q16 44 21 81 Z" /><glyph glyph-name="" unicode="A" d="M631 31 q9 -25 -1 -40 q-11 -16 -31 -19 q-30 -4 -46 27 q-10 23 -77 217 q-3 11 -14 12 q-137 0 -274 0 q-11 -1 -14 -11 q-34 -108 -69 -216 q-6 -18 -21 -25 q-14 -7 -29 -3 q-34 7 -27 45 q44 141 177 514 l43 122 q12 32 35 46 q23 14 49 11 q47 -6 69 -59 q176 -496 230 -621 ZM444 312 q-49 144 -99 289 q-8 23 -19 23 q-12 0 -21 -25 q-37 -101 -98 -286 q-2 -7 -1 -10 q1 -3 8 -3 q112 0 223 0 q7 0 8 3 q1 3 -1 9 Z" /><glyph glyph-name="" unicode="B" d="M439 384 q-14 -3 -14 -5 q0 -2 13 -3 q8 -1 16 -2 q93 -16 132 -104 q40 -90 -5 -178 q-57 -113 -212 -124 q-66 -3 -130 0 q-69 5 -102 31 q-35 27 -37 83 q-5 259 1 519 q1 55 35 84 q32 28 89 31 q66 4 118 0 q136 -13 183 -78 q49 -68 26 -143 q-27 -89 -113 -111 ZM342 408 q85 9 119 65 q34 56 6 111 q-28 58 -134 62 q-28 2 -93 0 q-32 -3 -47 -16 q-15 -13 -17 -43 q-1 -80 -2 -160 q0 -19 20 -19 q78 -5 148 0 ZM371 338 q-93 5 -178 0 q-20 -1 -20 -22 q0 -191 3 -219 q3 -34 26 -48 q15 -9 45 -11 q46 -4 121 0 q97 11 134 79 q37 69 6 139 q-31 71 -137 82 Z" /><glyph glyph-name="" unicode="C" d="M715 89 q-53 -67 -139 -99 q-87 -32 -183 -25 q-139 10 -235 110 q-103 122 -95 277 q8 165 123 276 q109 92 253 91 q145 -2 238 -99 q17 -21 14 -40 q-3 -19 -18 -30 q-29 -21 -60 11 q-70 80 -178 82 q-109 2 -188 -66 q-94 -89 -102 -218 q-8 -129 81 -234 q41 -44 99 -64 q57 -19 118 -16 q127 7 199 96 q15 19 33 19 q18 1 32 -11 q29 -24 8 -60 Z" /><glyph glyph-name="" unicode="D" d="M733 343 q0 -170 -86 -266 q-88 -99 -261 -109 q-69 -6 -139 0 q-67 5 -106 36 q-40 32 -44 88 q-10 262 1 496 q7 118 138 126 q81 3 153 0 q164 -10 256 -115 q88 -100 88 -256 ZM650 343 q0 131 -72 211 q-74 83 -201 86 q-120 0 -129 -1 q-67 -8 -70 -62 q-5 -65 -6 -227 q-1 -174 6 -241 q3 -34 24 -50 q18 -14 54 -17 q67 -4 129 1 q137 9 203 89 q62 75 62 211 Z" /><glyph glyph-name="" unicode="E" d="M500 44 q43 -3 42 -38 q-1 -30 -44 -36 q-131 -3 -260 0 q-136 11 -140 117 q-5 255 1 511 q2 53 33 82 q31 29 90 32 q132 3 256 0 q21 -2 31 -14 q9 -13 7 -27 q-3 -29 -41 -33 q-120 0 -240 0 q-30 -3 -44 -16 q-14 -13 -16 -39 q0 -78 -1 -155 q-1 -12 5 -16 q3 -2 14 -3 q73 -4 235 0 q24 0 34 -14 q10 -13 7 -31 q-4 -30 -42 -32 q-123 5 -235 1 q-20 -1 -20 -18 q0 -186 3 -213 q5 -56 71 -58 q125 -5 254 0 Z" /><glyph glyph-name="" unicode="F" d="M473 712 q37 -7 38 -36 q1 -34 -42 -38 q-102 2 -232 0 q-58 -4 -61 -56 q-1 -81 -2 -161 q-1 -9 4 -13 q4 -3 12 -4 q106 -2 226 1 q20 0 30 -11 q10 -11 10 -26 q0 -37 -42 -40 q-112 4 -225 0 q-16 0 -16 -15 q1 -152 1 -304 q-2 -20 -16 -29 q-15 -9 -32 -6 q-28 3 -31 36 q2 293 4 587 q1 52 34 82 q32 30 89 33 q129 3 251 0 Z" /><glyph glyph-name="" unicode="G" d="M739 194 q-35 -120 -129 -178 q-93 -57 -206 -53 q-144 6 -246 113 q-106 125 -95 284 q10 160 123 269 q119 99 276 89 q132 -9 215 -99 q17 -22 12 -42 q-4 -19 -21 -29 q-28 -17 -56 14 q-67 80 -174 82 q-112 2 -191 -66 q-93 -89 -103 -219 q-9 -129 80 -234 q55 -58 141 -74 q86 -16 165 16 q93 36 125 144 q7 31 -5 47 q-11 15 -33 15 q-63 0 -147 -3 q-18 0 -28 12 q-10 12 -10 28 q-1 34 39 39 q47 1 175 -2 q66 0 90 -44 q22 -41 3 -109 Z" /><glyph glyph-name="" unicode="H" d="M676 8 q0 -20 -15 -29 q-14 -9 -32 -7 q-32 3 -35 36 q0 144 0 289 q-1 13 -5 18 q-4 4 -13 4 q-194 3 -381 0 q-9 0 -14 -3 q-6 -4 -7 -16 q-4 -169 0 -292 q0 -20 -14 -29 q-14 -9 -32 -7 q-32 3 -35 36 q6 415 0 664 q0 20 13 30 q13 9 29 9 q36 -1 39 -39 q-3 -117 0 -257 q1 -20 17 -20 q177 -5 388 0 q9 0 12 5 q2 3 3 14 q0 129 0 258 q0 21 13 31 q14 9 31 8 q34 -2 38 -39 q-7 -300 0 -664 Z" /><glyph glyph-name="" unicode="I" d="M185 12 q0 -22 -15 -32 q-15 -9 -34 -7 q-33 3 -36 39 q8 431 0 659 q0 23 16 32 q16 10 35 7 q31 -4 34 -37 q-5 -259 0 -661 Z" /><glyph glyph-name="" unicode="J" d="M335 674 q-5 -290 -1 -520 q-2 -116 -83 -160 q-83 -45 -197 -15 q-22 7 -31 23 q-8 16 -3 33 q8 35 58 24 q74 -24 123 1 q52 26 53 99 q4 281 -2 513 q0 21 15 31 q14 10 32 8 q33 -3 36 -37 Z" /><glyph glyph-name="" unicode="K" d="M626 49 q16 -18 12 -38 q-4 -19 -20 -31 q-28 -21 -60 8 q-133 140 -292 311 q-15 16 -40 18 q-11 2 -32 0 q-17 0 -17 -16 q-4 -170 0 -293 q0 -20 -14 -29 q-15 -9 -33 -7 q-32 3 -35 36 q6 415 0 664 q0 22 15 31 q15 10 34 7 q31 -4 33 -38 q-3 -118 0 -260 q0 -16 16 -18 q19 -2 28 0 q21 2 44 27 q177 187 244 274 q13 15 28 16 q16 1 30 -8 q32 -23 10 -58 q-49 -58 -120 -131 q-71 -73 -133 -137 q-19 -16 -1 -31 q55 -56 173 -170 q106 -103 130 -127 Z" /><glyph glyph-name="" unicode="L" d="M502 54 q21 1 32 -10 q11 -12 11 -27 q1 -33 -44 -40 q-134 -2 -267 0 q-133 6 -135 115 q-1 287 3 576 q0 22 13 32 q12 11 29 10 q37 -1 40 -45 q-9 -302 -4 -555 q2 -30 18 -42 q14 -11 48 -14 q125 -4 256 0 Z" /><glyph glyph-name="" unicode="M" d="M842 12 q0 -23 -15 -33 q-16 -10 -35 -7 q-29 4 -34 36 q-12 195 -24 585 q-1 24 -14 24 q-13 0 -20 -23 q-81 -277 -181 -561 q-21 -46 -67 -48 q-41 -2 -64 48 q-28 77 -84 265 q-56 188 -89 294 q-8 23 -19 22 q-11 -1 -13 -26 q-18 -252 -31 -581 q-1 -19 -15 -28 q-14 -9 -31 -8 q-32 3 -35 36 q5 120 27 439 l12 180 q4 48 33 69 q29 21 65 13 q43 -9 64 -64 q23 -68 72 -235 q81 -264 96 -302 q5 -14 13 -14 q8 -1 14 13 q86 250 174 537 q14 42 44 58 q29 16 60 9 q57 -12 64 -86 q3 -133 33 -612 Z" /><glyph glyph-name="" unicode="N" d="M684 51 q-5 -69 -64 -80 q-51 -10 -88 41 q-61 102 -171 299 q-109 197 -159 284 q-11 18 -21 19 q-11 1 -12 -28 q-1 -228 6 -577 q0 -21 -15 -30 q-15 -9 -33 -7 q-33 3 -36 37 q6 292 0 616 q0 42 17 63 q17 22 43 26 q56 6 94 -49 q22 -35 130 -227 q172 -300 200 -344 q8 -12 16 -14 q12 -4 14 21 q0 362 -6 572 q0 21 13 32 q13 10 30 9 q37 -1 41 -41 q-7 -218 1 -622 Z" /><glyph glyph-name="" unicode="O" d="M803 340 q-3 -173 -105 -274 q-103 -101 -265 -103 q-163 2 -265 103 q-103 101 -106 274 q0 164 106 272 q105 107 265 107 q162 -3 265 -107 q102 -104 105 -272 ZM720 340 q0 136 -84 223 q-81 84 -203 84 q-123 0 -204 -84 q-84 -87 -84 -223 q3 -139 84 -221 q81 -81 204 -83 q122 0 203 83 q84 86 84 221 Z" /><glyph glyph-name="" unicode="P" d="M351 277 q-93 -10 -160 6 q-9 1 -12 -1 q-3 -2 -3 -12 q2 -129 3 -257 q-1 -23 -15 -33 q-15 -9 -32 -7 q-33 3 -36 38 q6 134 4 410 q-2 116 0 178 q1 52 34 82 q33 30 91 33 q61 3 112 0 q132 -14 183 -99 q65 -113 3 -230 q-49 -89 -172 -108 ZM337 349 q88 13 121 82 q32 68 1 135 q-30 67 -131 76 q-45 0 -90 0 q-57 -6 -61 -59 q-3 -91 -1 -207 q-1 -17 19 -22 q57 -14 142 -5 Z" /><glyph glyph-name="" unicode="Q" d="M807 341 q0 -145 -81 -246 q-79 -98 -212 -124 q-11 -2 -12 -6 q-1 -4 8 -11 q94 -63 159 -86 q52 -18 115 -19 q22 -1 32 -15 q11 -14 7 -32 q-4 -31 -51 -35 q-77 1 -158 39 q-68 32 -168 105 q-66 50 -143 74 q-108 38 -171 130 q-66 96 -66 226 q0 164 106 271 q106 107 265 107 q160 0 265 -107 q105 -107 105 -271 ZM725 341 q-3 141 -84 223 q-82 82 -204 84 q-123 0 -204 -84 q-84 -87 -84 -223 q0 -135 84 -221 q81 -83 204 -83 q122 0 204 83 q84 85 84 221 Z" /><glyph glyph-name="" unicode="R" d="M630 54 q22 -3 32 -19 q9 -16 5 -34 q-8 -31 -54 -30 q-41 4 -81 37 q-37 31 -65 80 q-72 127 -88 150 q-58 85 -99 86 q-55 3 -86 2 q-19 -1 -19 -19 q2 -148 3 -295 q-1 -21 -16 -31 q-15 -10 -33 -7 q-29 3 -32 36 q2 295 4 591 q1 52 34 81 q32 29 89 32 q67 4 124 0 q135 -14 183 -86 q54 -83 17 -173 q-37 -93 -145 -114 q-19 -3 3 -20 q39 -40 70 -93 q31 -52 59 -99 q42 -69 95 -75 ZM347 392 q82 10 116 66 q34 55 10 113 q-26 64 -134 75 q-51 5 -96 0 q-62 -6 -65 -62 q-1 -88 -2 -175 q-1 -15 19 -17 q70 -5 152 0 Z" /><glyph glyph-name="" unicode="S" d="M461 638 q13 -18 9 -35 q-4 -17 -18 -26 q-26 -17 -54 13 q-46 59 -132 59 q-60 -2 -92 -33 q-32 -32 -30 -75 q2 -58 74 -100 q79 -40 157 -80 q105 -61 127 -144 q22 -82 -23 -152 q-60 -94 -199 -102 q-160 0 -234 104 q-15 23 -9 40 q6 20 24 28 q27 11 48 -17 q47 -78 170 -80 q72 4 111 42 q39 39 36 92 q-2 69 -87 121 q-62 35 -157 82 q-86 45 -108 119 q-21 75 19 140 q47 80 173 85 q61 0 113 -21 q53 -21 82 -60 Z" /><glyph glyph-name="" unicode="T" d="M570 632 q-98 4 -193 0 q-8 0 -12 -3 q-4 -3 -4 -12 q-6 -237 2 -607 q0 -21 -14 -31 q-15 -10 -33 -8 q-35 2 -39 39 q6 423 1 607 q0 8 -2 11 q-2 3 -11 4 q-75 3 -195 0 q-22 1 -32 13 q-11 12 -9 28 q2 31 41 34 q282 -5 500 0 q19 0 29 -12 q9 -12 8 -27 q0 -33 -37 -36 Z" /><glyph glyph-name="" unicode="U" d="M675 672 q-4 -170 -1 -400 q2 -104 -46 -180 q-65 -104 -193 -125 q-122 -20 -218 49 q-117 84 -115 251 q2 271 -1 405 q0 20 14 30 q13 9 30 8 q34 -2 37 -38 q-1 -204 0 -407 q-1 -52 15 -95 q35 -94 129 -121 q91 -26 170 25 q97 62 97 194 q2 202 0 404 q0 22 15 32 q15 9 33 6 q31 -4 34 -38 Z" /><glyph glyph-name="" unicode="V" d="M610 659 q-125 -383 -211 -630 q-12 -32 -33 -47 q-22 -14 -47 -12 q-50 3 -75 62 q-117 330 -204 626 q-6 27 8 41 q14 14 34 13 q28 -1 39 -32 q80 -277 181 -589 q6 -18 15 -21 q14 -5 25 24 q86 266 187 590 q7 20 22 26 q15 6 31 1 q36 -11 28 -52 Z" /><glyph glyph-name="" unicode="W" d="M910 667 q-32 -164 -141 -610 q-12 -46 -42 -69 q-30 -22 -64 -16 q-52 7 -76 89 q-61 285 -102 538 q-2 12 -6 18 q-4 5 -9 5 q-11 -2 -15 -25 q-39 -243 -108 -535 q-14 -50 -42 -72 q-28 -23 -60 -19 q-61 6 -83 89 q-14 66 -28 132 q-80 360 -98 474 q-2 25 13 36 q16 11 37 8 q27 -3 34 -30 q60 -323 114 -588 q7 -33 23 -31 q16 2 23 31 q44 196 112 550 q9 41 37 57 q27 17 58 10 q48 -10 63 -64 l105 -551 q5 -24 14 -29 q18 -7 29 28 q62 260 130 587 q5 20 19 27 q15 7 31 4 q35 -7 32 -44 Z" /><glyph glyph-name="" unicode="X" d="M675 43 q14 -19 8 -37 q-5 -18 -22 -28 q-28 -17 -54 10 q-38 50 -242 309 q-6 7 -10 7 q-4 0 -10 -8 q-213 -271 -240 -307 q-13 -16 -30 -17 q-17 0 -30 10 q-31 24 -8 60 q216 263 260 319 q8 9 0 18 q-121 156 -213 263 q-14 18 -9 35 q5 18 21 28 q28 18 53 -9 q64 -85 196 -253 q10 -13 20 0 q139 177 194 252 q13 17 30 16 q18 -1 31 -13 q27 -23 6 -56 q-72 -86 -211 -261 q-9 -10 0 -21 q147 -181 260 -317 Z" /><glyph glyph-name="" unicode="Y" d="M623 644 q-100 -157 -228 -343 q-9 -12 -11 -18 q-2 -6 -2 -21 q1 -124 1 -248 q-1 -23 -16 -34 q-15 -11 -33 -8 q-34 3 -38 42 l0 248 q0 13 -3 20 q-2 5 -10 17 l-229 345 q-14 22 -6 40 q8 18 26 25 q29 11 51 -21 q48 -83 201 -311 q7 -11 13 -10 q5 0 13 11 q115 163 198 311 q11 18 27 21 q17 2 32 -8 q31 -20 14 -58 Z" /><glyph glyph-name="" unicode="Z" d="M549 57 q24 0 35 -14 q11 -14 8 -31 q-4 -31 -44 -35 q-215 -1 -431 -1 q-57 1 -73 44 q-17 44 25 100 q210 261 377 479 q11 16 11 23 q-1 11 -22 12 q-38 1 -328 -5 q-20 0 -29 14 q-9 13 -7 30 q3 31 36 34 q140 -5 366 0 q62 1 79 -44 q17 -44 -26 -92 q-77 -89 -199 -244 q-121 -155 -188 -238 q-13 -16 -9 -27 q4 -10 25 -11 q276 0 394 6 Z" /><glyph glyph-name="" unicode="[" d="M365 787 q18 -1 27 -12 q8 -11 7 -25 q-2 -32 -38 -34 q-61 3 -94 3 q-61 -2 -64 -73 q-6 -162 0 -611 q1 -71 63 -73 q69 0 95 3 q20 2 29 -10 q9 -12 8 -28 q-1 -29 -34 -33 q-75 -2 -108 -1 q-55 2 -88 39 q-33 37 -34 98 q-4 274 1 620 q1 61 32 98 q32 38 89 40 q20 1 109 -1 Z" /><glyph glyph-name="" unicode="\" d="M379 -20 q7 -19 -1 -31 q-8 -12 -23 -16 q-26 -6 -40 24 l-274 748 q-7 35 27 42 q27 6 38 -22 q18 -63 120 -340 q97 -263 153 -405 Z" /><glyph glyph-name="" unicode="]" d="M327 30 q-1 -61 -34 -98 q-33 -37 -89 -39 q-32 -1 -108 1 q-18 1 -26 12 q-9 12 -8 26 q2 33 38 33 q26 -3 95 -3 q61 2 62 73 q6 449 0 611 q-3 71 -63 73 q-34 0 -94 -3 q-20 0 -30 11 q-10 12 -9 28 q1 28 34 32 q90 2 110 1 q57 -2 89 -40 q31 -37 32 -98 q4 -416 1 -620 Z" /><glyph glyph-name="" unicode="_" d="M501 -33 q-250 0 -501 0 q-20 1 -28 13 q-9 13 -6 28 q3 27 34 30 q251 0 501 0 q19 -1 27 -12 q9 -11 9 -25 q-1 -30 -36 -34 Z" /><glyph glyph-name="" unicode="`" d="M314 576 q11 -26 -11 -41 q-22 -15 -41 7 q-43 50 -98 130 q-14 23 -6 42 q8 19 26 26 q28 11 51 -21 q57 -97 79 -143 Z" /><glyph glyph-name="" unicode="a" d="M477 42 q12 -8 13 -22 q1 -13 -6 -26 q-17 -28 -53 -10 q-35 20 -45 53 q-1 4 -4 4 q-2 0 -4 -3 q-23 -35 -68 -55 q-42 -19 -89 -19 q-88 3 -131 55 q-44 51 -32 113 q12 67 100 100 q83 27 180 42 q16 3 16 14 q9 100 -88 102 q-79 -2 -114 -45 q-27 -24 -50 -4 q-23 19 2 53 q21 23 60 39 q48 20 104 20 q176 0 159 -190 q-8 -93 -4 -131 q4 -42 20 -63 q9 -12 34 -27 ZM355 200 q0 14 -12 13 q-83 -12 -157 -35 q-40 -14 -55 -40 q-14 -25 -5 -52 q17 -51 94 -56 q140 1 135 170 Z" /><glyph glyph-name="" unicode="b" d="M564 209 q0 -109 -66 -176 q-65 -66 -166 -66 q-92 0 -151 65 q-8 9 -10 9 q-1 -1 -1 -11 q0 -14 0 -27 q-3 -17 -14 -25 q-12 -8 -25 -7 q-30 1 -34 40 q1 133 2 351 q2 218 -2 309 q0 22 12 33 q13 10 29 8 q30 -2 33 -38 q-2 -128 -2 -288 q-1 -8 1 -9 q2 -1 8 6 q58 68 154 68 q100 0 166 -68 q66 -68 66 -174 ZM491 209 q0 79 -47 129 q-46 49 -114 49 q-68 0 -114 -49 q-47 -50 -47 -129 q0 -79 47 -128 q45 -47 114 -47 q69 0 114 47 q47 49 47 128 Z" /><glyph glyph-name="" unicode="c" d="M473 43 q-64 -77 -177 -79 q-108 -3 -182 72 q-68 76 -61 185 q7 108 80 174 q79 66 172 59 q97 -8 145 -64 q13 -17 10 -33 q-2 -15 -15 -25 q-25 -19 -52 9 q-39 45 -102 46 q-62 1 -107 -38 q-55 -50 -59 -130 q-5 -81 47 -138 q50 -50 123 -48 q73 3 115 54 q28 30 55 9 q27 -20 8 -53 Z" /><glyph glyph-name="" unicode="d" d="M550 32 q9 -18 3 -33 q-7 -16 -23 -23 q-28 -11 -48 19 q-12 26 -18 53 q-2 11 -3 12 q-2 1 -7 -7 q-66 -86 -170 -87 q-101 0 -166 66 q-67 68 -67 177 q0 105 67 174 q66 68 166 68 q94 0 153 -67 q6 -9 9 -9 q2 1 1 14 q0 201 -2 285 q0 21 13 31 q14 10 30 7 q30 -3 32 -40 q-4 -80 -2 -506 q1 -74 32 -134 ZM447 209 q0 79 -47 129 q-45 48 -114 48 q-70 0 -115 -48 q-46 -49 -46 -129 q0 -79 46 -128 q44 -47 115 -47 q69 0 114 47 q47 49 47 128 Z" /><glyph glyph-name="" unicode="e" d="M476 44 q-75 -80 -193 -80 q-99 0 -164 67 q-66 68 -66 175 q0 109 68 179 q66 68 160 68 q72 0 124 -35 q49 -33 70 -88 q19 -48 1 -81 q-19 -36 -72 -38 q-133 0 -266 0 q-7 0 -9 -4 q-2 -4 -2 -14 q0 -74 46 -119 q44 -43 111 -43 q82 0 140 64 q26 23 50 1 q24 -21 2 -52 ZM406 317 q-13 31 -40 50 q-34 24 -85 24 q-50 0 -91 -30 q-41 -30 -53 -74 q-3 -8 0 -12 q2 -3 8 -3 q98 -5 236 0 q21 1 27 14 q5 12 -2 31 Z" /><glyph glyph-name="" unicode="f" d="M314 711 q19 -2 27 -13 q9 -11 7 -24 q-3 -29 -39 -31 q-48 3 -77 -29 q-28 -30 -30 -81 q1 -41 1 -81 q1 -6 3 -8 q2 -2 10 -2 l95 0 q17 -1 25 -12 q8 -11 7 -25 q-2 -28 -32 -32 l-96 0 q-8 0 -10 -2 q-2 -2 -2 -12 q3 -291 2 -349 q-5 -39 -38 -39 q-33 0 -37 39 q2 87 0 349 q0 9 -2 11 q-3 3 -12 3 l-55 0 q-17 1 -25 13 q-8 11 -6 26 q3 27 31 30 l55 0 q9 0 11 1 q4 2 4 11 q0 43 -1 86 q2 85 62 134 q55 45 122 37 Z" /><glyph glyph-name="" unicode="g" d="M528 -148 q-20 -80 -111 -117 q-83 -34 -190 -22 q-70 8 -121 43 q-54 37 -60 88 q-6 46 21 83 q24 32 69 51 q5 2 7 3 q2 1 2 2 q-2 1 -13 4 q-55 18 -58 69 q1 57 67 91 q11 6 10 8 q-1 2 -12 8 q-63 42 -67 124 q0 77 58 123 q53 42 130 41 q71 -2 120 -28 q15 -9 27 -1 q47 33 102 23 q15 -3 22 -15 q6 -12 4 -26 q-3 -29 -39 -26 q-34 7 -52 -11 q-8 -8 -4 -18 q10 -26 11 -53 q3 -72 -45 -117 q-50 -47 -140 -50 q-40 -2 -74 -15 q-40 -16 -46 -42 q-7 -28 33 -36 q15 -3 91 -4 q95 0 129 -6 q71 -13 107 -57 q39 -48 22 -117 ZM383 293 q-1 44 -34 71 q-34 28 -88 27 q-50 0 -84 -27 q-37 -30 -36 -78 q4 -95 121 -99 q46 1 80 24 q42 29 41 82 ZM455 -137 q10 37 -8 65 q-21 32 -72 39 q-52 8 -126 4 q-46 -3 -85 -28 q-48 -31 -49 -76 q-1 -32 30 -57 q32 -26 83 -33 q69 -9 130 7 q81 21 97 79 Z" /><glyph glyph-name="" unicode="h" d="M487 8 q-1 -21 -14 -30 q-12 -9 -27 -8 q-30 4 -34 36 q4 158 0 272 q-4 60 -42 89 q-34 26 -83 19 q-47 -6 -82 -39 q-38 -35 -40 -82 q-4 -87 -1 -259 q0 -20 -13 -29 q-13 -9 -29 -6 q-30 3 -32 36 q6 361 2 672 q1 18 15 26 q13 9 30 6 q27 -3 30 -33 q0 -140 -1 -280 q-1 -4 1 -5 q1 -1 4 3 q44 46 112 57 q68 10 127 -23 q68 -37 76 -139 q4 -188 1 -283 Z" /><glyph glyph-name="" unicode="i" d="M191 664 q-6 -52 -53 -56 q-25 -1 -41 13 q-16 14 -17 41 q-1 27 20 43 q17 14 37 13 q22 -1 38 -17 q16 -16 16 -37 ZM175 8 q0 -21 -15 -31 q-14 -9 -31 -6 q-29 3 -32 36 q2 236 0 407 q0 21 15 30 q15 8 33 5 q28 -4 30 -34 q-6 -155 0 -407 Z" /><glyph glyph-name="" unicode="j" d="M197 663 q-6 -52 -53 -56 q-24 -1 -40 13 q-17 15 -18 41 q-1 27 20 43 q17 14 37 13 q22 -1 38 -17 q16 -16 16 -37 ZM183 -52 q-2 -94 -58 -157 q-51 -58 -125 -68 q-21 -2 -32 11 q-10 12 -9 29 q2 23 28 29 q51 8 85 53 q35 46 37 112 q1 74 -1 122 q-3 275 -2 331 q1 20 13 29 q12 9 27 8 q32 -2 36 -37 q-2 -112 0 -335 q1 -64 1 -127 Z" /><glyph glyph-name="" unicode="k" d="M475 41 q28 -34 2 -58 q-25 -25 -57 0 q-95 93 -213 215 q-10 11 -27 11 q-7 -1 -10 -3 q-3 -3 -4 -10 q-3 -48 -1 -190 q0 -19 -12 -28 q-13 -8 -28 -7 q-31 2 -34 35 q8 378 3 674 q0 17 14 26 q13 8 30 6 q29 -2 32 -33 q-3 -128 -3 -386 q0 -15 15 -15 q10 0 21 7 q65 45 208 154 q17 12 31 8 q15 -5 24 -18 q18 -27 -7 -50 q-128 -88 -188 -127 q-9 -6 -9 -10 q0 -5 8 -12 q22 -22 110 -101 q78 -70 95 -88 Z" /><glyph glyph-name="" unicode="l" d="M172 13 q0 -22 -14 -32 q-14 -10 -31 -7 q-29 3 -32 39 q3 374 0 659 q0 21 12 31 q12 10 28 9 q34 -1 37 -39 q-4 -267 0 -660 Z" /><glyph glyph-name="" unicode="m" d="M738 9 q-5 -41 -37 -40 q-31 1 -35 38 q3 217 0 281 q-7 72 -50 90 q-44 19 -94 -4 q-68 -31 -77 -105 q-2 -104 1 -262 q0 -19 -11 -28 q-12 -10 -27 -9 q-29 1 -32 37 q3 217 0 281 q-3 57 -37 83 q-31 23 -73 14 q-43 -8 -74 -40 q-33 -34 -35 -79 q-3 -72 1 -259 q-4 -41 -38 -38 q-30 2 -34 39 q6 234 2 407 q-1 16 12 26 q11 9 25 9 q15 -1 24 -9 q10 -9 11 -26 l0 -19 q0 -9 4 -3 q33 38 81 53 q47 14 93 2 q64 -16 91 -83 q43 63 105 81 q63 18 117 -8 q77 -34 85 -141 q3 -135 2 -288 Z" /><glyph glyph-name="" unicode="n" d="M487 9 q-1 -21 -14 -30 q-12 -9 -27 -8 q-30 4 -34 36 q4 159 0 274 q-4 60 -42 87 q-35 24 -83 15 q-47 -9 -82 -43 q-38 -37 -40 -83 q-4 -86 -1 -250 q0 -19 -12 -28 q-12 -8 -27 -7 q-32 1 -35 36 q6 238 2 408 q-1 16 12 25 q11 8 26 8 q15 0 25 -8 q11 -9 11 -26 q1 -15 0 -29 q0 -6 5 -1 q45 52 108 64 q63 13 119 -14 q79 -35 88 -143 q4 -188 1 -283 Z" /><glyph glyph-name="" unicode="o" d="M527 208 q0 -108 -68 -176 q-67 -67 -170 -67 q-103 0 -170 67 q-68 68 -68 176 q0 106 68 175 q68 69 170 69 q102 0 170 -69 q68 -69 68 -175 ZM455 208 q0 79 -49 130 q-47 49 -117 49 q-70 0 -117 -49 q-49 -51 -49 -130 q0 -79 49 -129 q47 -48 117 -48 q70 0 117 48 q49 50 49 129 Z" /><glyph glyph-name="" unicode="p" d="M561 207 q0 -107 -66 -175 q-65 -67 -166 -67 q-89 0 -152 67 q-7 9 -8 9 q-3 0 -2 -12 q1 -140 1 -279 q-1 -20 -14 -30 q-14 -9 -30 -6 q-28 4 -31 41 q6 327 0 648 q0 23 14 33 q13 10 29 8 q27 -4 32 -34 q0 -13 -1 -26 q0 -7 1 -8 q2 -1 7 6 q58 68 154 68 q101 0 166 -67 q66 -68 66 -176 ZM488 207 q0 80 -46 129 q-45 48 -115 48 q-69 0 -114 -48 q-47 -50 -47 -129 q0 -79 47 -128 q46 -48 114 -48 q69 0 114 48 q47 50 47 128 Z" /><glyph glyph-name="" unicode="q" d="M520 -244 q0 -21 -12 -31 q-12 -10 -27 -9 q-31 1 -35 37 q4 138 4 285 q1 6 1 12 q-1 2 -6 -6 q-65 -79 -161 -79 q-100 0 -166 67 q-67 68 -67 175 q0 107 67 176 q65 67 166 67 q94 -2 151 -66 q6 -8 9 -8 q2 1 2 12 q0 12 -1 25 q2 17 15 25 q12 9 27 7 q30 -2 32 -38 q0 -122 -1 -243 q0 -340 2 -408 ZM447 207 q0 79 -47 128 q-46 48 -114 48 q-72 0 -116 -47 q-45 -48 -45 -129 q0 -80 46 -129 q44 -47 115 -47 q69 0 114 48 q47 50 47 128 Z" /><glyph glyph-name="" unicode="r" d="M308 381 q-53 -2 -95 -34 q-47 -36 -48 -87 q-3 -69 0 -253 q0 -19 -12 -28 q-12 -8 -27 -7 q-33 1 -36 36 q6 240 2 409 q-1 16 12 25 q12 9 27 8 q15 0 25 -8 q11 -9 11 -25 q0 -18 -1 -28 q0 -10 5 -1 q51 59 136 65 q22 0 32 -11 q10 -12 8 -28 q-2 -28 -39 -33 Z" /><glyph glyph-name="" unicode="s" d="M340 404 q13 -15 10 -31 q-2 -15 -15 -24 q-23 -17 -51 10 q-29 31 -78 31 q-60 -4 -69 -44 q-10 -40 42 -70 q52 -24 103 -47 q66 -36 84 -86 q18 -49 -3 -94 q-36 -78 -148 -85 q-106 -2 -159 64 q-25 38 3 57 q27 19 53 -8 q34 -48 102 -45 q76 6 86 57 q9 44 -51 80 q-41 21 -100 47 q-60 29 -77 76 q-18 47 4 91 q30 66 130 71 q91 0 134 -50 Z" /><glyph glyph-name="" unicode="t" d="M291 -32 q-69 -12 -116 15 q-57 33 -59 118 q1 131 2 262 q0 8 -3 11 q-2 2 -9 2 l-49 0 q-19 1 -27 13 q-8 12 -6 26 q3 24 33 27 l48 0 q9 0 11 2 q2 2 2 10 q3 27 1 100 q0 19 12 28 q11 9 26 8 q30 -2 35 -37 q0 -32 -2 -98 q0 -9 3 -11 q3 -2 12 -2 l81 0 q18 -1 27 -12 q8 -11 6 -25 q-2 -26 -33 -29 l-80 0 q-11 0 -14 -3 q-2 -2 -2 -11 q-2 -112 -2 -253 q1 -51 31 -68 q22 -12 67 -7 q19 2 28 -10 q9 -11 7 -26 q-3 -22 -30 -30 Z" /><glyph glyph-name="" unicode="u" d="M503 32 q13 -22 6 -38 q-7 -16 -23 -21 q-28 -10 -49 20 q-13 25 -17 44 q-1 4 -2 5 q-1 1 -4 -2 q-44 -56 -113 -71 q-70 -15 -130 16 q-75 36 -83 142 q-4 188 -1 283 q1 22 14 31 q14 9 30 6 q27 -4 30 -35 q-4 -159 0 -276 q9 -80 61 -99 q52 -20 107 8 q67 34 75 111 q3 85 -1 256 q0 19 12 28 q12 8 27 7 q32 -1 36 -36 q-4 -174 -4 -240 q0 -92 29 -139 Z" /><glyph glyph-name="" unicode="v" d="M446 398 q-59 -171 -148 -383 q-18 -42 -57 -44 q-41 -2 -59 44 q-88 220 -148 382 q-6 22 4 35 q9 13 26 14 q27 4 40 -26 q62 -170 123 -339 q12 -38 25 -1 q62 170 123 341 q6 16 19 22 q13 5 26 1 q33 -9 26 -46 Z" /><glyph glyph-name="" unicode="w" d="M676 407 q-37 -166 -107 -377 q-10 -30 -31 -45 q-20 -16 -43 -14 q-42 1 -61 61 q-58 226 -75 329 q-4 17 -10 14 q-5 -1 -8 -14 q-25 -136 -76 -328 q-10 -34 -32 -49 q-21 -16 -45 -14 q-44 5 -62 63 l-38 153 q-37 144 -55 221 q-3 18 8 29 q12 10 28 10 q27 1 36 -25 q45 -188 81 -367 q4 -19 11 -18 q7 1 11 18 q41 171 81 342 q7 31 30 43 q22 11 46 5 q36 -8 46 -45 q39 -160 80 -344 q3 -19 10 -17 q7 2 10 16 q73 264 93 366 q4 16 16 22 q12 6 25 4 q33 -5 31 -39 Z" /><glyph glyph-name="" unicode="x" d="M447 32 q12 -15 8 -29 q-3 -15 -16 -24 q-25 -19 -50 6 q-110 137 -141 174 q-4 5 -6 5 q-2 0 -6 -5 q-58 -70 -141 -175 q-26 -25 -52 -5 q-27 19 -5 52 q77 89 153 179 q7 9 1 15 q-77 93 -130 155 q-12 15 -8 29 q4 14 17 23 q24 17 47 -6 q67 -87 119 -150 q5 -7 11 -1 q32 40 117 150 q11 14 26 13 q14 0 26 -10 q23 -21 4 -49 q-79 -94 -128 -155 q-6 -6 1 -13 q77 -90 153 -179 Z" /><glyph glyph-name="" unicode="y" d="M462 392 q-99 -237 -198 -474 q-45 -108 -90 -153 q-50 -50 -128 -51 q-20 0 -29 14 q-9 14 -6 30 q3 27 36 31 q54 1 89 41 q28 32 69 126 q6 13 -2 36 q-87 207 -165 401 q-7 21 3 34 q9 14 25 17 q28 5 42 -23 q79 -217 131 -338 q6 -14 10 -14 q3 0 9 13 q51 111 132 337 q7 18 21 23 q15 6 29 1 q33 -11 22 -51 Z" /><glyph glyph-name="" unicode="z" d="M387 43 q41 -3 38 -35 q-2 -28 -39 -32 q-147 0 -295 0 q-42 1 -57 32 q-14 31 21 75 q106 112 245 269 q12 14 10 21 q-2 7 -15 7 l-208 -3 q-18 0 -26 11 q-8 11 -6 25 q2 27 32 29 q82 -3 256 0 q49 -2 59 -35 q10 -33 -23 -70 q-127 -137 -254 -273 q-7 -8 -6 -16 q2 -9 18 -8 q193 0 250 3 Z" /><glyph glyph-name="" unicode="{" d="M289 -40 q18 -2 25 -13 q8 -11 6 -25 q-5 -30 -42 -30 q-60 9 -92 34 q-32 24 -44 63 q-19 81 2 209 q7 90 -48 102 q-15 3 -24 16 q-7 11 -7 26 q1 36 32 40 q30 3 42 29 q11 24 6 65 q-20 146 3 215 q29 88 133 98 q21 1 31 -10 q10 -12 9 -27 q-2 -26 -34 -32 q-62 -4 -78 -67 q-14 -52 2 -169 q15 -109 -53 -141 q-6 -3 -6 -5 q-1 -3 6 -6 q66 -34 54 -139 q-5 -38 -11 -86 q-5 -47 7 -87 q13 -52 81 -60 Z" /><glyph glyph-name="" unicode="|" d="M199 -32 q-1 -18 -11 -27 q-11 -8 -25 -8 q-30 1 -33 34 q4 415 0 768 q0 18 13 27 q12 8 28 6 q26 -3 28 -31 q-4 -159 0 -769 Z" /><glyph glyph-name="" unicode="}" d="M283 300 q-54 -12 -47 -102 q9 -68 11 -123 q2 -56 -14 -97 q-23 -69 -132 -86 q-21 -2 -31 10 q-11 12 -10 28 q1 25 31 30 q46 4 65 30 q20 25 23 62 q1 76 -11 141 q-14 104 54 139 q5 2 6 4 q1 3 -7 7 q-67 32 -52 141 q16 117 2 169 q-16 63 -78 67 q-18 2 -27 13 q-8 11 -7 25 q2 30 40 31 q104 -10 133 -98 q23 -69 3 -215 q-6 -41 5 -65 q12 -26 42 -29 q19 -3 27 -17 q8 -14 6 -31 q-4 -26 -32 -34 Z" /><glyph glyph-name="" unicode="~" d="M563 334 q-112 -100 -230 -40 q-21 11 -42 23 q-51 25 -89 16 q-30 -7 -80 -46 q-30 -18 -50 3 q-20 22 5 50 q116 105 233 49 q20 -11 40 -21 q51 -24 84 -20 q35 4 85 42 q31 18 51 -5 q19 -23 -7 -51 Z" /><glyph glyph-name="" unicode="·&#x2022;" d="M557 352 q0 -23 -17 -40 q-17 -16 -38 -17 q-26 0 -41 13 q-16 14 -17 41 q-1 28 19 44 q18 14 39 13 q21 -1 38 -17 q17 -17 17 -37 Z" /><glyph glyph-name="" unicode="&#x2014;" d="M1010 385 l0 -71 q-509 0 -1019 0 l0 71 l1019 0 Z" /><glyph glyph-name="" unicode="&#x201c;" d="M840 639 q-10 -18 -26 -22 q-16 -3 -30 4 q-32 16 -12 60 q42 75 87 141 q19 19 40 8 q22 -11 13 -38 q-41 -96 -72 -153 ZM678 638 q-11 -17 -28 -21 q-16 -3 -30 5 q-31 17 -10 58 q62 96 100 143 q19 19 41 8 q21 -12 12 -39 q-37 -77 -85 -154 Z" /><glyph glyph-name="" unicode="&#x201d;" d="M302 628 q-19 -19 -41 -8 q-21 12 -12 39 q37 77 85 154 q11 17 28 20 q16 3 30 -4 q31 -17 10 -58 q-62 -96 -100 -143 ZM153 629 q-18 -19 -40 -8 q-21 11 -13 38 q41 96 72 153 q11 18 27 21 q17 4 31 -4 q30 -17 10 -59 q-42 -75 -87 -141 Z" /><glyph glyph-name="" unicode="&#x2161;" d="M701 12 q0 -22 -15 -32 q-15 -9 -33 -7 q-33 3 -36 39 q8 408 0 659 q0 23 16 32 q16 10 35 7 q30 -4 33 -37 q-5 -259 0 -661 ZM383 12 q0 -22 -15 -32 q-15 -9 -33 -7 q-33 3 -36 39 q8 408 0 659 q0 23 16 32 q16 10 35 7 q30 -4 33 -37 q-6 -306 0 -661 Z" /><glyph glyph-name="" unicode="&#x2162;" d="M792 12 q-1 -22 -15 -32 q-15 -9 -33 -7 q-32 3 -35 39 q8 408 0 659 q0 23 16 33 q15 9 34 6 q30 -4 33 -37 q-6 -306 0 -661 ZM541 12 q0 -22 -15 -32 q-14 -9 -32 -7 q-32 3 -35 39 q8 408 0 659 q0 23 16 33 q15 9 34 6 q29 -4 32 -37 q-5 -259 0 -661 ZM291 12 q0 -22 -15 -32 q-14 -9 -32 -7 q-32 3 -35 39 q6 451 0 659 q0 23 16 33 q15 9 34 6 q29 -4 32 -37 q-5 -259 0 -661 Z" /><glyph glyph-name="" unicode="&#x2605;" d="M757 -82 l-238 173 q-19 13 -38 0 l-238 -173 q-21 -15 -31 -8 q-10 7 -2 32 l92 285 q6 18 -9 28 l-243 177 q-21 14 -17 27 q4 12 30 12 l301 0 q16 0 22 16 l93 286 q8 24 21 24 q13 0 21 -24 l93 -286 q6 -16 22 -16 l301 0 q26 0 30 -12 q4 -13 -17 -27 l-243 -177 q-15 -10 -9 -28 l92 -285 q8 -25 -2 -32 q-10 -7 -31 8 Z" /><glyph glyph-name="" unicode="&#x2606;" d="M757 -82 l-238 173 q-19 13 -38 0 l-238 -173 q-21 -15 -31 -8 q-10 7 -2 32 l92 285 q6 18 -9 28 l-243 177 q-21 14 -17 27 q4 12 30 12 l301 0 q16 0 21 16 l94 286 q8 24 21 24 q13 0 21 -24 l94 -286 q5 -16 21 -16 l301 0 q26 0 30 -12 q4 -13 -17 -27 l-243 -177 q-15 -10 -9 -28 l92 -285 q8 -25 -2 -32 q-10 -7 -31 8 ZM520 141 l193 -141 q8 -6 12 -4 q4 2 1 11 l-77 234 q-5 16 8 31 l209 150 q7 4 5 8 q-2 4 -11 4 l-253 -4 q-18 1 -25 17 l-76 243 q-1 5 -6 5 q-5 0 -6 -5 l-76 -243 q-6 -16 -25 -17 l-253 4 q-9 0 -11 -4 q-2 -4 5 -8 l209 -150 q13 -15 8 -31 l-77 -234 q-3 -9 1 -11 q4 -2 12 4 l193 141 q20 15 40 0 Z" /><glyph glyph-name="" unicode="&#x3001;" d="M293 -32 q-21 31 -61 64 q-37 30 -76 50 q-29 19 -16 44 q13 25 52 11 q45 -21 90 -54 q48 -35 68 -64 q13 -22 8 -38 q-5 -17 -19 -25 q-25 -13 -46 12 Z" /><glyph glyph-name="" unicode="&#x3002;" d="M366 67 q0 -47 -34 -81 q-34 -34 -81 -34 q-47 0 -81 34 q-34 34 -34 81 q0 48 34 82 q34 34 81 34 q47 0 81 -34 q34 -34 34 -82 ZM330 68 q0 32 -23 55 q-23 23 -56 23 q-33 0 -56 -23 q-23 -23 -23 -55 q0 -34 23 -57 q23 -23 56 -23 q33 0 56 23 q23 23 23 57 Z" /><glyph glyph-name="" unicode="&#x3057;" d="M808 70 q-102 -81 -214 -108 q-112 -27 -194 11 q-90 40 -98 169 q-2 78 3 149 q5 71 9 150 q11 176 9 229 q0 22 14 31 q13 9 30 7 q32 -4 35 -36 q-3 -72 -15 -227 q-6 -80 -12 -154 q-5 -74 -3 -148 q9 -108 110 -119 q119 -13 276 108 q19 15 35 12 q16 -3 25 -17 q18 -28 -10 -57 Z" /><glyph glyph-name="" unicode="&#x3068;" d="M693 524 q22 11 38 5 q16 -7 21 -23 q8 -28 -29 -51 q-198 -102 -286 -178 q-82 -71 -87 -135 q-5 -59 59 -92 q53 -27 150 -21 q83 5 143 29 q30 10 45 -2 q15 -13 13 -34 q-2 -27 -38 -40 q-80 -24 -172 -26 q-110 -2 -176 32 q-93 50 -93 145 q0 95 119 198 l38 30 q-48 144 -126 250 q-15 19 -11 34 q3 16 17 23 q30 16 55 -12 q74 -107 124 -252 q77 54 196 120 Z" /><glyph glyph-name="" unicode="&#x306e;" d="M564 -16 q-29 -6 -45 5 q-16 12 -15 29 q1 24 37 35 q63 14 118 46 q59 35 85 78 q56 90 38 182 q-18 92 -100 144 q-64 41 -147 43 q18 -13 15 -37 q-13 -107 -70 -229 q-59 -127 -130 -194 q-48 -46 -101 -28 q-50 17 -83 81 q-46 87 -8 203 q38 116 136 185 q94 67 213 74 q120 7 213 -49 q112 -71 133 -185 q21 -115 -45 -223 q-33 -53 -103 -98 q-68 -44 -141 -62 ZM477 516 q2 18 9 27 q-89 -12 -159 -66 q-72 -57 -104 -148 q-32 -93 3 -156 q17 -31 38 -40 q24 -11 47 10 q58 53 109 168 q49 113 57 205 Z" /><glyph glyph-name="" unicode="&#x4e00;" d="M113 379 l774 0 q20 -1 29 -12 q9 -11 8 -26 q-1 -31 -37 -35 l-774 0 q-38 4 -39 35 q-2 33 39 38 Z" /><glyph glyph-name="" unicode="&#x4e01;" d="M550 629 l1 -577 q2 -74 -52 -107 q-67 -42 -211 -16 q-19 4 -27 17 q-8 13 -5 27 q5 32 41 28 q91 -17 132 -6 q49 13 49 67 l0 567 l-361 -1 q-17 1 -24 12 q-8 11 -6 25 q2 25 30 28 l769 0 q16 -1 23 -12 q7 -12 5 -26 q-2 -24 -28 -27 l-336 1 Z" /><glyph glyph-name="" unicode="&#x4e07;" d="M496 628 q-4 -86 -20 -174 q102 0 204 1 q51 -1 79 -28 q29 -28 28 -77 q-2 -151 -32 -249 q-67 -218 -333 -139 q-15 5 -20 17 q-6 12 -3 25 q7 35 47 26 q90 -31 146 -15 q64 18 93 101 q29 79 31 226 q0 26 -16 39 q-15 12 -40 12 q-98 0 -197 0 q-78 -328 -338 -462 q-20 -10 -35 -4 q-15 7 -22 22 q-11 26 19 46 q320 160 339 633 l-306 -3 q-16 1 -25 10 q-8 10 -8 22 q0 29 33 33 l758 0 q17 -1 25 -12 q8 -11 6 -25 q-2 -25 -31 -28 l-382 3 Z" /><glyph glyph-name="" unicode="&#x4e09;" d="M228 373 l536 0 q17 -1 25 -13 q8 -12 5 -27 q-3 -23 -30 -25 l-536 0 q-16 1 -25 10 q-8 10 -8 22 q0 29 33 33 ZM175 669 l642 0 q17 -1 24 -13 q8 -13 5 -27 q-3 -23 -29 -26 l-642 0 q-17 1 -25 11 q-8 10 -8 23 q1 28 33 32 ZM115 50 l769 0 q17 -1 24 -13 q8 -12 6 -27 q-2 -25 -30 -28 l-769 0 q-18 1 -26 12 q-8 12 -6 26 q2 27 32 30 Z" /><glyph glyph-name="" unicode="&#x4e0a;" d="M515 20 l381 1 q16 -1 22 -12 q7 -11 6 -24 q-3 -25 -28 -28 l-788 0 q-17 1 -24 13 q-8 12 -5 26 q3 23 29 25 l335 -1 l0 705 q1 18 12 26 q12 8 27 7 q29 -2 33 -33 l0 -279 l295 1 q16 -1 24 -12 q7 -11 5 -25 q-2 -25 -29 -28 l-295 0 l0 -362 Z" /><glyph glyph-name="" unicode="&#x4e0b;" d="M518 429 l1 -481 q-1 -18 -13 -26 q-13 -9 -28 -7 q-28 2 -32 33 l1 688 l-330 -1 q-17 1 -25 12 q-7 12 -4 26 q3 23 29 26 l772 0 q15 -1 22 -12 q7 -11 6 -24 q-2 -25 -28 -28 l-371 1 l0 -148 q13 3 26 -1 q135 -48 257 -135 q16 -14 17 -30 q1 -16 -9 -28 q-20 -25 -54 -3 q-108 85 -237 138 Z" /><glyph glyph-name="" unicode="&#x4e0d;" d="M844 208 q-86 116 -221 198 q-28 21 -11 43 q17 22 49 9 q59 -33 129 -88 q78 -61 115 -111 q22 -38 -6 -61 q-26 -22 -55 10 ZM564 637 q-37 -67 -67 -112 q14 1 25 -7 q12 -9 12 -23 l1 -546 q-1 -17 -13 -24 q-13 -8 -28 -6 q-27 3 -30 30 l1 529 q-153 -213 -336 -321 q-20 -11 -36 -4 q-17 6 -23 21 q-10 24 18 43 q124 68 231 183 q101 108 171 238 l-354 -3 q-16 0 -24 10 q-8 10 -7 22 q1 26 31 30 l728 0 q17 -1 24 -11 q8 -11 6 -24 q-2 -24 -30 -27 l-300 2 Z" /><glyph glyph-name="" unicode="&#x4e0e;" d="M122 247 l467 -1 q16 -1 23 -11 q8 -11 6 -25 q-2 -23 -29 -27 l-466 0 q-17 1 -25 11 q-8 10 -7 22 q2 27 31 31 ZM431 641 l386 1 q18 -1 26 -13 q8 -12 5 -26 q-3 -22 -31 -24 l-397 0 q-12 -63 -25 -125 q-3 -15 12 -15 q43 -1 321 -1 q55 0 83 -28 q26 -26 23 -74 q-7 -97 -15 -144 q-16 -92 -49 -146 q-62 -102 -172 -121 q-90 -16 -202 23 q-17 6 -21 20 q-5 14 0 28 q11 32 50 20 q88 -38 162 -24 q80 15 123 88 q30 50 42 125 q6 37 11 122 q3 52 -48 52 q-126 -1 -335 1 q-36 0 -51 19 q-15 19 -7 51 q36 155 54 290 q3 16 14 22 q12 6 26 4 q30 -5 30 -35 q-7 -48 -15 -90 Z" /><glyph glyph-name="" unicode="&#x4e13;" d="M571 31 q74 -40 111 -64 q15 -10 15 -26 q0 -15 -12 -27 q-21 -21 -48 -2 q-169 112 -350 181 q-29 12 -18 37 q13 28 40 18 q91 -32 200 -86 q2 1 3 3 q102 70 179 164 q9 12 6 21 q-3 10 -22 11 q-161 3 -331 -4 q-40 -1 -53 21 q-12 22 5 54 q24 47 49 100 l-240 0 q-14 0 -22 9 q-8 9 -8 21 q0 23 30 27 l265 0 q26 59 46 117 l-194 0 q-31 4 -31 29 q0 24 31 28 l215 0 q15 44 30 90 q6 17 19 23 q12 5 26 1 q14 -3 23 -14 q10 -12 5 -27 q-4 -14 -25 -73 l264 0 q29 -3 30 -29 q0 -26 -30 -28 l-284 0 q-25 -66 -47 -117 l453 0 q14 0 22 -9 q7 -8 7 -20 q0 -28 -29 -28 l-478 0 q-25 -53 -49 -100 q-5 -9 -1 -13 q4 -4 13 -4 q173 4 310 2 q59 -1 75 -39 q15 -37 -20 -81 q-65 -82 -180 -166 Z" /><glyph glyph-name="" unicode="&#x4e16;" d="M746 486 l164 1 q32 -4 32 -31 q1 -27 -32 -31 l-164 1 q-1 -85 -2 -170 q-2 -83 -92 -89 q-56 -3 -105 0 q-47 3 -69 25 q-21 22 -22 64 q0 85 -1 170 l-158 0 q0 -292 1 -323 q3 -73 82 -75 q173 -11 452 3 q16 0 24 -11 q7 -10 5 -24 q-2 -25 -31 -29 q-246 -12 -458 -1 q-141 6 -144 130 q-2 82 0 330 l-136 -1 q-17 0 -25 10 q-7 9 -7 21 q2 27 32 31 l137 -1 q1 101 1 202 q1 17 14 24 q13 8 29 5 q25 -3 27 -28 q-1 -102 -2 -203 l157 0 q1 116 1 233 q1 15 13 22 q12 7 26 5 q24 -3 26 -27 q-1 -49 -1 -226 l0 -7 l161 0 q-1 83 -1 223 q1 16 12 23 q12 8 26 5 q24 -3 27 -28 q1 -112 1 -223 ZM681 426 l-161 0 q0 -120 1 -155 q0 -44 42 -48 q34 -3 72 0 q46 5 44 48 q2 66 2 155 Z" /><glyph glyph-name="" unicode="&#x4e1a;" d="M294 257 q6 -32 -16 -42 q-14 -7 -26 -2 q-15 6 -19 23 q-46 192 -109 331 q-12 23 13 38 q10 6 22 4 q13 -2 19 -14 q62 -131 116 -338 ZM884 572 q-39 -197 -110 -339 q-18 -29 -44 -19 q-30 11 -13 46 q72 143 108 329 q3 12 15 17 q11 5 22 1 q25 -6 22 -35 ZM645 1 l270 0 q13 0 21 -9 q8 -9 8 -24 q0 -31 -29 -31 l-822 0 q-14 0 -22 9 q-8 9 -8 22 q0 14 7 23 q8 10 23 10 l269 0 l0 745 q0 14 11 22 q10 8 24 8 q13 0 23 -8 q10 -8 10 -22 l0 -745 l147 0 l0 745 q0 15 10 23 q9 7 24 7 q14 0 24 -8 q10 -8 10 -22 l0 -745 Z" /><glyph glyph-name="" unicode="&#x4e1c;" d="M352 205 q19 -18 1 -46 q-96 -111 -231 -180 q-31 -16 -50 4 q-9 12 -8 25 q2 14 18 22 q123 62 225 176 q8 9 23 8 q13 -1 22 -9 ZM925 31 q21 -27 -1 -49 q-10 -10 -23 -10 q-15 0 -26 14 q-79 99 -192 173 q-23 20 -6 41 q20 21 49 4 q119 -70 199 -173 ZM555 298 l0 -242 q0 -81 -23 -111 q-25 -33 -94 -33 q-45 0 -80 8 q-15 3 -23 14 q-8 10 -7 22 q2 31 37 28 q27 -6 69 -8 q32 -1 43 13 q10 12 10 46 l0 263 q-122 0 -262 3 q-33 1 -46 25 q-13 24 4 49 q68 101 123 212 l-198 0 q-15 0 -23 10 q-7 9 -7 22 q0 12 7 20 q8 9 23 9 l227 0 q20 42 47 109 q5 14 21 19 q14 4 26 -1 q28 -10 18 -42 q-18 -43 -37 -85 l476 0 q13 0 22 -10 q8 -9 8 -21 q0 -13 -7 -21 q-8 -9 -23 -9 l-506 0 q-56 -113 -121 -209 q-5 -7 -2 -13 q3 -5 12 -5 q116 -3 218 -3 l0 139 q4 33 33 33 q15 0 24 -7 q11 -8 11 -26 l0 -139 q119 0 257 3 q29 -4 30 -28 q1 -14 -6 -22 q-7 -9 -23 -9 q-136 -3 -258 -3 Z" /><glyph glyph-name="" unicode="&#x4e1d;" d="M944 -32 q0 -31 -29 -31 l-822 0 q-14 0 -22 9 q-8 9 -8 21 q0 14 7 23 q8 10 23 10 l822 0 q13 0 21 -9 q8 -9 8 -23 ZM744 454 q53 84 80 139 q6 13 21 17 q13 3 25 -3 q25 -12 14 -43 q-106 -198 -251 -361 q-4 -4 -2 -8 q2 -4 8 -4 q113 9 211 28 q26 2 31 -24 q2 -23 -21 -31 q-116 -24 -294 -38 q-27 -2 -37 18 q-9 19 6 36 q81 89 171 218 q-80 -13 -155 -17 q-29 -2 -39 16 q-10 18 6 40 q108 153 170 307 q11 29 41 22 q14 -2 21 -13 q8 -11 2 -27 q-61 -146 -152 -273 q-3 -5 -1 -9 q2 -4 7 -3 q58 2 138 13 ZM362 454 q54 87 78 139 q6 14 20 17 q13 3 26 -3 q26 -11 14 -44 q-103 -195 -246 -362 q-4 -4 -2 -9 q1 -4 7 -3 q106 13 201 33 q26 2 31 -25 q2 -22 -20 -30 q-117 -26 -288 -44 q-28 -3 -37 18 q-8 19 8 37 q86 95 170 219 q-81 -11 -159 -16 q-28 -2 -39 16 q-11 19 5 40 q110 150 171 307 q11 29 43 22 q13 -2 20 -13 q8 -12 1 -27 q-64 -152 -150 -273 q-4 -5 -1 -9 q2 -3 8 -3 q57 3 139 13 Z" /><glyph glyph-name="" unicode="&#x4e22;" d="M757 -23 q-230 -35 -511 -51 q-45 -3 -54 17 q-10 20 12 40 q107 109 202 271 l-311 0 q-13 0 -22 10 q-8 9 -8 20 q0 24 30 28 l370 0 l0 150 l-234 0 q-14 0 -22 9 q-8 9 -8 22 q1 23 30 27 l234 0 l0 142 q-133 -11 -289 -13 q-29 3 -31 28 q-1 12 6 20 q8 10 23 10 q334 0 625 60 q29 4 33 -21 q8 -28 -23 -35 q-122 -26 -271 -42 l0 -149 l235 0 q29 -3 30 -29 q0 -13 -7 -21 q-7 -8 -23 -8 l-235 0 l0 -150 l375 0 q12 0 21 -9 q8 -8 8 -20 q0 -29 -29 -29 l-431 0 q-2 -8 -5 -13 q-70 -128 -174 -245 q-4 -6 -3 -8 q2 -3 9 -2 q228 13 407 37 q-62 63 -116 101 q-25 17 -10 38 q20 24 50 9 q51 -29 118 -93 q65 -62 102 -116 q20 -32 -9 -52 q-13 -10 -27 -8 q-15 2 -25 19 q-20 29 -42 56 Z" /><glyph glyph-name="" unicode="&#x4e24;" d="M646 681 l0 -138 q56 -1 112 -2 q107 -2 111 -99 q8 -211 2 -409 q-3 -104 -104 -118 q-63 -9 -147 8 q-31 10 -26 39 q7 28 33 21 q79 -15 132 -9 q22 5 33 19 q11 14 12 44 q6 201 -1 389 q-2 61 -68 59 q-45 0 -90 1 q-2 -66 -7 -115 q8 -2 11 -4 q76 -50 124 -121 q19 -33 -7 -51 q-23 -16 -41 8 q-35 61 -95 109 q-28 -161 -121 -248 q-23 -23 -45 -2 q-23 23 4 50 q67 64 92 167 q18 74 20 207 q-78 2 -157 0 q-3 -63 -13 -117 l2 -1 q56 -40 95 -106 q14 -27 -7 -44 q-12 -10 -24 -8 q-13 2 -20 17 q-24 46 -59 83 q-40 -152 -132 -239 q-26 -20 -46 -1 q-22 20 4 50 q122 126 135 366 q-43 -1 -87 -1 q-34 -1 -50 -13 q-17 -13 -18 -44 q-4 -353 -1 -488 q0 -14 -11 -23 q-10 -8 -23 -8 q-12 0 -22 8 q-11 9 -11 23 q-4 225 1 507 q1 47 34 71 q31 22 84 23 q53 1 105 2 l0 4 l0 134 l-260 0 q-14 0 -22 9 q-7 8 -7 21 q0 11 7 19 q8 9 22 9 l806 0 q30 -3 31 -29 q0 -29 -31 -29 l-259 0 ZM580 543 l0 138 l-155 0 l0 -128 l0 -10 l155 0 Z" /><glyph glyph-name="" unicode="&#x4e2a;" d="M463 -51 l0 516 q1 19 13 27 q13 8 28 6 q27 -3 30 -33 l0 -516 q-1 -18 -14 -26 q-13 -8 -29 -5 q-25 3 -28 31 ZM915 427 q17 -11 19 -26 q2 -14 -7 -27 q-22 -30 -60 -11 q-125 83 -325 306 q-44 48 -82 0 q-67 -86 -156 -178 q-97 -100 -168 -151 q-22 -15 -39 -11 q-18 4 -26 17 q-16 26 15 49 q81 49 178 149 q75 77 147 172 q31 41 80 43 q51 2 92 -43 q94 -100 154 -154 q89 -81 178 -135 Z" /><glyph glyph-name="" unicode="&#x4e2d;" d="M532 595 q123 0 237 -3 q45 -1 74 -27 q29 -26 32 -64 q5 -83 0 -173 q-2 -43 -31 -69 q-30 -28 -82 -30 q-115 -4 -230 -6 l1 -285 q-1 -16 -14 -23 q-13 -7 -28 -5 q-25 4 -28 28 l1 285 q-116 1 -230 6 q-51 2 -81 29 q-29 26 -31 69 q-5 88 0 166 q2 41 30 68 q30 30 80 31 q111 3 232 3 l-1 158 q1 18 14 25 q13 7 28 4 q25 -4 28 -29 l-1 -158 ZM532 286 q106 0 214 5 q31 1 47 16 q15 16 16 41 q2 83 0 125 q-4 56 -64 57 q-90 3 -213 3 l0 -247 ZM464 286 l0 247 q-123 0 -212 -3 q-59 -7 -64 -58 q-4 -61 0 -124 q2 -29 17 -42 q15 -14 48 -15 q103 -5 211 -5 Z" /><glyph glyph-name="" unicode="&#x4e34;" d="M168 684 l0 -647 q0 -15 -9 -23 q-9 -8 -23 -8 q-29 0 -31 31 l0 647 q1 29 31 30 q13 0 22 -8 q10 -9 10 -22 ZM340 747 l0 -807 q0 -12 -9 -20 q-9 -8 -23 -8 q-34 0 -34 28 l0 807 q0 14 10 22 q9 7 24 7 q15 0 23 -7 q9 -8 9 -22 ZM895 29 q-3 -81 -94 -87 q-121 -8 -265 0 q-91 4 -96 85 q-6 121 0 242 q2 38 29 60 q26 21 65 23 q136 5 268 0 q39 -1 64 -22 q28 -23 29 -61 q6 -120 0 -240 ZM767 403 q-10 -10 -23 -11 q-16 -1 -27 12 q-44 53 -101 85 q-20 16 -5 39 q14 20 42 10 q64 -32 113 -85 q21 -28 1 -50 ZM698 -4 q7 0 76 3 q55 3 56 47 q6 115 0 202 q-3 45 -54 47 q-39 1 -78 2 l0 -301 ZM637 -4 l0 301 q-29 0 -79 -2 q-50 -2 -53 -47 q-5 -103 0 -205 q3 -41 54 -44 q38 -3 78 -3 ZM574 648 l339 0 q29 -2 29 -28 q0 -13 -7 -21 q-7 -8 -22 -8 l-366 0 q-52 -101 -107 -160 q-23 -25 -51 -6 q-24 17 -4 43 q108 122 157 290 q12 27 44 16 q26 -10 19 -36 q-10 -35 -31 -90 Z" /><glyph glyph-name="" unicode="&#x4e39;" d="M427 552 q-25 16 -11 36 q13 19 39 13 q78 -32 134 -91 q19 -29 1 -48 q-20 -22 -46 0 q-56 59 -117 90 ZM753 374 l156 1 q17 -1 25 -11 q7 -11 5 -23 q-2 -23 -30 -26 l-156 1 q0 -114 1 -160 l2 -110 q2 -67 -44 -99 q-59 -41 -190 -20 q-17 3 -24 15 q-7 11 -5 24 q4 30 36 29 q76 -13 110 -5 q47 11 47 63 q1 131 1 263 l-349 0 q-10 -124 -52 -214 q-50 -108 -154 -185 q-33 -18 -53 8 q-18 23 8 46 q90 62 136 156 q38 78 49 189 l-172 -1 q-17 1 -25 11 q-7 11 -5 23 q2 23 30 26 l175 -1 q1 140 -5 275 q0 44 31 69 q30 24 82 26 q155 4 265 0 q103 -5 105 -95 q0 -138 0 -275 ZM687 374 l0 5 q0 153 -3 260 q-1 44 -52 46 q-49 3 -236 0 q-56 -2 -56 -47 q3 -130 2 -264 l345 0 Z" /><glyph glyph-name="" unicode="&#x4e3a;" d="M707 209 q12 -30 -8 -46 q-12 -10 -27 -8 q-15 2 -24 17 q-44 65 -109 122 q-19 17 0 36 q19 19 41 5 q74 -52 127 -126 ZM314 583 q-25 -13 -42 11 q-27 42 -76 80 q-20 17 -1 36 q18 18 40 5 q69 -40 95 -85 q13 -31 -16 -47 ZM498 540 q140 0 273 -3 q52 -1 82 -25 q33 -26 34 -76 q7 -213 -27 -358 q-32 -137 -169 -148 q-92 -7 -177 14 q-15 4 -22 18 q-7 14 -2 30 q8 27 42 20 q62 -15 143 -13 q90 -3 116 101 q31 122 27 325 q-1 24 -16 37 q-14 12 -40 13 q-116 4 -265 4 l-6 0 q-24 -166 -120 -317 q-96 -150 -237 -243 q-33 -16 -53 8 q-19 25 11 49 q271 186 328 502 q-133 0 -293 -5 q-13 0 -22 10 q-8 9 -8 23 q0 11 8 20 q9 10 22 10 q196 4 300 4 q1 14 1 42 l0 168 q0 12 12 21 q11 8 24 8 q14 0 24 -8 q11 -9 11 -23 l0 -166 q0 -28 -1 -42 Z" /><glyph glyph-name="" unicode="&#x4e3b;" d="M395 763 q42 -8 101 -33 q66 -28 94 -54 q25 -29 6 -54 q-20 -24 -51 -3 q-71 61 -172 85 q-28 10 -22 34 q7 27 44 25 ZM535 12 l354 1 q16 -1 24 -11 q8 -11 6 -24 q-2 -24 -31 -27 l-777 0 q-17 0 -25 10 q-7 9 -7 21 q2 27 32 31 l356 -1 l0 237 l-237 -1 q-16 0 -24 9 q-8 9 -7 21 q0 26 31 30 l237 -1 l0 188 l-295 -1 q-33 3 -31 31 q1 26 30 29 l654 0 q17 -1 25 -11 q7 -11 5 -24 q-2 -23 -30 -25 l-290 1 l0 -188 l231 1 q16 0 24 -10 q8 -9 8 -20 q0 -27 -32 -30 l-231 1 l0 -237 Z" /><glyph glyph-name="" unicode="&#x4e3d;" d="M461 4 q-1 -45 -22 -66 q-18 -18 -54 -22 q-43 -4 -71 2 q-24 7 -23 33 q1 13 8 20 q7 7 16 6 q25 -5 49 -3 q31 3 32 41 q6 197 -1 486 q-1 19 -6 27 q-6 9 -22 10 q-63 4 -127 0 q-28 -1 -28 -36 q-6 -292 -2 -562 q0 -15 -9 -23 q-8 -7 -22 -7 q-33 0 -33 30 q-3 225 2 575 q2 76 68 79 q87 5 173 0 q68 -3 70 -79 q6 -266 2 -511 ZM368 279 q11 -24 -8 -43 q-10 -10 -22 -8 q-13 2 -21 18 q-21 42 -71 96 q-14 15 2 33 q14 16 35 2 q55 -38 85 -98 ZM860 4 q-1 -84 -75 -89 q-40 -2 -72 4 q-25 5 -23 33 q6 28 23 27 q32 -4 52 -4 q29 2 30 40 q5 255 -1 486 q-1 19 -6 27 q-6 9 -22 10 q-50 4 -127 0 q-28 -1 -28 -36 q-6 -295 -2 -562 q0 -15 -9 -23 q-8 -7 -21 -7 q-34 0 -34 30 q-3 264 2 575 q1 38 16 57 q17 21 52 22 q87 5 173 0 q37 -1 54 -23 q15 -19 16 -56 q5 -273 2 -511 ZM767 283 q12 -26 -7 -43 q-11 -10 -22 -9 q-12 2 -21 19 q-22 45 -71 96 q-14 16 1 33 q13 14 36 2 q56 -39 84 -98 ZM945 713 q0 -29 -30 -29 l-823 0 q-14 0 -22 8 q-8 8 -8 21 q0 28 30 28 l823 0 q29 -2 30 -28 Z" /><glyph glyph-name="" unicode="&#x4e45;" d="M586 411 q45 -135 135 -247 q92 -114 198 -163 q16 -8 20 -21 q3 -14 -4 -27 q-15 -32 -56 -18 q-102 49 -190 159 q-88 111 -138 243 q-74 -143 -184 -248 q-116 -111 -256 -165 q-20 -7 -34 2 q-15 10 -18 26 q-6 25 24 38 q179 66 307 221 q120 145 168 329 q8 28 1 40 q-7 12 -31 13 q-81 2 -133 1 q-84 -178 -205 -300 q-33 -28 -56 -6 q-23 22 0 50 q177 163 246 408 q5 17 18 22 q13 5 26 0 q30 -10 24 -42 q-16 -47 -29 -76 q84 2 130 2 q107 -1 76 -128 q-13 -48 -39 -113 Z" /><glyph glyph-name="" unicode="&#x4e48;" d="M525 702 q-66 -106 -160 -215 q-98 -113 -196 -194 q-25 -20 -49 -5 q-13 10 -14 26 q-1 18 14 30 q207 173 347 400 q24 31 53 7 q23 -22 5 -49 ZM801 29 q-241 -46 -599 -77 q-34 -2 -44 25 q-10 27 17 49 q38 29 74 63 q117 112 222 232 q129 147 208 273 q12 18 30 22 q16 3 29 -6 q24 -17 9 -50 q-83 -130 -228 -289 q-132 -145 -243 -237 q-5 -4 -3 -10 q2 -5 8 -4 q220 15 481 63 q-57 74 -125 142 q-21 27 -1 48 q20 19 48 0 q57 -51 124 -134 q71 -88 102 -151 q16 -42 -9 -58 q-13 -8 -27 -4 q-16 4 -24 22 q-26 48 -49 81 Z" /><glyph glyph-name="" unicode="&#x4e49;" d="M565 601 q10 -35 -17 -49 q-13 -7 -25 -3 q-13 4 -20 22 q-33 86 -90 160 q-16 22 7 38 q24 17 43 -3 q66 -73 102 -165 ZM552 197 q148 -136 368 -214 q33 -15 23 -47 q-11 -31 -52 -21 q-225 84 -388 235 q-160 -148 -388 -235 q-41 -10 -52 21 q-9 32 23 47 q214 74 368 215 q-179 193 -231 454 q-3 17 6 27 q9 11 25 13 q16 2 26 -4 q11 -7 14 -22 q43 -242 209 -420 q163 176 209 420 q3 15 15 22 q10 6 26 4 q33 -5 30 -40 q-54 -264 -231 -455 Z" /><glyph glyph-name="" unicode="&#x4e4b;" d="M533 601 q85 -1 170 -1 q61 0 84 -36 q23 -36 -10 -84 q-53 -85 -169 -193 q-126 -118 -255 -193 q53 -48 126 -67 q87 -20 199 -14 q62 3 203 22 q20 1 29 -12 q10 -14 7 -30 q-3 -22 -33 -29 q-278 -39 -426 3 q-126 36 -199 155 q-48 -94 -108 -159 q-14 -15 -30 -14 q-16 0 -28 11 q-23 21 3 49 q40 35 81 96 q40 60 51 98 q10 24 34 18 q26 -5 24 -32 q0 -3 -1 -6 q12 -24 24 -40 q118 66 236 175 q111 103 159 185 q11 21 1 30 q-8 7 -27 7 q-132 2 -481 -2 q-17 0 -25 12 q-8 11 -5 25 q3 23 29 26 q134 0 267 0 l-1 133 q1 18 13 26 q12 8 27 6 q29 -2 32 -32 l-1 -133 Z" /><glyph glyph-name="" unicode="&#x4e4c;" d="M712 136 q0 -27 -30 -27 l-565 0 q-29 3 -30 27 q0 12 7 20 q8 9 23 9 l565 0 q15 0 23 -9 q7 -8 7 -20 ZM463 684 q106 1 236 -2 q46 -1 65 -17 q20 -17 17 -52 q-7 -69 -20 -112 q-11 -45 -44 -63 q-27 -15 -78 -15 q-84 2 -149 12 q-15 2 -23 13 q-7 9 -5 22 q5 27 38 21 q84 -12 141 -11 q23 0 34 6 q14 8 20 28 q12 37 16 86 q2 23 -26 25 q-172 7 -366 2 q-41 -1 -41 -41 q-5 -107 0 -216 q1 -34 40 -34 q235 3 466 0 q59 -1 84 -26 q26 -26 20 -85 q-12 -107 -40 -203 q-16 -59 -63 -84 q-45 -24 -133 -26 q-206 -2 -352 17 q-15 2 -22 14 q-6 10 -3 21 q6 26 38 22 q177 -20 334 -17 q64 2 95 19 q31 18 43 61 q26 97 34 182 q3 28 -7 39 q-9 10 -35 11 q-232 5 -465 0 q-53 -1 -76 17 q-26 20 -28 69 q-4 144 1 235 q1 36 27 58 q25 21 64 22 q47 1 93 2 q18 29 36 77 q11 24 41 12 q29 -10 20 -39 q-10 -25 -27 -50 Z" /><glyph glyph-name="" unicode="&#x4e4f;" d="M531 494 q88 -1 175 -1 q61 -1 75 -41 q12 -36 -18 -75 q-55 -71 -155 -149 q-109 -85 -240 -153 q50 -41 114 -55 q86 -20 201 -14 q77 4 200 23 q20 2 31 -10 q11 -12 9 -28 q-2 -24 -35 -31 q-272 -39 -425 2 q-121 31 -200 151 q-46 -80 -110 -152 q-13 -14 -29 -14 q-15 1 -26 11 q-23 21 2 48 q95 91 135 185 q11 20 33 14 q24 -6 21 -32 l-1 -2 q14 -25 34 -50 q124 63 224 141 q99 79 142 142 q10 13 7 22 q-3 9 -18 9 q-121 1 -451 -2 q-16 0 -23 10 q-8 10 -7 23 q2 24 29 28 l239 0 l-1 126 q0 9 4 16 q-166 -18 -278 -16 q-19 1 -27 12 q-9 11 -7 24 q2 24 33 27 q276 -4 558 61 q20 4 30 -5 q11 -10 12 -25 q2 -24 -20 -32 q-88 -22 -245 -40 q9 -8 9 -22 l-1 -126 Z" /><glyph glyph-name="" unicode="&#x4e50;" d="M350 219 q22 -20 2 -45 q-92 -113 -231 -187 q-33 -17 -49 4 q-10 11 -8 25 q2 15 18 23 q126 59 224 181 q22 19 44 -1 ZM933 40 q20 -29 -1 -50 q-10 -10 -24 -10 q-15 0 -25 14 q-77 110 -193 181 q-25 20 -6 41 q17 20 44 5 q121 -70 205 -181 ZM552 324 l0 -268 q0 -80 -25 -111 q-27 -34 -95 -33 q-54 2 -102 11 q-15 3 -23 13 q-8 10 -7 22 q2 31 37 28 q40 -10 92 -10 q30 -1 43 14 q12 14 12 47 l0 287 q-82 0 -230 2 q-53 1 -74 15 q-28 19 -23 68 q8 98 22 185 q9 57 30 79 q22 24 76 26 q257 16 455 54 q36 8 45 -20 q3 -15 -2 -25 q-6 -12 -23 -15 q-218 -35 -459 -50 q-51 -2 -55 -57 q-16 -105 -21 -178 q-3 -22 23 -22 q150 -2 236 -2 l0 183 q4 33 32 33 q15 0 24 -7 q12 -9 12 -26 l0 -183 q204 2 299 4 q31 -4 31 -30 q-2 -30 -31 -30 q-97 -2 -299 -4 Z" /><glyph glyph-name="" unicode="&#x4e54;" d="M406 283 q1 -126 -48 -214 q-65 -111 -225 -158 q-39 -8 -49 18 q-6 14 0 26 q6 14 24 18 q140 41 190 127 q40 68 41 183 q0 17 11 25 q9 7 24 6 q14 0 23 -8 q9 -8 9 -23 ZM663 285 l0 -345 q0 -13 -10 -22 q-9 -8 -22 -8 q-14 -1 -24 7 q-11 8 -11 23 l0 345 q0 15 11 24 q10 8 25 7 q28 0 31 -31 ZM569 490 q45 -59 117 -101 q103 -62 214 -71 q43 -6 35 -46 q-9 -29 -44 -26 q-119 9 -240 86 q-103 66 -154 158 l-2 0 q-31 -68 -85 -118 q-123 -108 -302 -133 q-35 -3 -40 28 q-3 13 4 24 q8 12 24 14 q168 23 265 110 q35 30 60 75 l-307 0 q-29 0 -29 32 q2 24 29 27 l333 0 q18 54 19 111 q-126 -7 -260 -7 q-29 3 -32 28 q-1 13 7 22 q8 9 23 10 q380 2 563 45 q30 5 40 -20 q4 -12 -2 -22 q-7 -12 -23 -16 q-97 -23 -248 -35 q0 -60 -17 -116 l375 0 q13 0 21 -8 q8 -8 8 -20 q0 -13 -7 -22 q-7 -9 -22 -9 l-323 0 Z" /><glyph glyph-name="" unicode="&#x4e5d;" d="M462 561 l126 0 q53 -1 82 -30 q28 -28 23 -74 q-11 -89 -24 -198 q-13 -108 -9 -193 q2 -24 14 -37 q11 -12 33 -16 q34 -5 77 1 q46 7 67 49 q16 33 18 94 q1 20 13 29 q11 8 25 7 q32 -5 36 -38 q-3 -191 -146 -206 q-41 -5 -96 -1 q-102 9 -111 107 q-8 78 31 385 q3 26 -10 42 q-14 17 -46 18 q-70 0 -107 -1 q-17 -204 -83 -331 q-81 -157 -252 -238 q-20 -9 -34 -2 q-14 7 -20 21 q-9 26 20 44 q155 76 227 214 q58 113 71 290 q-144 -6 -226 -7 q-17 0 -25 10 q-8 10 -7 24 q1 27 32 31 q158 4 230 5 q2 53 2 161 l0 17 q1 18 13 26 q13 8 28 6 q28 -2 32 -32 q0 -100 -4 -177 Z" /><glyph glyph-name="" unicode="&#x4e5f;" d="M568 449 l0 -298 q-1 -15 -12 -22 q-12 -7 -26 -5 q-24 3 -27 27 l0 268 q-81 -37 -162 -74 q-1 -99 -1 -245 q0 -43 21 -64 q20 -20 66 -25 q167 -16 327 5 q52 7 77 48 q19 31 24 87 q3 19 15 26 q11 7 25 4 q32 -7 33 -38 q-9 -92 -47 -136 q-38 -45 -116 -54 q-181 -22 -356 -4 q-73 8 -106 45 q-30 34 -30 95 l0 225 q-75 -35 -150 -70 q-34 -12 -45 17 q-10 27 18 44 q47 22 178 81 l0 261 q1 17 13 24 q12 8 27 6 q26 -3 29 -30 q-2 -124 -2 -231 q63 29 162 74 l0 253 q1 16 12 23 q12 8 26 5 q24 -3 27 -28 l0 -224 q89 41 144 65 q40 17 75 0 q38 -19 39 -66 q4 -138 -8 -223 q-12 -85 -62 -110 q-47 -23 -137 2 q-12 3 -16 14 q-5 10 -3 22 q4 32 38 26 q56 -19 80 -9 q26 11 34 60 q12 68 9 192 q-3 39 -43 26 q-75 -35 -150 -69 Z" /><glyph glyph-name="" unicode="&#x4e61;" d="M742 311 q36 65 56 132 q13 38 46 27 q28 -10 22 -43 q-66 -229 -244 -359 q-103 -71 -226 -109 q-108 -34 -254 -49 q-38 0 -42 26 q-2 13 5 24 q8 13 23 15 q144 16 246 48 q117 37 209 103 q67 47 121 125 q-279 -41 -428 -51 q-50 -4 -64 24 q-11 30 20 54 q172 106 306 209 q-162 -28 -295 -38 q-47 -3 -58 22 q-9 24 16 47 q151 112 270 248 q12 12 29 12 q15 0 25 -9 q23 -21 0 -49 q-97 -105 -219 -195 q-7 -5 -5 -9 q2 -4 12 -3 q130 14 311 43 q65 55 111 104 q13 14 29 12 q13 -1 25 -13 q20 -24 2 -46 q-219 -199 -464 -341 q-8 -5 -6 -10 q2 -4 12 -3 q106 10 409 52 Z" /><glyph glyph-name="" unicode="&#x4e66;" d="M884 568 q-10 -12 -25 -13 q-16 -1 -29 12 q-68 69 -153 113 q-24 14 -10 38 q15 25 44 14 q96 -44 171 -117 q20 -22 2 -47 ZM729 353 q29 -1 57 -1 q56 -1 82 -21 q26 -20 26 -63 q-2 -99 -12 -166 q-17 -96 -116 -97 q-79 -2 -153 14 q-31 10 -27 36 q6 27 31 25 q76 -18 125 -18 q62 -1 73 50 q11 55 11 143 q0 20 -11 29 q-10 8 -31 9 q-151 3 -330 3 l0 -357 q0 -12 -10 -20 q-10 -8 -23 -8 q-15 0 -24 7 q-10 7 -10 21 l0 356 q-158 0 -296 -3 q-13 0 -21 9 q-8 9 -8 20 q0 12 7 21 q8 10 22 10 q135 3 296 3 l0 197 q-110 0 -224 -3 q-30 3 -30 28 q0 12 8 21 q8 9 22 9 q113 3 224 3 l0 140 q0 12 10 20 q10 8 24 8 q14 0 23 -7 q10 -8 10 -21 l0 -140 q71 0 221 -2 q46 -1 70 -25 q25 -25 17 -70 q-16 -95 -33 -160 ZM662 354 q15 59 32 155 q4 22 -5 31 q-9 10 -33 10 q-136 2 -202 2 l0 -197 q141 0 208 -1 Z" /><glyph glyph-name="" unicode="&#x4e86;" d="M558 453 q85 -142 47 -350 q-22 -101 -98 -149 q-77 -48 -192 -23 q-20 4 -27 17 q-7 13 -4 27 q8 30 43 25 q77 -21 131 7 q60 30 77 111 q24 113 0 211 q-29 118 -121 160 q-25 13 -13 36 q13 26 46 19 q40 -15 71 -44 q101 66 171 135 q12 13 9 21 q-3 9 -22 9 q-200 3 -455 -3 q-32 4 -32 31 q-1 26 32 31 q179 6 487 0 q60 -1 75 -39 q14 -36 -19 -72 q-31 -34 -101 -87 q-57 -43 -105 -73 Z" /><glyph glyph-name="" unicode="&#x4e89;" d="M791 301 q0 -63 -1 -85 q-5 -85 -107 -88 q-64 -2 -153 -2 l0 -18 l1 -77 q1 -63 -46 -93 q-58 -38 -179 -15 q-19 4 -27 15 q-8 11 -6 24 q4 30 39 27 q84 -17 117 -6 q35 12 35 61 l0 82 q-200 0 -244 1 q-15 1 -22 10 q-7 10 -5 22 q2 22 27 24 q110 -2 244 -1 l0 120 l-353 0 q-28 3 -28 27 q0 24 28 27 l353 0 l0 109 q-173 0 -210 -1 q-16 1 -23 10 q-7 10 -5 22 q3 21 28 23 q103 0 206 1 q57 60 76 90 q8 13 5 21 q-3 8 -17 9 q-84 -1 -168 -1 q-91 -106 -189 -176 q-34 -21 -52 1 q-17 23 10 46 q68 43 136 113 q67 69 106 136 q20 27 44 13 q26 -16 12 -45 q-13 -19 -26 -37 q83 0 166 1 q38 -1 53 -27 q15 -26 -6 -56 q-29 -39 -76 -88 q77 -1 153 -1 q100 -3 103 -84 q1 -21 1 -78 l113 0 q14 0 21 -9 q6 -9 6 -20 q-1 -24 -27 -27 l-113 0 ZM726 302 l-196 0 l0 -120 q113 0 141 1 q49 1 52 44 q1 6 3 75 ZM725 356 q0 32 -2 68 q-1 40 -49 40 q-82 0 -144 1 l0 -109 l195 0 Z" /><glyph glyph-name="" unicode="&#x4e8b;" d="M812 251 l103 0 q14 0 20 -9 q7 -9 6 -20 q-1 -23 -26 -26 l-103 0 q-1 -22 -2 -44 q-5 -73 -97 -74 q-88 -1 -177 -1 q0 -33 0 -65 q2 -121 -191 -91 q-18 3 -25 14 q-8 11 -5 24 q5 28 39 25 q62 -12 85 -6 q34 8 34 53 l0 46 q-135 0 -271 0 q-13 1 -19 8 q-6 8 -6 17 q0 22 26 25 q157 -2 270 -1 l0 73 l-384 0 q-12 0 -18 8 q-6 8 -6 17 q1 20 24 23 l384 0 l0 66 q-123 0 -271 -2 q-12 0 -17 7 q-6 8 -6 17 q0 21 24 24 q168 2 270 1 l0 57 q-89 0 -167 2 q-52 2 -73 15 q-20 12 -23 40 q-2 27 1 59 q3 27 23 40 q22 14 71 15 q41 1 168 1 l0 60 l-320 -1 q-15 1 -22 10 q-7 10 -5 22 q2 21 27 23 l320 -1 l0 61 q1 15 10 23 q10 8 23 7 q26 0 30 -30 l0 -61 l317 1 q14 0 21 -9 q6 -9 6 -20 q-1 -23 -27 -26 l-317 1 l0 -60 q126 0 170 -1 q84 -1 90 -56 q2 -20 0 -57 q-3 -28 -21 -40 q-20 -14 -68 -16 q-80 -2 -171 -2 l0 -57 q70 0 178 -2 q91 -2 96 -68 q1 -20 2 -39 ZM749 199 l-213 0 l0 -73 q117 0 165 1 q18 0 31 9 q15 10 16 28 q1 10 1 35 ZM749 247 q0 19 -1 27 q-1 19 -16 29 q-12 8 -31 8 q-96 2 -165 2 l0 -66 l213 0 ZM536 461 q118 2 155 3 q40 -1 41 23 l0 33 q-2 24 -42 24 q-72 2 -154 2 l0 -85 ZM473 461 l0 85 q-81 0 -157 -2 q-38 0 -41 -24 q0 -16 0 -31 q1 -13 9 -18 q9 -6 34 -7 q50 -3 155 -3 Z" /><glyph glyph-name="" unicode="&#x4e8c;" d="M191 597 l596 0 q17 -1 24 -13 q8 -12 7 -26 q-2 -28 -31 -31 l-596 0 q-18 1 -26 13 q-8 13 -5 28 q4 26 31 29 ZM113 94 l773 0 q17 -1 24 -13 q8 -13 6 -28 q-2 -26 -30 -29 l-773 0 q-17 1 -25 12 q-8 12 -7 26 q2 28 32 32 Z" /><glyph glyph-name="" unicode="&#x4e8e;" d="M542 642 q0 -131 -1 -228 l356 0 q17 -1 25 -12 q8 -11 6 -24 q-2 -24 -31 -27 l-356 1 l0 -194 l2 -107 q1 -72 -50 -105 q-64 -42 -203 -17 q-21 4 -30 17 q-8 12 -5 26 q6 31 43 29 q87 -17 125 -7 q47 12 47 67 l0 291 l-365 -1 q-17 0 -25 10 q-7 9 -7 21 q2 28 32 32 l365 0 l0 228 l-287 -1 q-34 4 -33 32 q1 28 33 32 l637 0 q16 -1 24 -11 q7 -11 6 -24 q-1 -26 -30 -29 l-278 1 Z" /><glyph glyph-name="" unicode="&#x4e91;" d="M222 679 l547 0 q18 -1 26 -12 q8 -11 6 -24 q-2 -24 -32 -27 l-547 0 q-17 1 -25 10 q-8 10 -7 23 q1 26 32 30 ZM744 41 q-96 -21 -280 -43 q-166 -20 -254 -25 q-36 -2 -47 25 q-11 27 17 49 q29 23 59 58 q93 110 183 267 l-303 -2 q-17 1 -25 10 q-8 10 -7 23 q1 26 32 30 l761 0 q16 -1 24 -10 q8 -10 7 -23 q-1 -26 -31 -30 l-376 2 q-85 -156 -209 -311 q-6 -7 -4 -11 q2 -4 10 -3 q187 11 404 44 q-50 59 -106 101 q-27 25 -8 45 q19 20 52 2 q53 -34 116 -103 q65 -70 95 -127 q10 -21 4 -38 q-7 -16 -22 -22 q-28 -13 -49 21 q-16 33 -43 71 Z" /><glyph glyph-name="" unicode="&#x4e9a;" d="M296 223 q6 -25 -17 -41 q-12 -7 -26 -3 q-16 5 -19 23 q-30 168 -92 300 q-9 27 14 39 q9 6 21 3 q14 -3 20 -15 q58 -123 99 -306 ZM865 500 q-36 -175 -95 -303 q-7 -15 -21 -19 q-13 -4 -24 1 q-25 10 -13 44 q60 118 95 299 q3 13 15 17 q11 4 23 0 q25 -10 20 -39 ZM644 -2 l271 0 q12 0 21 -11 q8 -10 8 -22 q0 -13 -7 -22 q-7 -9 -22 -9 l-822 0 q-13 0 -22 11 q-8 10 -8 21 q0 11 8 21 q9 11 22 11 l271 0 l0 677 l-217 0 q-14 0 -22 11 q-8 11 -8 23 q0 11 8 20 q9 10 22 10 l712 0 q13 0 22 -10 q8 -9 8 -21 q0 -14 -7 -23 q-8 -10 -23 -10 l-215 0 l0 -677 ZM577 -2 l0 677 l-146 0 l0 -677 l146 0 Z" /><glyph glyph-name="" unicode="&#x4e9b;" d="M764 147 l-532 0 q-17 1 -25 11 q-8 11 -6 24 q3 23 31 26 l532 0 q17 -1 25 -11 q8 -10 7 -22 q-2 -25 -32 -28 ZM886 -47 l-773 0 q-17 1 -25 11 q-8 10 -6 23 q2 25 31 28 l773 0 q30 -4 31 -31 q1 -27 -31 -31 ZM630 578 q99 41 176 90 q30 13 46 -15 q14 -24 -16 -44 q-86 -49 -206 -90 q-1 -44 -1 -105 q1 -27 13 -39 q12 -12 38 -14 q54 -5 103 2 q37 5 50 28 q9 17 12 60 q1 17 12 23 q11 7 24 5 q27 -4 31 -31 q-1 -67 -25 -100 q-27 -38 -93 -45 q-63 -7 -128 -1 q-100 9 -100 103 q0 265 2 323 q1 16 11 24 q10 8 23 7 q26 -1 30 -30 q0 -29 -2 -151 ZM377 388 q64 17 104 31 q30 6 38 -19 q6 -21 -22 -34 q-154 -52 -377 -98 q-21 -3 -31 8 q-11 11 -10 26 q1 22 27 28 q12 2 46 8 l0 308 q1 16 11 23 q11 7 24 6 q26 -2 29 -29 l0 -296 q72 16 97 22 l0 358 q1 16 11 23 q11 7 24 6 q26 -2 29 -29 l0 -125 l111 0 q30 -4 29 -29 q0 -24 -29 -28 l-111 0 l0 -160 Z" /><glyph glyph-name="" unicode="&#x4ea4;" d="M161 384 q114 54 186 158 q22 24 47 6 q25 -18 8 -47 q-35 -49 -96 -101 q-59 -50 -111 -77 q-20 -9 -35 -2 q-15 8 -20 23 q-8 25 21 40 ZM774 349 q-66 86 -172 150 q-26 19 -10 41 q15 21 46 9 q41 -21 100 -68 q60 -48 90 -85 q23 -35 -3 -56 q-23 -19 -51 9 ZM545 143 q136 -124 341 -151 q19 -4 26 -16 q6 -12 2 -26 q-8 -30 -45 -28 q-214 34 -367 176 q-156 -146 -371 -180 q-22 -3 -34 8 q-12 12 -11 28 q0 23 30 30 q202 26 342 158 q-82 89 -122 201 q-5 17 3 29 q9 11 23 14 q26 5 37 -18 q33 -101 103 -180 q66 78 99 179 q6 16 18 21 q12 5 25 0 q28 -9 23 -39 q-37 -111 -122 -206 ZM536 659 l323 1 q17 -1 24 -12 q8 -11 6 -24 q-2 -24 -30 -27 l-718 0 q-17 1 -25 10 q-8 10 -7 23 q1 26 32 30 l326 -1 l-1 96 q1 18 13 26 q13 8 28 5 q27 -3 30 -31 l-1 -96 Z" /><glyph glyph-name="" unicode="&#x4ea7;" d="M425 470 q12 -26 -18 -42 q-12 -6 -25 -3 q-16 3 -22 17 q-26 53 -55 88 q-18 20 10 36 q23 12 46 -3 q40 -36 64 -93 ZM653 415 q82 0 244 -2 q32 -5 33 -29 q0 -14 -8 -23 q-9 -11 -26 -11 q-309 5 -617 0 q-31 0 -49 -13 q-20 -14 -20 -43 q0 -111 -15 -186 q-19 -103 -73 -179 q-27 -30 -55 -8 q-21 18 -3 44 q51 74 66 156 q13 65 13 177 q0 56 33 86 q32 28 89 29 q208 2 313 2 q37 60 70 140 q6 13 20 17 q12 3 25 -2 q32 -12 23 -41 q-23 -54 -63 -114 ZM541 666 l328 0 q15 0 23 -10 q7 -8 7 -21 q0 -13 -7 -22 q-8 -10 -23 -10 l-728 0 q-14 0 -23 11 q-8 10 -8 23 q1 24 31 29 l328 0 l0 83 q0 14 10 22 q10 8 25 8 q37 0 37 -30 l0 -83 Z" /><glyph glyph-name="" unicode="&#x4ea8;" d="M664 520 q-194 4 -322 0 q-37 0 -40 -25 q-2 -15 0 -32 q2 -13 10 -19 q9 -6 31 -7 q159 -5 322 0 q38 1 39 25 q3 22 0 33 q-2 25 -40 25 ZM333 390 q-43 1 -66 12 q-25 13 -29 40 q-4 18 -1 69 q3 24 19 37 q23 18 74 19 q212 4 353 0 q47 -1 69 -20 q15 -13 18 -35 q2 -32 0 -66 q-3 -25 -18 -37 q-21 -17 -73 -19 q-178 -5 -346 0 ZM574 150 q44 -81 1 -161 q-34 -60 -123 -75 q-79 -13 -172 11 q-19 5 -25 17 q-7 12 -3 25 q7 27 43 21 q58 -17 114 -16 q77 1 102 39 q33 50 14 98 q-21 53 -99 75 q-27 12 -13 31 q13 19 43 13 q48 -11 82 -39 q83 38 131 68 q23 19 -14 19 q-291 0 -446 -5 q-17 0 -25 9 q-8 9 -8 20 q1 24 33 27 q260 3 493 0 q59 -3 66 -33 q8 -31 -23 -55 q-53 -37 -171 -89 ZM537 682 l331 0 q14 0 21 -9 q6 -9 6 -20 q-1 -24 -27 -27 l-734 0 q-29 3 -29 28 q0 24 29 28 l332 0 l-1 75 q1 18 13 26 q12 8 26 7 q29 -2 33 -33 l0 -75 Z" /><glyph glyph-name="" unicode="&#x4eab;" d="M664 520 q-194 4 -322 0 q-37 0 -40 -25 q-2 -15 0 -32 q2 -13 10 -19 q9 -6 31 -7 q159 -5 322 0 q38 1 39 25 q3 22 0 33 q-2 25 -40 25 ZM333 390 q-43 1 -66 12 q-25 13 -29 40 q-4 18 -1 69 q3 24 19 37 q23 18 74 19 q212 4 353 0 q47 -1 69 -20 q15 -13 18 -35 q2 -32 0 -66 q-3 -25 -18 -37 q-21 -17 -73 -19 q-178 -5 -346 0 ZM606 104 q14 -56 -15 -111 q-31 -60 -107 -76 q-67 -14 -153 9 q-19 5 -26 16 q-7 11 -4 23 q7 26 41 21 q146 -39 185 26 q29 46 15 92 l-437 -3 q-17 1 -24 11 q-7 10 -5 22 q2 22 28 24 l400 -3 q-27 21 -69 31 q-28 9 -16 29 q12 19 42 15 q39 -9 66 -25 q72 30 116 57 q13 9 9 13 q-3 3 -22 4 q-228 0 -363 -3 q-35 4 -31 30 q3 19 31 22 q220 2 401 0 q59 -3 66 -33 q8 -29 -22 -52 q-44 -31 -142 -71 q5 -5 13 -17 l314 3 q14 0 21 -9 q8 -9 7 -21 q-1 -24 -28 -27 l-291 3 ZM537 682 l331 0 q14 0 21 -9 q6 -9 6 -20 q-1 -24 -27 -27 l-734 0 q-29 3 -29 28 q0 24 29 28 l332 0 l-1 75 q1 18 13 26 q12 8 26 7 q29 -2 33 -33 l0 -75 Z" /><glyph glyph-name="" unicode="&#x4eac;" d="M882 37 q15 -15 15 -31 q1 -17 -9 -28 q-22 -27 -51 -1 q-60 68 -188 124 q-26 15 -16 39 q11 24 40 18 q122 -46 209 -121 ZM348 111 q-96 -99 -220 -145 q-22 -7 -36 2 q-14 10 -16 25 q-4 25 25 36 q119 35 201 130 q22 19 42 2 q24 -21 4 -50 ZM298 400 q-2 -28 0 -76 q3 -43 55 -44 q144 -5 299 0 q26 1 38 10 q15 11 16 34 q3 34 1 77 q-3 44 -58 45 q-72 3 -295 0 q-52 -1 -56 -46 ZM541 223 l0 -109 l1 -81 q1 -64 -45 -94 q-54 -36 -166 -14 q-19 4 -26 15 q-7 12 -4 25 q6 29 40 26 q71 -16 101 -5 q32 12 32 58 l0 179 q-68 0 -136 0 q-53 1 -80 27 q-25 24 -26 64 q-3 51 0 99 q2 35 25 59 q28 29 79 30 q98 2 335 0 q47 -1 75 -25 q26 -23 28 -56 q3 -50 0 -106 q-1 -41 -24 -64 q-27 -27 -79 -28 q-65 0 -130 0 ZM536 652 l336 1 q17 -1 25 -12 q7 -12 5 -26 q-3 -23 -30 -26 l-372 2 l-374 -2 q-16 1 -24 11 q-7 10 -7 22 q2 27 31 31 l341 -1 l-1 96 q1 18 13 26 q12 8 27 6 q28 -2 31 -32 l-1 -96 Z" /><glyph glyph-name="" unicode="&#x4eae;" d="M570 30 l0 100 q0 36 -37 39 q-47 3 -92 0 q-35 -1 -37 -41 q-6 -105 -96 -165 q-80 -54 -190 -54 q-22 -1 -32 11 q-10 12 -7 27 q3 22 28 26 q94 -3 158 37 q74 46 73 134 q-2 78 86 82 q67 2 126 -1 q44 -1 66 -24 q21 -21 21 -58 q0 -52 0 -103 q-2 -51 49 -56 q40 -6 88 1 q39 8 53 28 q13 19 14 62 q1 17 13 24 q12 7 26 5 q26 -4 29 -29 q1 -71 -27 -105 q-28 -34 -96 -42 q-62 -6 -113 -2 q-53 5 -78 29 q-25 25 -25 75 ZM814 184 l0 53 q-1 27 -17 37 q-16 10 -51 10 q-205 4 -494 0 q-36 0 -54 -12 q-17 -11 -18 -35 q0 -29 0 -57 q0 -15 -12 -23 q-11 -7 -26 -6 q-26 2 -29 30 q-2 40 0 78 q1 72 111 77 q329 4 550 0 q49 -1 78 -21 q30 -21 31 -59 q2 -36 0 -71 q-1 -17 -14 -25 q-12 -8 -26 -6 q-26 2 -29 30 ZM707 504 q-1 13 -9 18 q-9 6 -32 6 q-196 4 -326 0 q-37 0 -40 -23 q-3 -16 -1 -35 q2 -12 10 -17 q10 -6 33 -7 q160 -5 325 0 q21 1 30 6 q9 5 10 18 q2 17 0 34 ZM682 400 q-181 -5 -353 0 q-57 2 -78 19 q-14 12 -16 37 q-4 38 1 64 q2 23 17 35 q22 18 73 19 q217 4 360 0 q81 -3 86 -53 q4 -35 0 -65 q-3 -25 -17 -37 q-21 -18 -73 -19 ZM537 691 l336 1 q14 -1 21 -10 q7 -10 6 -21 q-2 -23 -27 -26 l-744 0 q-15 0 -22 9 q-7 8 -7 19 q1 25 29 29 l337 -1 l-1 76 q1 17 13 26 q12 8 26 7 q29 -2 33 -33 l0 -76 Z" /><glyph glyph-name="" unicode="&#x4eba;" d="M525 562 l1 -4 q17 -183 137 -342 q112 -149 250 -200 q19 -8 24 -23 q4 -15 -2 -30 q-16 -33 -63 -20 q-99 40 -210 162 q-112 123 -165 285 q-41 -152 -129 -266 q-97 -125 -245 -194 q-22 -10 -38 -2 q-16 7 -22 23 q-9 27 23 45 q186 83 280 247 q81 140 89 329 q0 61 -4 127 q0 19 13 28 q13 9 30 8 q32 -2 36 -37 q0 -69 -4 -126 q0 -7 -1 -10 Z" /><glyph glyph-name="" unicode="&#x4ebf;" d="M941 111 q2 -68 -22 -109 q-34 -59 -128 -69 q-174 -15 -347 0 q-76 8 -95 62 q-18 50 21 113 q152 248 395 508 q13 14 10 22 q-3 8 -23 9 q-163 5 -345 -1 q-28 2 -30 29 q-1 10 7 19 q9 10 25 11 q169 6 395 0 q51 -2 62 -37 q10 -33 -26 -69 q-239 -245 -410 -517 q-23 -37 -14 -59 q10 -22 51 -27 q163 -18 317 1 q54 6 71 46 q11 26 13 68 q0 18 12 27 q11 8 27 6 q14 -2 23 -10 q10 -9 11 -23 ZM286 583 l-13 -644 q-4 -29 -31 -31 q-16 0 -26 7 q-11 8 -11 24 l14 538 q-52 -74 -108 -131 q-26 -30 -51 -8 q-26 21 0 51 q155 169 232 368 q6 16 22 20 q15 4 30 -4 q26 -15 14 -44 q-31 -74 -72 -146 Z" /><glyph glyph-name="" unicode="&#x4ec0;" d="M670 453 l229 1 q17 -1 25 -11 q9 -10 8 -23 q-2 -26 -33 -29 l-229 1 l1 -451 q-1 -17 -12 -26 q-12 -8 -26 -7 q-29 2 -33 33 l1 451 l-218 -1 q-17 1 -25 12 q-8 11 -6 24 q3 24 31 27 l218 -1 l-1 282 q1 18 11 26 q11 9 25 9 q31 0 35 -35 l-1 -282 ZM286 555 l-12 -619 q-1 -16 -13 -24 q-12 -7 -27 -6 q-27 2 -30 30 l15 524 q-61 -79 -110 -122 q-29 -22 -48 -6 q-26 22 -2 51 q80 71 143 160 q68 96 108 200 q7 16 20 19 q14 4 27 -2 q30 -14 19 -47 q-33 -72 -90 -158 Z" /><glyph glyph-name="" unicode="&#x4ec1;" d="M413 608 l439 0 q16 -1 24 -11 q8 -10 8 -23 q-1 -27 -32 -31 l-439 0 q-16 1 -25 10 q-8 10 -8 22 q0 29 33 33 ZM367 47 l541 0 q17 -1 25 -11 q7 -11 6 -25 q-1 -27 -31 -30 l-541 0 q-17 1 -25 11 q-8 10 -8 23 q1 28 33 32 ZM277 548 l-12 -612 q-1 -16 -13 -24 q-12 -7 -27 -6 q-27 2 -30 30 l14 516 q-57 -74 -104 -116 q-34 -25 -53 -4 q-19 20 3 47 q78 72 141 162 q69 99 107 201 q7 16 20 20 q14 3 27 -3 q30 -13 20 -46 q-33 -72 -93 -165 Z" /><glyph glyph-name="" unicode="&#x4ec5;" d="M657 185 q98 -106 269 -198 q14 -8 19 -23 q4 -14 -2 -26 q-14 -31 -56 -15 q-163 86 -272 208 q-116 -139 -259 -216 q-18 -10 -34 -5 q-14 5 -20 19 q-12 28 20 48 q140 73 248 207 q-136 176 -161 397 q1 30 27 36 q14 3 24 -3 q12 -7 14 -22 q27 -208 138 -354 q122 176 156 385 q4 23 -7 32 q-10 8 -35 9 q-148 5 -308 -2 q-14 -1 -23 9 q-8 9 -8 22 q0 13 7 21 q8 10 24 10 q143 5 317 1 q55 -1 81 -25 q29 -27 20 -79 q-34 -233 -179 -436 ZM278 585 l-12 -646 q-5 -29 -31 -31 q-16 0 -25 7 q-12 9 -11 24 l13 534 q-50 -74 -102 -127 q-26 -30 -51 -8 q-25 23 0 51 q144 159 218 368 q6 17 21 21 q14 4 31 -5 q27 -14 15 -44 q-29 -76 -66 -144 Z" /><glyph glyph-name="" unicode="&#x4eca;" d="M648 434 l-289 0 q-16 1 -23 10 q-8 9 -7 21 q1 26 30 29 l289 0 q17 -1 25 -12 q7 -11 5 -24 q-3 -22 -30 -24 ZM655 254 q-302 0 -416 -3 q-17 0 -25 10 q-8 11 -7 24 q2 25 30 29 q219 0 438 1 q60 -1 80 -32 q18 -29 1 -79 q-26 -72 -99 -153 q-76 -83 -156 -124 q-20 -10 -36 -3 q-17 6 -23 21 q-10 23 22 41 q63 29 132 100 q71 73 87 128 q6 22 -2 32 q-7 8 -26 8 ZM896 442 q34 -26 17 -52 q-20 -31 -59 -11 q-141 93 -320 292 q-36 40 -69 0 q-145 -181 -312 -313 q-22 -16 -40 -13 q-17 2 -26 16 q-15 26 16 52 q77 52 167 141 q82 81 146 162 q31 38 74 40 q46 2 85 -40 q162 -174 321 -274 Z" /><glyph glyph-name="" unicode="&#x4ecb;" d="M100 -31 q146 39 202 150 q40 80 38 216 q0 59 -1 118 q0 17 12 25 q12 8 27 6 q27 -2 31 -31 q0 -59 0 -118 q0 -154 -49 -251 q-68 -133 -232 -179 q-25 -6 -38 4 q-13 11 -14 27 q-1 25 24 33 ZM667 459 l0 -518 q-1 -17 -13 -25 q-12 -8 -27 -6 q-28 2 -31 31 l0 518 q1 18 13 26 q13 8 28 5 q27 -3 30 -31 ZM419 719 q30 40 75 41 q46 1 84 -40 q159 -174 331 -261 q17 -10 19 -25 q2 -14 -7 -28 q-19 -27 -57 -10 q-166 102 -325 277 q-38 47 -73 -1 q-64 -81 -152 -162 q-93 -86 -176 -139 q-24 -14 -42 -8 q-18 6 -23 23 q-9 24 21 43 q82 43 178 131 q84 78 147 159 Z" /><glyph glyph-name="" unicode="&#x4ecd;" d="M567 666 q-11 -253 -46 -389 q-52 -204 -182 -329 q-29 -22 -51 -3 q-22 19 -2 46 q69 66 111 143 q42 78 64 164 q40 176 40 368 q-54 -1 -108 -1 q-14 1 -21 10 q-7 10 -6 22 q2 23 27 26 q202 2 310 1 q40 0 60 -20 q22 -22 15 -61 q-16 -83 -33 -147 q-2 -15 13 -15 l54 0 q45 -2 70 -27 q26 -26 25 -70 q-2 -192 -40 -308 q-31 -97 -104 -130 q-70 -31 -179 -4 q-16 5 -22 18 q-7 13 -3 27 q7 32 45 24 q148 -50 196 79 q38 100 40 285 q0 49 -47 49 q-32 -1 -66 0 q-32 0 -45 17 q-13 17 -5 45 q20 70 34 149 q6 31 -27 31 l-117 0 ZM256 543 l-10 -607 q-1 -17 -14 -24 q-12 -8 -27 -6 q-25 2 -27 30 l11 503 q-43 -62 -86 -104 q-28 -26 -51 -7 q-25 19 -1 49 q73 73 133 168 q63 102 96 205 q6 16 18 21 q12 5 25 0 q32 -10 24 -44 q-31 -81 -91 -184 Z" /><glyph glyph-name="" unicode="&#x4ece;" d="M682 584 l0 -1 q4 -160 76 -325 q75 -172 186 -253 q16 -12 16 -29 q0 -15 -12 -28 q-20 -22 -54 -1 q-76 58 -140 176 q-62 114 -93 245 q-25 -141 -83 -245 q-64 -115 -175 -196 q-31 -19 -50 3 q-20 22 4 46 q134 97 196 239 q54 124 60 294 q3 71 -1 225 q0 19 11 27 q12 9 27 8 q27 -2 32 -33 q2 -78 0 -152 ZM321 406 q13 2 22 -5 q39 -25 79 -63 q47 -45 72 -87 q10 -19 4 -35 q-6 -16 -21 -23 q-24 -11 -42 16 q-38 73 -124 141 q-50 -269 -203 -408 q-32 -21 -53 -4 q-12 10 -13 23 q-1 15 13 27 q178 158 207 503 q11 115 7 248 q0 17 12 24 q13 8 28 5 q26 -4 30 -31 q0 -146 -9 -251 q-3 -40 -9 -80 Z" /><glyph glyph-name="" unicode="&#x4ed3;" d="M891 121 q2 -68 -19 -109 q-33 -69 -123 -73 q-208 -11 -418 0 q-106 5 -110 111 q-3 168 1 312 q2 42 27 68 q25 25 66 26 q192 6 353 1 q102 -6 101 -95 q0 -59 -8 -103 q-9 -59 -42 -85 q-31 -24 -88 -26 q-76 -3 -157 18 q-13 4 -19 17 q-5 11 -2 23 q3 12 12 18 q11 7 26 3 q68 -19 131 -18 q32 1 48 12 q19 13 24 42 q10 46 8 96 q-3 38 -46 38 q-159 6 -314 0 q-49 -1 -51 -55 q-4 -130 -1 -279 q3 -57 60 -61 q217 -13 390 1 q53 4 69 46 q11 23 11 72 q0 15 12 24 q10 7 25 7 q32 -2 34 -31 ZM940 420 q-20 -31 -54 -11 q-197 109 -341 286 q-39 47 -76 -1 q-125 -162 -348 -307 q-17 -12 -33 -9 q-14 3 -22 16 q-18 28 20 52 q201 115 336 292 q29 38 82 38 q50 0 82 -38 q155 -177 336 -265 q36 -18 18 -53 Z" /><glyph glyph-name="" unicode="&#x4ed5;" d="M660 10 l216 1 q15 0 23 -9 q7 -9 7 -21 q1 -26 -30 -30 l-481 0 q-17 1 -25 11 q-7 9 -6 22 q2 24 31 27 l197 -1 l0 373 l-215 -1 q-16 1 -23 11 q-8 10 -6 23 q2 25 29 27 l215 -1 l0 269 q1 18 13 26 q12 7 27 5 q25 -3 28 -31 l0 -269 l245 1 q17 0 25 -11 q7 -10 5 -24 q-2 -23 -30 -26 l-245 1 l0 -373 ZM290 550 l-12 -604 q-1 -18 -13 -26 q-13 -8 -28 -6 q-26 3 -28 31 l15 511 q-61 -79 -112 -124 q-32 -24 -52 -3 q-20 21 2 46 q170 155 245 352 q7 16 20 20 q14 3 27 -3 q30 -13 20 -45 q-31 -66 -84 -149 Z" /><glyph glyph-name="" unicode="&#x4ed8;" d="M399 319 q-26 17 -11 39 q15 22 46 12 q39 -17 82 -47 q46 -32 71 -62 q13 -16 10 -32 q-3 -15 -15 -25 q-22 -18 -44 5 q-60 69 -139 110 ZM767 488 l0 -310 l3 -125 q1 -80 -62 -113 q-69 -36 -199 -8 q-19 5 -27 17 q-8 12 -5 25 q5 29 42 24 q181 -43 181 62 l0 428 l-318 -1 q-17 1 -25 11 q-7 11 -5 24 q2 23 30 26 l318 0 l0 185 q1 17 11 25 q11 8 24 8 q28 -1 32 -33 l0 -185 l141 0 q18 -1 26 -11 q7 -11 5 -24 q-3 -23 -32 -26 l-140 1 ZM283 552 l-12 -612 q-1 -18 -15 -26 q-13 -7 -29 -4 q-24 4 -26 30 l14 517 q-63 -82 -110 -122 q-31 -23 -50 -6 q-23 21 0 50 q161 142 252 360 q7 17 20 20 q14 4 27 -2 q30 -13 19 -46 q-32 -69 -90 -159 Z" /><glyph glyph-name="" unicode="&#x4ee3;" d="M692 714 q67 -20 129 -66 q23 -27 5 -49 q-19 -22 -47 0 q-37 34 -108 63 q-25 12 -17 33 q8 23 38 19 ZM604 436 q31 -255 144 -393 q43 -54 79 -29 q34 23 50 106 q4 16 16 22 q12 5 26 2 q30 -8 26 -43 q-20 -80 -50 -119 q-31 -39 -66 -46 q-75 -9 -127 57 q-124 153 -163 435 l-165 -20 q-19 -2 -27 9 q-9 11 -7 25 q3 22 27 27 l165 20 q-11 102 -13 248 q0 15 14 23 q13 7 29 4 q26 -3 28 -31 q-2 -133 7 -235 l270 33 q18 1 26 -10 q9 -11 8 -25 q-1 -22 -26 -27 l-271 -33 ZM286 557 l-12 -621 q-1 -17 -14 -25 q-13 -7 -28 -5 q-26 3 -28 30 l15 525 q-66 -85 -114 -126 q-32 -24 -52 -5 q-21 21 2 49 q161 142 252 360 q7 17 20 20 q14 4 27 -2 q30 -13 19 -46 q-38 -78 -87 -154 Z" /><glyph glyph-name="" unicode="&#x4ee5;" d="M510 214 q-108 -61 -239 -112 q-33 -14 -57 3 q-23 17 -22 51 l-5 546 q0 17 14 25 q14 7 30 4 q25 -4 28 -28 l4 -508 q0 -10 5 -14 q5 -4 12 0 q117 44 202 89 q29 12 42 -12 q13 -23 -14 -44 ZM399 548 q-25 16 -12 37 q14 24 46 13 q38 -17 80 -45 q46 -31 70 -58 q12 -16 9 -31 q-4 -15 -16 -24 q-23 -17 -44 6 q-57 63 -133 102 ZM714 208 q132 -89 199 -189 q10 -17 5 -32 q-5 -16 -18 -24 q-25 -16 -48 12 q-65 100 -168 182 q-118 -177 -347 -223 q-21 -3 -33 10 q-11 13 -8 30 q2 20 28 26 q219 36 324 223 q98 179 87 474 q0 18 14 25 q14 7 30 4 q26 -5 29 -30 q2 -305 -94 -488 Z" /><glyph glyph-name="" unicode="&#x4eec;" d="M451 563 l0 -625 q0 -14 -11 -22 q-10 -7 -24 -7 q-14 0 -23 7 q-10 8 -10 22 l0 625 q0 13 11 21 q9 6 22 6 q15 0 24 -6 q11 -7 11 -21 ZM903 43 q0 -58 -24 -87 q-25 -30 -81 -35 q-39 -3 -94 5 q-17 2 -24 14 q-7 11 -4 25 q5 27 35 25 q35 -7 74 -5 q28 2 38 14 q11 12 12 44 q6 271 -2 566 q-1 47 -51 47 q-57 3 -173 1 q-14 0 -21 9 q-7 9 -7 21 q0 30 28 31 q131 2 194 0 q45 -2 70 -24 q26 -24 27 -68 q6 -293 3 -583 ZM527 630 q-22 -23 -47 0 q-42 50 -92 79 q-12 7 -13 19 q-1 11 7 20 q17 19 41 8 q66 -30 108 -81 q15 -26 -4 -45 ZM279 596 l-12 -657 q0 -13 -10 -22 q-10 -9 -22 -9 q-35 0 -35 31 l13 542 q-48 -76 -104 -135 q-27 -28 -50 -8 q-26 21 0 51 q143 167 215 369 q5 15 22 19 q15 4 29 -4 q25 -14 14 -43 q-25 -68 -60 -134 Z" /><glyph glyph-name="" unicode="&#x4ef2;" d="M667 218 l0 -278 q-1 -16 -13 -23 q-12 -7 -26 -5 q-25 3 -28 28 l1 278 q-86 2 -128 4 q-50 3 -78 29 q-26 25 -28 63 q-5 73 0 175 q1 37 25 62 q28 29 79 30 q82 2 130 2 l-1 152 q0 16 12 24 q12 7 26 5 q26 -2 29 -29 l0 -152 q71 0 141 -3 q42 -1 71 -28 q27 -25 29 -57 q6 -93 0 -181 q-3 -39 -28 -63 q-28 -27 -77 -30 q-69 -3 -136 -3 ZM667 275 q59 0 116 3 q57 2 60 56 q5 64 0 133 q-2 54 -61 55 q-74 2 -115 2 l0 -249 ZM601 275 l0 250 q-40 0 -110 -2 q-57 -1 -59 -56 q-5 -67 0 -132 q3 -54 60 -57 q44 -1 109 -3 ZM278 550 l-12 -614 q-1 -16 -13 -24 q-12 -7 -27 -6 q-27 2 -30 30 l14 519 q-55 -73 -102 -115 q-34 -24 -52 -3 q-19 21 2 46 q78 71 140 161 q67 96 105 198 q7 16 21 20 q13 3 26 -3 q30 -13 20 -45 q-39 -83 -92 -164 Z" /><glyph glyph-name="" unicode="&#x4ef6;" d="M682 246 l0 -302 q-1 -17 -11 -25 q-11 -8 -24 -7 q-28 1 -32 32 l0 302 l-240 -1 q-17 1 -25 11 q-7 11 -5 23 q2 23 30 26 l240 0 l0 210 l-135 -1 q-37 -83 -86 -147 q-26 -27 -50 -11 q-24 15 -8 42 q104 126 131 289 q4 16 15 22 q11 6 24 4 q30 -7 27 -37 q-12 -54 -30 -104 l112 1 l0 162 q1 17 12 25 q11 7 24 6 q28 -1 31 -31 l0 -162 l182 0 q31 -4 31 -30 q0 -25 -31 -29 l-182 1 l0 -210 l233 0 q16 -1 23 -10 q7 -9 7 -21 q-1 -26 -30 -29 l-233 1 ZM287 553 l-12 -617 q-1 -17 -14 -25 q-12 -7 -27 -5 q-26 3 -28 30 l13 519 q-64 -83 -112 -124 q-32 -24 -52 -3 q-20 20 2 46 q81 74 144 165 q69 99 107 204 q7 16 20 20 q13 4 26 -1 q29 -12 20 -45 q-31 -74 -87 -164 Z" /><glyph glyph-name="" unicode="&#x4ef7;" d="M770 440 l0 -497 q-1 -16 -12 -23 q-12 -8 -26 -6 q-26 2 -29 29 l0 497 q1 17 12 24 q11 8 24 7 q28 -2 31 -31 ZM543 429 q2 -183 -18 -271 q-33 -146 -142 -235 q-37 -24 -57 0 q-19 22 7 48 q63 51 94 109 q31 59 41 122 q13 114 6 227 q1 17 12 26 q11 8 25 7 q28 -2 32 -33 ZM316 450 q101 82 218 258 q30 47 77 47 q47 0 86 -45 q142 -158 241 -233 q15 -12 15 -28 q0 -14 -11 -28 q-11 -13 -26 -14 q-16 -1 -32 13 q-72 65 -235 250 q-15 18 -31 19 q-20 1 -35 -21 q-109 -166 -217 -265 q-15 -13 -30 -11 q-14 2 -24 12 q-19 23 4 46 ZM270 534 l-11 -598 q-1 -16 -13 -24 q-12 -7 -27 -6 q-27 2 -30 30 l14 506 q-50 -65 -98 -107 q-33 -24 -53 -3 q-21 22 3 47 q161 142 252 360 q7 17 20 20 q14 4 27 -2 q30 -13 19 -46 q-43 -90 -103 -177 Z" /><glyph glyph-name="" unicode="&#x4efb;" d="M654 14 l210 1 q18 -1 26 -11 q8 -11 6 -23 q-2 -23 -32 -26 l-475 0 q-31 4 -31 30 q0 26 31 30 l198 -1 l0 304 l-225 -1 q-17 0 -25 11 q-7 10 -5 24 q2 23 30 26 l225 -1 l0 230 q-97 -13 -182 -18 q-20 0 -28 12 q-9 12 -6 26 q3 22 27 24 q236 7 406 64 q20 6 32 -3 q11 -9 13 -23 q3 -23 -24 -34 q-77 -23 -171 -38 l0 -240 l243 1 q18 -1 26 -11 q8 -11 6 -24 q-2 -24 -32 -26 l-243 1 l0 -304 ZM268 549 l-11 -609 q-1 -17 -14 -25 q-13 -8 -29 -5 q-25 3 -27 29 l13 511 q-55 -74 -100 -115 q-33 -25 -53 -4 q-19 21 1 46 q77 72 139 164 q67 99 103 201 q7 16 20 20 q13 4 27 -1 q30 -13 21 -46 q-33 -75 -90 -166 Z" /><glyph glyph-name="" unicode="&#x4f01;" d="M417 713 q31 43 76 44 q46 1 85 -43 q167 -191 334 -290 q17 -11 18 -25 q1 -15 -8 -28 q-21 -28 -59 -9 q-166 119 -325 304 q-21 25 -38 25 q-18 0 -36 -25 q-60 -82 -150 -174 q-93 -95 -175 -156 q-22 -16 -41 -11 q-18 5 -26 20 q-12 25 18 47 q81 48 179 148 q84 85 148 173 ZM543 285 l224 0 q16 -1 23 -11 q8 -11 6 -24 q-2 -24 -29 -27 l-225 1 l0 -206 l320 0 q16 -1 23 -11 q8 -11 6 -24 q-2 -24 -29 -27 l-728 0 q-17 1 -25 11 q-7 10 -6 23 q2 25 31 28 l128 0 l0 288 q1 17 11 25 q10 8 23 8 q29 1 33 -33 l0 -288 l145 0 l0 475 q1 17 11 25 q11 9 25 8 q29 0 33 -33 l0 -208 Z" /><glyph glyph-name="" unicode="&#x4f0a;" d="M861 452 q-2 -109 -3 -118 q-3 -82 -103 -87 q-72 -2 -135 -2 q-42 -226 -230 -320 q-40 -16 -54 9 q-15 26 16 46 q164 79 203 265 q-86 0 -172 1 q-14 0 -20 9 q-6 9 -6 20 q2 24 27 27 q90 -1 179 -1 q5 41 7 95 q1 28 2 57 l-231 0 q-14 1 -20 10 q-6 9 -5 21 q1 22 25 25 l231 0 q0 1 -3 142 q-83 -1 -167 -1 q-16 1 -23 11 q-7 10 -5 22 q2 22 27 25 q315 0 357 -1 q47 -1 73 -23 q26 -23 27 -64 q2 -54 2 -110 l70 0 q14 -1 20 -12 q6 -11 3 -24 q-3 -20 -23 -22 l-69 0 ZM798 453 l-163 0 q0 -39 -1 -58 q-1 -47 -6 -94 q89 0 118 1 q45 1 50 42 q2 50 2 109 ZM798 509 q0 53 -2 101 q-3 37 -49 40 q-57 0 -114 1 q2 -94 2 -142 l163 0 ZM258 546 l-11 -608 q-1 -16 -12 -24 q-12 -8 -26 -6 q-26 2 -29 29 l13 505 q-45 -66 -88 -108 q-32 -26 -52 -3 q-19 19 2 44 q149 149 224 370 q6 17 19 22 q13 5 26 0 q29 -10 20 -45 q-35 -88 -86 -176 Z" /><glyph glyph-name="" unicode="&#x4f11;" d="M664 478 q106 -195 265 -317 q14 -11 15 -26 q0 -14 -9 -25 q-19 -25 -55 -1 q-139 117 -238 302 l4 -478 q-1 -16 -14 -23 q-12 -6 -27 -4 q-24 3 -27 27 l5 475 q-90 -192 -218 -312 q-32 -24 -54 -1 q-19 20 6 46 q142 120 241 337 l-193 -3 q-16 1 -24 11 q-8 10 -7 22 q2 25 30 28 l215 -1 l0 208 q1 17 13 24 q13 7 28 4 q23 -4 26 -28 l0 -208 l242 1 q16 -1 23 -11 q7 -10 6 -22 q-1 -25 -28 -28 l-225 3 ZM274 551 l-10 -615 q-1 -17 -12 -24 q-11 -8 -25 -7 q-28 2 -31 31 l12 515 q-54 -74 -104 -121 q-30 -24 -49 -5 q-22 21 -1 47 q80 76 141 170 q66 101 101 210 q13 28 40 21 q34 -10 26 -45 q-29 -78 -88 -177 Z" /><glyph glyph-name="" unicode="&#x4f17;" d="M939 413 q-15 -27 -56 -11 q-184 97 -337 287 q-18 24 -44 24 q-25 0 -42 -23 q-130 -184 -330 -292 q-42 -21 -60 4 q-8 11 -4 25 q4 17 22 26 q103 55 172 115 q67 58 157 169 q32 39 79 39 q52 0 85 -38 q156 -179 339 -273 q18 -9 22 -25 q4 -13 -3 -27 ZM676 353 q41 -136 97 -225 q59 -94 143 -150 q17 -11 19 -28 q2 -15 -8 -26 q-21 -22 -59 -1 q-145 96 -216 326 q-21 -64 -49 -116 q-66 -125 -179 -211 q-32 -21 -57 -2 q-12 9 -12 22 q0 15 15 27 q112 89 169 197 q69 129 75 289 q1 16 12 25 q10 8 24 7 q31 -3 35 -35 q-2 -51 -9 -99 ZM369 339 q76 -59 123 -145 q17 -30 -6 -51 q-12 -11 -27 -9 q-16 2 -25 19 q-37 69 -79 119 q-18 -66 -45 -125 q-62 -135 -171 -225 q-27 -19 -52 -4 q-14 10 -15 22 q-2 15 14 28 q93 73 153 200 q59 127 70 286 q1 16 12 25 q10 8 24 7 q15 -1 25 -10 q11 -10 10 -24 q-1 -54 -11 -113 Z" /><glyph glyph-name="" unicode="&#x4f1a;" d="M658 427 l-306 0 q-31 4 -31 30 q0 27 31 31 l306 0 q31 -4 31 -31 q0 -26 -31 -30 ZM420 719 q31 41 73 42 q44 1 84 -41 q165 -178 331 -264 q17 -9 20 -23 q3 -14 -5 -27 q-18 -32 -59 -14 q-70 40 -165 122 q-94 81 -162 158 q-21 23 -37 23 q-16 0 -34 -24 q-64 -81 -149 -161 q-92 -86 -179 -143 q-23 -14 -41 -8 q-18 6 -24 22 q-11 26 21 46 q85 43 179 131 q78 73 147 161 ZM724 7 q-245 -45 -466 -61 q-32 -2 -42 24 q-10 26 15 46 q20 17 53 59 q60 75 110 167 l-219 -2 q-32 4 -31 31 q1 27 31 31 l646 0 q32 -4 32 -31 q0 -27 -32 -31 l-348 2 q-60 -104 -141 -211 q-5 -6 -3 -9 q2 -3 9 -3 q167 10 346 37 q-38 42 -96 84 q-24 21 -7 40 q18 18 47 4 q117 -75 199 -203 q16 -36 -11 -53 q-28 -17 -49 12 q-20 37 -43 67 Z" /><glyph glyph-name="" unicode="&#x4f1f;" d="M636 267 l0 -328 q0 -14 -12 -23 q-10 -7 -24 -7 q-12 0 -22 8 q-11 9 -11 22 l0 328 q-115 -1 -230 -1 q-14 0 -22 9 q-8 9 -8 21 q0 30 31 30 q51 1 229 1 l0 105 l-154 0 q-28 3 -30 27 q0 31 30 31 l154 0 l0 98 l-190 0 q-32 3 -32 30 q0 11 8 20 q9 10 24 10 l190 0 l0 101 q0 14 10 22 q9 7 22 8 q14 1 25 -7 q12 -9 12 -23 l0 -101 l219 0 q14 0 23 -10 q8 -9 8 -21 q0 -26 -31 -29 l-219 0 l0 -98 l176 0 q31 -4 31 -30 q0 -25 -31 -28 l-176 0 l0 -105 q134 0 174 -1 q55 -2 78 -19 q26 -20 25 -68 q0 -80 -10 -130 q-15 -75 -91 -84 q-54 -6 -101 4 q-27 8 -25 35 q3 30 32 28 q21 -5 71 -5 q26 -1 38 10 q9 8 14 32 q9 43 7 100 q0 38 -46 38 l-166 0 ZM274 573 l-12 -634 q0 -14 -11 -23 q-10 -8 -23 -8 q-15 0 -25 8 q-11 9 -11 23 l13 525 q-50 -72 -95 -118 q-28 -28 -51 -8 q-25 23 0 51 q142 157 224 368 q6 16 22 20 q15 4 30 -4 q25 -14 15 -44 q-31 -74 -76 -156 Z" /><glyph glyph-name="" unicode="&#x4f20;" d="M678 27 q31 -31 55 -64 q11 -14 6 -28 q-4 -13 -18 -20 q-29 -17 -59 13 q-81 105 -198 179 q-11 7 -11 19 q0 12 9 20 q21 19 53 4 q58 -30 115 -78 q98 83 146 154 q12 18 3 25 q-7 6 -28 6 q-82 1 -263 -4 q-46 -2 -61 18 q-14 18 1 52 q35 71 51 107 l-145 0 q-30 3 -31 28 q0 12 8 21 q9 10 23 10 l171 0 q23 55 48 119 l-157 0 q-31 3 -31 28 q0 13 7 21 q9 10 24 10 l179 0 q11 28 31 86 q5 15 18 22 q12 6 25 4 q32 -6 26 -41 q-9 -25 -25 -71 l201 0 q31 -4 31 -30 q0 -12 -7 -20 q-8 -9 -24 -9 l-224 0 q-15 -41 -47 -119 l337 0 q14 0 22 -9 q8 -9 8 -21 q0 -12 -7 -20 q-8 -9 -23 -9 l-363 0 q-30 -68 -47 -103 q-5 -10 -2 -13 q3 -3 16 -3 q128 1 255 2 q64 0 83 -34 q18 -33 -12 -73 q-74 -102 -169 -179 ZM273 570 l-11 -631 q0 -14 -11 -23 q-9 -8 -23 -8 q-15 0 -25 8 q-11 8 -10 23 l12 523 q-45 -64 -95 -116 q-26 -30 -51 -8 q-25 23 0 51 q142 157 224 368 q6 16 22 20 q15 4 30 -4 q25 -14 15 -44 q-32 -82 -77 -159 Z" /><glyph glyph-name="" unicode="&#x4f26;" d="M945 435 q-23 -26 -64 2 q-134 107 -223 252 q-14 21 -28 20 q-14 -1 -27 -22 q-51 -83 -100 -141 q-55 -64 -132 -126 q-31 -25 -57 -1 q-11 10 -11 23 q0 15 12 25 q84 69 134 124 q54 59 106 142 q31 45 69 45 q44 -1 75 -43 q97 -149 238 -243 q32 -28 8 -57 ZM477 246 q153 58 295 150 q34 16 54 -6 q20 -24 -13 -53 q-137 -86 -336 -149 q0 -88 1 -134 q1 -27 11 -40 q12 -14 40 -18 q110 -10 228 1 q45 8 63 38 q14 24 16 74 q5 36 35 35 q30 -1 35 -35 q2 -74 -32 -118 q-36 -47 -110 -54 q-126 -9 -248 -2 q-55 5 -79 30 q-25 25 -26 78 q-3 177 2 394 q1 13 11 21 q9 7 23 7 q15 1 24 -7 q10 -8 9 -23 q-1 -49 -3 -189 ZM274 551 l-11 -612 q-1 -13 -10 -22 q-10 -9 -22 -9 q-15 0 -25 7 q-12 9 -11 24 l13 518 q-50 -64 -98 -111 q-26 -25 -51 -8 q-24 22 0 51 q150 162 242 368 q6 16 21 20 q14 4 30 -4 q26 -14 16 -44 q-39 -91 -94 -178 Z" /><glyph glyph-name="" unicode="&#x4f2f;" d="M813 267 l-339 0 q0 -113 3 -206 q1 -31 17 -45 q16 -14 53 -17 q115 -8 202 0 q59 6 61 63 q3 93 3 205 ZM813 325 q0 98 -3 173 q-1 27 -17 42 q-16 14 -42 15 q-109 4 -214 0 q-58 -5 -60 -57 q-1 -60 -3 -173 l339 0 ZM648 613 q80 0 115 -2 q111 -11 116 -95 q8 -288 0 -472 q-2 -44 -32 -71 q-32 -28 -85 -32 q-111 -7 -237 -1 q-55 3 -85 33 q-28 28 -29 71 q-5 239 0 470 q1 40 29 67 q30 29 79 30 q19 1 61 1 q24 75 32 133 q3 18 17 24 q13 7 29 4 q34 -7 31 -37 q-14 -52 -41 -123 ZM277 569 l-12 -627 q-1 -18 -14 -25 q-13 -8 -29 -5 q-25 3 -27 29 l14 522 q-53 -77 -102 -124 q-33 -26 -53 -6 q-21 20 1 47 q74 73 134 167 q64 100 98 203 q6 17 19 21 q14 4 27 -1 q30 -12 22 -45 q-33 -79 -78 -156 Z" /><glyph glyph-name="" unicode="&#x4f3d;" d="M844 539 q-2 41 -30 44 q-24 4 -53 0 q-14 -1 -22 -14 q-7 -12 -7 -31 q-4 -292 0 -482 q0 -46 31 -49 q21 -2 49 0 q30 4 32 50 q5 238 0 482 ZM829 -51 q-43 -3 -89 0 q-33 4 -51 29 q-18 25 -19 65 q-4 204 0 508 q1 39 20 63 q19 24 55 27 q28 2 84 0 q35 -1 56 -25 q20 -23 21 -60 q3 -256 0 -514 q-1 -40 -20 -64 q-20 -25 -57 -29 ZM458 564 l58 0 q41 0 63 -22 q23 -23 24 -68 q1 -131 -1 -190 q-4 -117 -21 -194 q-40 -187 -192 -135 q-13 5 -16 18 q-4 12 1 24 q10 29 38 19 q41 -15 64 0 q28 19 44 87 q26 117 21 359 q-1 44 -41 46 l-43 0 q-3 -179 -32 -309 q-37 -165 -117 -264 q-25 -26 -48 -11 q-23 15 -7 44 q78 98 112 250 q26 117 30 289 q-37 0 -79 -2 q-16 0 -23 11 q-7 10 -4 23 q3 22 28 25 l79 0 q0 86 -1 173 q1 16 12 24 q11 7 25 5 q25 -2 28 -29 q-1 -87 -2 -173 ZM242 555 l-13 -616 q-1 -16 -11 -24 q-10 -8 -24 -7 q-28 0 -30 30 l11 496 q-37 -61 -75 -105 q-28 -28 -50 -10 q-21 16 -2 44 q144 176 199 388 q5 17 17 22 q13 6 26 2 q29 -10 24 -42 q-25 -79 -72 -178 Z" /><glyph glyph-name="" unicode="&#x4f4d;" d="M496 118 q-21 152 -80 297 q-7 29 21 37 q28 9 43 -18 q57 -155 85 -301 q3 -24 -11 -36 q-13 -11 -30 -9 q-23 2 -28 30 ZM676 15 l230 1 q17 -1 25 -11 q7 -9 6 -22 q-2 -24 -31 -27 l-573 0 q-31 4 -31 30 q0 26 31 30 l279 -1 q83 231 112 423 q2 16 15 22 q12 7 27 4 q33 -5 31 -40 q-15 -79 -48 -194 q-38 -131 -73 -215 ZM655 579 l211 1 q18 -1 26 -11 q8 -9 6 -22 q-2 -24 -32 -27 l-483 0 q-17 1 -25 11 q-7 9 -6 22 q2 24 31 27 l204 -1 l-1 154 q1 17 13 25 q12 8 26 6 q28 -2 31 -31 l-1 -154 ZM272 535 l-12 -599 q-1 -16 -13 -24 q-12 -7 -26 -6 q-27 3 -30 30 l14 507 q-51 -67 -96 -107 q-33 -24 -52 -3 q-19 21 2 46 q79 72 142 162 q67 96 106 200 q6 16 19 20 q14 5 28 -1 q29 -13 19 -46 q-38 -83 -101 -179 Z" /><glyph glyph-name="" unicode="&#x4f4e;" d="M601 13 q-20 22 -5 39 q14 16 39 3 q47 -37 76 -85 q15 -33 -7 -48 q-23 -16 -44 13 q-26 49 -59 78 ZM716 380 q34 -253 94 -346 q33 -48 58 -19 q21 24 26 81 q2 11 12 17 q9 5 21 4 q30 -2 31 -35 q-15 -116 -72 -140 q-72 -29 -124 45 q-74 116 -109 391 l-181 -5 l0 -291 q0 -9 5 -13 q4 -3 12 0 q29 11 135 75 q24 9 35 -14 q11 -22 -9 -38 q-111 -72 -170 -98 q-32 -14 -54 1 q-21 15 -21 49 l1 537 q0 52 25 80 q24 27 74 32 q168 21 277 56 q20 6 33 -3 q13 -8 16 -22 q5 -25 -28 -37 q-44 -13 -108 -25 q4 -128 15 -225 l161 6 q32 -3 32 -29 q0 -25 -30 -29 l-157 -5 ZM647 435 q-11 101 -17 216 q-70 -10 -98 -13 q-35 -4 -49 -23 q-11 -15 -11 -46 l0 -140 l175 6 ZM270 552 l-12 -616 q-1 -17 -14 -25 q-12 -7 -27 -5 q-25 3 -27 30 l13 514 q-51 -71 -100 -118 q-26 -25 -51 -6 q-11 9 -12 22 q-1 14 12 27 q75 72 138 168 q67 102 102 204 q6 17 19 21 q13 4 26 -1 q29 -12 21 -44 q-33 -81 -88 -171 Z" /><glyph glyph-name="" unicode="&#x4f4f;" d="M525 717 q-26 14 -14 37 q13 23 43 19 q36 -13 80 -37 q49 -27 73 -49 q24 -30 3 -54 q-22 -24 -51 -1 q-45 46 -134 85 ZM660 8 l254 1 q17 -1 25 -12 q7 -11 5 -24 q-3 -22 -30 -25 l-571 0 q-35 4 -33 32 q1 26 33 29 l250 -1 l0 243 l-172 -1 q-32 3 -32 29 q0 25 32 29 l172 -1 l0 200 l-199 -1 q-33 3 -33 29 q0 26 32 30 l479 0 q17 -1 25 -11 q7 -9 6 -22 q-2 -24 -31 -26 l-212 1 l0 -200 l173 1 q32 -4 32 -29 q0 -26 -32 -29 l-173 1 l0 -243 ZM279 547 l-12 -611 q-1 -16 -13 -24 q-12 -7 -27 -6 q-27 2 -30 30 l14 517 q-51 -67 -104 -115 q-34 -24 -53 -3 q-20 22 3 48 q80 71 143 160 q68 96 108 200 q7 16 20 19 q14 4 27 -2 q30 -14 19 -47 q-39 -82 -95 -166 Z" /><glyph glyph-name="" unicode="&#x4f50;" d="M688 7 l218 1 q15 -1 23 -10 q7 -9 6 -21 q0 -25 -30 -28 l-503 0 q-18 1 -25 11 q-7 10 -5 23 q3 22 30 25 l221 -1 l0 252 l-144 -1 q-56 -96 -116 -146 q-34 -23 -55 -1 q-18 19 7 45 q134 118 200 342 l-149 -1 q-17 0 -24 9 q-8 10 -7 22 q1 25 31 28 l164 -1 q20 84 28 171 q2 17 13 25 q12 7 25 5 q31 -4 32 -34 q-12 -90 -31 -167 l298 1 q31 -4 31 -30 q0 -26 -31 -29 l-314 1 q-31 -99 -71 -182 l340 0 q31 -4 31 -29 q0 -25 -31 -29 l-162 1 l0 -252 ZM272 540 l-12 -602 q-1 -16 -12 -24 q-11 -7 -25 -6 q-27 1 -30 30 l13 504 q-56 -76 -104 -119 q-27 -25 -51 -5 q-23 19 0 47 q80 74 142 168 q67 101 103 208 q13 27 39 21 q36 -10 28 -46 q-31 -78 -91 -176 Z" /><glyph glyph-name="" unicode="&#x4f53;" d="M662 503 q101 -184 283 -318 q26 -25 6 -49 q-20 -26 -54 -3 q-143 119 -256 314 l4 -224 l0 -38 l109 1 q15 -1 22 -10 q7 -9 6 -21 q-2 -22 -28 -25 l-109 1 l0 -194 q-1 -16 -13 -23 q-12 -7 -27 -4 q-23 4 -25 27 l0 194 l-103 -1 q-31 3 -30 28 q0 24 30 28 l103 -1 l0 37 l4 222 q-88 -184 -239 -326 q-28 -19 -47 0 q-22 21 1 46 q165 136 259 339 l-200 -3 q-18 0 -25 11 q-7 10 -5 24 q3 23 30 26 l222 -1 l0 188 q1 16 12 23 q12 8 26 5 q24 -3 27 -28 l0 -188 l246 1 q17 -1 24 -12 q8 -12 5 -26 q-4 -21 -28 -23 l-230 3 ZM274 553 l-10 -617 q-1 -17 -13 -25 q-13 -7 -27 -5 q-25 3 -27 30 l12 518 q-56 -77 -103 -121 q-26 -25 -50 -6 q-24 20 0 47 q157 149 238 374 q6 16 18 21 q13 4 26 -1 q30 -11 22 -43 q-29 -75 -86 -172 Z" /><glyph glyph-name="" unicode="&#x4f55;" d="M552 438 q-43 2 -82 0 q-40 -1 -42 -47 q-5 -55 0 -129 q1 -38 42 -42 q61 -2 83 0 q18 2 28 10 q12 10 13 32 q3 63 0 130 q-3 44 -42 46 ZM368 409 q1 37 23 59 q22 22 56 24 q50 3 124 0 q36 -2 58 -21 q24 -20 25 -55 q3 -86 0 -165 q-5 -81 -83 -88 q-58 -4 -124 0 q-72 7 -79 86 q-4 57 0 160 ZM830 622 q0 -232 0 -464 l2 -115 q1 -66 -52 -98 q-63 -38 -198 -17 q-19 3 -27 15 q-7 12 -5 26 q4 28 36 26 q91 -14 131 -3 q46 12 46 61 l0 569 l-358 -1 q-17 1 -25 10 q-8 10 -7 23 q1 26 32 30 l503 0 q17 -1 25 -10 q9 -10 8 -23 q-1 -26 -33 -30 l-78 1 ZM269 549 l-8 -609 q-1 -17 -14 -25 q-13 -8 -29 -6 q-27 3 -29 30 l15 517 q-57 -77 -103 -117 q-30 -25 -54 -3 q-20 21 3 47 q156 140 242 356 q7 16 20 20 q14 3 27 -3 q30 -13 19 -46 q-31 -69 -89 -161 Z" /><glyph glyph-name="" unicode="&#x4f59;" d="M416 722 q31 40 77 41 q48 1 86 -40 q163 -177 332 -263 q18 -10 20 -25 q2 -15 -7 -28 q-19 -28 -58 -11 q-71 41 -165 121 q-90 77 -162 158 q-41 47 -76 0 q-67 -85 -148 -162 q-90 -85 -177 -142 q-24 -15 -43 -8 q-18 7 -24 25 q-9 24 20 43 q84 43 179 131 q80 75 146 160 ZM863 38 q15 -17 12 -35 q-3 -17 -16 -27 q-24 -19 -49 9 q-55 76 -167 141 q-26 19 -11 42 q14 23 44 12 q112 -58 187 -142 ZM350 134 q-77 -106 -187 -167 q-19 -9 -34 -4 q-15 5 -22 19 q-13 25 17 44 q108 51 173 149 q21 24 45 6 q23 -18 8 -47 ZM541 427 l-1 -120 l284 1 q30 -3 30 -28 q0 -25 -29 -29 l-285 2 l2 -215 q1 -71 -45 -102 q-53 -36 -161 -17 q-19 3 -26 14 q-7 11 -4 25 q6 29 39 27 q72 -15 101 1 q28 15 28 64 l1 203 l-293 -2 q-30 4 -30 29 q0 25 30 28 l293 -1 l-1 120 l-133 -1 q-16 1 -23 10 q-8 10 -6 22 q2 23 29 26 l326 0 q29 -4 29 -29 q0 -25 -30 -29 l-125 1 Z" /><glyph glyph-name="" unicode="&#x4f5c;" d="M639 136 l0 -194 q-1 -18 -11 -27 q-11 -8 -25 -7 q-27 2 -30 34 l0 591 l-62 0 q-47 -95 -115 -183 q-30 -30 -53 -9 q-19 17 -1 44 q131 159 180 356 q5 16 17 22 q12 5 25 1 q30 -8 24 -40 q-25 -75 -49 -131 l373 0 q15 -1 22 -10 q7 -9 7 -21 q-1 -26 -29 -29 l-273 0 l0 -138 l227 0 q14 -1 21 -10 q7 -9 7 -21 q-1 -25 -28 -28 l-227 0 l0 -141 l237 0 q14 -1 21 -10 q7 -9 7 -21 q-1 -25 -28 -28 l-237 0 ZM295 565 l-11 -629 q-1 -17 -12 -24 q-11 -8 -25 -7 q-27 2 -30 31 l11 531 q-67 -89 -124 -139 q-32 -23 -51 -1 q-20 21 2 45 q82 72 147 165 q69 99 108 207 q6 15 18 19 q14 5 27 -1 q30 -13 21 -44 q-32 -74 -81 -153 Z" /><glyph glyph-name="" unicode="&#x4f60;" d="M808 342 q88 -109 133 -232 q11 -32 -20 -50 q-15 -8 -28 -3 q-15 6 -22 27 q-44 129 -119 228 q-14 26 11 40 q25 14 45 -10 ZM534 317 q-35 -135 -121 -248 q-23 -31 -53 -16 q-29 15 -8 51 q79 105 120 233 q13 28 40 21 q27 -7 22 -41 ZM688 553 l0 -501 q0 -66 -20 -97 q-24 -37 -87 -42 q-41 -3 -97 7 q-34 6 -32 38 q3 35 38 31 q43 -11 76 -9 q29 2 42 18 q13 16 13 55 l0 500 l-120 0 q-46 -91 -88 -142 q-26 -24 -51 -8 q-21 14 -4 43 q109 147 148 307 q4 14 16 20 q12 6 27 1 q33 -10 21 -48 q-13 -47 -42 -115 q203 2 320 -2 q35 -1 57 -24 q22 -23 16 -58 q-13 -57 -42 -107 q-19 -27 -48 -17 q-25 12 -14 39 q27 50 36 77 q6 18 -1 25 q-6 6 -26 7 q-84 2 -138 2 ZM287 558 l-11 -619 q-1 -14 -10 -22 q-10 -9 -23 -9 q-16 0 -25 7 q-11 8 -11 24 l14 529 q-58 -73 -116 -123 q-34 -28 -54 -3 q-18 22 5 48 q184 172 263 366 q7 16 20 21 q12 4 26 -3 q27 -14 18 -45 q-39 -86 -96 -171 Z" /><glyph glyph-name="" unicode="&#x4f69;" d="M979 98 q-19 -132 -66 -153 q-49 -22 -83 42 q-44 102 -47 278 q-4 202 1 346 q1 59 -58 61 q-130 5 -255 0 q-55 -3 -55 -66 q1 -33 1 -66 q4 -206 -5 -310 q-16 -192 -73 -286 q-10 -17 -23 -20 q-14 -3 -26 3 q-26 14 -10 48 q58 91 73 278 q9 108 3 303 q-2 46 -2 63 q-2 45 22 75 q26 33 76 34 q147 5 298 0 q47 -1 73 -30 q26 -28 25 -74 q-1 -53 -3 -106 q-6 -171 -3 -264 q5 -151 35 -221 q10 -21 20 -14 q18 13 24 91 q2 15 11 21 q9 6 21 4 q26 -5 26 -37 ZM626 459 q18 -1 36 -1 q69 -3 70 -79 q0 -75 0 -149 q1 -25 1 -72 q2 -48 -19 -70 q-24 -26 -77 -13 q-6 1 -12 7 l0 -132 q-1 -15 -10 -22 q-9 -6 -21 -4 q-20 3 -22 26 l2 459 q-14 -1 -29 -1 q-34 -1 -34 -40 q-2 -190 0 -286 q-2 -28 -23 -28 q-20 -1 -23 27 q1 150 1 300 q-2 75 72 77 q20 0 33 1 l1 84 l-91 -1 q-28 3 -27 26 q1 24 28 27 l239 0 q14 0 21 -9 q6 -8 5 -19 q-1 -22 -27 -25 l-94 1 l0 -84 ZM625 121 q6 7 16 6 q27 -6 36 0 q12 8 12 37 q0 135 -2 204 q0 39 -33 40 q-15 0 -30 1 l1 -288 ZM261 559 l-12 -621 q-1 -15 -11 -23 q-11 -8 -24 -7 q-28 0 -30 30 l12 516 q-47 -72 -93 -119 q-31 -27 -53 -6 q-19 20 2 47 q72 74 130 169 q62 102 93 206 q6 16 18 21 q13 4 25 -1 q29 -10 22 -42 q-27 -77 -79 -170 Z" /><glyph glyph-name="" unicode="&#x4f6c;" d="M782 456 l129 0 q12 0 21 -10 q8 -9 8 -21 q0 -11 -7 -19 q-8 -10 -22 -10 l-186 0 q-26 -25 -63 -55 q-48 -38 -96 -68 q-2 -60 -2 -92 q153 51 265 108 q30 11 44 -16 q16 -25 -20 -48 q-123 -58 -290 -100 q1 -39 1 -78 q0 -52 55 -58 q81 -8 161 1 q41 7 58 29 q16 21 16 65 q0 15 12 24 q11 8 26 6 q28 -4 31 -33 q0 -74 -34 -109 q-31 -34 -98 -42 q-92 -7 -186 -1 q-106 9 -107 109 q0 65 2 195 q-68 -38 -131 -68 q-34 -14 -46 12 q-6 11 -2 22 q4 13 19 20 q194 94 286 171 q4 3 7 6 l-256 0 q-30 3 -30 29 q0 14 7 22 q8 9 23 9 l189 0 l0 117 l-149 0 q-29 3 -30 29 q0 13 8 22 q8 9 22 9 l149 0 l0 112 q0 13 11 22 q10 8 23 8 q13 0 22 -8 q9 -8 9 -22 l0 -112 l112 0 q14 0 22 -10 q7 -8 7 -20 q0 -11 -7 -20 q-8 -10 -22 -10 l-112 0 l0 -117 l67 0 q90 93 147 219 q6 15 18 18 q12 3 24 -4 q30 -15 17 -43 q-46 -103 -122 -190 ZM293 569 l-11 -630 q-1 -13 -11 -22 q-10 -9 -22 -9 q-16 0 -25 7 q-11 8 -11 24 l14 535 q-57 -72 -123 -132 q-32 -29 -55 -7 q-23 25 4 49 q91 86 151 172 q66 94 106 203 q6 15 20 20 q13 5 28 -1 q29 -11 21 -46 q-35 -86 -86 -163 Z" /><glyph glyph-name="" unicode="&#x4f70;" d="M812 206 l-337 0 l0 -7 q0 -65 2 -151 q1 -30 15 -42 q14 -12 50 -15 q111 -8 207 0 q57 4 60 57 q3 70 3 158 ZM812 263 q0 72 -3 131 q-3 53 -57 55 q-89 4 -217 0 q-57 -5 -58 -55 q-1 -66 -2 -131 l337 0 ZM669 639 q-6 -36 -31 -131 q88 0 129 -2 q48 -2 77 -26 q29 -24 31 -65 q6 -197 0 -387 q-1 -41 -31 -67 q-29 -25 -79 -29 q-107 -8 -242 -1 q-55 3 -83 30 q-26 25 -27 68 q-4 155 0 385 q1 38 28 64 q28 27 71 28 q30 0 59 1 q14 50 27 132 l-205 0 q-17 1 -25 11 q-7 11 -5 23 q3 23 30 26 l511 0 q31 -4 31 -30 q0 -26 -31 -30 l-235 0 ZM273 570 l-12 -631 q-1 -17 -13 -25 q-12 -7 -27 -6 q-27 2 -30 30 l13 522 q-51 -78 -100 -125 q-33 -26 -52 -6 q-23 19 0 48 q73 73 133 168 q63 102 96 205 q6 17 19 21 q12 5 26 0 q30 -11 22 -43 q-30 -76 -75 -158 Z" /><glyph glyph-name="" unicode="&#x4f73;" d="M662 220 l191 1 q31 -4 31 -29 q0 -26 -31 -29 l-191 1 l-1 -156 l258 1 q31 -4 31 -29 q0 -25 -31 -29 l-577 0 q-17 1 -25 11 q-7 10 -5 22 q2 22 30 25 l254 -1 l-1 156 l-184 -1 q-30 3 -30 29 q0 25 30 29 l184 -1 l-1 89 q1 17 13 25 q12 7 27 5 q26 -3 29 -30 l-1 -89 ZM662 618 l181 1 q31 -4 31 -29 q0 -25 -31 -29 l-181 1 l-1 -138 l228 1 q31 -4 31 -29 q0 -24 -31 -28 l-505 0 q-30 4 -30 28 q0 25 30 29 l212 -1 l-1 138 l-174 -1 q-30 4 -30 29 q0 25 30 29 l174 -1 l-1 118 q1 17 13 25 q12 7 27 5 q26 -3 29 -30 l-1 -118 ZM277 540 l-11 -600 q-1 -17 -14 -25 q-13 -8 -28 -6 q-26 3 -29 30 l14 506 q-51 -67 -98 -109 q-34 -24 -54 -4 q-10 9 -10 22 q0 14 13 25 q78 71 141 161 q67 96 106 199 q7 16 20 20 q13 3 27 -3 q29 -13 19 -46 q-33 -73 -96 -170 Z" /><glyph glyph-name="" unicode="&#x4f7f;" d="M666 459 l0 -16 q-1 -29 -1 -72 q0 -19 -2 -57 q72 0 124 3 q38 2 40 34 q2 26 0 72 q-3 33 -41 35 q-33 1 -120 1 ZM666 512 q78 0 135 -3 q41 -1 64 -20 q21 -17 23 -46 q5 -48 1 -103 q-3 -34 -25 -53 q-23 -20 -65 -22 q-58 -3 -140 -3 q-13 -111 -62 -186 q135 -83 321 -85 q17 -1 25 -11 q8 -10 6 -24 q-3 -29 -43 -32 q-198 7 -347 105 q-77 -81 -218 -113 q-18 -4 -30 6 q-11 9 -13 24 q-2 23 27 31 q121 23 185 89 q-57 48 -94 107 q-10 23 11 36 q21 14 38 -5 q31 -49 82 -92 q37 60 50 150 q-74 0 -128 3 q-80 6 -84 73 q-4 51 0 101 q2 29 22 48 q23 21 61 22 q57 3 136 3 l0 85 l-217 -1 q-17 1 -24 12 q-7 10 -4 23 q3 22 28 24 l216 -1 l0 90 q0 17 10 26 q10 8 22 7 q27 -1 31 -32 l0 -91 l234 1 q15 -1 22 -10 q7 -9 6 -21 q0 -25 -28 -28 l-234 1 l0 -85 ZM604 459 q-86 0 -119 -1 q-38 -2 -40 -37 q0 -36 0 -71 q1 -18 12 -26 q9 -6 27 -7 q50 -3 118 -3 q2 42 2 62 q0 35 0 70 l0 13 ZM268 565 l-12 -627 q-1 -17 -13 -25 q-13 -7 -27 -5 q-25 2 -27 30 l14 521 q-54 -78 -100 -124 q-34 -27 -53 -5 q-22 22 1 47 q154 150 229 373 q6 17 19 22 q12 4 26 -1 q30 -11 22 -43 q-29 -75 -79 -163 Z" /><glyph glyph-name="" unicode="&#x4f8b;" d="M900 728 l0 -553 q0 -39 3 -144 q2 -56 -39 -86 q-50 -37 -148 -19 q-16 3 -23 14 q-7 11 -6 23 q2 30 35 28 q54 -10 80 -2 q33 11 33 55 q4 438 -2 684 q0 17 11 25 q10 8 24 8 q28 -1 32 -33 ZM741 669 l0 -520 q-1 -16 -12 -22 q-11 -7 -25 -5 q-22 3 -25 27 l0 520 q1 17 12 24 q11 7 25 5 q22 -3 25 -29 ZM524 314 q21 79 25 142 q2 31 -28 31 l-79 0 q-42 -136 -102 -230 q-22 -29 -46 -17 q-27 12 -11 43 q111 162 140 380 l-68 -1 q-29 3 -29 28 q0 24 29 28 l255 0 q30 -4 30 -28 q0 -25 -30 -28 l-128 1 q-10 -66 -25 -122 q41 0 81 1 q38 0 58 -19 q23 -22 18 -63 q-21 -164 -84 -298 q-69 -146 -178 -232 q-17 -12 -32 -10 q-15 3 -23 14 q-15 21 12 45 q129 91 196 275 q-38 22 -87 38 q-24 11 -16 35 q9 28 42 23 q32 -10 80 -36 ZM239 564 l-13 -625 q-1 -16 -12 -24 q-11 -8 -25 -7 q-26 1 -29 30 l12 516 q-37 -56 -73 -96 q-28 -26 -50 -8 q-22 18 -4 45 q137 152 206 353 q6 17 19 21 q13 4 26 -1 q29 -13 20 -45 q-36 -84 -77 -159 Z" /><glyph glyph-name="" unicode="&#x4f9b;" d="M884 -73 q-116 61 -194 160 q-18 29 4 45 q22 16 44 -5 q76 -92 184 -141 q16 -8 19 -21 q3 -13 -4 -25 q-16 -28 -53 -13 ZM355 -81 q-39 -14 -53 17 q-12 25 18 42 q118 54 194 148 q22 21 44 4 q24 -18 6 -46 q-41 -49 -101 -95 q-53 -41 -108 -70 ZM764 548 l111 0 q31 -4 31 -30 q0 -25 -31 -29 l-111 0 l-1 -238 l143 1 q17 -1 25 -11 q7 -10 5 -23 q-2 -22 -30 -25 l-547 0 q-31 4 -31 29 q0 26 31 30 l121 0 l-1 237 l-89 0 q-15 0 -23 9 q-8 8 -8 19 q-2 27 31 31 l89 0 l-1 175 q1 17 13 24 q11 8 26 6 q27 -3 30 -30 l-1 -176 l151 0 l0 176 q1 16 12 24 q11 7 25 6 q27 -2 30 -30 l0 -175 ZM698 251 l-1 239 l-151 0 l-1 -239 l153 0 ZM271 536 l-11 -597 q-1 -17 -13 -24 q-12 -8 -26 -7 q-28 2 -31 31 l14 506 q-50 -64 -97 -106 q-28 -24 -51 -6 q-11 9 -12 23 q-1 15 13 26 q79 71 143 161 q69 97 108 198 q7 16 21 20 q13 3 26 -3 q30 -13 19 -46 q-41 -87 -103 -176 Z" /><glyph glyph-name="" unicode="&#x4f9d;" d="M726 290 q71 -184 210 -275 q15 -9 17 -25 q2 -14 -7 -27 q-8 -11 -22 -14 q-17 -3 -31 7 q-120 84 -193 244 q-62 136 -82 309 q-42 -79 -85 -139 l-1 -357 q1 -16 16 -12 q59 24 132 65 q22 7 33 -15 q10 -22 -8 -36 q-50 -31 -165 -82 q-28 -13 -49 2 q-21 15 -21 45 l1 315 q-49 -54 -114 -100 q-31 -19 -48 2 q-18 22 9 45 q84 58 145 130 q53 63 108 163 l-199 -2 q-17 0 -25 10 q-7 10 -6 23 q2 24 31 27 l212 -1 l0 139 q1 17 12 24 q12 8 26 6 q27 -3 30 -30 l0 -139 l251 1 q15 0 22 -10 q7 -9 7 -20 q0 -27 -30 -30 l-230 2 q11 -110 38 -197 q69 34 147 91 q27 15 45 -8 q18 -23 -10 -47 q-67 -45 -166 -84 ZM270 536 l-12 -600 q-1 -16 -13 -23 q-11 -8 -26 -6 q-26 2 -29 29 l14 508 q-51 -68 -95 -108 q-34 -25 -53 -4 q-20 20 3 47 q75 69 139 163 q68 99 106 200 q7 16 20 20 q13 4 26 -2 q29 -11 20 -44 q-35 -78 -100 -180 Z" /><glyph glyph-name="" unicode="&#x4fa0;" d="M461 384 q-31 63 -63 97 q-17 19 4 35 q21 16 38 2 q47 -47 75 -102 q10 -33 -13 -46 q-24 -14 -41 14 ZM748 337 l157 0 q15 -1 22 -11 q7 -11 5 -23 q-2 -23 -27 -25 l-250 2 q34 -97 104 -174 q71 -77 163 -117 q15 -7 19 -20 q4 -13 -2 -25 q-13 -31 -53 -18 q-81 36 -156 120 q-77 86 -116 188 q-76 -240 -283 -321 q-35 -8 -46 22 q-9 26 19 40 q200 76 257 306 l-217 -3 q-30 3 -30 29 q0 26 30 30 l229 0 q6 40 8 92 l0 133 l-203 -1 q-30 3 -30 29 q0 26 30 30 l202 -1 q0 57 -1 114 q0 17 11 25 q11 8 25 7 q27 -2 30 -31 l0 -115 l219 1 q15 -1 22 -10 q7 -9 6 -21 q0 -25 -28 -28 l-219 1 l0 -130 q-2 -54 -8 -95 l50 0 q44 76 76 171 q5 15 18 19 q12 4 25 -1 q28 -12 20 -41 q-36 -82 -78 -148 ZM269 548 l-12 -610 q-1 -17 -14 -25 q-12 -7 -27 -5 q-24 2 -26 30 l13 512 q-50 -68 -97 -112 q-28 -26 -51 -5 q-23 21 1 49 q76 72 138 165 q66 100 101 203 q7 16 19 20 q13 4 26 -2 q30 -12 21 -44 q-34 -80 -92 -176 Z" /><glyph glyph-name="" unicode="&#x4fa7;" d="M596 -21 q-45 71 -110 136 q-20 20 -2 37 q13 13 33 2 q72 -56 127 -132 q19 -32 -3 -50 q-10 -9 -22 -8 q-14 1 -23 15 ZM436 349 l0 239 q0 15 10 24 q9 8 20 9 q11 0 20 -8 q10 -9 10 -25 l0 -240 q0 -128 -39 -236 q-46 -127 -138 -192 q-35 -18 -52 5 q-16 23 18 53 q80 53 119 166 q32 92 32 205 ZM615 235 q-6 -28 -28 -28 q-11 0 -18 6 q-9 8 -8 22 q2 240 -1 399 q0 23 -12 34 q-10 9 -30 10 q-52 3 -105 0 q-40 0 -40 -44 q-2 -197 0 -398 q-4 -28 -28 -28 q-11 0 -18 6 q-9 8 -9 22 q-2 206 0 414 q1 45 24 68 q21 21 59 22 q67 3 132 0 q79 -3 82 -85 q3 -139 0 -420 ZM902 746 l0 -706 q0 -90 -73 -112 q-44 -12 -111 -1 q-14 3 -22 14 q-8 11 -7 24 q3 34 43 27 q51 -8 73 -1 q32 11 32 55 l0 700 q4 32 32 34 q29 0 33 -34 ZM757 685 l0 -530 q0 -13 -9 -21 q-8 -7 -22 -8 q-12 0 -21 7 q-10 8 -10 22 l0 530 q4 29 30 31 q14 0 22 -7 q10 -8 10 -24 ZM235 560 l-12 -621 q-1 -14 -12 -23 q-10 -8 -23 -8 q-28 0 -30 30 l13 501 q-36 -59 -76 -101 q-31 -28 -53 -6 q-17 20 4 48 q124 133 193 379 q3 14 15 20 q12 6 24 3 q29 -8 23 -45 q-28 -93 -66 -177 Z" /><glyph glyph-name="" unicode="&#x4fca;" d="M681 470 q-23 19 -8 37 q15 19 44 7 q37 -21 84 -58 q46 -37 74 -75 q17 -30 -6 -49 q-23 -18 -46 8 q-53 76 -142 130 ZM534 472 q-21 -42 -70 -93 q-48 -50 -88 -74 q-31 -15 -45 8 q-15 23 11 44 q86 55 138 145 q18 23 42 9 q23 -14 12 -39 ZM778 569 q-137 -23 -368 -43 q-29 0 -34 24 q-6 23 16 39 q24 14 45 35 q50 49 98 132 q21 27 46 15 q24 -13 13 -38 q-45 -76 -104 -135 q-4 -5 -3 -8 q2 -3 9 -2 q112 7 242 26 q-19 21 -44 40 q-17 17 -2 35 q16 17 40 5 q31 -20 71 -61 q41 -42 59 -71 q17 -35 -11 -52 q-24 -13 -43 13 q-8 16 -30 46 ZM676 74 q98 -68 235 -86 q16 -3 23 -13 q6 -11 4 -23 q-5 -31 -46 -30 q-144 21 -256 110 q-103 -98 -246 -125 q-24 -3 -36 9 q-12 12 -9 27 q3 18 26 23 q123 21 219 108 q-57 57 -87 127 q-52 -73 -124 -139 q-29 -21 -44 0 q-15 21 4 43 q136 129 209 289 q16 23 40 12 q24 -11 13 -43 q-16 -32 -24 -47 q92 2 136 2 q48 1 66 -25 q17 -26 -2 -64 q-49 -97 -101 -155 ZM628 113 q50 57 81 124 q8 18 -1 26 q-7 6 -22 5 q-16 -2 -139 -2 q-1 -2 -8 -14 q27 -79 89 -139 ZM262 558 l-10 -620 q-1 -17 -13 -25 q-13 -7 -27 -5 q-25 2 -27 30 l12 518 q-51 -74 -94 -115 q-30 -27 -52 -8 q-23 22 0 48 q150 150 230 370 q6 17 19 21 q13 4 26 -2 q29 -12 21 -44 q-33 -79 -85 -168 Z" /><glyph glyph-name="" unicode="&#x4fdd;" d="M771 637 q-3 41 -53 43 q-93 2 -183 0 q-25 -1 -39 -14 q-12 -12 -14 -32 q-3 -45 -1 -113 q2 -45 54 -44 q103 -5 182 0 q54 1 55 48 q2 64 -1 112 ZM674 270 q114 -141 257 -220 q27 -20 14 -45 q-7 -15 -21 -19 q-17 -5 -35 7 q-131 87 -237 225 l3 -278 q0 -16 -11 -23 q-11 -7 -25 -6 q-27 1 -30 30 l4 278 q-98 -155 -231 -242 q-34 -19 -52 6 q-16 22 11 43 q78 48 140 110 q58 58 107 134 l-201 -2 q-16 0 -24 10 q-7 9 -5 21 q2 23 29 26 l223 -1 l-1 66 q0 24 27 28 q-70 2 -103 3 q-92 5 -95 88 q-2 87 2 140 q6 80 92 87 q119 3 228 0 q41 -2 67 -24 q27 -23 29 -59 q4 -78 1 -142 q-2 -80 -98 -90 q-52 -3 -111 -3 q27 -4 27 -28 l0 -66 l239 1 q15 -1 22 -11 q7 -10 5 -22 q-2 -22 -27 -24 l-220 2 ZM281 552 l-12 -616 q-1 -16 -13 -24 q-12 -7 -27 -6 q-27 2 -30 30 l14 522 q-53 -71 -106 -119 q-31 -23 -50 -6 q-12 9 -13 23 q-1 15 13 27 q79 71 143 161 q68 96 108 199 q7 17 20 20 q14 4 27 -2 q30 -13 19 -46 q-35 -74 -93 -163 Z" /><glyph glyph-name="" unicode="&#x4fde;" d="M668 358 l0 -285 q0 -13 -10 -22 q-9 -8 -21 -8 q-13 0 -22 7 q-10 8 -10 23 l0 285 q4 32 32 33 q27 0 31 -33 ZM845 399 l0 -360 q0 -84 -56 -103 q-54 -19 -130 -9 q-30 6 -28 36 q0 33 34 31 q50 -10 81 -5 q36 5 36 54 l0 356 q0 16 9 25 q8 8 22 8 q12 1 22 -8 q10 -9 10 -25 ZM724 510 q0 -12 -7 -20 q-8 -9 -23 -9 l-371 0 q-13 0 -21 9 q-7 8 -7 19 q0 24 28 27 l371 0 q29 -3 30 -26 ZM938 474 q-14 -28 -50 -15 q-182 79 -345 239 q-39 41 -77 0 q-153 -164 -348 -255 q-38 -13 -51 12 q-7 13 -2 27 q5 14 23 21 q92 40 170 97 q65 47 162 138 q34 34 80 34 q48 0 85 -33 q94 -81 164 -127 q76 -50 169 -88 q17 -6 22 -21 q6 -15 -2 -29 ZM434 106 l-212 0 q0 -116 1 -165 q-4 -31 -31 -33 q-12 -1 -21 7 q-10 9 -11 24 q-5 134 0 398 q1 41 27 63 q23 19 60 21 q82 7 160 0 q82 -4 85 -83 q5 -199 2 -321 q-2 -69 -44 -86 q-33 -16 -99 -5 q-24 7 -22 34 q4 26 30 24 q27 -6 46 -5 q27 3 28 43 q1 16 1 84 ZM433 151 q0 56 -1 83 l-210 0 l0 -83 l211 0 ZM432 279 q0 26 -1 53 q-1 16 -12 26 q-11 9 -27 10 q-76 4 -131 0 q-16 -1 -26 -10 q-11 -10 -12 -26 q0 -27 -1 -53 l210 0 Z" /><glyph glyph-name="" unicode="&#x4fe1;" d="M474 112 q-2 -48 0 -98 q1 -29 45 -32 q102 -4 220 0 q45 3 46 33 q2 48 0 97 q-2 32 -48 33 q-118 4 -218 0 q-43 -1 -45 -33 ZM408 127 q5 64 87 71 q110 4 264 0 q89 -8 94 -68 q2 -45 0 -132 q-2 -31 -27 -50 q-26 -20 -69 -21 q-139 -5 -262 0 q-38 1 -62 21 q-23 19 -25 49 q-2 48 0 130 ZM804 286 l-353 0 q-29 3 -31 25 q-3 26 31 30 l353 0 q29 -3 30 -26 q1 -25 -30 -29 ZM804 426 l-354 0 q-17 1 -25 10 q-7 10 -5 22 q3 21 30 23 l354 0 q29 -3 29 -28 q0 -24 -29 -27 ZM666 628 l228 0 q31 -4 30 -30 q0 -25 -30 -29 l-528 0 q-17 1 -25 11 q-7 10 -5 23 q2 22 30 25 l228 0 l0 112 q1 18 14 25 q14 8 29 5 q26 -3 29 -30 l0 -112 ZM272 564 l-12 -628 q-1 -17 -13 -25 q-13 -7 -27 -5 q-25 3 -28 30 l13 524 q-56 -80 -106 -128 q-33 -25 -52 -6 q-23 21 0 49 q74 71 138 168 q68 103 102 204 q6 17 19 21 q13 4 26 -1 q29 -12 21 -44 q-27 -66 -81 -159 Z" /><glyph glyph-name="" unicode="&#x4fee;" d="M457 -25 q253 23 402 203 q22 21 45 4 q26 -18 2 -51 q-163 -185 -441 -216 q-20 -1 -29 9 q-9 11 -7 25 q2 21 28 26 ZM680 368 q19 16 39 0 q20 -15 -1 -42 q-50 -54 -124 -95 q-63 -35 -121 -50 q-28 -4 -33 20 q-6 21 18 31 q141 39 222 136 ZM492 54 q-33 -4 -38 20 q-5 23 21 32 q82 21 155 62 q83 46 138 110 q22 20 42 2 q20 -19 -1 -45 q-134 -137 -317 -181 ZM377 590 l0 -521 q-1 -14 -10 -21 q-10 -6 -22 -5 q-23 2 -26 26 l0 521 q1 17 11 24 q11 7 24 4 q21 -3 23 -28 ZM725 475 q81 -47 191 -60 q16 -3 22 -14 q6 -11 3 -24 q-6 -27 -43 -25 q-119 16 -218 84 q-103 -79 -237 -106 q-38 -4 -40 26 q-2 23 22 30 q123 22 210 85 q-64 57 -101 121 q-32 -48 -66 -82 q-25 -20 -45 -4 q-20 17 0 41 q92 92 137 213 q13 22 39 14 q26 -9 19 -34 q-11 -27 -29 -61 q107 2 161 1 q44 -1 61 -27 q17 -27 -3 -67 q-32 -62 -83 -111 ZM678 506 q42 39 68 92 q10 21 0 28 q-5 4 -24 4 q-75 -1 -150 -2 q40 -73 106 -122 ZM243 566 l-13 -627 q-1 -17 -13 -25 q-13 -8 -27 -5 q-23 3 -25 29 l12 527 q-37 -52 -74 -92 q-30 -26 -51 -8 q-23 17 -2 45 q140 147 214 347 q7 16 20 20 q13 3 26 -3 q29 -13 18 -45 q-37 -80 -85 -163 Z" /><glyph glyph-name="" unicode="&#x501f;" d="M733 -76 q-108 -6 -208 0 q-50 2 -78 26 q-25 22 -27 60 q-2 62 3 197 q1 35 25 59 q27 26 74 27 q163 3 215 0 q41 -1 68 -26 q24 -22 26 -52 q5 -96 3 -203 q-5 -77 -101 -88 ZM772 91 l-293 0 l0 -4 q0 -46 1 -61 q0 -43 59 -46 q97 -6 176 0 q26 2 40 13 q15 12 16 34 q1 16 1 64 ZM771 142 q0 25 -1 51 q-3 46 -57 49 q-62 3 -174 0 q-56 -3 -58 -50 q-1 -25 -2 -50 l292 0 ZM757 624 l117 1 q16 -1 24 -10 q7 -10 5 -22 q-2 -22 -29 -24 l-117 1 l-1 -147 l148 1 q31 -4 30 -28 q0 -25 -30 -28 l-541 0 q-30 3 -30 27 q-1 25 30 29 l127 -1 l-1 147 l-101 -1 q-29 3 -31 25 q-3 27 31 31 l101 -1 l0 110 q1 16 12 24 q11 7 25 5 q26 -2 29 -29 l0 -110 l136 0 l0 110 q1 16 12 24 q11 7 25 5 q26 -2 29 -29 l0 -110 ZM692 423 l-1 147 l-136 0 l-1 -147 l138 0 ZM264 548 l-11 -610 q-1 -17 -14 -24 q-12 -8 -27 -6 q-25 2 -27 30 l13 512 q-53 -70 -93 -107 q-31 -24 -50 -8 q-12 9 -13 23 q-1 15 12 27 q78 75 136 163 q63 95 99 201 q7 16 20 20 q13 3 27 -2 q29 -13 20 -45 q-38 -87 -92 -174 Z" /><glyph glyph-name="" unicode="&#x503c;" d="M846 -6 l83 0 q29 -3 30 -28 q0 -11 -7 -19 q-8 -9 -23 -9 l-567 0 q-31 2 -33 26 q0 11 8 20 q9 10 25 10 l76 0 q-2 297 0 447 q0 37 22 61 q23 25 60 26 q39 1 77 2 l4 75 l-190 0 q-31 0 -31 28 q1 24 31 27 l194 0 l6 92 q1 13 14 22 q11 8 25 8 q29 0 30 -31 l-7 -91 l205 0 q28 -2 28 -27 q0 -12 -7 -20 q-7 -8 -21 -8 l-209 0 l-6 -75 q38 0 98 -2 q40 -1 62 -24 q22 -23 23 -62 q5 -193 0 -448 ZM784 218 l-285 0 q0 -44 0 -88 l285 0 l0 88 ZM784 263 q0 43 -1 87 l-284 0 l0 -87 l285 0 ZM783 86 l-284 0 q0 -61 1 -92 l282 0 q1 46 1 92 ZM782 394 q0 18 -1 37 q-2 49 -47 52 q-92 5 -188 0 q-46 -3 -46 -53 l0 -36 l282 0 ZM307 587 l-13 -644 q-1 -14 -11 -23 q-9 -8 -22 -8 q-14 0 -23 7 q-10 8 -9 23 l15 557 q-73 -90 -140 -152 q-28 -27 -52 -6 q-11 10 -12 23 q-1 15 13 27 q87 78 154 167 q74 98 113 196 q16 31 46 18 q28 -14 17 -46 q-31 -71 -76 -139 Z" /><glyph glyph-name="" unicode="&#x5047;" d="M653 511 l138 0 q19 0 28 8 q9 8 10 27 q2 45 0 91 q-1 20 -10 28 q-8 7 -29 7 q-58 2 -131 0 q-29 3 -29 28 q0 25 30 29 q55 1 148 -1 q44 -1 64 -21 q18 -18 19 -59 q4 -59 0 -116 q-2 -38 -19 -55 q-20 -20 -64 -20 q-84 -3 -153 -1 q-15 1 -22 10 q-7 9 -6 20 q1 23 26 25 ZM529 647 q-3 34 -33 36 q-24 3 -61 0 q-18 -2 -26 -9 q-8 -8 -8 -26 q0 -72 0 -144 q47 -3 95 -1 q31 3 33 36 q4 55 0 108 ZM785 79 q60 -61 143 -100 q17 -7 20 -23 q3 -15 -7 -27 q-16 -22 -48 -8 q-75 35 -145 113 q-69 -76 -164 -121 q-34 -10 -48 15 q-13 24 19 41 q88 40 154 112 q-60 78 -87 164 q-6 29 19 36 q24 7 36 -16 q22 -74 68 -139 q51 72 72 153 q7 31 -27 31 q-22 0 -174 -2 q-15 1 -21 11 q-6 10 -4 23 q2 19 23 22 q102 1 190 0 q52 -1 72 -28 q17 -24 6 -61 q-31 -107 -97 -196 ZM403 107 l0 -168 q-1 -16 -12 -23 q-11 -7 -24 -5 q-25 2 -28 28 q0 258 0 517 l0 205 q1 35 19 54 q19 19 54 21 q61 5 108 0 q30 -2 49 -19 q19 -17 20 -47 q5 -90 1 -142 q-5 -72 -76 -77 q-41 -4 -112 -2 q1 -55 1 -110 l139 0 q15 -1 22 -10 q7 -10 5 -22 q-2 -22 -27 -24 l-139 0 l0 -121 l152 0 q15 -1 22 -10 q7 -10 5 -22 q-2 -21 -27 -23 l-152 0 ZM240 556 l-12 -617 q-1 -17 -13 -25 q-11 -8 -25 -6 q-26 1 -28 30 l13 501 q-45 -69 -76 -104 q-29 -27 -51 -9 q-10 6 -11 19 q-1 13 9 25 q136 160 200 377 q5 17 18 21 q12 5 25 0 q29 -10 23 -42 q-27 -81 -72 -170 Z" /><glyph glyph-name="" unicode="&#x504f;" d="M841 138 l-88 0 l0 -190 q-1 -13 -9 -19 q-8 -6 -19 -4 q-17 2 -19 23 l0 190 l-76 0 l0 -190 q-1 -13 -9 -19 q-8 -6 -19 -4 q-17 2 -19 23 l0 190 l-79 0 l0 -205 q-3 -27 -25 -27 q-22 0 -26 26 q-1 110 2 350 q3 80 83 81 q181 2 272 0 q84 -3 86 -82 q2 -141 3 -281 q2 -48 -23 -69 q-26 -22 -79 -14 q-14 3 -18 15 q-5 11 -2 24 q4 18 21 19 q26 -4 35 3 q9 7 9 34 q0 66 -1 126 ZM841 185 q0 44 -1 89 q0 39 -43 40 l-44 0 l0 -129 l88 0 ZM706 185 l0 130 l-76 0 l0 -130 l76 0 ZM665 656 q87 0 122 -1 q81 -2 88 -59 q3 -43 1 -85 q-2 -33 -23 -49 q-20 -16 -65 -17 q-117 -6 -341 -2 q-8 -341 -89 -464 q-20 -24 -44 -14 q-29 12 -13 44 q56 84 75 245 q14 121 9 316 q-1 37 19 59 q23 25 68 26 q35 1 123 1 l0 91 q1 18 13 26 q13 8 28 5 q26 -3 30 -31 l-1 -91 ZM583 185 l0 129 l-35 0 q-43 -2 -43 -41 q0 -44 -1 -88 l79 0 ZM448 495 q136 -3 327 2 q20 1 28 7 q8 6 9 20 q0 27 0 54 q-3 25 -39 25 q-137 4 -280 0 q-22 0 -34 -13 q-11 -12 -11 -31 l0 -64 ZM261 585 l-13 -646 q-1 -16 -12 -24 q-11 -8 -25 -7 q-27 1 -30 30 l13 553 q-43 -56 -91 -104 q-29 -26 -50 -8 q-24 18 -1 46 q82 84 129 151 q54 78 96 179 q8 16 21 19 q13 4 26 -3 q28 -14 17 -45 q-35 -72 -80 -141 Z" /><glyph glyph-name="" unicode="&#x505a;" d="M460 296 q-30 2 -64 0 q-32 -3 -34 -36 q-4 -85 0 -171 q1 -29 35 -32 q39 -3 62 0 q36 6 36 33 q4 87 0 171 q0 31 -35 35 ZM864 511 q-12 -212 -87 -361 q65 -108 153 -166 q15 -10 16 -25 q2 -14 -6 -25 q-17 -24 -53 -3 q-76 55 -142 162 q-75 -116 -196 -178 q-36 -13 -49 11 q-12 23 18 40 q124 60 195 187 q-62 123 -79 265 q-15 -37 -27 -58 q-19 -26 -42 -17 q-24 8 -10 42 q34 60 71 177 q35 110 46 181 q3 15 14 20 q11 6 24 4 q29 -4 27 -35 q-11 -54 -47 -166 l218 2 q15 0 22 -9 q7 -9 6 -21 q0 -24 -28 -27 l-44 0 ZM802 511 l-124 0 q3 -158 65 -296 q53 129 59 296 ZM460 349 q10 -1 20 -1 q30 -2 50 -19 q22 -19 23 -46 q2 -73 0 -211 q-1 -29 -22 -48 q-21 -19 -55 -22 q-38 -4 -100 0 q-32 2 -52 21 q-19 19 -21 48 q-2 141 0 206 q2 29 20 48 q20 21 51 23 q11 0 21 1 l0 171 l-95 -1 q-32 3 -31 29 q1 26 31 29 l94 -1 l0 163 q1 16 13 23 q12 7 26 5 q24 -3 27 -28 l0 -163 l97 1 q29 -3 29 -29 q0 -26 -29 -29 l-97 1 l0 -171 ZM234 563 l-12 -624 q-1 -18 -14 -26 q-13 -8 -28 -5 q-23 3 -25 30 l13 500 q-35 -59 -67 -99 q-28 -27 -51 -10 q-21 16 -3 44 q135 172 186 381 q5 17 17 22 q12 5 25 1 q30 -9 25 -41 q-25 -86 -66 -173 Z" /><glyph glyph-name="" unicode="&#x505c;" d="M725 536 q-108 4 -222 0 q-32 0 -35 -23 q-3 -9 0 -27 q1 -14 7 -19 q7 -6 29 -7 q74 -2 223 0 q19 1 26 6 q6 5 7 18 q2 14 0 29 q-3 23 -35 23 ZM485 416 q-43 1 -61 17 q-14 12 -16 38 q-1 28 0 54 q3 24 16 37 q18 17 60 18 q128 5 260 0 q72 -1 77 -53 q3 -26 0 -56 q-3 -26 -17 -38 q-19 -16 -60 -17 q-130 -7 -259 0 ZM854 198 q0 33 0 66 q-1 22 -12 33 q-13 12 -42 12 q-276 3 -364 0 q-53 -1 -56 -45 q0 -35 0 -69 q0 -14 -10 -22 q-10 -7 -23 -6 q-25 1 -29 29 q-2 39 0 88 q1 72 100 76 q266 3 406 0 q41 -1 67 -21 q28 -22 29 -62 q2 -54 0 -78 q-2 -16 -14 -23 q-12 -7 -26 -5 q-24 3 -26 27 ZM650 178 l0 -79 l1 -66 q1 -68 -36 -95 q-45 -33 -158 -16 q-17 3 -25 15 q-7 11 -6 24 q4 30 35 28 q73 -12 95 -5 q31 10 31 64 l0 130 l-143 -1 q-29 3 -29 27 q0 25 29 28 l345 0 q16 -1 23 -10 q7 -10 5 -22 q-3 -21 -28 -23 l-139 1 ZM650 687 l240 1 q28 -3 28 -27 q0 -24 -28 -27 l-520 0 q-29 3 -29 27 q0 24 29 27 l211 -1 l-1 69 q1 17 14 24 q13 7 28 5 q25 -4 28 -29 l0 -69 ZM262 583 l-13 -644 q-1 -16 -12 -24 q-12 -8 -26 -7 q-27 1 -29 30 l13 534 q-46 -67 -80 -103 q-29 -27 -52 -9 q-22 17 -1 45 q137 150 207 351 q7 16 20 20 q13 3 26 -2 q29 -14 19 -45 q-34 -77 -72 -146 Z" /><glyph glyph-name="" unicode="&#x5065;" d="M879 563 l51 0 q14 -1 20 -10 q6 -9 5 -20 q-2 -21 -25 -24 l-51 0 q0 -34 -1 -50 q-5 -70 -91 -71 q-29 -1 -58 -1 l1 -73 l129 1 q12 0 18 -8 q6 -8 6 -18 q-1 -21 -24 -24 l-129 1 l0 -78 l172 0 q12 0 18 -8 q6 -8 6 -18 q-1 -21 -24 -24 l-171 0 l0 -81 q-1 -15 -10 -22 q-9 -8 -21 -7 q-25 1 -28 29 l1 81 l-135 0 q-15 0 -21 9 q-7 8 -5 19 q2 20 26 22 l135 0 l1 78 l-103 -1 q-26 3 -26 25 q0 22 26 25 l103 -1 l1 73 l-103 0 q-12 1 -17 8 q-6 7 -6 16 q0 20 23 22 q52 -1 103 -1 l-1 80 l-144 0 q-12 0 -18 8 q-6 7 -5 17 q1 19 23 22 l144 0 l-1 78 l-110 0 q-13 0 -20 8 q-6 8 -5 18 q1 20 25 23 l109 0 l0 50 q1 15 10 22 q9 7 21 6 q25 0 28 -28 l0 -51 l56 0 q47 0 69 -18 q20 -16 22 -52 q1 -17 1 -52 ZM827 559 q0 15 -2 39 q-1 19 -9 28 q-10 10 -32 11 l-54 0 l0 -78 l97 0 ZM827 512 l-97 0 l-1 -80 q39 0 55 1 q43 1 41 41 q2 22 2 38 ZM453 126 q61 -75 167 -105 q110 -31 292 -21 q32 -3 33 -32 q1 -26 -33 -32 q-349 -20 -485 135 q-50 -87 -131 -147 q-28 -15 -45 12 q-12 21 12 42 q79 54 125 144 q-47 73 -73 182 q-2 26 25 28 q21 1 28 -17 q20 -79 46 -129 q28 87 33 197 q3 29 -27 29 q-28 0 -54 -1 q-27 0 -36 18 q-8 16 1 37 q38 81 70 163 q7 15 3 23 q-4 9 -18 9 l-61 0 q-12 0 -16 10 q-5 10 -2 22 q3 17 19 19 q17 1 87 1 q38 0 53 -25 q15 -24 -2 -60 q-53 -119 -72 -159 q-2 -8 4 -8 q21 0 42 1 q32 0 50 -18 q20 -20 17 -57 q-10 -157 -52 -261 ZM251 574 l-13 -635 q-1 -16 -11 -24 q-10 -8 -24 -7 q-28 0 -30 30 l12 513 q-42 -72 -85 -127 q-21 -26 -47 -5 q-22 18 -2 47 q136 162 196 381 q5 16 16 21 q12 5 25 1 q28 -9 23 -41 q-21 -69 -60 -154 Z" /><glyph glyph-name="" unicode="&#x5076;" d="M806 549 l-154 0 l0 -98 q55 0 97 3 q27 1 40 14 q14 13 16 41 q1 20 1 40 ZM806 597 q0 19 -1 38 q-2 27 -14 39 q-14 14 -43 15 q-26 1 -96 1 l0 -93 l154 0 ZM743 124 q-120 -36 -249 -58 q-18 -2 -27 9 q-9 12 -8 26 q1 20 21 23 q37 4 114 18 l0 138 q-99 0 -126 -1 q-48 0 -48 -48 q-5 -126 0 -297 q0 -15 -11 -22 q-11 -7 -25 -6 q-25 2 -28 28 q-2 114 0 313 q1 41 23 61 q23 21 73 22 q71 1 142 2 l0 71 q-49 0 -107 2 q-48 2 -74 28 q-23 23 -25 62 q-5 72 0 156 q4 84 101 87 q134 5 281 0 q43 -1 70 -26 q24 -22 26 -54 q4 -83 0 -162 q-2 -38 -25 -62 q-26 -27 -73 -29 q-68 -2 -116 -2 l0 -71 q74 0 152 -2 q95 -1 97 -85 q1 -67 2 -134 q2 -30 2 -84 q1 -61 -38 -88 q-50 -34 -166 -16 q-16 3 -23 14 q-6 10 -4 22 q4 27 35 25 q58 -11 93 -5 q37 5 37 58 q0 170 -1 195 q-2 47 -49 47 q-34 1 -137 1 l0 -127 q14 2 71 14 q-8 16 -20 33 q-12 17 7 27 q19 10 33 -6 q41 -55 63 -118 q4 -29 -20 -36 q-21 -6 -30 18 q-5 22 -13 39 ZM594 451 l0 98 l-148 0 q0 -30 1 -41 q2 -30 16 -42 q12 -10 40 -12 q6 -1 91 -3 ZM594 597 l0 93 q-65 0 -90 -1 q-28 -1 -42 -15 q-13 -13 -15 -39 q-1 -10 -1 -38 l148 0 ZM247 585 l-13 -646 q-1 -16 -12 -24 q-11 -8 -24 -7 q-27 1 -30 30 l12 551 q-47 -63 -94 -109 q-31 -24 -53 -6 q-21 18 2 45 q146 141 229 337 q8 16 21 19 q13 3 26 -3 q28 -15 16 -47 q-37 -70 -80 -140 Z" /><glyph glyph-name="" unicode="&#x50a8;" d="M504 62 q16 -22 -8 -43 q-31 -28 -77 -54 q-35 -21 -57 -8 q-20 12 -21 51 q-3 186 0 376 q2 37 -23 41 q-10 2 -33 0 q-11 -1 -18 9 q-6 8 -6 21 q0 28 25 31 q19 1 39 0 q47 -3 63 -26 q15 -21 14 -73 q-4 -199 -1 -346 q0 -8 4 -10 q3 -1 10 2 q21 11 52 38 q25 14 37 -9 ZM446 599 q8 -25 -18 -38 q-13 -6 -24 -2 q-13 4 -17 19 q-28 83 -61 141 q-12 22 13 35 q18 10 36 -9 q40 -59 71 -146 ZM810 107 l-210 0 l0 -67 q0 -44 50 -49 q63 -5 109 0 q46 3 50 50 q1 33 1 66 ZM809 159 q0 37 -1 56 q-1 49 -50 51 q-56 3 -107 0 q-47 -2 -49 -52 q-1 -28 -2 -55 l209 0 ZM781 469 l133 0 q14 0 22 -9 q7 -8 7 -21 q0 -24 -29 -26 l-180 0 q-1 -2 -3 -3 q-44 -49 -93 -92 q73 3 145 0 q36 -2 58 -22 q24 -22 25 -58 q5 -127 3 -211 q-1 -41 -28 -66 q-25 -24 -63 -26 q-74 -5 -144 0 q-41 3 -65 25 q-26 24 -27 65 q-2 82 3 205 q0 6 2 14 q-32 -23 -72 -46 q-27 -16 -42 9 q-7 11 -4 23 q3 14 17 21 q112 62 211 162 l-198 0 q-29 3 -29 28 q0 24 29 28 l158 0 l0 118 l-102 0 q-13 0 -21 9 q-7 8 -7 19 q0 11 7 19 q8 9 21 9 l102 0 l0 104 q0 13 10 22 q9 8 22 8 q12 0 21 -8 q10 -9 10 -22 l0 -104 l71 0 q24 0 28 -25 q2 -11 -5 -21 q-8 -10 -23 -10 l-71 0 l0 -118 l28 0 q82 97 141 233 q17 29 44 13 q25 -16 13 -41 q-44 -101 -125 -205 ZM240 610 l-6 -671 q-4 -29 -30 -30 q-33 0 -33 29 l11 550 q-33 -68 -74 -140 q-19 -30 -44 -14 q-24 18 -6 52 q116 197 174 371 q11 30 43 17 q27 -13 15 -45 q-16 -39 -50 -119 Z" /><glyph glyph-name="" unicode="&#x50ac;" d="M699 380 q128 0 186 -1 q13 -1 19 -9 q6 -9 4 -20 q-2 -18 -24 -20 q-60 1 -189 1 l0 -80 l155 0 q14 0 20 -9 q6 -8 4 -18 q-2 -16 -24 -18 l-155 0 l0 -82 l155 0 q14 0 20 -9 q6 -8 4 -18 q-2 -16 -24 -18 l-155 0 l0 -93 q73 0 205 2 q13 0 19 -9 q6 -9 4 -21 q-2 -19 -23 -22 q-221 -3 -393 1 q-44 1 -68 20 q-27 22 -27 62 q-3 86 4 241 q-39 -42 -51 -52 q-13 -12 -26 -11 q-13 1 -22 10 q-20 20 3 43 q101 78 161 221 q16 25 42 15 q28 -11 18 -41 q-18 -37 -37 -66 l5 0 q39 1 128 1 q18 34 37 89 q14 24 41 15 q27 -8 19 -35 q-7 -18 -35 -69 ZM672 563 q85 0 106 1 q24 1 33 12 q8 9 8 27 q2 54 1 91 q1 16 13 22 q12 7 27 4 q23 -3 26 -27 q2 -40 -1 -100 q-1 -37 -21 -56 q-23 -22 -71 -23 q-160 -4 -306 0 q-49 1 -71 22 q-19 18 -20 55 q-2 52 0 104 q1 15 13 21 q13 7 27 4 q22 -3 24 -25 q-2 -48 0 -91 q1 -21 7 -29 q8 -10 31 -11 q54 -1 108 -1 l-1 185 q1 16 12 24 q12 7 26 5 q26 -2 29 -29 l0 -185 ZM634 -14 l0 93 l-162 0 q1 -23 1 -45 q1 -45 53 -46 q64 -2 108 -2 ZM634 124 l0 82 l-161 0 q0 -41 -1 -82 l162 0 ZM634 251 l0 80 q-55 -1 -110 -1 q-46 0 -49 -44 q0 -18 -1 -35 l160 0 ZM264 559 l-10 -621 q-1 -17 -13 -25 q-12 -7 -26 -6 q-26 2 -29 31 l12 521 q-52 -71 -94 -112 q-32 -26 -54 -5 q-21 19 2 47 q163 160 233 364 q7 16 20 20 q13 4 26 -2 q29 -12 20 -44 q-38 -87 -87 -168 Z" /><glyph glyph-name="" unicode="&#x50bb;" d="M817 471 q3 67 -2 144 q-3 41 -49 41 q-131 5 -258 0 q-49 -2 -50 -42 q-4 -97 -2 -144 q3 -40 48 -40 q117 -8 266 0 q45 2 47 41 ZM570 304 q-57 -57 -177 -104 q-36 -8 -46 17 q-5 9 -1 20 q4 12 17 17 q112 44 162 90 q25 18 46 1 q18 -18 -1 -41 ZM922 216 q-20 -24 -47 -3 q-75 56 -157 90 q-16 6 -19 18 q-3 10 4 20 q14 19 45 9 q94 -35 165 -90 q27 -25 9 -44 ZM706 547 q37 -19 56 -34 q20 -18 2 -38 q-17 -15 -41 1 q-24 20 -65 41 q-76 -42 -131 -61 q-27 -10 -42 7 q-12 19 15 34 q60 23 104 46 q-34 16 -75 30 q-23 9 -14 26 q11 19 40 12 q40 -12 100 -39 q44 28 69 58 q19 15 42 5 q22 -13 5 -33 q-23 -26 -65 -55 ZM698 28 q88 -37 231 -47 q14 -1 22 -14 q7 -12 4 -24 q-5 -24 -38 -23 q-164 14 -277 76 q-133 -67 -283 -88 q-35 -2 -40 21 q-4 14 3 26 q7 12 22 14 q137 19 242 63 q-45 34 -73 78 q-54 -37 -113 -65 q-35 -14 -48 9 q-13 22 12 38 q158 72 254 191 q20 18 43 3 q19 -12 4 -36 q-7 -9 -19 -23 q33 1 111 -1 q55 -3 67 -34 q11 -28 -19 -68 q-35 -50 -105 -96 ZM640 709 q98 0 138 -1 q44 -1 70 -23 q28 -23 30 -64 q3 -86 2 -150 q-2 -46 -24 -68 q-23 -23 -75 -26 q-156 -7 -289 0 q-53 3 -77 25 q-24 22 -24 68 q-1 63 2 146 q2 44 30 68 q27 23 74 24 q24 1 76 1 q11 32 15 52 q3 12 16 17 q11 4 26 2 q27 -6 24 -34 q-7 -23 -14 -37 ZM638 59 q70 40 105 91 q7 13 5 19 q-3 7 -17 8 q-43 2 -135 0 q-19 -17 -39 -34 q31 -51 81 -84 ZM295 568 l-12 -628 q0 -14 -11 -23 q-10 -8 -23 -9 q-13 0 -23 8 q-11 9 -10 23 l14 538 q-60 -76 -120 -131 q-32 -30 -53 -6 q-23 22 2 50 q187 178 256 367 q7 16 22 20 q14 4 29 -5 q28 -15 16 -43 q-30 -73 -87 -161 Z" /><glyph glyph-name="" unicode="&#x50cf;" d="M785 203 q46 -117 144 -186 q22 -21 4 -44 q-19 -26 -51 -4 q-85 66 -136 188 q-45 108 -54 232 l-83 0 q-11 -17 -29 -33 q-4 -4 -12 -10 q77 -47 111 -148 q31 -93 11 -181 q-14 -60 -70 -89 q-57 -30 -136 -13 q-15 3 -22 14 q-6 11 -4 22 q4 27 34 23 q51 -12 88 2 q41 16 52 63 q11 51 2 108 q-141 -130 -302 -182 q-36 -7 -40 22 q-4 22 18 31 q170 49 311 179 q-9 27 -26 54 q-120 -94 -256 -141 q-32 -7 -39 17 q-6 21 18 31 q144 42 248 127 q-19 18 -39 29 q-69 -45 -189 -78 q-34 -6 -38 22 q-3 21 19 28 q81 19 125 38 q53 23 95 62 q2 1 3 3 q-24 -1 -72 -1 q-53 1 -75 18 q-18 14 -20 44 q-2 43 1 75 q-18 -16 -37 -32 q-30 -19 -46 2 q-16 21 8 43 q114 79 192 232 q17 26 41 15 q27 -12 15 -38 q-10 -18 -21 -35 q130 3 141 2 q31 -1 44 -23 q13 -21 -1 -45 q-6 -14 -39 -55 l118 0 q83 -2 87 -60 q4 -40 0 -80 q-3 -62 -87 -63 l-45 0 q5 -74 23 -136 q62 32 112 72 q27 18 44 -6 q15 -22 -7 -42 q-50 -37 -133 -73 ZM648 542 q-2 -43 -9 -79 q-4 -20 -7 -29 q71 0 142 1 q44 0 45 27 q2 26 0 50 q-2 15 -11 22 q-11 8 -35 8 l-125 0 ZM606 591 q30 37 41 55 q6 9 2 15 q-4 6 -17 6 q-59 0 -135 -2 q-31 -43 -60 -77 q12 3 29 3 l140 0 ZM592 542 l-111 0 q-44 0 -47 -29 q-2 -26 0 -54 q3 -24 48 -24 q46 -1 91 -1 q8 19 13 45 q4 20 6 63 ZM263 587 l-13 -648 q-1 -16 -12 -24 q-12 -8 -26 -7 q-27 1 -29 30 l12 557 q-43 -55 -95 -104 q-25 -24 -49 -6 q-11 8 -12 21 q-1 15 11 26 q151 136 237 331 q8 16 22 18 q13 3 26 -4 q27 -15 15 -47 q-46 -83 -87 -143 Z" /><glyph glyph-name="" unicode="&#x50f5;" d="M776 410 q-136 -4 -313 0 q-49 1 -69 18 q-18 14 -20 46 q-2 49 0 96 q2 30 19 45 q21 19 70 20 q148 5 315 0 q42 -1 64 -19 q18 -15 20 -42 q4 -35 0 -99 q-3 -62 -86 -65 ZM776 35 q-146 -6 -313 0 q-50 1 -70 18 q-18 15 -20 48 q-2 34 0 99 q2 31 19 47 q21 20 70 21 q149 5 317 0 q80 -3 85 -65 q2 -46 0 -101 q-5 -64 -88 -67 ZM899 315 l-564 0 q-28 3 -27 24 q0 22 27 25 l564 0 q27 -3 27 -25 q0 -21 -27 -24 ZM889 682 l-525 0 q-27 3 -27 24 q0 23 27 27 l525 0 q27 -3 27 -26 q0 -22 -27 -25 ZM909 -64 l-595 0 q-28 3 -27 26 q0 24 27 27 l595 0 q14 0 20 -9 q7 -8 6 -19 q-1 -22 -26 -25 ZM803 136 l-161 0 l0 -62 q84 0 116 1 q23 1 33 8 q10 7 11 26 q1 13 1 27 ZM803 173 q-1 7 -1 21 q-1 18 -9 26 q-10 9 -32 10 q-62 2 -118 2 l0 -59 l160 0 ZM802 509 l-160 0 l0 -61 q83 0 115 1 q43 1 44 32 q1 14 1 28 ZM802 544 q-1 7 -1 20 q-1 17 -9 25 q-10 10 -32 11 q-31 1 -117 1 l0 -57 l159 0 ZM583 74 l0 62 l-152 0 q1 -15 1 -29 q2 -17 10 -24 q9 -7 33 -8 q28 -1 108 -1 ZM583 173 l0 59 q-55 -1 -110 -2 q-22 -1 -32 -12 q-8 -9 -9 -26 q0 -12 -1 -19 l152 0 ZM583 448 l0 61 l-151 0 q0 -21 1 -29 q1 -16 10 -23 q10 -7 33 -8 q28 -1 107 -1 ZM583 544 l0 57 q-54 -1 -109 -1 q-23 -1 -32 -12 q-8 -9 -9 -27 q0 -9 -1 -17 l151 0 ZM252 577 l-13 -638 q-1 -16 -12 -24 q-11 -8 -24 -7 q-27 1 -30 30 l11 511 q-41 -71 -82 -120 q-22 -28 -48 -12 q-11 7 -13 20 q-2 14 9 26 q144 182 197 388 q5 17 17 22 q13 6 26 2 q29 -10 24 -42 q-23 -71 -62 -156 Z" /><glyph glyph-name="" unicode="&#x513f;" d="M563 49 q0 613 3 660 q2 17 15 24 q13 7 29 4 q25 -4 28 -29 q-1 -106 -2 -211 q-5 -422 -4 -440 q1 -24 13 -38 q14 -16 45 -19 q55 -6 100 2 q35 6 50 33 q16 30 15 94 q1 20 13 28 q13 8 28 5 q29 -5 33 -33 q1 -89 -27 -134 q-30 -49 -97 -57 q-68 -8 -131 -2 q-58 5 -84 32 q-27 28 -27 81 ZM338 708 q0 18 14 25 q13 7 30 4 q25 -5 28 -29 q4 -137 -1 -297 q-5 -179 -59 -284 q-63 -122 -216 -204 q-41 -16 -57 16 q-12 25 16 44 q143 73 198 183 q45 89 48 250 q3 139 -1 292 Z" /><glyph glyph-name="" unicode="&#x5141;" d="M549 48 q0 255 3 348 q1 17 11 24 q11 8 25 7 q27 -2 30 -31 q-2 -169 -4 -337 q-2 -48 56 -56 q61 -7 105 2 q40 7 57 38 q16 28 15 82 q1 20 13 27 q13 7 28 4 q26 -6 30 -31 q3 -167 -132 -182 q-65 -8 -129 -1 q-109 6 -108 106 ZM440 385 q0 -169 -54 -270 q-74 -138 -260 -195 q-25 -7 -38 4 q-13 11 -13 27 q-1 24 24 33 q165 47 228 163 q47 86 45 238 q1 17 12 25 q11 8 25 6 q27 -2 31 -31 ZM746 482 q-193 -32 -525 -50 q-29 1 -35 23 q-6 23 17 42 q32 24 56 52 q95 100 166 216 q21 26 48 13 q29 -13 16 -40 q-81 -128 -179 -227 q-4 -5 -2 -8 q2 -3 7 -3 q212 8 393 33 q-41 49 -81 86 q-22 24 -3 41 q19 17 46 0 q48 -40 98 -99 q55 -66 83 -120 q9 -19 3 -33 q-6 -15 -19 -22 q-27 -13 -45 17 q-17 39 -44 79 Z" /><glyph glyph-name="" unicode="&#x5143;" d="M228 707 l539 0 q16 -1 24 -10 q8 -10 8 -22 q-1 -26 -32 -30 l-539 0 q-17 1 -25 11 q-7 10 -6 23 q2 25 31 28 ZM439 355 q-14 -157 -66 -249 q-77 -134 -252 -186 q-23 -6 -36 4 q-12 9 -13 25 q-3 25 21 35 q157 42 222 158 q44 78 53 216 q2 18 13 25 q12 8 26 6 q31 -3 32 -34 ZM617 415 q-4 -191 -4 -358 q0 -52 53 -58 q53 -6 97 1 q46 9 64 36 q17 25 17 75 q1 19 12 27 q12 8 26 6 q29 -3 33 -33 q3 -157 -142 -172 q-53 -7 -120 -2 q-54 5 -80 30 q-27 27 -27 79 q0 99 3 369 l-428 -3 q-17 1 -25 12 q-8 11 -6 24 q3 24 31 27 l760 0 q17 -1 24 -12 q8 -11 6 -24 q-2 -24 -30 -27 l-264 3 Z" /><glyph glyph-name="" unicode="&#x5145;" d="M852 108 q1 20 13 28 q12 8 27 5 q28 -4 31 -33 q6 -158 -138 -173 q-63 -9 -130 -2 q-55 5 -80 30 q-26 26 -26 80 q1 137 2 274 q1 15 12 22 q12 8 25 7 q27 -2 30 -31 q-3 -220 -2 -263 q-1 -52 51 -58 q61 -7 106 2 q47 9 64 35 q15 23 15 77 ZM446 293 q-11 -135 -76 -224 q-83 -113 -256 -160 q-21 -5 -33 5 q-12 10 -14 25 q-3 25 22 34 q157 40 227 133 q55 73 62 193 q1 16 12 24 q10 7 24 6 q30 -2 32 -36 ZM730 410 q-208 -35 -480 -49 q-30 -2 -37 22 q-8 25 17 42 q22 15 52 45 q51 53 94 124 l-256 -1 q-17 1 -25 11 q-7 11 -5 23 q3 23 30 26 l347 0 l-1 94 q1 18 13 26 q12 8 27 6 q28 -2 31 -32 l-1 -94 l345 0 q15 0 22 -9 q7 -9 7 -21 q0 -26 -30 -30 l-431 1 q-51 -87 -117 -156 q-4 -4 -2 -8 q2 -3 6 -3 q147 4 345 32 q-35 32 -68 54 q-23 15 -6 36 q17 21 41 8 q38 -19 93 -67 q57 -50 86 -91 q19 -35 -7 -53 q-26 -19 -49 11 q-16 27 -41 53 Z" /><glyph glyph-name="" unicode="&#x5146;" d="M690 356 q91 -27 172 -84 q15 -13 16 -28 q1 -16 -8 -28 q-20 -27 -51 -5 q-31 27 -79 54 q-41 23 -74 34 q-27 13 -17 37 q10 23 41 20 ZM662 500 q79 53 142 126 q13 14 28 13 q14 -1 24 -11 q24 -23 1 -53 q-82 -79 -157 -125 q-28 -12 -44 10 q-17 21 6 40 ZM326 512 q12 -17 8 -32 q-4 -16 -16 -25 q-24 -18 -46 7 q-20 29 -56 61 q-30 27 -55 43 q-22 18 -6 38 q17 20 44 11 q73 -42 127 -103 ZM859 116 q1 18 11 25 q11 7 24 5 q28 -4 32 -33 q0 -82 -33 -125 q-31 -39 -94 -48 q-64 -9 -142 -2 q-60 5 -85 33 q-24 27 -24 82 q-1 341 3 679 q1 16 12 23 q12 6 26 4 q24 -3 27 -29 q-6 -536 -3 -670 q-2 -57 55 -62 q70 -8 115 2 q41 8 58 34 q17 26 18 82 ZM380 379 q0 241 -6 347 q0 18 11 26 q11 8 26 6 q26 -2 30 -31 q2 -71 2 -414 q-2 -153 -80 -258 q-85 -114 -239 -140 q-22 -3 -33 8 q-11 11 -10 27 q2 24 27 30 q130 18 204 116 q66 87 68 208 q-107 -76 -207 -119 q-21 -7 -34 1 q-14 9 -18 24 q-7 26 20 39 q137 54 239 130 Z" /><glyph glyph-name="" unicode="&#x5148;" d="M444 276 q-36 -289 -319 -367 q-26 -6 -40 4 q-13 10 -14 25 q0 25 25 34 q142 36 209 124 q53 70 68 189 q3 17 14 24 q12 6 26 4 q30 -4 31 -37 ZM614 340 q-3 -244 -2 -288 q-2 -52 53 -58 q60 -7 108 1 q47 9 64 36 q15 23 15 75 q1 20 13 28 q12 8 27 5 q28 -4 31 -33 q6 -156 -138 -172 q-67 -8 -132 -1 q-54 4 -81 30 q-28 27 -27 79 q-1 112 1 298 q-124 0 -431 -3 q-17 1 -25 11 q-7 10 -6 23 q2 25 31 28 l351 -1 l-1 155 l-183 -1 q-38 -65 -77 -105 q-30 -23 -54 -5 q-25 17 0 46 q88 87 136 233 q5 13 17 16 q12 3 25 -2 q29 -11 23 -38 q-15 -39 -38 -85 l151 0 l-1 135 q1 17 13 25 q13 7 28 5 q27 -3 30 -30 l-1 -135 l256 1 q16 -1 23 -10 q8 -10 7 -22 q0 -26 -30 -29 l-256 1 l-1 -155 l352 1 q15 -1 23 -10 q7 -10 7 -22 q-1 -26 -30 -30 l-271 3 Z" /><glyph glyph-name="" unicode="&#x5149;" d="M368 556 q10 -18 4 -34 q-6 -15 -20 -22 q-24 -13 -43 13 q-21 36 -57 73 q-29 30 -55 47 q-24 17 -5 41 q19 23 45 9 q22 -12 68 -55 q48 -45 63 -72 ZM453 316 q-16 -135 -82 -229 q-85 -120 -253 -175 q-21 -6 -33 2 q-12 8 -15 22 q-6 28 19 39 q154 48 227 149 q56 79 67 200 q2 16 14 24 q11 7 25 5 q32 -3 31 -37 ZM633 547 q73 72 118 145 q10 15 24 16 q14 1 26 -8 q27 -20 9 -52 q-69 -96 -129 -146 q-30 -20 -49 0 q-20 19 1 45 ZM618 381 q-3 -278 -2 -328 q-1 -52 51 -58 q58 -7 104 1 q47 10 65 37 q16 24 16 75 q1 20 13 28 q12 8 27 5 q28 -4 31 -33 q5 -158 -140 -173 q-65 -9 -129 -2 q-55 5 -80 30 q-26 26 -25 80 q-2 194 1 338 q-89 1 -433 -2 q-16 0 -24 9 q-8 9 -8 21 q1 27 32 31 l349 -1 l-2 308 q1 18 13 25 q13 8 28 6 q27 -4 30 -31 l-2 -308 l350 1 q17 -1 25 -11 q8 -11 6 -24 q-3 -23 -31 -26 l-265 2 Z" /><glyph glyph-name="" unicode="&#x514b;" d="M285 415 q-2 -26 0 -87 q3 -44 55 -45 q152 -5 316 0 q50 1 53 45 q2 47 0 88 q-1 45 -55 46 q-131 6 -315 0 q-51 -1 -54 -47 ZM107 -91 q-22 -3 -33 9 q-11 12 -9 28 q2 21 30 27 q105 14 177 66 q69 50 101 131 q14 29 38 23 q33 -9 26 -43 q-83 -197 -330 -241 ZM602 229 q-5 -145 -4 -181 q1 -51 55 -57 q55 -7 117 1 q45 7 64 41 q14 26 14 73 q1 18 11 26 q11 7 24 6 q31 -3 35 -35 q2 -155 -139 -171 q-67 -7 -139 -1 q-107 11 -107 108 q0 81 2 189 q-95 -1 -209 2 q-52 1 -79 25 q-26 22 -28 59 q-2 45 0 118 q2 35 25 57 q28 26 80 27 q78 2 138 2 l0 95 l-317 -1 q-17 1 -25 11 q-7 10 -5 23 q2 22 30 25 l316 -1 l0 83 q1 16 12 24 q12 7 26 5 q26 -2 29 -29 l0 -83 l327 1 q17 -1 25 -11 q7 -10 5 -23 q-2 -22 -30 -25 l-328 1 l0 -95 q74 -1 148 -2 q50 -1 76 -24 q23 -21 25 -55 q3 -58 0 -122 q-2 -36 -27 -59 q-28 -25 -77 -26 q-24 -1 -70 -1 Z" /><glyph glyph-name="" unicode="&#x514d;" d="M592 240 q-3 -182 -3 -193 q2 -52 54 -56 q75 -8 128 3 q48 9 64 33 q14 21 14 74 q1 20 14 27 q13 8 29 4 q26 -5 29 -31 q6 -153 -139 -169 q-77 -10 -150 -2 q-55 4 -81 29 q-27 26 -27 77 q-1 47 2 203 q-24 0 -36 1 q-17 -47 -35 -82 q-101 -182 -346 -251 q-20 -5 -31 4 q-11 8 -13 22 q-4 28 23 39 q221 53 309 212 q14 24 27 56 q-82 2 -131 3 q-50 1 -77 25 q-25 22 -27 59 q-4 46 0 112 q4 38 27 57 q27 27 81 30 q112 2 174 2 q62 68 73 86 q8 13 4 21 q-5 8 -20 9 q-60 0 -174 -2 q-112 -131 -221 -211 q-34 -19 -51 2 q-9 11 -8 25 q1 15 16 24 q72 44 148 122 q77 79 120 152 q21 30 46 17 q27 -14 13 -45 q-11 -17 -23 -34 q155 0 167 1 q46 -1 62 -28 q14 -23 -2 -51 q-19 -33 -74 -88 q58 0 166 -2 q48 -1 76 -27 q25 -23 29 -60 q4 -42 0 -110 q-3 -37 -28 -60 q-27 -25 -73 -27 q-78 -2 -125 -2 ZM530 473 q-2 -54 -7 -90 q-5 -39 -17 -89 q135 0 190 2 q55 0 59 50 q2 38 0 78 q-5 46 -60 47 q-98 2 -165 2 ZM466 473 q-76 -1 -152 -2 q-29 -1 -45 -14 q-15 -12 -17 -34 q-2 -37 0 -78 q4 -47 62 -49 q64 -1 128 -1 q14 45 19 97 q4 42 5 81 Z" /><glyph glyph-name="" unicode="&#x515a;" d="M129 -91 q-22 -4 -34 8 q-11 11 -10 26 q0 23 24 29 q219 34 282 189 q15 31 40 22 q28 -11 22 -43 q-34 -86 -115 -146 q-85 -63 -209 -85 ZM671 379 q-3 30 -42 31 q-128 2 -262 0 q-39 -1 -41 -31 q0 -39 0 -78 q2 -29 42 -30 q107 -4 263 0 q35 1 40 31 q0 38 0 77 ZM686 604 q72 0 105 -1 q48 -1 75 -24 q26 -23 27 -60 q4 -49 0 -97 q-2 -17 -14 -24 q-12 -7 -27 -5 q-24 3 -26 28 q0 43 0 87 q-2 43 -55 42 q-329 5 -541 0 q-30 -1 -44 -13 q-13 -12 -14 -36 l0 -77 q0 -16 -13 -23 q-12 -8 -27 -5 q-23 3 -26 28 q-2 47 0 94 q3 79 104 85 q62 0 124 1 q-11 4 -16 14 q-23 40 -78 89 q-16 14 2 32 q18 17 38 7 q18 -8 48 -38 q30 -29 44 -53 q10 -16 1 -32 q-8 -14 -24 -19 q39 1 119 1 l0 150 q4 35 34 35 q29 0 33 -35 l0 -150 l86 0 q33 45 66 128 q7 17 21 20 q13 4 26 -2 q28 -13 16 -45 q-28 -55 -64 -102 ZM598 216 q-3 -155 -2 -172 q1 -48 56 -54 q58 -7 112 1 q45 7 63 39 q14 24 14 70 q1 19 13 26 q12 7 27 5 q27 -5 31 -32 q2 -154 -137 -168 q-70 -7 -137 -1 q-107 9 -108 105 q0 56 2 180 q-87 -1 -175 2 q-50 1 -73 21 q-21 17 -23 52 q-4 50 1 103 q3 32 23 49 q24 20 71 20 q190 2 290 0 q45 -1 67 -20 q19 -17 22 -47 q3 -56 0 -108 q-3 -34 -21 -50 q-21 -19 -66 -20 q-16 -1 -50 -1 Z" /><glyph glyph-name="" unicode="&#x5165;" d="M533 624 q23 -187 117 -347 q102 -173 258 -258 q17 -9 21 -24 q4 -14 -4 -27 q-9 -17 -26 -23 q-19 -7 -38 4 q-125 78 -219 209 q-91 127 -138 284 q-42 -169 -134 -296 q-100 -138 -248 -212 q-35 -15 -53 13 q-10 13 -7 28 q4 17 23 26 q178 86 280 266 q88 155 102 345 q0 5 -1 11 q-2 23 -18 33 q-13 8 -37 9 l-144 -1 q-12 -1 -19 10 q-7 10 -6 25 q2 27 25 29 q84 4 169 2 q85 -6 94 -81 q1 -9 2 -18 l1 -2 l0 -5 Z" /><glyph glyph-name="" unicode="&#x5168;" d="M418 707 q31 41 76 42 q46 1 85 -41 q163 -173 315 -249 q30 -20 16 -48 q-17 -33 -60 -14 q-67 38 -157 116 q-85 74 -152 149 q-23 25 -40 25 q-16 0 -37 -26 q-60 -73 -146 -151 q-89 -81 -167 -131 q-23 -13 -40 -8 q-17 6 -23 22 q-11 24 20 44 q86 45 171 121 q76 68 139 149 ZM536 12 l328 1 q15 -1 23 -11 q7 -9 6 -22 q-1 -24 -30 -27 l-722 0 q-17 1 -25 11 q-8 9 -7 22 q3 24 32 27 l327 -1 l0 163 l-212 -1 q-17 0 -25 11 q-7 10 -5 23 q2 22 30 25 l212 -1 l0 144 l-209 -1 q-16 0 -23 10 q-8 9 -7 21 q1 26 30 29 l490 0 q17 -1 25 -11 q7 -11 5 -24 q-2 -23 -30 -25 l-213 1 l0 -144 l208 1 q17 -1 25 -11 q7 -11 5 -23 q-2 -23 -30 -25 l-208 1 l0 -163 Z" /><glyph glyph-name="" unicode="&#x516b;" d="M642 635 q34 -458 290 -603 q33 -19 16 -52 q-8 -17 -25 -23 q-20 -7 -40 6 q-272 177 -310 646 q-1 24 -17 38 q-16 14 -42 15 l-152 -3 q-25 2 -27 32 q0 13 7 22 q7 9 19 10 q94 4 178 1 q44 -1 72 -25 q28 -24 31 -64 ZM326 568 q1 17 13 24 q12 8 26 6 q31 -3 33 -35 q-7 -201 -68 -344 q-72 -168 -224 -270 q-36 -19 -58 7 q-10 11 -9 25 q1 15 16 25 q148 97 212 251 q50 121 59 311 Z" /><glyph glyph-name="" unicode="&#x516c;" d="M655 683 q51 -98 108 -165 q61 -72 149 -130 q16 -10 20 -27 q4 -16 -5 -28 q-9 -14 -25 -18 q-19 -5 -35 7 q-86 58 -154 142 q-61 75 -115 182 q-11 22 -29 30 q-15 7 -41 7 l-150 -3 q-15 0 -22 13 q-7 12 -4 27 q3 22 26 25 l167 2 q40 0 64 -13 q27 -15 46 -51 ZM94 346 q69 48 123 116 q42 53 86 135 q20 29 49 17 q28 -12 16 -47 q-40 -83 -101 -157 q-63 -76 -127 -118 q-20 -13 -36 -9 q-16 3 -24 16 q-13 23 14 47 ZM713 27 q-246 -53 -473 -70 q-31 -2 -40 24 q-9 26 14 46 q39 32 72 79 q91 125 168 304 q7 16 20 20 q14 3 27 -3 q31 -14 22 -46 q-91 -202 -194 -336 q-5 -7 -3 -11 q2 -3 10 -2 q99 7 342 47 q-44 59 -96 105 q-22 27 -1 45 q22 18 50 -3 q49 -41 104 -107 q54 -67 82 -127 q8 -22 0 -38 q-9 -16 -26 -21 q-28 -10 -44 24 q-11 29 -34 70 Z" /><glyph glyph-name="" unicode="&#x516d;" d="M638 333 q57 -48 128 -134 q76 -93 107 -157 q9 -21 2 -38 q-8 -17 -24 -23 q-28 -11 -48 22 q-85 161 -215 286 q-22 27 0 45 q22 18 50 -1 ZM403 290 q-34 -80 -104 -170 q-68 -88 -132 -139 q-21 -16 -40 -13 q-18 4 -27 20 q-15 24 13 48 q150 110 224 287 q15 27 43 16 q32 -14 23 -49 ZM538 534 l342 1 q16 -1 24 -11 q7 -11 6 -24 q-1 -26 -30 -29 l-759 0 q-17 1 -25 11 q-7 11 -6 24 q1 26 31 29 l344 -1 l-1 155 q1 19 13 27 q13 8 29 7 q29 -3 33 -34 l-1 -155 Z" /><glyph glyph-name="" unicode="&#x5170;" d="M940 -2 q0 -13 -7 -21 q-8 -9 -23 -9 l-811 0 q-30 4 -31 30 q0 12 8 21 q9 10 23 10 l811 0 q13 0 22 -10 q8 -9 8 -21 ZM809 273 q0 -13 -7 -21 q-9 -10 -24 -10 l-546 0 q-15 0 -24 10 q-8 9 -8 21 q0 12 8 21 q9 10 24 10 l546 0 q14 0 23 -10 q8 -9 8 -21 ZM441 637 q8 -12 2 -26 q-5 -12 -17 -18 q-29 -14 -46 10 q-46 72 -85 117 q-15 22 5 40 q27 18 46 -1 q55 -51 95 -122 ZM606 555 l256 0 q13 0 21 -10 q8 -10 8 -21 q0 -31 -29 -31 l-718 0 q-14 0 -23 10 q-8 9 -8 21 q0 12 8 21 q9 10 23 10 l390 0 l1 2 q63 92 108 199 q6 17 22 22 q14 5 29 -2 q32 -16 17 -47 q-45 -95 -105 -174 Z" /><glyph glyph-name="" unicode="&#x5173;" d="M439 640 q10 -28 -17 -42 q-30 -15 -46 12 q-46 79 -76 112 q-16 20 7 35 q25 16 44 0 q54 -53 88 -117 ZM614 574 l232 0 q12 0 20 -9 q8 -9 8 -21 q0 -12 -6 -20 q-8 -10 -22 -10 l-311 0 q3 -94 -8 -167 l365 0 q27 -4 29 -28 q0 -13 -7 -22 q-8 -10 -22 -10 l-340 0 q49 -116 148 -198 q99 -82 209 -103 q39 -11 34 -45 q-4 -30 -45 -24 q-124 23 -233 114 q-110 91 -162 214 q-25 -74 -68 -131 q-107 -141 -333 -205 q-15 -5 -27 5 q-11 9 -14 23 q-2 12 5 23 q8 12 23 16 q191 49 285 173 q47 60 70 138 l-330 0 q-29 0 -29 33 q2 23 29 27 l343 0 q13 72 8 167 l-304 0 q-12 0 -21 9 q-8 8 -8 21 q0 11 7 20 q8 10 22 10 l384 0 q63 99 96 176 q6 15 21 19 q15 4 28 -2 q12 -7 17 -18 q6 -14 -1 -27 q-47 -91 -92 -148 Z" /><glyph glyph-name="" unicode="&#x5174;" d="M410 158 q-89 -131 -264 -233 q-39 -20 -56 3 q-10 12 -8 27 q3 17 22 28 q154 85 245 211 q20 27 49 11 q27 -16 12 -47 ZM340 493 q16 -31 -10 -50 q-11 -9 -25 -7 q-16 2 -25 18 q-73 122 -124 189 q-18 29 5 47 q11 8 25 7 q15 -1 25 -14 q72 -84 129 -190 ZM906 -15 q16 -14 13 -31 q-2 -16 -17 -26 q-27 -19 -53 4 q-158 128 -246 220 q-26 21 -4 45 q22 21 44 6 q88 -84 263 -218 ZM925 320 q1 -10 -7 -20 q-9 -11 -22 -11 l-784 0 q-13 0 -21 9 q-8 9 -8 20 q-1 13 7 23 q8 11 22 11 l784 0 q13 0 21 -10 q8 -10 8 -22 ZM563 533 q5 -34 -23 -46 q-13 -5 -26 2 q-14 8 -19 26 q-30 97 -79 195 q-12 30 13 42 q13 6 27 3 q15 -3 21 -16 q52 -95 86 -206 ZM851 667 q-67 -134 -151 -235 q-21 -25 -49 -8 q-27 15 -4 48 q81 105 138 230 q6 14 22 18 q14 3 28 -4 q29 -14 16 -49 Z" /><glyph glyph-name="" unicode="&#x5175;" d="M884 -19 q20 -5 26 -17 q7 -13 2 -27 q-10 -31 -50 -26 q-63 17 -134 52 q-77 38 -130 82 q-23 23 -4 46 q19 22 46 5 q107 -86 244 -115 ZM398 40 q-127 -93 -265 -132 q-24 -5 -38 9 q-13 14 -10 31 q2 20 29 27 q134 29 244 119 q26 17 44 -7 q19 -24 -4 -47 ZM682 212 l210 1 q16 -1 23 -12 q6 -11 4 -24 q-3 -22 -27 -24 l-782 0 q-16 1 -23 10 q-8 9 -7 21 q1 26 30 29 l158 -1 q-1 91 -1 364 q0 97 96 108 q201 24 331 66 q22 6 35 -4 q14 -10 15 -26 q1 -24 -30 -36 q-118 -34 -324 -58 q-34 -4 -46 -20 q-10 -13 -10 -44 l0 -59 l471 1 q15 0 23 -9 q7 -9 7 -21 q1 -26 -30 -29 l-123 0 l0 -233 ZM615 212 l0 233 l-281 1 q0 -183 1 -234 l166 -1 l114 1 Z" /><glyph glyph-name="" unicode="&#x5177;" d="M876 -17 q19 -3 25 -16 q7 -12 2 -26 q-9 -30 -48 -26 q-137 32 -265 116 q-24 21 -7 44 q16 22 44 8 q121 -79 249 -100 ZM408 25 q-129 -84 -269 -114 q-23 -4 -35 8 q-12 12 -11 27 q1 23 30 30 q130 21 247 103 q27 15 44 -9 q17 -24 -6 -45 ZM726 188 l167 0 q16 -1 23 -12 q6 -11 4 -24 q-3 -22 -27 -24 l-393 2 l-390 -2 q-15 1 -23 10 q-7 9 -7 21 q1 26 30 29 l167 0 q-4 232 2 468 q1 35 25 58 q28 27 77 28 q129 3 245 -1 q46 -1 73 -25 q24 -22 26 -57 q5 -214 1 -471 ZM663 414 l-323 0 l0 -89 l323 0 l0 89 ZM663 463 q0 44 -1 89 l-321 0 q-1 -27 -1 -89 l323 0 ZM662 276 l-321 0 q0 -65 1 -89 l319 0 q1 23 1 89 ZM661 602 q0 18 -1 36 q-2 24 -14 36 q-13 13 -40 14 q-104 5 -209 0 q-53 -1 -55 -51 q0 -18 -1 -35 l320 0 Z" /><glyph glyph-name="" unicode="&#x5178;" d="M871 -25 q18 -5 23 -17 q6 -13 1 -26 q-11 -31 -51 -24 q-59 17 -120 48 q-68 35 -120 78 q-22 23 -4 45 q18 22 44 4 q99 -81 227 -108 ZM391 33 q-120 -90 -243 -125 q-21 -5 -33 5 q-13 10 -14 25 q-2 24 27 34 q124 30 226 115 q26 16 43 -8 q16 -23 -6 -46 ZM812 191 l87 1 q15 -1 22 -10 q7 -10 6 -21 q-2 -23 -27 -26 l-394 2 l-403 -2 q-14 0 -21 9 q-8 9 -7 21 q1 24 28 27 l88 -1 q-2 204 0 343 q1 43 25 66 q26 25 77 26 q41 0 81 1 l0 112 q1 16 12 22 q12 7 26 5 q23 -3 26 -27 l0 -112 q60 1 120 0 l0 112 q1 16 12 22 q12 7 26 5 q23 -3 26 -27 l0 -112 q44 -1 88 -1 q48 -1 75 -25 q26 -24 27 -67 q0 -172 0 -343 ZM749 191 l0 176 l-130 0 l0 -176 l130 0 ZM749 421 l0 103 q-1 46 -50 48 q-40 0 -80 1 l0 -152 l130 0 ZM559 191 l0 176 l-122 0 l0 -176 l122 0 ZM559 421 l0 152 q-61 2 -122 0 l0 -152 l122 0 ZM377 191 l0 176 l-126 0 q0 -88 0 -176 l126 0 ZM377 421 l0 152 q-37 -1 -74 -1 q-48 -2 -50 -48 q-2 -36 -2 -103 l126 0 Z" /><glyph glyph-name="" unicode="&#x5179;" d="M442 654 q7 -29 -20 -40 q-12 -5 -25 -1 q-14 5 -21 19 q-20 42 -74 104 q-13 19 9 33 q28 15 46 -3 q59 -61 85 -112 ZM827 -32 q-120 -27 -271 -40 q-25 -3 -32 20 q-6 21 9 39 q84 89 170 222 q-73 -10 -157 -14 q-25 -1 -33 19 q-8 19 7 39 q78 106 135 233 q14 29 46 17 q28 -10 19 -40 q-50 -105 -119 -200 q-3 -3 -1 -5 q2 -2 7 -2 q81 4 132 12 q28 48 58 107 q18 30 49 15 q26 -15 14 -44 q-123 -221 -234 -345 q-7 -8 5 -8 q94 6 177 24 q-17 38 -34 69 q-10 25 13 36 q26 11 42 -10 q40 -70 71 -158 q6 -31 -22 -37 q-12 -4 -24 2 q-13 6 -17 21 q-6 18 -10 28 ZM610 579 l290 0 q13 0 20 -9 q7 -9 7 -20 q0 -11 -6 -19 q-7 -10 -21 -10 l-795 0 q-13 0 -21 10 q-7 9 -7 19 q0 12 7 20 q8 9 21 9 l434 0 q71 95 112 178 q6 14 22 18 q14 3 27 -3 q27 -15 12 -46 q-58 -97 -102 -147 ZM425 -35 q-138 -25 -262 -38 q-25 -4 -33 17 q-8 21 8 38 q91 103 176 227 q-66 -8 -148 -13 q-25 -2 -33 18 q-8 19 6 39 q78 110 138 235 q13 28 46 18 q29 -12 19 -41 q-54 -108 -122 -201 q-3 -3 -1 -5 q2 -2 7 -2 q67 2 127 10 q33 48 66 108 q17 31 48 16 q27 -15 16 -43 q-95 -168 -251 -348 q-4 -4 -2 -7 q2 -2 8 -1 q102 11 170 24 q-12 40 -30 77 q-9 25 14 35 q29 11 40 -12 q39 -74 63 -157 q3 -33 -22 -40 q-13 -3 -25 3 q-14 7 -17 22 q-3 10 -6 21 Z" /><glyph glyph-name="" unicode="&#x517c;" d="M801 335 q0 -41 -1 -55 q-5 -77 -104 -78 q-29 -1 -59 -1 q113 -115 267 -175 q16 -7 20 -20 q4 -13 -2 -26 q-13 -32 -53 -18 q-145 71 -258 197 l3 -219 q0 -17 -12 -24 q-11 -8 -25 -5 q-23 3 -26 30 l2 260 l-121 0 l3 -261 q-1 -17 -13 -24 q-11 -8 -25 -5 q-24 3 -26 30 l3 207 q-112 -133 -253 -199 q-40 -14 -51 14 q-11 26 18 43 q165 73 266 195 l-160 0 q-14 1 -21 10 q-6 9 -4 20 q3 18 25 20 l181 0 l0 85 l-273 0 q-15 1 -22 10 q-7 10 -5 21 q2 19 27 21 l273 0 l-1 81 q-83 -1 -166 -1 q-31 4 -28 28 q2 20 28 23 q83 0 166 1 l0 77 l-230 -1 q-14 1 -21 10 q-7 9 -5 20 q2 21 27 24 l225 0 l0 1 q-19 40 -70 91 q-16 16 4 33 q20 16 40 4 q19 -11 46 -42 q25 -29 37 -53 q8 -18 -4 -34 l141 0 q28 40 62 118 q7 16 20 20 q14 4 26 -2 q29 -13 17 -44 q-21 -42 -58 -92 l225 0 q16 -1 23 -10 q7 -9 6 -20 q-3 -21 -29 -24 l-243 1 l-1 -78 q44 -1 87 -1 q97 -1 101 -76 q1 -14 1 -52 l114 0 q14 0 20 -9 q7 -9 6 -20 q-1 -23 -26 -26 l-114 0 ZM740 387 q0 35 -1 46 q-3 35 -46 35 q-46 0 -81 1 l-1 -82 l129 0 ZM740 337 l-129 0 l-1 -86 l82 0 q46 1 47 37 q1 24 1 49 ZM553 251 l0 86 l-120 0 l-1 -86 l121 0 ZM553 387 l-1 82 l-118 0 l-1 -82 l120 0 ZM552 519 l0 79 l-117 0 l-1 -78 q81 0 118 -1 Z" /><glyph glyph-name="" unicode="&#x517d;" d="M730 30 l0 49 q-1 39 -54 39 q-177 4 -353 0 q-52 0 -53 -40 q0 -24 0 -48 q0 -40 54 -41 q171 -3 354 0 q51 2 52 41 ZM797 13 q-2 -39 -33 -60 q-27 -18 -70 -19 q-193 -4 -386 0 q-44 1 -71 18 q-33 20 -34 61 q0 40 0 81 q2 38 35 59 q27 17 68 18 q152 3 393 0 q42 -1 68 -19 q28 -20 30 -54 q3 -33 0 -85 ZM947 262 q0 -29 -25 -29 l-836 0 q-11 0 -19 9 q-7 8 -7 18 q0 9 7 17 q8 9 19 9 l836 0 q24 -2 25 -24 ZM779 484 l-249 0 l0 -85 q82 0 190 3 q58 2 59 48 l0 34 ZM779 529 l0 28 q-1 47 -61 47 q-76 1 -188 3 l0 -78 l249 0 ZM629 658 q33 0 113 -2 q41 -1 69 -22 q30 -23 31 -62 q4 -64 0 -129 q-6 -89 -103 -92 q-263 -6 -464 0 q-108 3 -111 90 q-3 62 0 123 q2 45 33 69 q29 22 77 23 q74 2 104 2 q-25 38 -65 73 q-19 15 4 34 q21 18 42 3 q56 -37 85 -92 q5 -9 3 -17 l109 0 q29 44 54 99 q19 34 53 15 q27 -14 13 -40 q-17 -37 -47 -75 ZM467 399 l0 85 l-241 0 q0 -23 1 -36 q1 -44 64 -46 q96 -3 176 -3 ZM467 529 l0 78 q-78 0 -177 -3 q-63 -2 -63 -51 q0 -16 -1 -24 l241 0 Z" /><glyph glyph-name="" unicode="&#x5185;" d="M530 629 q107 0 222 -3 q55 -1 86 -31 q31 -30 32 -81 q2 -177 4 -354 l2 -109 q2 -67 -42 -99 q-58 -43 -193 -23 q-16 3 -23 14 q-7 11 -6 24 q3 29 35 29 q88 -14 120 -4 q39 12 39 65 q0 319 -4 433 q-2 41 -19 59 q-19 19 -59 20 q-62 1 -190 1 l-7 0 q-6 -63 -26 -125 q10 0 18 -4 q57 -30 117 -75 q67 -50 100 -91 q13 -18 10 -34 q-4 -17 -17 -27 q-25 -18 -49 10 q-57 84 -190 166 q-4 3 -8 6 q-59 -132 -182 -201 q-20 -10 -35 -3 q-15 7 -21 21 q-9 24 17 41 q180 86 198 316 q-88 -1 -176 -1 q-45 -1 -63 -19 q-17 -17 -18 -58 q-1 -59 -4 -553 q-1 -17 -14 -25 q-13 -7 -28 -4 q-24 3 -27 29 q3 289 6 579 q1 47 31 76 q32 31 92 32 q101 1 204 3 q0 62 0 125 q0 18 12 26 q12 8 27 6 q27 -2 30 -32 q0 -86 -1 -125 Z" /><glyph glyph-name="" unicode="&#x5188;" d="M884 55 q0 -105 -118 -123 q-55 -7 -127 4 q-15 2 -23 14 q-8 11 -6 24 q3 28 35 26 q58 -13 105 -5 q63 11 63 67 q4 250 -4 535 q-1 74 -88 77 q-204 8 -435 0 q-45 -2 -65 -19 q-21 -18 -22 -58 q-9 -283 -3 -653 q0 -13 -12 -22 q-10 -7 -24 -8 q-14 -1 -24 7 q-11 9 -11 23 q-4 322 6 683 q1 49 40 78 q34 25 85 27 q207 8 499 0 q52 -2 86 -30 q36 -30 37 -81 q7 -301 6 -566 ZM572 368 q75 -46 142 -98 q16 -13 19 -29 q3 -15 -6 -25 q-20 -28 -56 -4 q-61 51 -134 100 q-100 -155 -225 -241 q-31 -18 -51 5 q-19 23 7 45 q123 89 214 225 q-93 54 -191 96 q-17 8 -21 22 q-4 12 4 23 q14 21 43 11 q105 -44 200 -97 q57 98 95 219 q11 29 42 20 q29 -10 21 -44 q-42 -123 -103 -228 Z" /><glyph glyph-name="" unicode="&#x518c;" d="M815 403 l87 1 q15 -1 23 -10 q7 -10 7 -22 q-1 -26 -30 -29 l-87 1 q-1 -89 -1 -198 q1 -59 1 -117 q2 -55 -40 -80 q-44 -26 -122 -11 q-16 4 -22 14 q-7 10 -5 22 q4 25 33 24 q45 -7 62 -2 q27 7 28 43 q2 48 2 305 l-144 1 q0 -19 -2 -59 q-12 -232 -76 -344 q-22 -30 -47 -19 q-30 13 -17 42 q63 103 77 326 q2 27 3 54 l-104 0 q-1 -83 -1 -184 q0 -54 2 -118 q1 -56 -39 -80 q-43 -26 -121 -10 q-15 4 -22 14 q-6 10 -4 22 q3 25 31 24 q45 -8 62 -3 q27 7 28 44 q2 47 2 291 l-140 -1 q0 -20 -2 -60 q-13 -232 -75 -342 q-20 -29 -45 -21 q-33 12 -21 44 q63 103 77 327 q2 34 2 52 l-74 -1 q-16 1 -24 10 q-7 10 -6 22 q1 26 30 29 l76 -1 q0 24 -3 249 q0 79 83 83 q36 2 100 0 q81 -4 83 -83 q1 -57 1 -249 l105 0 q-1 125 -2 250 q-2 78 83 82 q36 2 102 0 q83 -4 85 -83 q1 -56 1 -249 ZM750 403 q0 160 -3 235 q-1 20 -8 28 q-8 10 -29 11 l-65 0 q-36 -3 -36 -39 q0 -118 0 -235 l141 0 ZM379 403 q-2 177 -3 235 q2 37 -37 39 l-63 0 q-35 -3 -36 -39 q1 -118 1 -235 l138 0 Z" /><glyph glyph-name="" unicode="&#x518d;" d="M807 165 l0 -25 l2 -96 q2 -65 -43 -97 q-57 -40 -182 -19 q-17 3 -24 15 q-7 12 -5 25 q4 27 35 25 q79 -15 112 -6 q42 11 41 63 l0 115 l-482 0 q0 -115 -1 -229 q-1 -16 -12 -23 q-11 -8 -25 -6 q-25 2 -27 29 q0 147 1 229 l-105 -1 q-15 1 -22 10 q-7 9 -6 20 q2 25 28 28 l105 0 q2 168 3 242 q1 45 29 73 q31 31 88 32 q94 2 146 2 l0 98 l-327 -1 q-17 1 -25 11 q-7 11 -5 23 q2 22 30 25 l726 0 q30 -4 30 -29 q0 -26 -30 -30 l-333 1 l0 -98 q57 0 165 -2 q108 -7 110 -106 q2 -156 2 -241 l104 0 q14 -1 21 -10 q7 -10 6 -22 q-2 -23 -27 -26 l-103 1 ZM742 222 q0 83 -1 121 l-213 1 l0 -123 l214 1 ZM741 398 q-1 15 -1 42 q-1 39 -18 56 q-17 17 -55 18 q-88 2 -139 2 l0 -118 l213 0 ZM464 221 l0 123 l-202 -1 l0 -121 l202 -1 ZM464 398 l0 118 q-62 -1 -125 -2 q-41 -1 -59 -18 q-17 -17 -17 -53 l0 -45 l201 0 Z" /><glyph glyph-name="" unicode="&#x5199;" d="M136 208 l99 -1 l396 1 q15 -1 23 -11 q7 -9 6 -22 q-1 -24 -28 -27 l-495 0 q-16 1 -24 10 q-7 9 -7 21 q1 26 30 29 ZM232 719 q265 3 533 0 q51 -1 83 -27 q32 -26 33 -69 q2 -47 0 -89 q-2 -18 -16 -26 q-13 -7 -29 -4 q-23 4 -25 29 q2 34 0 69 q-1 59 -71 61 q-331 2 -486 0 q-38 -1 -54 -17 q-14 -14 -15 -44 q-2 -31 0 -71 q-1 -17 -14 -25 q-13 -7 -28 -5 q-25 3 -28 30 l0 91 q4 91 117 97 ZM387 529 l332 -1 q30 -4 31 -29 q1 -24 -31 -28 l-346 0 q-12 -52 -18 -76 q-4 -13 2 -19 q6 -7 23 -7 q155 -1 310 -1 q98 -5 95 -93 q-6 -158 -61 -250 q-52 -84 -153 -102 q-88 -16 -200 19 q-16 6 -22 18 q-5 12 -1 24 q9 31 51 20 q82 -30 147 -22 q79 10 119 76 q45 75 51 209 q1 23 -12 35 q-12 10 -34 10 q-153 0 -307 0 q-52 -1 -70 21 q-18 21 -7 64 q34 132 49 207 q9 26 35 25 q35 -2 32 -37 q-7 -30 -15 -63 Z" /><glyph glyph-name="" unicode="&#x519b;" d="M911 666 l0 -58 q0 -13 -10 -21 q-10 -8 -22 -9 q-14 -1 -25 7 q-11 8 -11 22 l0 44 q0 23 -19 35 q-15 9 -38 9 q-354 6 -565 0 q-61 2 -61 -50 l0 -37 q0 -13 -11 -21 q-10 -7 -24 -7 q-12 -1 -22 7 q-10 8 -10 22 l0 54 q0 41 32 66 q29 22 71 23 q252 4 607 0 q48 0 77 -21 q31 -22 31 -65 ZM553 110 l0 -172 q0 -14 -10 -22 q-10 -8 -23 -8 q-14 0 -23 7 q-11 8 -11 23 l0 172 l-382 0 q-27 3 -28 27 q0 12 7 20 q8 9 21 9 l382 0 l0 104 q-107 0 -244 5 q-32 1 -44 23 q-12 23 9 48 q62 76 107 141 l-148 0 q-13 0 -21 9 q-7 8 -7 20 q0 11 7 19 q8 9 21 9 l188 0 q13 18 68 104 q21 24 47 10 q26 -15 7 -43 q-24 -40 -45 -71 l405 0 q28 -4 28 -27 q0 -13 -7 -21 q-8 -9 -21 -9 l-444 0 q-56 -82 -110 -147 q-5 -7 -3 -9 q2 -2 10 -2 q126 -4 197 -4 l0 101 q0 13 11 21 q10 7 23 7 q13 0 22 -6 q11 -8 11 -22 l0 -101 q135 0 238 4 q11 0 19 -9 q7 -8 7 -17 q0 -11 -6 -19 q-7 -9 -20 -9 q-76 -3 -238 -5 l0 -104 l350 0 q28 -4 28 -27 q0 -13 -7 -21 q-7 -8 -21 -8 l-350 0 Z" /><glyph glyph-name="" unicode="&#x519c;" d="M681 238 q105 -151 243 -207 q16 -7 18 -22 q2 -14 -8 -27 q-19 -27 -55 -8 q-130 61 -235 206 q-100 138 -166 334 q-49 -87 -117 -165 l0 -345 q0 -7 5 -10 q4 -2 10 0 q82 21 192 74 q26 13 37 -10 q13 -28 -8 -42 q-101 -50 -233 -95 q-31 -10 -50 1 q-21 12 -21 43 l0 311 q-76 -76 -173 -148 q-30 -22 -51 -2 q-12 11 -13 24 q-2 16 15 28 q131 94 216 185 q100 108 158 234 q-97 -2 -194 -3 q-61 2 -61 -50 l0 -70 q0 -14 -13 -22 q-12 -8 -26 -6 q-28 2 -28 29 l0 89 q0 42 32 67 q28 22 71 22 q85 1 242 1 q19 48 30 95 q4 14 18 22 q13 7 26 5 q30 -6 25 -40 q-10 -40 -24 -82 q150 0 232 -1 q48 0 77 -21 q31 -22 31 -65 l0 -93 q0 -13 -11 -22 q-10 -8 -23 -8 q-13 -1 -23 7 q-11 8 -11 22 l0 77 q0 42 -57 44 q-127 3 -238 3 q-2 -3 -4 -9 l0 -1 q58 -176 136 -303 q61 47 132 134 q11 11 27 10 q13 -1 23 -11 q21 -21 -3 -53 q-59 -72 -150 -126 Z" /><glyph glyph-name="" unicode="&#x51a0;" d="M611 240 q-37 38 -89 64 q-23 17 -10 36 q13 19 38 14 q56 -24 103 -66 q21 -27 2 -48 q-18 -22 -44 0 ZM82 -25 q78 62 110 148 q25 66 29 171 q2 16 12 22 q10 7 22 6 q28 -3 31 -31 q-5 -118 -37 -201 q-37 -97 -117 -164 q-33 -23 -56 2 q-20 22 6 47 ZM208 564 l227 0 q29 -4 29 -29 q0 -25 -29 -29 l-227 0 q-29 4 -29 29 q0 25 29 29 ZM212 725 q287 5 573 0 q47 0 77 -27 q29 -26 31 -66 q0 -42 0 -83 q-2 -16 -14 -24 q-13 -7 -27 -6 q-27 2 -29 29 l0 66 q-1 58 -68 57 q-351 2 -516 0 q-34 -1 -50 -15 q-16 -14 -17 -41 l0 -70 q0 -17 -13 -24 q-13 -8 -29 -5 q-22 3 -26 29 l0 90 q2 39 28 63 q29 27 80 27 ZM782 416 l0 -114 l3 -117 q1 -64 -37 -94 q-48 -38 -156 -16 q-16 4 -22 14 q-6 11 -4 24 q5 28 34 25 q61 -14 87 -5 q33 11 33 60 l-1 223 l-187 -1 q-15 0 -22 9 q-8 9 -7 21 q1 24 29 27 l187 -1 l0 75 q1 15 11 22 q10 7 23 6 q25 -1 28 -28 l0 -75 l103 1 q15 0 22 -9 q7 -8 7 -20 q0 -24 -29 -28 l-102 1 ZM408 354 q-2 -170 -2 -308 q0 -49 50 -49 q187 -15 331 2 q43 4 62 26 q15 18 15 50 q1 17 13 24 q13 6 28 3 q26 -5 29 -29 q1 -58 -30 -91 q-33 -35 -106 -44 q-188 -14 -351 -2 q-54 4 -79 29 q-23 23 -24 70 q0 194 3 319 l-207 0 q-30 3 -30 28 q0 24 30 28 l324 0 q30 -4 30 -28 q0 -25 -30 -28 l-56 0 Z" /><glyph glyph-name="" unicode="&#x51af;" d="M311 265 q-73 -163 -160 -272 q-13 -18 -31 -19 q-16 -1 -29 10 q-24 20 -4 50 q89 104 163 263 q17 27 47 13 q26 -14 14 -45 ZM788 171 q0 -13 -7 -21 q-9 -10 -25 -10 l-409 0 q-16 0 -24 9 q-7 8 -7 20 q0 12 7 20 q8 10 24 10 l409 0 q31 -4 32 -28 ZM304 585 q21 -28 -2 -52 q-23 -27 -53 1 q-55 64 -137 112 q-13 8 -13 21 q0 13 9 23 q19 22 46 7 q95 -49 150 -112 ZM779 388 q12 -1 24 -1 q101 -3 104 -102 q2 -118 -17 -217 q-14 -76 -49 -114 q-40 -43 -116 -44 q-51 0 -114 17 q-16 4 -21 18 q-5 13 0 27 q8 26 45 16 q49 -15 85 -15 q49 -1 73 30 q18 23 28 75 q20 95 15 194 q0 56 -56 57 q-117 4 -320 0 q-48 -2 -68 17 q-22 20 -16 66 q14 103 30 187 q3 16 14 24 q11 8 24 6 q13 -1 24 -11 q11 -10 9 -22 q-19 -100 -29 -185 q-2 -14 4 -19 q6 -5 22 -5 q146 4 233 3 q33 125 50 260 q2 21 -6 30 q-9 9 -31 10 q-167 5 -355 0 q-29 3 -30 29 q0 12 7 20 q9 10 24 10 q210 4 372 1 q56 -2 76 -27 q20 -24 12 -79 q-17 -139 -47 -256 Z" /><glyph glyph-name="" unicode="&#x51b3;" d="M91 614 q-22 21 -4 40 q17 19 46 6 q28 -17 70 -53 q45 -39 66 -67 q11 -16 6 -31 q-4 -16 -17 -25 q-25 -17 -47 10 q-42 63 -120 120 ZM216 313 q15 27 43 17 q28 -10 19 -45 q-54 -145 -146 -260 q-14 -17 -30 -19 q-15 -2 -26 7 q-26 20 -6 51 q94 112 146 249 ZM809 345 l89 0 q16 -1 23 -11 q6 -11 5 -24 q-3 -23 -27 -26 l-283 3 q37 -97 117 -176 q77 -76 171 -113 q18 -8 22 -22 q4 -14 -3 -27 q-14 -29 -54 -17 q-84 34 -166 117 q-84 85 -128 181 q-76 -235 -338 -314 q-21 -6 -34 5 q-14 10 -15 26 q-3 24 25 34 q250 71 309 305 l-182 -2 q-16 1 -23 11 q-7 11 -5 24 q3 23 29 26 l192 0 q6 52 6 103 q0 70 -1 104 l-3 0 q-119 0 -167 -1 q-15 1 -22 10 q-8 9 -7 21 q1 25 29 29 q85 0 170 1 q-2 84 -2 131 q1 18 12 26 q12 8 27 6 q26 -3 30 -31 l0 -132 q75 0 107 -1 q48 -1 73 -26 q23 -23 24 -63 q2 -55 0 -177 ZM744 345 q2 114 0 159 q-1 24 -12 35 q-12 12 -38 12 q-26 1 -89 1 q-1 -37 -1 -110 q0 -56 -5 -97 l145 0 Z" /><glyph glyph-name="" unicode="&#x51b5;" d="M562 288 q-11 -124 -74 -214 q-78 -111 -227 -158 q-24 -7 -38 2 q-13 9 -15 25 q-4 26 22 36 q136 39 203 132 q54 75 61 183 q2 17 13 25 q11 7 24 6 q31 -3 31 -37 ZM492 410 q123 -4 245 0 q55 2 59 53 q2 75 0 149 q-3 50 -60 51 q-126 5 -245 0 q-56 -3 -59 -52 q-4 -74 0 -148 q5 -54 60 -53 ZM98 639 q-22 20 -6 42 q17 22 48 8 q35 -21 72 -52 q43 -36 65 -67 q19 -34 -6 -55 q-25 -21 -51 7 q-45 65 -122 117 ZM236 285 q17 24 44 12 q26 -11 16 -44 q-68 -151 -157 -256 q-15 -17 -30 -19 q-16 -1 -28 8 q-26 20 -5 51 q92 104 160 248 ZM715 352 l0 -2 q-2 -156 -4 -312 q1 -24 10 -34 q9 -10 30 -13 q31 -1 70 2 q28 5 37 29 q8 20 7 71 q0 17 12 24 q11 7 26 4 q26 -4 29 -30 q1 -76 -18 -111 q-22 -41 -79 -48 q-44 -7 -100 -3 q-48 4 -70 30 q-20 24 -20 69 q0 197 2 323 q-101 0 -175 3 q-49 1 -77 28 q-26 24 -28 64 q-5 95 0 183 q3 38 27 62 q28 29 76 30 q139 5 289 0 q43 -1 71 -26 q26 -24 30 -60 q6 -76 0 -188 q-2 -39 -27 -65 q-26 -25 -76 -28 q-21 -1 -42 -2 Z" /><glyph glyph-name="" unicode="&#x51b7;" d="M95 620 q-22 20 -4 38 q18 19 45 8 q34 -19 68 -48 q41 -35 64 -68 q18 -36 -13 -55 q-23 -15 -44 10 q-38 58 -116 115 ZM230 327 q14 23 38 16 q32 -9 21 -46 q-67 -156 -157 -260 q-15 -16 -30 -18 q-16 -1 -27 8 q-24 21 -4 50 q86 95 159 250 ZM284 456 q131 102 226 249 q29 45 73 45 q43 0 81 -43 q114 -133 253 -227 q16 -10 16 -28 q0 -15 -12 -27 q-26 -24 -57 -1 q-140 118 -245 244 q-15 17 -29 18 q-18 1 -32 -21 q-100 -152 -225 -257 q-34 -23 -55 -1 q-21 22 6 49 ZM727 429 l-268 0 q-17 1 -24 11 q-7 11 -4 23 q3 21 28 23 l268 0 q15 -1 22 -10 q8 -10 7 -21 q-2 -23 -29 -26 ZM642 30 q40 -34 65 -65 q21 -33 -7 -52 q-25 -18 -50 8 q-98 108 -228 179 q-26 17 -13 39 q13 22 48 12 q57 -24 134 -80 q96 85 152 173 q6 9 3 15 q-4 7 -18 7 l-354 -1 q-16 0 -23 10 q-7 9 -6 21 q1 23 27 27 l390 1 q62 0 76 -30 q13 -28 -18 -69 q-74 -105 -178 -195 Z" /><glyph glyph-name="" unicode="&#x51c6;" d="M115 643 q-21 21 -3 40 q19 19 46 6 q33 -21 66 -51 q38 -35 60 -69 q16 -33 -10 -53 q-26 -20 -49 9 q-22 36 -52 67 q-21 21 -58 51 ZM242 317 q15 26 42 16 q28 -10 18 -45 q-60 -143 -161 -263 q-31 -28 -54 -10 q-29 21 -6 53 q93 98 161 249 ZM710 578 q92 -1 183 -1 q14 -1 20 -10 q6 -9 5 -21 q-2 -21 -26 -24 q-54 1 -191 1 l0 -138 l164 0 q13 0 19 -9 q7 -8 6 -18 q-1 -21 -25 -24 l-164 0 l0 -132 l164 0 q14 -1 20 -10 q6 -9 4 -20 q-2 -19 -24 -21 l-164 0 l0 -150 q143 0 203 2 q15 0 22 -10 q7 -9 6 -22 q-2 -23 -28 -27 q-205 -4 -401 0 q-45 2 -71 23 q-28 23 -29 66 q-2 164 5 419 q-23 -26 -50 -51 q-27 -20 -46 -3 q-23 21 0 47 q58 48 117 133 q58 83 89 161 q7 15 19 19 q13 3 25 -1 q28 -11 19 -42 q-28 -64 -78 -138 l2 0 q70 0 140 1 q50 89 72 155 q6 17 19 21 q13 4 26 -2 q30 -12 21 -43 q-24 -50 -73 -131 ZM639 1 l0 150 l-173 0 q0 -72 1 -98 q2 -50 56 -51 q32 -1 116 -1 ZM639 202 l0 132 l-170 0 q-2 -86 -2 -132 l172 0 ZM639 385 l0 138 q-59 -1 -119 -1 q-47 0 -49 -47 q0 -45 -1 -90 l169 0 Z" /><glyph glyph-name="" unicode="&#x51cc;" d="M732 460 q34 -16 76 -47 q46 -33 70 -62 q21 -31 -2 -52 q-20 -19 -45 6 q-54 64 -133 107 q-23 17 -11 36 q14 22 45 12 ZM521 422 q-19 -32 -70 -79 q-49 -45 -83 -64 q-33 -14 -48 10 q-14 21 12 39 q81 49 134 123 q21 24 43 9 q21 -14 12 -38 ZM137 667 q28 -18 60 -49 q35 -34 54 -66 q10 -17 3 -32 q-7 -15 -21 -22 q-24 -11 -42 15 q-35 58 -100 112 q-18 21 1 38 q19 17 45 4 ZM212 301 q12 26 38 18 q29 -9 22 -44 q-54 -150 -142 -262 q-30 -31 -55 -13 q-27 19 -7 50 q87 104 144 251 ZM666 66 q97 -61 234 -81 q16 -3 23 -14 q6 -12 3 -25 q-6 -29 -46 -27 q-147 23 -260 108 q-126 -95 -271 -120 q-22 -3 -34 6 q-12 10 -12 24 q-1 22 26 28 q127 20 242 102 q-63 58 -96 128 q-85 -100 -176 -158 q-32 -16 -47 6 q-16 22 6 41 q164 103 275 291 q18 21 42 8 q24 -13 9 -43 q-18 -28 -29 -42 q77 1 154 3 q49 1 69 -26 q18 -25 0 -64 q-37 -77 -112 -145 ZM634 679 l193 1 q17 -1 25 -10 q7 -10 5 -22 q-3 -21 -30 -23 l-193 1 l-1 -96 l261 1 q29 -3 30 -26 q2 -25 -30 -29 l-567 0 q-31 3 -30 27 q0 25 30 28 l242 -1 l0 96 l-182 -1 q-31 3 -30 27 q0 25 30 28 l181 -1 l0 70 q0 17 11 24 q11 8 25 7 q27 -2 31 -31 l-1 -70 ZM616 103 q63 57 92 116 q8 19 0 26 q-7 6 -23 5 q-83 -1 -166 -2 q-3 -4 -6 -7 q34 -80 103 -138 Z" /><glyph glyph-name="" unicode="&#x51cf;" d="M587 164 q2 33 0 121 q-1 26 -23 27 q-22 -2 -42 0 q-22 -3 -23 -27 q-2 -65 0 -122 q0 -26 22 -26 q21 -1 43 0 q22 1 23 27 ZM279 253 q-59 -154 -138 -254 q-12 -17 -29 -19 q-15 -1 -27 10 q-25 22 -4 50 q47 61 75 109 q32 55 64 136 q6 13 19 17 q13 4 25 -3 q25 -13 15 -46 ZM636 150 q-1 -57 -59 -62 q-47 -2 -72 0 q-54 6 -57 60 q0 75 0 151 q2 55 58 58 q36 0 71 0 q56 -5 59 -57 q5 -78 0 -150 ZM282 577 q20 -24 -2 -50 q-12 -14 -24 -15 q-15 -1 -28 15 q-54 67 -122 116 q-21 20 -4 44 q17 22 45 7 q77 -46 135 -117 ZM646 458 q0 -11 -7 -19 q-8 -9 -22 -10 l-152 0 q-26 4 -28 27 q1 24 28 27 l152 0 q28 -3 29 -25 ZM900 664 q-18 -20 -42 -3 q-43 38 -82 60 q-18 13 -7 31 q12 19 37 12 q54 -21 90 -57 q20 -25 4 -43 ZM776 129 q23 -78 57 -118 q23 -23 40 2 q18 26 26 78 q2 15 13 22 q11 7 23 2 q25 -7 24 -38 q-11 -73 -37 -107 q-28 -40 -63 -43 q-37 0 -71 38 q-34 40 -58 107 q-90 -99 -227 -156 q-34 -16 -51 10 q-7 10 -2 23 q6 15 23 21 q147 57 237 171 q-30 122 -39 312 q-2 37 -4 113 q-89 0 -205 -2 q-28 -1 -42 -14 q-15 -14 -14 -38 q3 -96 -5 -204 q-10 -128 -36 -207 q-28 -84 -87 -160 q-27 -30 -55 -11 q-24 16 -2 51 q57 59 86 145 q25 73 33 181 q9 96 2 225 q-1 43 28 68 q27 23 74 25 q126 2 222 2 l0 126 q4 29 31 32 q16 1 25 -7 q10 -9 9 -27 q-1 -37 -1 -124 q66 0 172 -2 q14 0 22 -10 q8 -10 7 -22 q0 -12 -7 -20 q-8 -9 -21 -9 q-86 1 -172 2 q2 -76 3 -110 q5 -144 23 -246 q60 101 88 237 q3 13 15 19 q10 5 23 3 q30 -5 25 -38 q-41 -173 -132 -302 Z" /><glyph glyph-name="" unicode="&#x51db;" d="M701 15 q-25 9 -19 30 q7 23 36 21 q41 -9 93 -31 q55 -23 81 -44 q22 -22 7 -45 q-17 -24 -46 -7 q-68 52 -152 76 ZM429 67 q23 12 37 -7 q14 -20 -5 -39 q-77 -56 -177 -93 q-35 -7 -43 19 q-8 24 18 35 q86 25 170 85 ZM359 253 l461 0 q22 -2 23 -20 q1 -20 -23 -23 l-461 0 q-22 2 -23 20 q-1 20 23 23 ZM683 467 q-2 12 -25 13 q-66 3 -133 0 q-23 -1 -24 -13 q0 -12 0 -23 q0 -13 25 -15 q45 -2 133 0 q21 1 24 15 l0 23 ZM672 395 q-80 -3 -155 0 q-35 2 -48 9 q-14 8 -16 28 q-2 18 0 46 q2 18 15 26 q15 9 48 9 q78 2 155 0 q31 0 45 -9 q13 -8 14 -26 q2 -32 0 -45 q-2 -20 -13 -28 q-13 -9 -45 -10 ZM433 351 q152 -4 319 0 q46 2 50 46 q5 48 0 115 q-2 46 -50 46 q-158 3 -319 0 q-47 0 -50 -44 q-4 -61 0 -117 q4 -44 50 -46 ZM860 392 q-5 -80 -90 -83 q-184 -4 -352 0 q-49 2 -71 24 q-19 19 -21 59 q-5 64 0 129 q3 78 90 79 q266 2 358 0 q41 -1 64 -23 q20 -20 22 -50 q4 -59 0 -135 ZM196 512 q-40 69 -104 124 q-20 22 -1 39 q19 18 45 4 q65 -48 120 -127 q16 -35 -13 -52 q-27 -16 -47 12 ZM76 11 q74 108 124 269 q5 13 16 18 q11 5 23 2 q29 -7 25 -43 q-44 -148 -122 -276 q-25 -34 -53 -19 q-29 16 -13 49 ZM626 707 l274 1 q15 -1 22 -10 q6 -9 4 -21 q-3 -20 -26 -22 l-597 0 q-28 3 -28 25 q0 24 28 28 l254 -1 l0 59 q1 18 13 27 q11 8 26 6 q27 -2 30 -33 l0 -59 ZM621 109 l1 -42 q1 -32 1 -63 q0 -50 -28 -71 q-37 -28 -133 -14 q-13 2 -18 11 q-6 9 -5 19 q3 26 29 26 q56 -10 73 -3 q20 8 20 46 l0 91 l-266 -1 q-13 0 -19 8 q-6 8 -4 18 q2 18 23 20 l595 0 q23 -3 23 -23 q0 -20 -23 -23 l-269 1 Z" /><glyph glyph-name="" unicode="&#x51e0;" d="M567 721 q52 -2 79 -26 q28 -24 28 -68 q-3 -285 -3 -566 q1 -25 9 -37 q11 -15 39 -18 q39 -5 77 1 q32 6 46 34 q14 28 13 91 q0 20 12 28 q11 8 26 6 q30 -5 34 -34 q1 -87 -24 -131 q-27 -47 -90 -56 q-55 -7 -107 -2 q-55 6 -79 31 q-24 25 -24 77 q3 316 0 564 q-1 44 -54 48 q-43 2 -123 0 q-51 -3 -51 -49 q-1 -102 -2 -203 q-3 -167 -46 -270 q-57 -136 -199 -217 q-39 -18 -56 11 q-15 26 15 47 q135 69 184 202 q32 86 33 239 q-1 101 -2 202 q0 91 106 96 q78 5 159 0 Z" /><glyph glyph-name="" unicode="&#x51e1;" d="M560 345 q12 -18 7 -35 q-5 -16 -19 -24 q-23 -14 -42 12 q-48 67 -105 105 q-22 19 -6 40 q15 20 44 9 q67 -37 121 -107 ZM577 721 q50 -2 77 -26 q28 -25 28 -68 q-1 -283 -3 -565 q0 -24 8 -37 q10 -15 35 -18 q40 -3 75 2 q32 5 45 34 q14 30 13 94 q0 20 12 28 q11 8 26 5 q28 -4 32 -33 q2 -87 -25 -133 q-28 -49 -91 -57 q-51 -7 -98 -2 q-54 6 -77 31 q-23 25 -23 76 q3 316 -1 565 q-1 43 -51 46 q-50 3 -143 0 q-50 -1 -50 -46 q-1 -102 -3 -204 q-5 -179 -48 -280 q-56 -133 -198 -211 q-39 -16 -55 16 q-11 24 14 42 q138 72 186 202 q30 80 34 239 q1 72 1 207 q-1 88 107 93 q86 6 173 0 Z" /><glyph glyph-name="" unicode="&#x51e4;" d="M971 88 q-7 -62 -31 -107 q-29 -53 -70 -55 q-44 0 -73 49 q-33 60 -48 157 q-9 59 -13 165 q-6 151 -1 321 q1 31 -18 47 q-18 15 -50 16 q-177 6 -391 0 q-66 -3 -65 -67 q5 -214 -1 -323 q-7 -117 -23 -188 q-22 -99 -70 -173 q-10 -17 -27 -20 q-15 -3 -28 5 q-29 18 -9 50 q81 125 90 327 q7 161 2 336 q-2 52 33 83 q33 28 86 30 q209 4 421 0 q53 -2 84 -27 q33 -28 32 -80 q-5 -148 -1 -335 q5 -181 48 -276 q8 -16 17 -18 q9 -2 18 11 q17 27 23 87 q2 14 14 22 q11 7 24 5 q30 -5 27 -42 ZM517 205 q89 -120 196 -164 q17 -7 22 -23 q4 -14 -4 -28 q-17 -28 -55 -10 q-100 43 -200 170 q-94 -118 -209 -178 q-34 -21 -55 9 q-8 12 -3 25 q5 14 24 24 q113 58 204 176 q-72 110 -105 228 q-4 30 22 36 q13 3 25 -3 q12 -6 16 -20 q27 -96 82 -184 q64 99 90 205 q8 41 -27 42 q-109 3 -219 -4 q-12 -1 -20 8 q-7 8 -7 21 q-1 12 5 20 q7 10 21 11 q75 3 227 1 q112 -3 82 -116 q-33 -126 -112 -246 Z" /><glyph glyph-name="" unicode="&#x51ef;" d="M463 278 q-3 -87 -101 -90 q-70 0 -141 0 q-52 6 -54 -44 q-4 -70 -2 -131 q0 -10 6 -13 q5 -3 13 0 q123 30 222 73 q32 9 40 -13 q4 -11 0 -22 q-5 -12 -18 -18 q-125 -53 -247 -82 q-35 -9 -57 5 q-22 15 -23 50 q-1 60 1 171 q1 41 30 63 q26 20 68 19 q54 -1 147 -1 q24 0 35 8 q13 9 14 30 q3 32 0 61 q-3 39 -49 37 q-77 2 -234 0 q-26 -1 -26 26 q-1 13 5 21 q7 10 21 11 q132 2 249 0 q97 -3 100 -84 q1 -27 1 -77 ZM956 109 q4 -65 -12 -110 q-22 -62 -82 -70 q-37 -5 -58 1 q-70 16 -68 97 q-3 269 2 600 q2 41 -38 44 q-29 2 -50 -1 q-21 -2 -28 -12 q-7 -10 -6 -33 q3 -156 2 -217 q-1 -150 -20 -247 q-25 -128 -91 -234 q-21 -27 -49 -14 q-25 15 -12 46 q62 103 86 219 q18 88 22 231 q2 90 -4 233 q-3 83 85 88 q40 3 83 0 q84 -6 84 -89 q-3 -193 -3 -607 q0 -20 5 -29 q5 -10 20 -13 q9 -2 31 0 q32 8 36 48 q4 30 2 70 q-1 15 9 23 q9 8 21 8 q14 0 23 -8 q10 -9 10 -24 ZM310 573 q37 0 62 1 q22 1 31 9 q8 8 9 29 q1 44 1 88 q0 13 10 21 q9 7 22 7 q12 0 21 -7 q11 -8 12 -21 q2 -42 -1 -102 q-2 -43 -24 -61 q-21 -17 -64 -19 q-110 -4 -214 0 q-44 2 -64 19 q-21 18 -22 61 q-2 66 0 104 q1 11 11 18 q11 7 23 7 q13 0 21 -6 q9 -7 9 -19 q-2 -49 0 -89 q1 -20 10 -29 q9 -9 29 -10 q20 -1 51 -1 l0 176 q0 14 10 22 q10 8 23 8 q13 0 23 -7 q11 -8 11 -23 l0 -176 Z" /><glyph glyph-name="" unicode="&#x51f0;" d="M976 106 q-21 -128 -73 -152 q-58 -26 -100 41 q-51 98 -57 265 q-6 205 0 354 q0 61 -68 64 q-175 7 -404 -1 q-65 -3 -65 -67 q1 -28 1 -56 q5 -201 -6 -312 q-19 -196 -86 -292 q-25 -31 -52 -17 q-29 15 -10 51 q44 62 64 147 q20 85 25 177 q5 186 -2 316 q-2 47 28 77 q32 32 90 34 q215 5 434 0 q55 -2 86 -29 q32 -28 31 -77 q0 -24 -2 -92 q-5 -177 -1 -268 q8 -156 43 -228 q16 -27 31 -12 q23 27 28 91 q1 17 13 25 q11 8 24 5 q32 -7 28 -44 ZM608 437 l-267 0 q1 -21 1 -41 q1 -31 41 -33 q93 -3 182 0 q39 2 42 36 q1 19 1 38 ZM608 477 q0 17 -1 35 q-3 32 -43 34 q-88 0 -176 0 q-43 -2 -46 -36 q-1 -9 -1 -33 l267 0 ZM503 33 l223 1 q13 0 19 -9 q7 -8 6 -18 q-1 -21 -25 -24 l-495 0 q-13 0 -20 8 q-6 8 -6 17 q1 23 26 26 l210 -1 l0 73 l-139 -1 q-26 3 -24 23 q1 19 24 21 l139 -1 l0 68 l-158 0 q-13 0 -20 7 q-6 8 -6 17 q1 21 26 24 l190 -1 l200 1 q15 -1 21 -9 q6 -9 4 -19 q-2 -18 -25 -20 l-170 0 l0 -68 l137 1 q25 -3 24 -22 q0 -19 -24 -22 l-137 1 l0 -73 ZM496 590 q40 -1 80 -1 q83 -6 90 -62 q4 -67 0 -134 q-5 -71 -93 -74 q-127 -2 -201 0 q-84 3 -88 72 q-6 71 0 130 q5 62 88 68 q19 1 59 1 q8 26 11 46 q3 14 15 20 q12 5 25 2 q28 -5 24 -36 q-2 -12 -10 -32 Z" /><glyph glyph-name="" unicode="&#x51fa;" d="M530 422 q81 0 151 3 q72 3 76 69 q2 58 -2 161 q0 18 13 25 q13 8 29 5 q25 -3 29 -31 q3 -81 0 -169 q-2 -58 -36 -89 q-32 -29 -88 -31 q-84 -3 -173 -3 l0 -354 q116 0 191 3 q71 3 74 68 q4 54 -1 179 q0 17 13 25 q12 7 28 5 q26 -3 30 -30 q3 -57 1 -189 q-2 -57 -37 -89 q-32 -30 -87 -32 q-290 -8 -492 0 q-113 5 -116 119 q-2 96 0 192 q1 18 13 26 q12 8 26 7 q28 -2 31 -31 q-2 -120 -1 -178 q1 -36 15 -52 q16 -19 56 -20 q75 -3 186 -3 l0 354 q-92 0 -172 3 q-113 5 -116 117 q-2 88 0 175 q1 18 13 26 q12 8 26 6 q29 -2 31 -31 q-1 -50 -1 -161 q1 -36 16 -53 q16 -18 55 -19 q69 -3 147 -3 l0 322 q1 17 14 25 q13 7 28 5 q27 -3 30 -30 l0 -322 Z" /><glyph glyph-name="" unicode="&#x51fd;" d="M599 397 q47 27 97 87 q25 24 46 5 q21 -20 1 -48 q-65 -63 -111 -89 q-25 -11 -39 9 q-13 20 6 36 ZM600 229 q-22 16 -10 34 q12 19 37 14 q71 -33 121 -81 q22 -28 4 -49 q-19 -24 -48 0 q-38 44 -104 82 ZM379 354 q-45 41 -104 67 q-21 12 -11 30 q11 20 34 19 q67 -23 121 -66 q20 -25 3 -47 q-17 -22 -43 -3 ZM291 141 q-34 -13 -47 12 q-12 25 16 42 q76 33 155 101 q23 16 39 -3 q15 -18 -3 -41 q-76 -71 -160 -111 ZM133 513 q1 17 11 24 q11 8 24 7 q28 -2 31 -31 q-9 -240 -5 -421 q2 -39 18 -57 q18 -19 59 -21 q228 -8 449 0 q79 5 82 75 q7 181 -4 421 q0 18 12 25 q12 8 27 6 q26 -3 30 -31 q9 -253 4 -433 q-1 -59 -38 -92 q-34 -30 -94 -32 q-260 -9 -491 0 q-118 5 -121 122 q-2 232 6 438 ZM525 493 q52 -111 22 -316 q-21 -151 -161 -119 q-17 4 -23 15 q-6 11 -3 23 q6 27 39 21 q37 -13 58 2 q25 17 34 71 q37 262 -69 346 q-15 14 0 31 q14 17 36 7 q22 -14 37 -33 q87 51 137 94 q13 13 9 20 q-4 7 -23 8 q-212 0 -341 -3 q-31 2 -31 28 q0 26 31 31 q140 3 381 0 q59 -4 68 -37 q8 -33 -17 -60 q-23 -22 -87 -66 q-53 -36 -97 -63 Z" /><glyph glyph-name="" unicode="&#x5200;" d="M514 631 q-14 -256 -95 -421 q-96 -194 -290 -277 q-20 -9 -35 -1 q-15 7 -20 22 q-10 27 21 45 q186 77 272 262 q67 145 76 370 q-216 -2 -267 -3 q-15 1 -23 10 q-8 10 -7 23 q1 26 31 30 q412 5 549 1 q64 -1 99 -33 q32 -30 32 -83 q5 -311 -37 -448 q-37 -117 -125 -157 q-90 -41 -221 -10 q-16 5 -22 18 q-6 13 -2 28 q8 30 44 25 q200 -55 256 113 q43 131 36 423 q-1 30 -19 46 q-17 15 -48 16 q-45 1 -205 1 Z" /><glyph glyph-name="" unicode="&#x5206;" d="M535 682 l-155 0 q-15 1 -22 12 q-7 12 -5 26 q2 23 27 26 l166 0 q76 0 103 -51 q52 -101 114 -174 q69 -82 158 -140 q16 -11 20 -28 q4 -15 -4 -27 q-9 -13 -25 -17 q-18 -4 -34 7 q-84 56 -157 144 q-69 83 -119 184 q-19 38 -67 38 ZM85 358 q141 97 211 246 q21 31 50 19 q29 -12 16 -49 q-90 -177 -231 -272 q-38 -20 -56 4 q-17 25 10 52 ZM494 369 q-21 -178 -111 -293 q-87 -111 -234 -157 q-21 -6 -34 4 q-14 9 -16 24 q-4 24 25 36 q268 82 301 386 q-58 -1 -116 -1 q-29 4 -29 29 q0 25 30 29 q163 3 326 0 q49 -1 75 -26 q27 -26 27 -74 q0 -162 -19 -242 q-24 -103 -103 -139 q-74 -33 -188 -3 q-14 4 -19 16 q-6 12 -2 25 q6 30 41 25 q86 -22 132 -5 q52 19 70 93 q22 89 20 223 q-1 48 -51 50 l-125 0 Z" /><glyph glyph-name="" unicode="&#x5207;" d="M663 626 q-4 -255 -54 -395 q-68 -191 -243 -288 q-36 -14 -52 13 q-14 26 15 45 q162 85 223 267 q43 129 44 358 q-67 0 -153 -2 q-15 0 -22 10 q-7 10 -6 23 q2 24 28 27 q172 3 343 0 q46 0 74 -28 q28 -27 29 -73 q14 -318 -22 -454 q-29 -117 -102 -158 q-70 -39 -177 -7 q-15 5 -21 17 q-6 12 -3 24 q6 31 44 23 q73 -25 117 -3 q50 25 74 114 q40 143 22 436 q-6 50 -50 51 l-108 0 ZM257 512 l160 33 q15 3 24 -6 q9 -9 10 -22 q2 -22 -22 -30 l-173 -34 q0 -163 1 -241 q0 -9 5 -13 q4 -3 12 0 q53 21 157 81 q24 9 35 -13 q11 -22 -10 -38 q-97 -59 -189 -102 q-31 -15 -54 0 q-22 14 -22 47 q0 176 1 266 l-116 -24 q-16 -3 -25 7 q-9 9 -9 22 q-1 22 22 29 l128 25 q0 163 1 242 q1 16 12 23 q12 7 25 5 q25 -2 29 -29 q0 -74 -2 -228 Z" /><glyph glyph-name="" unicode="&#x5212;" d="M480 645 q19 -27 2 -48 q-19 -25 -45 -2 q-40 46 -96 76 q-23 12 -13 35 q10 25 39 16 q63 -24 113 -77 ZM690 684 l0 -535 q0 -29 -30 -29 q-33 0 -33 29 l0 535 q0 15 10 23 q10 8 23 8 q26 0 30 -31 ZM883 747 l0 -708 q0 -112 -106 -123 q-40 -5 -107 7 q-15 3 -24 16 q-8 12 -6 25 q2 13 12 21 q12 9 27 6 q57 -14 86 -10 q52 5 52 65 l0 701 q0 14 11 23 q10 9 23 9 q27 0 32 -32 ZM362 110 q24 -55 58 -93 q24 -26 48 -22 q23 4 36 31 q13 26 20 67 q3 14 15 21 q11 6 26 3 q33 -7 25 -43 q-11 -59 -36 -96 q-32 -56 -87 -56 q-59 0 -103 54 q-27 34 -50 82 q-101 -101 -205 -139 q-31 -11 -46 14 q-16 30 21 49 q113 45 203 140 q-39 105 -60 248 q-6 36 -9 72 l-126 -17 q-30 -1 -33 27 q-2 12 5 21 q8 10 22 12 l126 17 q-8 111 -8 244 q4 29 31 32 q16 1 26 -8 q10 -9 11 -28 q-2 -128 5 -232 l245 33 q29 1 33 -24 q2 -14 -4 -23 q-7 -10 -22 -12 l-248 -33 q2 -23 8 -69 q15 -111 46 -203 q74 98 108 203 q15 32 47 16 q25 -13 14 -43 q-39 -121 -142 -245 Z" /><glyph glyph-name="" unicode="&#x5217;" d="M664 671 l0 -521 q-1 -16 -11 -23 q-11 -8 -24 -7 q-27 2 -30 30 l0 522 q1 18 12 25 q12 8 26 5 q24 -3 27 -31 ZM805 52 l1 670 q4 33 33 33 q29 0 33 -33 l0 -565 l2 -114 q2 -65 -44 -97 q-57 -40 -178 -15 q-18 4 -25 16 q-7 11 -5 25 q5 29 38 26 q70 -15 100 -9 q45 9 45 63 ZM389 296 q27 72 36 140 q3 21 -8 31 q-10 9 -32 8 q-37 0 -109 -2 q-59 -148 -135 -245 q-13 -16 -27 -18 q-15 -3 -26 4 q-26 17 -6 47 q132 155 183 394 l-149 0 q-17 1 -25 11 q-7 10 -5 22 q2 22 30 25 l405 0 q30 -4 30 -29 q0 -25 -30 -29 l-190 0 q-13 -60 -35 -125 q53 0 105 1 q48 2 73 -24 q26 -26 18 -72 q-27 -154 -100 -282 q-87 -153 -221 -233 q-20 -12 -36 -7 q-16 5 -23 18 q-11 24 20 45 q149 82 233 261 q-45 24 -114 48 q-27 11 -19 36 q10 28 46 21 q51 -15 111 -46 Z" /><glyph glyph-name="" unicode="&#x5218;" d="M663 684 l0 -539 q0 -14 -9 -22 q-8 -7 -22 -7 q-34 0 -34 29 l0 539 q0 14 11 23 q10 8 24 8 q26 0 30 -31 ZM882 747 l0 -712 q0 -114 -111 -122 q-70 -5 -129 10 q-15 2 -22 15 q-6 12 -3 26 q8 35 37 27 q45 -14 98 -12 q34 1 48 14 q15 14 15 50 l0 704 q0 14 11 23 q11 9 23 9 q12 0 22 -8 q11 -9 11 -24 ZM380 222 q71 -84 124 -168 q20 -28 -3 -49 q-11 -10 -23 -10 q-15 0 -24 14 q-48 79 -109 154 q-92 -143 -232 -239 q-27 -20 -47 0 q-10 10 -11 22 q-1 14 11 22 q142 93 236 247 q-80 93 -174 176 q-18 21 5 42 q21 15 43 0 q83 -74 159 -159 q52 103 74 214 q2 10 15 14 q12 4 23 1 q28 -5 24 -39 q-30 -130 -91 -242 ZM333 601 l172 0 q12 0 20 -9 q8 -9 8 -22 q-2 -29 -28 -29 l-406 0 q-13 0 -21 9 q-7 8 -7 21 q0 13 7 21 q8 9 21 9 l167 0 l0 149 q0 13 10 21 q10 8 23 8 q14 0 23 -7 q11 -8 11 -22 l0 -149 Z" /><glyph glyph-name="" unicode="&#x5219;" d="M345 591 l0 -257 q0 -115 -61 -229 q-61 -114 -161 -184 q-36 -22 -58 4 q-9 12 -7 25 q2 15 20 26 q196 131 203 364 l0 251 q0 14 11 23 q10 8 21 9 q12 0 21 -8 q11 -9 11 -24 ZM538 16 q20 -29 -3 -49 q-26 -23 -52 4 q-62 80 -148 144 q-20 21 -2 41 q17 17 42 4 q39 -24 91 -71 q45 -40 72 -73 ZM511 238 q0 -14 -10 -22 q-8 -7 -20 -7 q-13 0 -21 7 q-10 8 -9 23 q4 198 0 397 q0 24 -11 34 q-10 9 -31 11 q-63 3 -193 0 q-19 -1 -28 -10 q-11 -11 -11 -35 q-3 -197 0 -397 q0 -13 -11 -22 q-9 -7 -20 -7 q-30 2 -30 29 q-2 271 0 407 q1 48 26 73 q23 22 64 23 q109 4 218 0 q85 -3 87 -85 q4 -167 0 -419 ZM697 684 l0 -539 q0 -13 -9 -21 q-9 -8 -22 -8 q-15 0 -24 7 q-10 8 -10 22 l0 539 q0 14 11 23 q10 8 23 8 q12 0 21 -8 q10 -9 10 -23 ZM888 747 l0 -708 q0 -111 -106 -122 q-42 -7 -107 7 q-16 2 -24 15 q-8 12 -6 25 q2 13 12 21 q11 9 26 6 q66 -12 86 -9 q52 3 52 65 l0 700 q5 32 33 33 q13 0 23 -8 q11 -9 11 -25 Z" /><glyph glyph-name="" unicode="&#x521a;" d="M574 45 q-1 -63 -25 -93 q-26 -32 -87 -35 q-39 -2 -84 7 q-33 7 -28 42 q5 26 36 23 q46 -6 61 -6 q34 -1 47 13 q13 14 14 50 q3 330 -2 593 q0 46 -51 48 q-143 3 -239 0 q-52 -3 -52 -49 q-3 -408 -1 -700 q1 -14 -9 -22 q-9 -8 -22 -8 q-13 0 -22 7 q-10 8 -10 22 q-4 358 0 715 q2 91 97 94 q138 4 281 0 q45 -1 69 -26 q23 -25 24 -70 q5 -301 3 -605 ZM725 683 l0 -539 q0 -13 -9 -21 q-8 -7 -22 -7 q-15 0 -23 7 q-9 8 -9 21 l0 541 q0 14 10 22 q10 8 22 8 q28 0 31 -32 ZM888 744 l0 -693 q0 -111 -77 -126 q-40 -17 -119 -2 q-30 9 -31 36 q0 13 10 23 q11 11 27 8 q45 -13 75 -10 q50 0 50 66 l0 698 q4 33 31 34 q14 0 23 -8 q11 -10 11 -26 ZM381 392 q54 -64 87 -113 q19 -28 -3 -49 q-11 -9 -24 -8 q-15 1 -23 15 q-24 41 -60 88 q-52 -136 -110 -204 q-22 -19 -43 -5 q-22 13 -6 39 q69 87 117 223 q-62 73 -104 105 q-21 18 -3 39 q18 23 40 5 q38 -30 88 -84 q26 90 35 172 q1 13 13 19 q11 5 24 2 q25 -6 22 -31 q-13 -100 -50 -213 Z" /><glyph glyph-name="" unicode="&#x521b;" d="M574 115 q-2 -159 -141 -176 q-92 -9 -175 0 q-107 9 -110 111 q-1 155 0 311 q1 41 28 68 q26 26 66 27 q81 5 166 1 q98 -5 98 -95 q-2 -66 -10 -116 q-19 -97 -119 -97 q-43 2 -67 13 q-28 11 -23 40 q6 27 37 21 q23 -10 55 -10 q25 1 38 13 q12 12 16 37 q8 42 8 94 q-3 37 -46 39 q-79 5 -134 0 q-47 -2 -49 -51 q-2 -157 1 -282 q0 -53 58 -61 q82 -11 160 0 q80 10 80 112 q0 17 10 25 q9 7 23 6 q30 -2 30 -30 ZM595 429 q-25 -26 -55 1 q-117 123 -192 259 q-12 21 -23 20 q-12 -1 -23 -22 q-73 -146 -192 -273 q-30 -24 -52 -1 q-11 11 -12 23 q-1 13 12 24 q132 124 201 272 q22 45 62 45 q39 -1 64 -42 q93 -155 204 -250 q28 -30 6 -56 ZM702 683 l0 -539 q0 -13 -9 -21 q-8 -7 -22 -7 q-15 0 -23 7 q-9 8 -9 21 l0 541 q0 13 11 22 q10 8 22 8 q27 0 30 -32 ZM888 744 l0 -693 q0 -111 -77 -126 q-40 -17 -119 -2 q-30 9 -31 36 q0 13 10 23 q11 11 27 8 q45 -13 75 -10 q49 2 49 66 l0 698 q4 33 31 34 q14 0 24 -8 q11 -9 11 -26 Z" /><glyph glyph-name="" unicode="&#x5220;" d="M888 744 l0 -699 q0 -57 -15 -83 q-16 -29 -57 -37 q-39 -17 -119 -2 q-14 3 -22 13 q-7 11 -7 23 q0 13 9 23 q10 11 26 8 q44 -13 76 -10 q48 2 48 66 l0 698 q0 15 10 24 q9 8 20 8 q28 0 31 -32 ZM741 683 l0 -539 q0 -14 -8 -21 q-8 -7 -21 -7 q-26 0 -26 28 l0 539 q0 15 9 23 q8 7 19 7 q24 -1 27 -30 ZM606 357 q2 -202 -1 -336 q0 -82 -58 -94 q-27 -7 -65 1 q-21 8 -20 35 q1 13 7 20 q7 9 18 6 q33 -7 45 0 q14 9 15 42 q2 106 2 327 l-91 0 q0 -30 -2 -80 q-5 -198 -56 -344 q-5 -16 -19 -22 q-13 -6 -27 -1 q-27 10 -18 39 q63 148 65 323 q2 52 2 85 l-76 0 q2 -159 0 -315 q-3 -83 -67 -95 q-26 -6 -62 4 q-11 2 -16 13 q-5 10 -3 22 q4 31 24 26 q34 -8 48 -1 q17 9 18 41 q3 167 2 305 l-90 0 q-1 -41 -2 -82 q-3 -205 -61 -343 q-5 -16 -20 -21 q-13 -5 -27 0 q-26 11 -16 38 q36 71 52 156 q14 71 17 172 q1 39 2 79 l-37 -1 q-12 0 -20 9 q-7 8 -7 19 q0 12 6 20 q7 9 21 9 l37 -1 q1 133 -2 249 q-2 36 14 57 q17 23 54 24 l66 0 q67 -1 67 -82 q2 -158 2 -249 l77 0 q0 149 -3 250 q-1 36 15 57 q17 23 53 24 l67 0 q68 -1 68 -82 q2 -154 2 -248 l35 1 q12 0 19 -8 q6 -7 6 -18 q0 -31 -25 -31 l-35 1 ZM548 411 q0 82 -2 236 q-1 18 -6 27 q-6 10 -21 11 l-35 0 q-26 -1 -26 -38 q2 -147 1 -236 l89 0 ZM271 411 q-2 158 -3 236 q-1 18 -6 27 q-6 10 -22 11 l-32 0 q-29 -1 -27 -38 q2 -106 0 -236 l90 0 Z" /><glyph glyph-name="" unicode="&#x5229;" d="M655 671 l0 -521 q-1 -16 -12 -24 q-11 -7 -25 -6 q-26 3 -29 30 l0 522 q1 16 11 24 q10 8 23 7 q28 -1 32 -32 ZM806 55 l1 667 q1 17 11 25 q11 8 24 8 q28 -1 32 -33 l0 -560 l2 -114 q1 -68 -43 -101 q-56 -42 -180 -16 q-18 4 -25 16 q-7 11 -5 25 q5 29 38 26 q76 -17 108 -7 q37 12 37 64 ZM351 330 q-20 12 -5 32 q15 19 36 11 q66 -33 114 -80 q21 -28 1 -49 q-21 -21 -45 2 q-53 55 -101 84 ZM341 657 q-1 -26 -3 -145 l138 0 q16 -1 23 -11 q8 -9 6 -22 q-2 -24 -30 -27 l-137 2 q-1 -34 -1 -97 q0 -139 4 -419 q0 -16 -13 -23 q-12 -7 -27 -5 q-26 3 -28 29 l3 385 q-75 -117 -153 -197 q-15 -14 -30 -13 q-16 2 -26 13 q-19 20 5 45 q48 42 105 112 q64 79 99 147 l0 23 l-162 -2 q-17 0 -25 11 q-7 10 -5 23 q2 23 30 26 l161 0 l-2 132 q-75 -13 -125 -15 q-40 2 -37 33 q2 23 29 27 q156 9 288 56 q31 6 41 -23 q7 -23 -25 -37 q-39 -14 -103 -28 Z" /><glyph glyph-name="" unicode="&#x522b;" d="M457 646 q-1 40 -46 42 q-62 3 -182 0 q-47 -3 -48 -43 l0 -110 q1 -39 48 -42 q99 -4 179 0 q48 3 49 43 q2 77 0 110 ZM523 522 q-4 -84 -98 -87 q-90 -6 -211 0 q-91 2 -96 77 q-5 73 0 151 q2 39 25 60 q21 19 61 21 q91 4 226 0 q37 -1 62 -20 q28 -21 30 -56 q3 -65 1 -146 ZM702 683 l0 -539 q0 -13 -9 -21 q-8 -7 -22 -7 q-14 0 -22 7 q-9 8 -9 21 l0 539 q0 15 10 24 q9 8 23 8 q26 0 29 -32 ZM888 744 l0 -693 q0 -111 -77 -126 q-40 -17 -119 -2 q-30 9 -31 36 q0 13 10 23 q11 11 27 8 q45 -13 75 -10 q50 2 50 66 l0 698 q4 33 31 34 q14 0 23 -8 q11 -10 11 -26 ZM324 332 q88 -2 134 -3 q97 -2 96 -96 q-2 -99 -28 -179 q-29 -88 -104 -111 q-62 -20 -142 8 q-15 4 -20 18 q-5 12 1 27 q11 28 42 18 q56 -20 93 -12 q47 12 66 75 q25 78 27 149 q0 42 -48 44 q-84 2 -121 2 q-9 -66 -33 -123 q-50 -120 -182 -215 q-32 -19 -49 5 q-9 11 -8 24 q1 15 14 24 q119 78 162 180 q22 50 29 105 q-64 0 -133 -3 q-12 0 -21 9 q-8 8 -8 20 q0 12 7 21 q8 10 23 10 q72 3 137 3 q1 24 0 49 q2 33 30 35 q14 1 24 -7 q12 -9 12 -26 q2 -27 0 -51 Z" /><glyph glyph-name="" unicode="&#x5230;" d="M810 55 l1 669 q1 17 11 25 q10 8 23 8 q27 -1 31 -33 l0 -557 l2 -115 q4 -163 -221 -121 q-18 4 -24 16 q-7 11 -5 25 q5 29 38 27 q75 -17 107 -7 q37 12 37 63 ZM689 669 l0 -518 q-1 -16 -12 -23 q-11 -8 -25 -6 q-25 2 -28 29 l0 518 q1 16 11 24 q10 8 23 7 q27 -1 31 -31 ZM479 443 q-139 -32 -342 -54 q-25 -3 -34 17 q-9 19 10 36 q24 22 58 65 q35 50 83 145 l-138 -1 q-15 0 -22 9 q-8 9 -7 21 q1 24 29 27 l412 0 q15 0 22 -9 q7 -8 7 -20 q0 -24 -29 -28 l-208 1 q-50 -108 -110 -189 q-5 -6 -3 -8 q1 -2 10 -1 q141 14 232 32 q-26 33 -64 66 q-18 20 0 35 q17 15 40 1 q36 -29 70 -69 q39 -46 60 -88 q12 -33 -16 -46 q-24 -10 -39 17 q-10 23 -21 41 ZM352 255 l142 1 q16 -1 24 -11 q7 -10 5 -22 q-2 -22 -29 -25 l-142 1 l-1 -140 q80 20 167 48 q28 6 37 -17 q8 -22 -20 -37 q-165 -60 -415 -107 q-21 -3 -32 7 q-12 10 -12 24 q-1 24 32 31 q96 15 181 36 l-1 155 l-159 -1 q-29 4 -29 29 q0 25 29 29 l159 -1 l0 87 q0 16 11 24 q11 7 24 6 q27 -2 30 -30 l-1 -87 Z" /><glyph glyph-name="" unicode="&#x5236;" d="M687 671 l0 -520 q-1 -16 -12 -23 q-11 -7 -25 -6 q-25 2 -28 29 l0 520 q1 17 12 24 q11 8 25 6 q25 -2 28 -30 ZM810 55 l1 667 q1 17 11 25 q11 7 25 6 q27 -1 30 -31 l0 -562 l2 -113 q2 -68 -45 -99 q-58 -38 -178 -14 q-18 4 -25 16 q-7 11 -5 24 q5 30 38 27 q75 -17 108 -7 q37 11 38 61 ZM345 268 l0 -325 q-1 -17 -11 -25 q-11 -7 -24 -6 q-26 1 -29 31 l0 325 q-29 -1 -59 -1 q-47 -1 -49 -47 q1 -97 1 -193 q1 -14 -10 -22 q-9 -7 -21 -7 q-26 1 -30 30 q-2 102 0 204 q1 41 23 62 q24 23 76 24 q21 1 69 1 l0 93 l-180 -1 q-15 0 -22 9 q-7 8 -6 20 q1 23 28 26 l180 -1 l0 105 l-110 -1 q-16 -30 -35 -59 q-22 -22 -44 -8 q-23 14 -9 39 q56 75 80 163 q3 13 14 17 q10 4 22 1 q26 -6 23 -32 q-9 -32 -24 -66 l83 -1 l0 119 q1 16 11 23 q11 7 24 6 q26 -2 29 -29 l0 -119 l154 1 q29 -3 29 -27 q0 -24 -29 -28 l-154 1 l0 -105 l190 1 q15 -1 22 -10 q7 -9 6 -21 q-2 -22 -28 -24 l-190 1 l0 -93 q57 0 83 -1 q93 -1 93 -88 q0 -57 1 -78 l0 -43 q2 -110 -129 -86 q-12 2 -17 12 q-4 9 -3 21 q3 25 25 24 q34 -6 48 0 q16 8 16 37 q0 70 -1 103 q-1 23 -12 34 q-12 12 -38 13 q-33 0 -66 1 Z" /><glyph glyph-name="" unicode="&#x5237;" d="M814 55 l-1 671 q1 17 12 25 q11 7 24 6 q28 -1 31 -31 l0 -560 l2 -123 q3 -66 -40 -96 q-51 -36 -159 -14 q-16 4 -23 15 q-7 12 -5 25 q3 29 34 26 q66 -14 90 -7 q35 10 35 63 ZM708 667 l0 -516 q-1 -16 -13 -22 q-12 -7 -26 -4 q-22 3 -24 26 l0 516 q1 16 12 24 q11 7 24 5 q24 -2 27 -29 ZM423 384 q26 -1 52 -1 q86 -3 87 -83 q1 -63 1 -126 q1 -37 1 -74 q2 -49 -27 -70 q-28 -20 -84 -9 q-12 3 -18 13 q-5 11 -4 22 q3 25 24 24 q29 -5 38 -2 q13 5 13 28 q0 119 -2 184 q2 41 -42 44 q-21 0 -43 1 l1 -394 q-1 -15 -11 -22 q-10 -7 -23 -5 q-22 2 -25 27 l0 394 q-14 -1 -38 -1 q-42 -1 -42 -44 q-4 -136 -1 -270 q0 -15 -9 -22 q-9 -7 -21 -7 q-24 1 -28 29 q-1 53 2 280 q0 41 21 61 q22 21 70 22 q22 0 43 1 l0 78 q1 16 11 24 q11 7 24 6 q27 -2 30 -30 l0 -78 ZM199 551 q103 -2 251 2 q42 1 45 30 q2 32 0 65 q-3 26 -47 28 q-131 2 -197 0 q-25 -1 -39 -14 q-14 -13 -13 -35 l0 -76 ZM199 495 q-2 -142 -16 -232 q-20 -127 -68 -211 q-22 -31 -48 -18 q-26 13 -12 47 q70 131 78 276 q8 147 2 285 q-1 37 22 61 q26 28 76 29 q152 2 224 0 q93 -2 99 -61 q4 -52 2 -104 q-3 -32 -22 -48 q-24 -20 -78 -22 q-47 -2 -259 -2 Z" /><glyph glyph-name="" unicode="&#x523a;" d="M485 86 q-56 51 -112 81 q-20 11 -6 32 q14 21 35 14 q72 -33 124 -77 q22 -26 4 -48 q-18 -22 -45 -2 ZM809 52 l1 672 q1 17 11 25 q10 8 23 8 q27 -1 31 -33 l0 -567 l2 -111 q2 -69 -46 -101 q-57 -38 -176 -14 q-18 4 -24 16 q-7 11 -5 25 q5 29 38 27 q68 -16 100 -9 q45 9 45 62 ZM687 669 l0 -518 q-1 -16 -12 -24 q-12 -7 -26 -5 q-23 3 -26 29 l0 518 q1 16 11 24 q10 8 22 7 q27 -1 31 -31 ZM354 659 l172 1 q15 0 22 -9 q7 -9 6 -21 q0 -24 -28 -27 l-173 1 q0 -58 -1 -88 q62 0 84 -1 q82 -1 85 -78 q2 -54 3 -108 q2 -46 -28 -66 q-30 -20 -83 -12 q-13 3 -19 12 q-6 10 -5 21 q2 26 26 25 q29 -3 38 1 q11 5 11 24 q0 70 -2 93 q-2 38 -44 38 q-17 1 -66 1 q-2 -162 -2 -209 l4 -321 q0 -16 -14 -23 q-13 -6 -28 -3 q-23 4 -25 27 l3 265 q-82 -116 -180 -187 q-17 -13 -35 -6 q-17 6 -20 21 q-10 20 14 36 q57 36 115 94 q65 64 107 133 q0 86 -1 173 q-46 0 -63 -1 q-43 0 -45 -39 q-2 -105 -1 -171 q0 -16 -11 -23 q-12 -7 -26 -4 q-21 3 -24 27 q0 131 1 181 q3 78 92 79 q21 1 76 1 l0 88 l-179 -1 q-17 1 -24 11 q-7 11 -4 23 q3 21 28 23 l178 -1 q0 41 -1 82 q1 17 12 25 q11 7 25 6 q27 -1 30 -31 l0 -82 Z" /><glyph glyph-name="" unicode="&#x523b;" d="M816 53 l1 671 q4 33 33 33 q29 0 33 -33 l0 -565 l2 -111 q2 -69 -38 -100 q-51 -40 -167 -16 q-17 4 -24 16 q-7 11 -5 24 q5 29 37 26 q68 -15 94 -7 q34 11 34 62 ZM697 665 l0 -514 q-1 -15 -11 -22 q-10 -8 -23 -7 q-26 2 -29 29 l0 514 q1 16 10 23 q10 8 23 7 q26 -1 30 -30 ZM415 138 q93 -60 149 -128 q10 -15 6 -30 q-4 -15 -17 -23 q-23 -15 -42 10 q-19 31 -61 70 q-37 35 -74 61 q-118 -116 -261 -166 q-19 -6 -32 2 q-13 8 -16 23 q-5 23 24 35 q140 44 254 159 q99 100 154 227 q17 27 42 13 q26 -13 15 -43 q-51 -109 -141 -210 ZM367 641 l185 1 q15 0 22 -9 q8 -10 7 -22 q-1 -25 -29 -28 l-218 0 q0 -6 -3 -12 q-40 -83 -108 -170 q-4 -5 -2 -8 q2 -3 8 -2 q39 4 129 17 q31 55 46 94 q15 27 40 17 q27 -12 19 -40 q-48 -110 -128 -203 q-92 -107 -205 -165 q-34 -12 -47 16 q-11 24 17 40 q130 61 223 189 q-118 -23 -175 -29 q-25 -4 -34 19 q-9 23 10 37 q30 23 48 46 q46 52 95 154 l-152 0 q-17 1 -25 11 q-7 11 -5 23 q2 23 30 25 l187 -1 l-1 110 q1 17 12 25 q11 7 25 6 q27 -1 30 -31 l-1 -110 Z" /><glyph glyph-name="" unicode="&#x524d;" d="M636 448 l0 -339 q-1 -16 -12 -23 q-11 -7 -25 -5 q-25 2 -28 28 l0 339 q1 16 11 24 q10 8 23 7 q27 -1 31 -31 ZM764 47 l1 437 q1 17 11 25 q11 7 25 6 q27 -1 30 -31 l0 -331 l2 -113 q1 -68 -43 -98 q-56 -39 -176 -14 q-19 4 -26 16 q-7 12 -4 25 q6 29 37 25 q71 -17 104 -8 q39 11 39 61 ZM633 628 l247 2 q15 -1 22 -10 q7 -9 7 -21 q-1 -26 -29 -29 l-761 0 q-15 1 -22 10 q-8 9 -7 21 q1 26 29 29 l252 -2 q-4 4 -5 7 q-22 42 -72 89 q-15 19 3 36 q19 16 42 3 q51 -37 84 -97 q12 -22 -8 -38 l150 0 q34 51 65 124 q7 17 20 21 q14 4 27 -1 q31 -13 18 -45 q-21 -40 -62 -99 ZM409 140 l-189 0 q0 -114 2 -206 q-1 -16 -12 -23 q-12 -7 -26 -5 q-24 4 -27 28 l0 127 q0 177 0 354 q1 79 89 84 q67 3 137 0 q85 -4 87 -83 q1 -155 2 -310 q1 -36 1 -87 q1 -52 -31 -79 q-40 -34 -127 -18 q-15 3 -20 13 q-6 10 -4 22 q4 28 32 27 q42 -8 57 -4 q28 7 29 47 l0 113 ZM409 192 l0 99 l-189 0 l0 -99 l189 0 ZM408 343 q0 30 -1 61 q-2 38 -38 41 q-40 3 -106 0 q-20 -1 -31 -13 q-10 -10 -10 -28 q0 -31 -1 -61 l187 0 Z" /><glyph glyph-name="" unicode="&#x5267;" d="M508 38 q3 47 0 95 q-1 40 -43 43 q-73 3 -146 0 q-41 -1 -43 -43 q-4 -56 -1 -95 q2 -42 44 -44 q64 -5 144 0 q24 2 34 11 q9 9 11 33 ZM722 683 l0 -539 q0 -13 -9 -21 q-8 -7 -21 -7 q-31 0 -31 28 l0 541 q0 14 10 22 q10 8 22 8 q27 0 29 -32 ZM887 744 l0 -693 q0 -68 -21 -98 q-25 -36 -88 -38 q-40 -2 -91 9 q-14 2 -22 13 q-7 9 -8 23 q0 14 9 23 q10 10 27 7 q64 -12 80 -10 q50 2 50 66 l0 698 q4 33 30 34 q14 0 23 -8 q11 -10 11 -26 ZM423 229 q19 0 63 -2 q37 -2 60 -22 q23 -20 25 -57 q3 -72 1 -124 q-4 -81 -88 -86 q-80 -5 -185 0 q-82 5 -85 84 q-3 61 0 123 q1 37 24 59 q22 22 59 23 q44 2 63 2 l0 119 l-165 0 q-9 0 -15 3 q-11 -240 -59 -377 q-6 -13 -20 -18 q-12 -4 -24 1 q-30 11 -16 45 q32 90 46 210 q10 88 13 225 q2 78 -2 222 q-1 39 26 65 q25 24 65 25 q144 4 271 0 q74 -2 87 -45 q14 -36 10 -110 q-5 -74 -97 -73 q-28 -1 -57 -2 l0 -117 l156 0 q27 -4 28 -27 q1 -12 -6 -19 q-7 -8 -22 -8 l-156 0 l0 -119 ZM360 402 l0 116 q-99 -2 -176 1 q0 -41 -1 -82 q0 -19 -1 -37 q8 2 13 2 l165 0 ZM183 573 q212 -2 288 1 q40 2 43 31 q3 30 0 60 q-1 28 -45 30 q-145 4 -238 0 q-50 -2 -49 -51 q1 -23 1 -71 Z" /><glyph glyph-name="" unicode="&#x526a;" d="M813 552 q0 -138 2 -206 q0 -52 -33 -79 q-41 -34 -129 -19 q-16 3 -23 14 q-7 10 -5 22 q5 27 35 24 q42 -9 64 -2 q27 9 27 45 q0 161 -2 201 q1 16 11 24 q10 8 22 7 q27 -1 31 -31 ZM627 533 l0 -177 q-1 -15 -11 -22 q-11 -6 -24 -5 q-23 3 -26 27 l0 177 q1 17 12 24 q11 7 24 4 q22 -3 25 -28 ZM639 678 l238 2 q16 -1 23 -10 q7 -10 5 -22 q-3 -21 -28 -23 l-755 0 q-15 0 -21 9 q-7 9 -6 20 q1 23 27 26 l244 -2 q-14 22 -54 62 q-17 16 2 32 q18 15 39 4 q47 -32 78 -87 q3 -6 3 -11 l138 0 q22 35 45 90 q7 16 20 19 q13 4 26 -2 q28 -12 16 -43 q-14 -27 -40 -64 ZM499 141 q-66 -196 -372 -240 q-20 -2 -30 9 q-11 10 -9 25 q2 20 26 25 q261 33 319 181 l-287 0 q-14 0 -20 9 q-6 9 -5 20 q1 21 25 24 l601 0 q42 0 64 -20 q22 -20 20 -55 q-4 -69 -21 -112 q-26 -66 -113 -82 q-76 -14 -184 9 q-14 3 -20 14 q-5 11 -3 22 q5 27 37 24 q177 -40 217 26 q17 27 22 85 q1 36 -33 36 l-234 0 ZM418 351 l-192 0 q1 -30 1 -88 q0 -16 -11 -23 q-10 -7 -23 -5 q-23 3 -26 27 q-2 120 0 235 q2 70 82 74 q71 3 144 0 q80 -4 80 -73 q2 -48 2 -95 q1 -36 1 -72 q0 -45 -25 -65 q-33 -27 -115 -13 q-13 2 -18 10 q-5 9 -3 18 q3 22 28 21 q39 -6 51 -4 q23 4 24 34 l0 19 ZM418 391 q0 33 -1 50 l-191 0 l0 -50 l192 0 ZM416 480 l0 14 q-2 34 -39 36 q-62 2 -111 0 q-37 -3 -39 -37 l0 -13 l189 0 Z" /><glyph glyph-name="" unicode="&#x529b;" d="M519 564 l200 0 q60 0 93 -27 q34 -27 36 -81 q9 -238 -28 -360 q-34 -108 -122 -146 q-86 -37 -217 -4 q-16 5 -22 17 q-6 13 -3 26 q6 31 44 25 q92 -25 152 -6 q68 22 98 106 q40 115 28 332 q-3 55 -69 55 q-69 2 -196 0 q-22 -211 -99 -346 q-91 -161 -270 -236 q-42 -12 -53 22 q-9 27 21 43 q164 68 245 212 q66 118 85 305 q-228 -2 -281 -2 q-17 1 -24 12 q-8 11 -6 24 q2 24 30 27 q48 1 286 1 q5 72 5 174 q1 19 15 27 q13 9 29 6 q26 -4 29 -32 q-2 -117 -6 -174 Z" /><glyph glyph-name="" unicode="&#x529f;" d="M662 555 l125 0 q45 0 73 -27 q27 -27 29 -73 q5 -260 -28 -369 q-28 -100 -102 -135 q-70 -33 -173 -4 q-17 5 -23 18 q-6 14 -3 27 q8 31 46 23 q64 -23 110 -7 q55 19 77 93 q34 106 29 345 q-1 49 -54 49 l-108 0 q0 -12 -1 -23 q-11 -186 -81 -314 q-80 -146 -246 -235 q-39 -15 -53 14 q-14 27 17 47 q156 80 227 211 q59 110 68 277 q1 11 1 23 q-74 -1 -149 -1 q-16 1 -23 11 q-7 11 -5 24 q3 23 29 26 l150 0 q3 99 0 183 q0 17 13 23 q13 7 29 4 q25 -4 28 -29 q1 -75 -2 -181 ZM296 582 l-1 -348 q62 24 108 45 q28 10 39 -13 q12 -23 -18 -41 q-148 -67 -319 -121 q-20 -5 -31 4 q-11 9 -12 23 q-3 25 23 35 q62 15 145 44 l0 372 l-118 -1 q-15 1 -22 11 q-7 10 -5 23 q2 22 27 25 l288 0 q15 -1 22 -10 q7 -9 6 -21 q-1 -25 -28 -28 l-104 1 Z" /><glyph glyph-name="" unicode="&#x52a0;" d="M819 74 q7 223 0 434 q-1 50 -51 53 q-44 4 -89 0 q-50 -3 -51 -52 q-7 -217 0 -435 q1 -27 15 -40 q13 -12 40 -14 q53 -2 79 0 q30 3 42 13 q14 12 15 41 ZM563 54 q-6 235 0 468 q1 42 25 67 q25 26 72 29 q62 4 126 0 q46 -2 72 -28 q24 -25 26 -66 q10 -230 0 -469 q-1 -42 -30 -68 q-28 -25 -73 -27 q-58 -4 -118 0 q-47 2 -73 27 q-26 25 -27 67 ZM296 572 q51 0 76 -1 q99 -3 102 -101 q2 -77 -3 -181 q-6 -124 -18 -188 q-19 -99 -80 -129 q-52 -26 -143 -2 q-14 4 -19 15 q-5 12 -3 24 q5 31 40 24 q55 -17 85 -4 q38 17 53 86 q16 70 21 181 q4 85 1 162 q-1 27 -15 41 q-14 13 -38 13 l-60 0 q-5 -167 -43 -298 q-51 -172 -157 -275 q-17 -17 -37 -12 q-19 5 -24 22 q-8 16 7 33 q103 98 148 254 q31 108 39 275 q-120 -3 -121 -3 q-15 1 -22 11 q-6 9 -5 22 q2 24 28 27 q82 2 122 3 q2 109 1 162 q0 16 12 23 q12 7 27 5 q25 -4 29 -29 q0 -79 -3 -160 Z" /><glyph glyph-name="" unicode="&#x52a1;" d="M572 473 q3 -2 16 -7 q126 -54 326 -78 q18 -2 26 -15 q7 -11 4 -26 q-7 -30 -50 -23 q-195 32 -327 89 q-31 13 -56 27 q-19 -9 -39 -18 q-157 -70 -366 -107 q-34 -6 -43 19 q-6 14 1 27 q7 13 24 16 q215 35 352 92 q6 2 12 5 q-85 55 -149 129 q-54 -47 -137 -106 q-34 -18 -51 3 q-18 25 8 48 q154 102 256 218 q22 22 46 4 q21 -17 5 -41 q-16 -18 -23 -25 q152 2 280 0 q58 0 72 -38 q10 -38 -31 -79 q-72 -66 -156 -114 ZM511 503 q95 52 162 117 q13 14 10 22 q-3 9 -22 10 q-237 0 -306 -2 q-3 -4 -7 -7 q62 -81 163 -140 ZM497 264 l219 0 q53 0 77 -20 q27 -23 22 -73 q-11 -102 -36 -159 q-33 -79 -135 -87 q-81 -7 -165 15 q-15 4 -22 16 q-7 12 -3 27 q9 29 40 22 q88 -22 132 -18 q32 2 49 10 q22 11 35 37 q20 33 32 122 q3 27 -8 39 q-11 12 -37 12 l-219 0 q-48 -120 -146 -197 q-99 -78 -228 -98 q-29 -2 -38 23 q-5 13 1 26 q7 15 23 18 q228 35 314 227 q-169 -2 -229 -3 q-13 0 -20 9 q-7 9 -6 22 q0 10 7 19 q7 9 19 9 q125 1 250 2 q13 46 17 93 q1 13 15 20 q13 7 27 6 q33 -4 29 -37 q-7 -48 -16 -82 Z" /><glyph glyph-name="" unicode="&#x52a8;" d="M450 689 q0 -13 -7 -21 q-8 -9 -23 -9 l-292 0 q-14 0 -22 10 q-8 10 -8 24 q1 26 30 29 l292 0 q14 0 23 -11 q8 -9 7 -22 ZM687 575 q58 -1 116 -1 q47 0 74 -26 q28 -27 29 -76 q3 -214 -21 -374 q-15 -112 -66 -148 q-31 -25 -81 -25 q-42 0 -76 11 q-16 4 -21 18 q-4 13 2 30 q8 30 41 18 q59 -18 88 1 q34 20 47 102 q22 147 19 358 q-1 24 -15 37 q-15 14 -39 14 q-48 -1 -97 -1 q-3 -184 -33 -311 q-34 -146 -115 -271 q-10 -15 -26 -19 q-14 -3 -27 3 q-13 7 -17 21 q-4 16 6 31 q77 112 110 246 q30 121 33 300 q-51 -1 -102 -1 q-14 1 -22 10 q-8 9 -8 20 q0 13 7 22 q8 10 23 10 q35 1 102 1 l0 172 q0 13 10 22 q10 9 22 9 q15 0 25 -7 q12 -9 12 -24 l0 -172 ZM389 77 q-121 -32 -248 -56 q-40 -8 -54 12 q-11 16 6 61 q68 175 106 316 l-109 0 q-14 0 -22 10 q-7 9 -7 22 q0 13 7 21 q8 9 22 9 l373 0 q13 0 21 -10 q7 -9 7 -22 q0 -13 -7 -21 q-8 -9 -21 -9 l-192 0 q-35 -133 -102 -307 q-3 -8 -2 -11 q1 -3 9 -2 q98 19 198 43 q-21 66 -50 148 q-9 30 17 40 q12 3 23 -1 q12 -5 19 -19 q54 -119 86 -248 q6 -37 -25 -46 q-15 -6 -27 1 q-14 7 -18 27 q-6 28 -10 42 Z" /><glyph glyph-name="" unicode="&#x52a9;" d="M686 565 l107 0 q45 0 72 -26 q28 -27 29 -74 q5 -262 -29 -379 q-55 -198 -262 -139 q-16 5 -21 19 q-6 13 -1 27 q8 27 42 20 q63 -22 104 -6 q48 19 71 93 q33 109 28 356 q-1 26 -15 38 q-14 12 -37 12 l-90 0 q0 -12 -1 -24 q-6 -186 -63 -318 q-70 -154 -212 -239 q-34 -17 -51 8 q-17 25 10 47 q134 82 193 214 q48 108 57 288 q1 12 1 24 q-63 -1 -126 -1 q-17 1 -24 12 q-7 10 -4 24 q3 21 28 24 l128 0 q2 102 -1 173 q0 16 12 23 q12 7 26 5 q27 -3 30 -30 q1 -54 -1 -171 ZM424 184 q19 8 38 16 q24 8 33 -14 q8 -22 -16 -38 q-147 -71 -383 -129 q-19 -3 -29 8 q-10 12 -9 27 q1 21 25 28 q30 6 46 9 q-3 195 0 546 q0 42 18 61 q19 20 63 22 q65 4 132 0 q41 -2 61 -22 q20 -20 20 -60 q2 -281 1 -454 ZM365 329 l0 138 l-176 0 l0 -138 l176 0 ZM365 276 l-176 0 q0 -125 1 -170 q87 23 174 54 q1 58 1 116 ZM365 519 q-1 53 -2 107 q0 20 -8 28 q-8 8 -27 10 q-40 3 -103 0 q-36 -2 -35 -39 q0 -53 -1 -106 l176 0 Z" /><glyph glyph-name="" unicode="&#x52b3;" d="M913 413 l0 -65 q0 -28 -32 -28 q-15 -1 -26 6 q-12 7 -12 21 l0 53 q0 42 -57 42 q-284 5 -562 0 q-32 0 -46 -10 q-15 -11 -15 -38 l0 -46 q0 -13 -12 -20 q-11 -7 -25 -6 q-15 -1 -23 5 q-10 7 -10 22 l0 62 q0 41 32 65 q29 22 71 22 q241 4 609 0 q49 0 77 -20 q31 -22 31 -65 ZM669 623 l0 -69 q0 -13 -11 -21 q-9 -7 -23 -7 q-14 -1 -24 6 q-11 7 -11 22 l0 69 l-203 0 l0 -69 q0 -14 -12 -22 q-10 -7 -25 -6 q-13 0 -22 7 q-11 8 -11 21 l0 69 l-220 0 q-13 0 -22 10 q-8 9 -8 21 q0 11 7 18 q9 9 23 9 l220 0 l0 70 q0 13 12 22 q10 7 24 7 q13 0 23 -7 q11 -8 11 -22 l0 -70 l203 0 l0 70 q0 14 11 22 q10 8 24 7 q14 0 23 -7 q11 -8 11 -22 l0 -70 l226 0 q28 -2 29 -28 q0 -12 -7 -21 q-7 -9 -22 -9 l-226 0 ZM504 288 q111 -1 222 -1 q52 -1 76 -21 q26 -22 22 -71 q-10 -125 -36 -183 q-33 -79 -134 -87 q-92 -8 -172 13 q-31 10 -25 43 q9 29 40 22 q83 -20 138 -15 q31 2 49 10 q23 11 35 36 q19 32 32 148 q2 27 -9 38 q-10 10 -36 10 q-138 0 -219 -1 q-29 -82 -78 -144 q-115 -143 -301 -173 q-27 -2 -38 23 q-5 14 1 27 q7 14 24 17 q164 27 258 147 q36 45 59 103 q-91 0 -237 -2 q-13 0 -20 9 q-7 9 -6 21 q0 11 7 19 q8 9 19 9 q140 2 255 2 q11 41 16 90 q1 13 14 20 q12 6 27 5 q33 -2 30 -36 q-5 -44 -13 -78 Z" /><glyph glyph-name="" unicode="&#x52bf;" d="M659 675 q18 -1 49 -1 q51 -1 75 -19 q28 -21 26 -69 q-11 -121 27 -238 q5 -13 12 -16 q7 -3 14 6 q23 39 26 97 q3 33 35 28 q30 -7 26 -38 q-9 -84 -41 -129 q-27 -36 -58 -36 q-46 0 -70 59 q-40 91 -36 250 q1 27 -11 38 q-11 10 -39 11 q-26 0 -40 1 q-12 -73 -43 -127 q70 -51 96 -84 q18 -25 -3 -45 q-24 -21 -47 1 q-33 39 -81 76 q-50 -60 -133 -111 q-31 -19 -53 -2 q-10 10 -10 22 q0 15 12 23 q98 62 135 103 q-28 18 -53 32 q-23 14 -7 37 q13 21 40 10 q18 -8 55 -30 q21 40 28 95 q-52 -1 -105 -1 q-28 3 -30 25 q0 11 7 20 q8 10 23 11 q30 1 109 1 l0 16 l0 60 q0 12 10 20 q10 8 22 8 q14 0 23 -7 q10 -7 10 -21 l0 -56 l0 -20 ZM515 228 l6 0 q93 -1 186 -1 q52 0 78 -25 q27 -26 20 -77 q-9 -72 -50 -135 q-40 -61 -123 -68 q-68 -5 -157 26 q-30 13 -19 45 q7 27 40 18 q75 -24 115 -26 q57 -2 88 39 q29 40 36 96 q4 27 -7 39 q-11 12 -38 12 l-190 0 q-35 -104 -117 -167 q-94 -73 -257 -96 q-30 -1 -38 26 q-4 12 2 23 q7 12 23 15 q159 24 234 85 q54 43 82 113 q-122 -2 -245 -4 q-14 0 -21 9 q-7 9 -6 22 q0 9 7 18 q8 10 20 10 q14 0 263 3 q6 27 9 59 q1 13 14 20 q11 6 25 5 q33 -2 28 -36 q-2 -19 -8 -48 ZM305 468 l0 -91 q0 -61 -43 -86 q-41 -27 -125 -11 q-29 8 -27 32 q0 14 9 23 q10 10 24 7 q50 -7 69 -3 q31 6 31 46 l0 69 q-71 -13 -142 -21 q-32 0 -36 27 q-1 13 6 21 q8 10 21 11 q78 8 151 21 l0 93 l-132 0 q-12 0 -20 10 q-7 9 -7 19 q0 22 27 25 l132 0 l0 89 q4 30 31 31 q27 1 31 -31 l0 -89 l106 0 q12 0 19 -8 q6 -7 6 -19 q0 -27 -25 -27 l-106 0 l0 -81 q51 10 96 24 q22 7 31 -15 q5 -12 0 -22 q-5 -11 -20 -16 q-45 -15 -107 -28 Z" /><glyph glyph-name="" unicode="&#x52c3;" d="M718 564 l84 0 q44 0 71 -27 q26 -26 27 -71 q2 -143 -1 -202 q-6 -112 -31 -185 q-62 -178 -233 -121 q-14 5 -20 16 q-6 12 -3 24 q6 31 43 23 q56 -19 88 -5 q38 16 61 79 q37 105 32 361 q-1 25 -15 38 q-13 12 -36 12 q-19 1 -66 1 l-2 0 q-3 -183 -55 -319 q-65 -164 -198 -254 q-34 -18 -51 6 q-15 23 10 45 q127 87 183 234 q43 115 47 287 q-49 -1 -98 -1 q-17 1 -24 12 q-7 10 -4 23 q3 22 28 24 l98 0 q0 86 0 173 q1 16 12 24 q12 7 26 5 q26 -2 29 -29 l-2 -173 ZM384 167 q14 -59 0 -129 q-12 -65 -67 -94 q-58 -31 -139 -6 q-27 11 -24 35 q6 31 38 24 q47 -17 82 -6 q38 12 49 57 q13 56 3 110 q-122 -18 -220 -27 q-37 2 -34 33 q2 22 29 26 q80 4 205 20 q-18 28 -47 39 q-23 12 -12 34 q12 24 45 12 q7 -3 19 -11 q42 28 68 59 q8 10 5 14 q-2 3 -15 3 q-86 0 -194 -3 q-14 0 -20 8 q-6 8 -5 19 q2 20 25 23 q150 2 222 0 q44 -1 56 -25 q12 -23 -11 -52 q-31 -37 -95 -80 q11 -13 20 -32 q87 13 131 23 q28 1 30 -25 q1 -20 -23 -27 q-68 -13 -121 -22 ZM340 668 l163 1 q28 -3 28 -27 q0 -24 -28 -27 l-164 1 l0 -81 q47 0 111 -2 q36 -1 57 -17 q23 -18 24 -53 q1 -34 0 -63 q-1 -15 -13 -21 q-11 -6 -24 -4 q-20 4 -22 23 q2 24 0 49 q-1 22 -12 30 q-10 7 -37 8 q-120 2 -233 0 q-29 -1 -38 -9 q-8 -7 -9 -26 q0 -27 0 -54 q0 -14 -11 -20 q-11 -6 -25 -4 q-21 2 -24 24 q-1 35 0 71 q2 66 84 66 q54 1 108 2 l0 81 l-161 -1 q-29 3 -29 27 q0 24 29 27 l160 -1 l0 79 q1 16 12 24 q11 7 25 6 q26 -3 29 -30 l0 -79 Z" /><glyph glyph-name="" unicode="&#x52cb;" d="M415 590 q2 45 0 71 q-1 35 -43 36 q-89 3 -149 0 q-38 -3 -41 -38 q-3 -36 0 -71 q1 -35 44 -37 q86 -3 144 0 q44 3 45 39 ZM500 130 q-1 -14 -10 -22 q-8 -7 -20 -7 q-33 0 -33 29 q3 100 0 200 q0 24 -13 34 q-12 9 -37 10 q-90 4 -179 0 q-24 -1 -35 -10 q-12 -10 -13 -34 q-2 -100 0 -199 q1 -14 -10 -23 q-9 -7 -22 -7 q-13 0 -21 7 q-9 8 -9 23 q-2 68 0 209 q1 43 30 68 q27 23 71 25 q102 2 203 0 q96 -4 98 -88 q3 -108 0 -215 ZM478 576 q-2 -38 -21 -57 q-21 -20 -65 -23 q-92 -5 -185 0 q-41 2 -62 20 q-23 19 -26 59 q-3 50 0 97 q3 37 26 58 q22 20 59 22 q110 5 191 0 q39 -2 60 -22 q21 -20 23 -56 q3 -49 0 -98 ZM708 571 q50 -1 99 -1 q46 0 73 -26 q27 -26 27 -75 q3 -230 -18 -371 q-15 -112 -65 -148 q-30 -25 -78 -25 q-37 0 -70 11 q-16 4 -21 18 q-5 13 1 30 q10 29 41 18 q53 -17 82 0 q35 20 47 103 q21 139 16 354 q0 24 -14 37 q-15 14 -38 14 q-41 -1 -83 -1 q-3 -178 -29 -307 q-28 -140 -92 -269 q-8 -15 -23 -20 q-14 -4 -26 1 q-29 15 -13 52 q117 217 117 542 l-97 0 q-14 1 -21 10 q-7 9 -7 21 q0 12 7 21 q8 10 21 10 q33 1 98 1 l0 176 q0 13 9 22 q9 9 22 9 q15 0 24 -7 q11 -8 11 -24 l0 -176 ZM309 105 q11 2 22 -6 q68 -43 150 -112 q11 -11 9 -27 q-2 -15 -12 -23 q-22 -17 -48 6 q-65 63 -138 116 q-2 1 -4 3 q-57 -97 -192 -149 q-29 -7 -41 16 q-12 29 21 43 q95 42 139 97 q50 63 50 163 l0 64 q0 14 10 22 q9 7 23 7 q13 0 22 -7 q10 -8 10 -22 l0 -65 q0 -71 -21 -126 Z" /></font>
</defs>
</svg>
