<?xml version="1.0" standalone="no"?>
<!DOCTYPE svg PUBLIC "-//W3C//DTD SVG 20010904//EN"
 "http://www.w3.org/TR/2001/REC-SVG-20010904/DTD/svg10.dtd">
<svg version="1.0" xmlns="http://www.w3.org/2000/svg"
 width="708.000000pt" height="708.000000pt" viewBox="0 0 708.000000 708.000000"
 preserveAspectRatio="xMidYMid meet">
<metadata>
Created by potrace 1.14, written by Peter Selinger 2001-2017
</metadata>
<g transform="translate(0.000000,708.000000) scale(0.100000,-0.100000)"
fill="#000000" stroke="none">
<path d="M3467 7001 c-15 -11 -18 -11 -12 -1 6 10 2 11 -20 6 -15 -4 -41 -10
-57 -13 -22 -4 -26 -8 -16 -15 8 -5 3 -6 -14 -2 -16 3 -28 2 -28 -3 0 -5 -14
-8 -30 -7 -27 2 -29 0 -18 -14 11 -13 11 -14 0 -8 -7 4 -21 4 -30 0 -9 -4 -26
-9 -37 -11 -11 -2 -33 -13 -48 -24 -18 -13 -35 -18 -49 -13 -17 5 -20 3 -14
-11 5 -15 4 -16 -9 -5 -11 9 -15 9 -15 1 0 -7 -4 -10 -9 -7 -5 3 -30 -11 -57
-31 -54 -41 -78 -63 -70 -63 3 0 -3 -9 -14 -20 -11 -11 -22 -20 -25 -20 -3 0
-34 -29 -70 -64 -35 -35 -67 -61 -71 -57 -4 3 -4 1 -1 -5 3 -6 -5 -22 -19 -37
-13 -14 -24 -30 -24 -35 0 -5 -7 -15 -15 -22 -8 -7 -12 -16 -9 -21 3 -5 -2 -9
-10 -9 -9 0 -16 -7 -16 -15 0 -9 -6 -12 -15 -8 -9 3 -15 2 -14 -3 4 -22 -2
-35 -13 -28 -7 4 -8 3 -4 -4 8 -14 -17 -55 -27 -45 -4 3 -7 1 -7 -5 0 -19 -3
-26 -17 -40 -7 -8 -11 -18 -8 -23 4 -5 2 -9 -4 -9 -5 0 -12 6 -15 13 -4 8 -5
7 -5 -3 2 -33 -1 -51 -9 -46 -11 7 -53 -81 -58 -122 -2 -18 3 -46 11 -62 11
-21 12 -31 3 -36 -7 -5 -9 -2 -4 7 4 8 0 5 -8 -5 -9 -12 -12 -24 -7 -29 5 -5
0 -26 -12 -50 -12 -23 -22 -44 -22 -47 -1 -3 -7 -17 -12 -31 -6 -14 -14 -40
-16 -58 -4 -26 -2 -31 9 -27 12 4 12 2 4 -14 -7 -14 -8 -32 -1 -54 5 -19 6
-37 3 -40 -3 -3 0 -6 7 -6 8 0 11 7 7 15 -3 9 0 15 8 15 15 0 16 -16 3 -37 -5
-8 -1 -11 13 -8 11 2 20 0 20 -6 0 -5 -7 -9 -16 -9 -12 0 -14 -3 -6 -13 6 -7
9 -27 7 -45 -2 -17 1 -34 6 -38 7 -4 6 -10 -1 -19 -8 -9 -8 -15 0 -20 6 -3 8
-11 4 -16 -3 -6 3 -13 15 -16 11 -3 18 -9 15 -14 -3 -5 -10 -6 -16 -3 -7 4 -8
2 -4 -4 4 -7 14 -12 22 -12 8 0 17 -6 20 -14 3 -8 17 -22 31 -31 17 -12 23
-13 18 -4 -5 8 1 6 13 -4 11 -11 26 -16 31 -12 19 11 33 -5 19 -23 -10 -12
-10 -14 0 -8 6 4 12 2 12 -3 0 -6 -4 -12 -10 -12 -5 -1 -16 -2 -22 -3 -7 -1
-12 -7 -10 -14 1 -7 -2 -12 -6 -12 -5 0 -7 -24 -5 -52 2 -29 4 -61 4 -70 0
-10 4 -18 9 -18 4 0 8 -12 9 -27 0 -16 0 -38 1 -50 0 -13 5 -23 10 -23 6 0 10
-5 10 -11 0 -6 7 -17 16 -26 8 -9 13 -22 10 -30 -4 -9 -2 -11 6 -7 8 5 9 2 5
-10 -4 -10 -1 -19 9 -23 13 -5 13 -7 2 -14 -10 -7 -10 -9 0 -9 6 0 12 -7 12
-15 0 -8 5 -15 11 -15 5 0 7 -5 4 -10 -3 -6 1 -13 9 -16 9 -3 16 -12 16 -19 0
-8 9 -17 20 -20 11 -3 20 -13 20 -21 0 -8 5 -14 11 -14 5 0 7 -5 4 -10 -4 -6
-3 -10 2 -9 23 4 35 -2 29 -17 -4 -9 -2 -13 5 -8 6 4 15 0 20 -7 7 -11 9 -10
9 5 0 18 1 18 18 3 15 -13 21 -14 32 -4 10 10 11 9 5 -2 -5 -9 -3 -12 6 -9 8
3 23 -2 33 -11 11 -9 16 -11 12 -3 -7 11 -4 11 13 0 17 -11 25 -10 43 1 21 13
22 13 9 -2 -11 -14 -11 -17 0 -18 8 -1 17 -1 22 0 4 0 7 -2 7 -6 0 -5 11 -21
25 -37 26 -31 31 -41 15 -31 -17 11 3 -29 22 -43 10 -7 18 -24 18 -38 0 -14 4
-22 10 -19 6 3 10 1 10 -6 0 -6 8 -18 18 -26 11 -10 12 -12 2 -8 -10 4 -9 2 3
-8 9 -8 17 -25 17 -39 0 -14 3 -28 7 -32 11 -10 12 -37 2 -30 -8 4 -13 -28 -6
-41 1 -2 -8 -12 -20 -20 -13 -9 -23 -21 -23 -27 0 -6 -12 -21 -27 -34 -19 -16
-31 -20 -43 -14 -11 6 -21 5 -28 -2 -6 -6 -16 -7 -24 -2 -17 11 -48 11 -70 2
-9 -5 -19 -4 -22 1 -3 4 -29 5 -58 0 -29 -4 -69 -10 -88 -12 -72 -10 -100 -19
-93 -31 4 -7 2 -7 -7 1 -9 8 -20 9 -37 2 -14 -5 -28 -7 -33 -4 -4 3 -10 -2
-14 -10 -3 -8 -12 -12 -20 -9 -8 3 -17 0 -21 -5 -3 -6 -11 -9 -16 -6 -5 4 -9
1 -9 -4 0 -6 -3 -10 -7 -9 -13 2 -87 -33 -95 -46 -4 -6 -8 -7 -8 -3 0 5 -14
-1 -30 -13 -17 -12 -38 -23 -46 -24 -8 -1 -24 -10 -35 -19 -10 -9 -24 -17 -29
-17 -6 0 -10 -3 -10 -8 0 -4 -8 -12 -19 -17 -10 -6 -47 -32 -82 -58 -82 -61
-271 -186 -284 -188 -5 0 -14 -7 -18 -15 -4 -8 -12 -14 -17 -14 -6 0 -18 -7
-27 -14 -10 -8 -41 -32 -70 -53 -70 -52 -197 -167 -327 -295 -59 -60 -112
-108 -118 -108 -5 0 -7 -4 -4 -8 5 -9 -86 -72 -103 -72 -6 0 -11 -4 -11 -10 0
-5 -3 -9 -7 -8 -14 4 -82 -25 -77 -33 2 -4 -8 -12 -24 -17 -15 -5 -37 -19 -49
-31 -13 -12 -25 -20 -27 -19 -2 2 -18 -9 -34 -24 -17 -14 -33 -24 -36 -21 -3
4 -6 2 -6 -4 0 -5 -14 -24 -30 -41 -17 -18 -30 -34 -30 -36 0 -2 -12 -25 -27
-52 -48 -85 -64 -145 -79 -299 -16 -157 -16 -158 -27 -215 -4 -19 -9 -49 -11
-67 -2 -18 -9 -47 -14 -65 -15 -48 -21 -97 -27 -238 -3 -69 -8 -154 -11 -190
-3 -36 -6 -71 -7 -77 0 -7 -4 -13 -8 -13 -15 0 -31 -103 -26 -160 7 -72 31
-120 91 -184 25 -26 48 -57 51 -67 4 -10 11 -19 16 -19 5 0 9 -6 9 -14 0 -8 4
-16 8 -18 5 -2 21 -28 35 -58 33 -69 60 -114 70 -118 4 -2 7 -9 7 -15 0 -7 18
-42 39 -79 21 -37 36 -69 33 -72 -3 -3 0 -6 6 -6 7 0 11 -3 10 -7 -1 -5 14
-36 35 -71 20 -35 37 -67 37 -73 0 -5 4 -9 8 -9 4 0 16 -14 26 -30 10 -17 35
-49 57 -72 21 -23 39 -45 39 -50 0 -4 4 -8 10 -8 9 0 43 -25 79 -60 21 -20
141 -66 216 -83 33 -7 107 -15 165 -16 114 -3 127 -6 109 -27 -6 -8 -8 -14 -5
-14 4 0 0 -7 -8 -16 -9 -8 -14 -19 -11 -24 3 -5 1 -11 -5 -15 -15 -9 -51 -96
-56 -134 -3 -19 -7 -39 -11 -44 -4 -6 -8 -24 -10 -40 -2 -15 -7 -36 -11 -45
-5 -9 -8 -24 -7 -32 0 -8 -2 -17 -6 -20 -4 -3 -9 -16 -10 -30 l-4 -25 353 -3
c307 -2 353 0 358 13 4 8 10 15 16 15 5 0 6 -5 3 -10 -3 -6 -1 -10 4 -10 6 0
11 9 11 20 0 11 0 23 0 28 1 16 64 71 101 87 21 10 39 21 39 25 0 4 11 6 25 5
14 -2 25 1 25 7 0 6 12 8 28 5 17 -3 34 1 46 11 11 10 16 11 12 5 -4 -8 -1
-13 8 -13 9 0 16 4 16 8 0 5 7 9 15 9 8 0 15 -4 15 -9 0 -5 5 -6 10 -3 6 4 8
10 5 15 -3 4 5 6 17 2 14 -3 19 -2 14 6 -4 7 -2 12 3 12 6 0 11 -8 11 -17 0
-15 2 -16 10 -3 7 11 10 11 10 2 0 -7 4 -11 8 -8 4 2 14 1 22 -5 13 -7 13 -9
0 -9 -12 -1 -12 -3 2 -11 11 -6 15 -16 11 -26 -4 -11 -2 -14 5 -9 6 4 17 -2
24 -14 9 -14 23 -20 51 -20 28 0 36 3 31 13 -5 8 -2 8 9 -2 15 -12 21 -9 19 9
0 3 15 4 35 2 23 -3 38 0 44 9 8 12 11 12 19 -1 7 -11 10 -11 10 -2 0 7 5 10
10 7 6 -3 10 -2 10 3 0 5 16 8 36 7 20 0 38 4 41 10 2 7 14 11 26 10 12 -1 24
1 27 5 3 5 19 10 35 11 17 2 33 8 37 14 5 6 8 6 8 -1 0 -7 17 -12 40 -12 22 0
44 -4 50 -7 5 -3 10 -2 10 4 0 6 7 7 17 4 12 -5 14 -3 8 8 -8 12 -6 12 8 0 15
-12 20 -12 33 5 9 10 12 13 8 5 -6 -11 -3 -13 12 -7 10 5 24 9 31 9 7 0 9 5 6
10 -4 6 0 8 10 4 10 -3 17 -3 17 2 0 18 40 53 55 47 8 -3 15 0 15 6 0 6 3 9 6
5 3 -3 29 1 57 10 45 13 68 19 112 27 6 1 15 4 20 8 6 3 28 9 50 13 22 4 44
10 50 13 5 3 18 7 30 8 11 1 49 10 85 19 36 9 72 19 80 21 76 19 90 21 90 17
0 -3 6 -1 13 5 6 5 29 13 49 16 21 3 69 15 108 25 39 11 74 20 78 21 4 0 25 5
47 11 22 6 47 13 55 15 8 2 59 15 112 29 53 14 109 26 124 27 14 2 29 8 31 16
4 9 9 10 18 2 10 -8 16 -7 24 7 8 14 10 15 11 3 0 -13 1 -13 10 0 5 8 12 11
16 8 4 -4 15 4 26 18 17 21 18 27 6 41 -11 14 -11 16 2 9 13 -6 13 -6 0 6 -22
19 -21 66 1 73 10 4 23 4 28 1 5 -4 11 -2 13 4 3 9 48 18 106 22 6 1 12 5 12
9 0 5 7 6 15 3 8 -4 15 -1 15 6 0 7 7 10 15 7 8 -4 17 -2 20 3 9 15 27 12 20
-2 -4 -7 -1 -6 7 2 7 9 23 15 36 14 12 -1 22 3 22 9 0 6 3 7 6 4 4 -3 15 -2
25 4 14 7 19 6 19 -3 0 -10 2 -10 9 1 5 7 14 10 20 7 6 -4 11 -3 11 1 0 5 12
10 27 11 15 1 29 6 32 10 3 4 13 7 21 7 8 -1 24 2 34 5 12 4 26 0 38 -12 19
-19 24 -33 8 -23 -5 3 -10 2 -10 -4 0 -5 6 -12 13 -14 9 -4 9 -6 0 -6 -13 -1
29 -51 43 -51 5 0 2 5 -6 10 -9 6 -10 10 -3 10 6 0 15 -5 18 -10 5 -8 11 -8
20 0 10 8 14 7 17 -2 4 -11 8 -10 21 0 9 8 22 10 28 6 8 -5 10 -2 7 8 -4 9 0
15 8 15 8 0 14 -7 15 -16 0 -11 2 -12 6 -3 2 6 9 10 14 6 5 -3 8 0 7 7 -2 6 3
14 11 17 9 3 11 0 6 -8 -6 -9 -4 -11 4 -6 7 5 10 14 7 21 -2 7 1 18 7 24 9 9
8 11 -3 6 -11 -4 -16 1 -16 15 0 11 4 20 9 20 4 0 5 5 2 10 -3 6 1 10 9 10 9
0 16 5 16 10 0 13 32 9 42 -5 5 -6 8 -5 8 3 0 21 79 -23 136 -75 13 -12 24
-20 24 -17 0 3 12 -6 26 -18 14 -13 36 -32 48 -44 27 -24 64 -22 86 5 8 10 25
24 38 30 13 7 20 17 16 24 -5 9 -3 8 7 0 19 -19 29 -16 29 8 0 15 4 19 16 15
12 -5 15 -2 10 10 -4 9 -1 24 6 32 11 13 11 14 -2 7 -8 -4 -5 2 8 14 12 12 20
26 17 32 -4 5 -2 9 4 9 10 0 9 19 -3 38 -4 7 -4 11 1 10 4 -2 9 1 10 6 1 5 7
13 15 17 11 7 10 9 -1 9 -11 0 -9 5 5 22 12 13 13 18 4 13 -13 -7 -13 -6 -2 7
10 13 9 18 -4 29 -14 12 -14 14 2 26 10 8 13 13 5 13 -7 0 -9 5 -6 10 3 6 1
10 -6 10 -7 0 -4 7 7 16 10 8 14 13 8 10 -24 -12 -12 42 12 54 13 7 21 16 19
20 -3 5 2 11 11 14 8 3 12 10 9 16 -3 5 -2 10 3 10 10 0 2 61 -17 128 -6 23
-10 69 -8 102 2 33 1 60 -3 60 -3 0 -7 10 -8 23 -1 12 -4 39 -6 59 -3 29 2 44
20 65 37 43 39 45 58 93 12 29 18 69 18 115 -1 104 -18 432 -26 497 -2 16 0
28 4 28 3 0 5 41 4 91 -3 91 -18 159 -35 159 -5 0 -8 3 -7 8 3 15 -15 42 -27
42 -7 0 -15 5 -17 10 -2 6 -30 18 -63 26 -57 15 -212 91 -246 120 -9 8 -19 11
-22 7 -4 -3 -7 -1 -7 5 0 7 -4 12 -10 12 -14 0 -50 33 -50 46 0 6 -9 19 -20
29 -11 10 -20 15 -20 11 0 -4 -11 5 -25 20 -14 15 -25 23 -25 19 0 -4 -8 -1
-17 8 -10 8 -21 16 -26 16 -24 -1 -71 16 -120 41 -30 16 -58 26 -61 23 -3 -4
-6 -1 -6 6 0 7 -4 9 -10 6 -5 -3 -10 -2 -10 4 0 5 -8 12 -18 15 -9 3 -22 18
-29 33 -39 88 -47 109 -45 116 1 4 -3 7 -10 7 -6 0 -9 3 -5 6 3 4 0 19 -8 35
-8 15 -16 36 -18 46 -2 10 -8 27 -14 38 -10 18 -28 92 -25 105 0 3 -7 14 -17
25 -10 11 -22 30 -26 43 -3 12 -10 20 -15 17 -5 -3 -14 4 -21 17 -15 28 -131
139 -144 138 -3 0 -30 15 -60 35 -31 19 -60 35 -65 35 -6 0 -10 5 -10 10 0 6
-7 10 -15 10 -8 0 -23 4 -33 10 -16 9 -66 30 -84 35 -5 2 -10 4 -13 5 -3 1 -8
3 -12 4 -36 8 -214 73 -260 95 -32 15 -71 32 -88 36 -16 5 -32 9 -35 10 -49
14 -96 26 -145 36 -74 15 -97 33 -88 68 3 14 10 32 16 39 5 6 6 12 2 12 -5 0
2 8 13 19 12 10 19 21 16 24 -3 3 4 8 15 12 12 3 19 10 16 14 -2 5 7 13 21 20
14 6 23 14 21 19 -3 4 6 21 19 37 13 17 24 25 24 19 0 -6 7 -11 15 -11 8 0 12
4 9 9 -3 4 3 8 12 8 10 0 15 3 11 6 -3 3 3 22 14 41 11 20 14 31 7 27 -10 -6
-11 -4 0 7 6 7 12 23 12 36 0 13 4 23 8 23 5 0 9 14 10 30 3 58 5 65 16 79 9
12 8 13 -3 6 -11 -6 -11 -3 2 15 11 16 13 29 6 47 -6 18 -6 22 3 17 7 -5 9 -2
6 7 -8 20 11 42 47 57 31 13 125 72 114 72 -3 0 14 20 38 45 24 25 41 50 38
54 -3 5 2 12 11 15 9 4 14 9 12 12 -3 3 2 22 12 42 10 20 14 39 10 42 -5 3 -2
14 6 24 8 11 14 17 14 13 0 -4 9 -3 20 3 15 8 20 21 20 48 0 41 -8 59 -30 64
-8 2 -22 26 -32 53 -10 28 -25 55 -33 61 -16 12 -20 25 -7 22 4 -1 21 6 39 15
40 21 84 86 107 155 20 63 28 201 12 221 -8 11 -8 13 0 8 7 -4 11 4 10 23 -1
17 -4 30 -8 30 -3 0 -4 9 -1 20 3 11 1 20 -4 20 -5 0 -7 16 -5 35 3 22 0 35
-7 35 -7 0 -10 4 -7 9 8 12 -19 33 -29 23 -5 -4 -5 -2 -2 5 4 6 17 9 30 7 l22
-5 -22 10 c-15 7 -23 19 -23 36 0 17 -5 25 -17 25 -15 0 -14 2 3 16 10 8 13
13 7 9 -7 -3 -13 -1 -13 5 0 6 -4 9 -8 6 -4 -2 -9 9 -10 26 -1 16 -14 45 -28
64 -16 20 -23 38 -18 46 5 8 1 8 -11 -2 -13 -11 -17 -11 -11 -2 8 13 -5 48
-29 80 -27 37 -99 107 -107 104 -5 -1 -7 2 -3 7 3 6 -6 18 -20 27 -13 9 -22
20 -19 25 3 5 1 9 -3 9 -5 0 -32 23 -61 50 -29 28 -58 47 -64 44 -6 -4 -8 -3
-5 3 6 9 -26 43 -40 43 -3 0 -22 17 -41 38 -19 20 -31 30 -27 22 4 -8 -5 0
-20 18 -15 18 -33 31 -41 28 -9 -3 -11 0 -7 12 3 9 3 14 -2 10 -4 -4 -21 6
-37 22 -15 17 -35 30 -44 30 -9 0 -30 10 -47 22 -17 12 -27 16 -22 9 4 -8 -6
-3 -24 10 -17 12 -31 27 -31 31 0 5 -5 6 -10 3 -6 -3 -13 1 -16 9 -3 9 -10 14
-14 11 -5 -3 -12 0 -17 7 -15 25 -165 88 -223 94 -19 2 -50 6 -67 9 -32 4 -46
-8 -20 -18 8 -4 9 -6 0 -6 -6 -1 -18 6 -26 14 -8 8 -17 11 -21 8 -3 -4 -30 -7
-59 -8 -29 0 -59 -5 -66 -10 -10 -5 -12 -4 -7 3 4 7 2 13 -3 13 -6 1 -17 2
-23 3 -7 1 -16 -5 -20 -14 -6 -13 -7 -12 -7 2 -1 20 -34 20 -64 -1z m-1040
-1151 c-1 -11 -5 -20 -9 -20 -10 0 -10 4 -2 24 8 22 13 20 11 -4z m0 -75 c0
-8 -4 -12 -9 -9 -5 3 -6 10 -3 15 9 13 12 11 12 -6z m2403 -413 c0 -5 -7 -9
-15 -9 -8 0 -12 4 -9 9 3 4 9 8 15 8 5 0 9 -4 9 -8z m20 -62 c0 -5 -5 -10 -11
-10 -5 0 -7 5 -4 10 3 6 8 10 11 10 2 0 4 -4 4 -10z m60 -81 c0 -5 -5 -9 -12
-9 -6 0 -8 3 -5 7 4 3 1 13 -6 22 -11 14 -10 14 6 2 9 -7 17 -17 17 -22z"/>
<path d="M2559 6393 c-13 -16 -12 -17 4 -4 16 13 21 21 13 21 -2 0 -10 -8 -17
-17z"/>
<path d="M4957 623 c-4 -3 -7 -11 -7 -17 0 -6 5 -5 12 2 6 6 9 14 7 17 -3 3
-9 2 -12 -2z"/>
</g>
</svg>
